solid Dome Wall Support - Joiner
facet normal -6.499731241094333e-16 -3.759955310063862e-16 -1.0
  outer loop
    vertex 38.888170634872324 149.00000000000009 93.15165430507083
    vertex 22.533813182559502 120.00000000000007 93.15165430507086
    vertex 22.533813182559502 149.00000000000009 93.15165430507086
  endloop
endfacet
facet normal -6.499731241094333e-16 -3.759955310063862e-16 -1.0
  outer loop
    vertex 22.533813182559502 120.00000000000007 93.15165430507086
    vertex 38.888170634872324 149.00000000000009 93.15165430507083
    vertex 38.888170634872324 120.00000000000007 93.15165430507086
  endloop
endfacet
facet normal 6.499731241094333e-16 3.759955310063862e-16 1.0
  outer loop
    vertex 38.888170634872324 120.00000000000007 95.16155511921463
    vertex 22.533813182559502 149.00000000000009 95.16155511921463
    vertex 22.533813182559502 120.00000000000007 95.16155511921463
  endloop
endfacet
facet normal 6.499731241094333e-16 3.759955310063862e-16 1.0
  outer loop
    vertex 22.533813182559502 149.00000000000009 95.16155511921463
    vertex 38.888170634872324 120.00000000000007 95.16155511921463
    vertex 38.888170634872324 149.00000000000009 95.1615551192146
  endloop
endfacet
facet normal -1.0 0.0 6.499731241094333e-16
  outer loop
    vertex 22.533813182559502 149.00000000000009 95.16155511921463
    vertex 22.533813182559502 120.00000000000007 93.15165430507086
    vertex 22.533813182559502 120.00000000000007 95.16155511921463
  endloop
endfacet
facet normal -1.0 0.0 6.499731241094333e-16
  outer loop
    vertex 22.533813182559502 120.00000000000007 93.15165430507086
    vertex 22.533813182559502 149.00000000000009 95.16155511921463
    vertex 22.533813182559502 149.00000000000009 93.15165430507086
  endloop
endfacet
facet normal 0.0 -1.0 3.759955310063862e-16
  outer loop
    vertex 38.888170634872324 120.00000000000007 95.16155511921463
    vertex 22.533813182559502 120.00000000000007 93.15165430507086
    vertex 38.888170634872324 120.00000000000007 93.15165430507086
  endloop
endfacet
facet normal 0.0 -1.0 3.759955310063862e-16
  outer loop
    vertex 22.533813182559502 120.00000000000007 93.15165430507086
    vertex 38.888170634872324 120.00000000000007 95.16155511921463
    vertex 22.533813182559502 120.00000000000007 95.16155511921463
  endloop
endfacet
facet normal 1.0 -4.887739798788122e-31 -6.499731241094333e-16
  outer loop
    vertex 38.888170634872324 149.00000000000009 93.15165430507083
    vertex 38.888170634872324 120.00000000000007 95.16155511921463
    vertex 38.888170634872324 120.00000000000007 93.15165430507086
  endloop
endfacet
facet normal 1.0 -4.887739798788122e-31 -6.499731241094333e-16
  outer loop
    vertex 38.888170634872324 120.00000000000007 95.16155511921463
    vertex 38.888170634872324 149.00000000000009 93.15165430507083
    vertex 38.888170634872324 149.00000000000009 95.1615551192146
  endloop
endfacet
facet normal -4.887739798788123e-31 1.0 -3.759955310063862e-16
  outer loop
    vertex 22.533813182559502 149.00000000000009 93.15165430507086
    vertex 38.888170634872324 149.00000000000009 95.1615551192146
    vertex 38.888170634872324 149.00000000000009 93.15165430507083
  endloop
endfacet
facet normal -4.887739798788123e-31 1.0 -3.759955310063862e-16
  outer loop
    vertex 38.888170634872324 149.00000000000009 95.1615551192146
    vertex 22.533813182559502 149.00000000000009 93.15165430507086
    vertex 22.533813182559502 149.00000000000009 95.16155511921463
  endloop
endfacet
endsolid Dome Wall Support - Joiner
