solid Dome Cover - Freestanding Section
facet normal 0.8766587751508645 2.4971539093940045e-28 0.4811126603520076
  outer loop
    vertex 33.79547937175085 100.00000000000001 18.16270451542741
    vertex 31.338074721062455 96.75000000000004 22.64046103413195
    vertex 33.79547937175089 96.74999999999999 18.16270451542723
  endloop
endfacet
facet normal 0.8766587751508645 2.4971539093940045e-28 0.4811126603520076
  outer loop
    vertex 31.338074721062455 96.75000000000004 22.64046103413195
    vertex 33.79547937175085 100.00000000000001 18.16270451542741
    vertex 31.33807472106241 100.00000000000001 22.64046103413213
  endloop
endfacet
facet normal 4.74053965552176e-16 -1.0 -8.522080577507258e-16
  outer loop
    vertex 35.04262528571943 0.0 18.84714149994645
    vertex 33.042710172058705 2.255973186038318e-14 0.3384448807859597
    vertex 35.04262528571943 2.255973186038318e-14 0.3384448807859597
  endloop
endfacet
facet normal 4.74053965552176e-16 -1.0 -8.522080577507258e-16
  outer loop
    vertex 33.042710172058705 2.255973186038318e-14 0.3384448807859597
    vertex 35.04262528571943 0.0 18.84714149994645
    vertex 33.04271017205875 1.3535839116229907e-13 5.000000000000013
  endloop
endfacet
facet normal 4.74053965552176e-16 -1.0 -8.522080577507258e-16
  outer loop
    vertex 33.04271017205875 1.3535839116229907e-13 5.000000000000013
    vertex 35.04262528571943 0.0 18.84714149994645
    vertex 33.87003941096181 0.0 18.203623262649874
  endloop
endfacet
facet normal 4.74053965552176e-16 -1.0 -8.522080577507258e-16
  outer loop
    vertex 33.04271017205875 1.3535839116229907e-13 5.000000000000013
    vertex 31.042710172058573 2.255973186038318e-14 19.295443129479615
    vertex 31.042710172058673 2.1657342585967854e-14 5.000000000000002
  endloop
endfacet
facet normal 4.74053965552176e-16 -1.0 -8.522080577507258e-16
  outer loop
    vertex 31.042710172058573 2.255973186038318e-14 19.295443129479615
    vertex 33.04271017205875 1.3535839116229907e-13 5.000000000000013
    vertex 33.87003941096181 0.0 18.203623262649874
  endloop
endfacet
facet normal 4.74053965552176e-16 -1.0 -8.522080577507258e-16
  outer loop
    vertex 31.042710172058573 2.255973186038318e-14 19.295443129479615
    vertex 33.87003941096181 0.0 18.203623262649874
    vertex 31.338074721062366 2.255973186038318e-14 22.64046103413213
  endloop
endfacet
facet normal 4.74053965552176e-16 -1.0 -8.522080577507258e-16
  outer loop
    vertex 31.042710172058573 2.255973186038318e-14 19.295443129479615
    vertex 31.338074721062366 2.255973186038318e-14 22.64046103413213
    vertex 28.238416160931568 2.255973186038318e-14 24.209491749724616
  endloop
endfacet
facet normal 4.74053965552176e-16 -1.0 -8.522080577507258e-16
  outer loop
    vertex 28.238416160931568 2.255973186038318e-14 24.209491749724616
    vertex 31.338074721062366 2.255973186038318e-14 22.64046103413213
    vertex 28.927755204321127 2.255973186038318e-14 27.0324214405005
  endloop
endfacet
facet normal 4.74053965552176e-16 -1.0 -8.522080577507258e-16
  outer loop
    vertex 28.238416160931568 2.255973186038318e-14 24.209491749724616
    vertex 28.927755204321127 2.255973186038318e-14 27.0324214405005
    vertex 27.66067584119689 2.255973186038318e-14 26.229607708963215
  endloop
endfacet
facet normal 4.74053965552176e-16 -1.0 -8.522080577507258e-16
  outer loop
    vertex 6.120150226449489 2.255973186038318e-14 0.0
    vertex 3.999999999999991 2.255973186038318e-14 1.4999999999999973
    vertex 2.0000000000000004 2.255973186038318e-14 0.0
  endloop
endfacet
facet normal 4.74053965552176e-16 -1.0 -8.522080577507258e-16
  outer loop
    vertex 3.999999999999991 2.255973186038318e-14 1.4999999999999973
    vertex 6.120150226449489 2.255973186038318e-14 0.0
    vertex 6.120150226449489 2.255973186038318e-14 8.039000472443323
  endloop
endfacet
facet normal 4.74053965552176e-16 -1.0 -8.522080577507258e-16
  outer loop
    vertex 3.999999999999991 2.255973186038318e-14 1.4999999999999973
    vertex 6.120150226449489 2.255973186038318e-14 8.039000472443323
    vertex 3.999999999999991 2.255973186038318e-14 6.62666472456615
  endloop
endfacet
facet normal 4.74053965552176e-16 -1.0 -8.522080577507258e-16
  outer loop
    vertex 3.999999999999991 2.255973186038318e-14 6.62666472456615
    vertex 6.120150226449489 2.255973186038318e-14 8.039000472443323
    vertex 1.9999999999999962 2.255973186038318e-14 6.62666472456615
  endloop
endfacet
facet normal 4.74053965552176e-16 -1.0 -8.522080577507258e-16
  outer loop
    vertex 1.9999999999999962 2.255973186038318e-14 6.62666472456615
    vertex 6.120150226449489 2.255973186038318e-14 8.039000472443323
    vertex 4.579619250909943 2.255973186038318e-14 9.369657356427133
  endloop
endfacet
facet normal 4.74053965552176e-16 -1.0 -8.522080577507258e-16
  outer loop
    vertex 4.579619250909943 2.255973186038318e-14 9.369657356427133
    vertex 6.120150226449489 2.255973186038318e-14 8.039000472443323
    vertex 17.453563393949278 2.255973186038318e-14 17.40686229417091
  endloop
endfacet
facet normal 4.74053965552176e-16 -1.0 -8.522080577507258e-16
  outer loop
    vertex 4.579619250909943 2.255973186038318e-14 9.369657356427133
    vertex 17.453563393949278 2.255973186038318e-14 17.40686229417091
    vertex 16.198063765050893 2.255973186038318e-14 18.96696683434157
  endloop
endfacet
facet normal 4.74053965552176e-16 -1.0 -8.522080577507258e-16
  outer loop
    vertex 16.198063765050893 2.255973186038318e-14 18.96696683434157
    vertex 17.453563393949278 2.255973186038318e-14 17.40686229417091
    vertex 28.238416160931568 2.255973186038318e-14 24.209491749724616
  endloop
endfacet
facet normal 4.74053965552176e-16 -1.0 -8.522080577507258e-16
  outer loop
    vertex 16.198063765050893 2.255973186038318e-14 18.96696683434157
    vertex 28.238416160931568 2.255973186038318e-14 24.209491749724616
    vertex 27.66067584119689 2.255973186038318e-14 26.229607708963215
  endloop
endfacet
facet normal 4.74053965552176e-16 -1.0 -8.522080577507258e-16
  outer loop
    vertex 2.0000000000000004 2.255973186038318e-14 1.4999999999999973
    vertex 2.0000000000000004 2.255973186038318e-14 0.0
    vertex 3.999999999999991 2.255973186038318e-14 1.4999999999999973
  endloop
endfacet
facet normal 1.0 0.0 0.0
  outer loop
    vertex 35.04262528571943 2.255973186038318e-14 0.3384448807859597
    vertex 35.04262528571943 3.2500000000000053 18.84714149994645
    vertex 35.04262528571943 0.0 18.84714149994645
  endloop
endfacet
facet normal 1.0 0.0 0.0
  outer loop
    vertex 35.04262528571943 3.2500000000000053 18.84714149994645
    vertex 35.04262528571943 2.255973186038318e-14 0.3384448807859597
    vertex 35.042625285719474 100.00000000000001 0.3384448807859822
  endloop
endfacet
facet normal 1.0 0.0 0.0
  outer loop
    vertex 35.04262528571943 3.2500000000000053 18.84714149994645
    vertex 35.042625285719474 100.00000000000001 0.3384448807859822
    vertex 35.042625285719524 96.74999999999999 18.84714149994629
  endloop
endfacet
facet normal 1.0 0.0 0.0
  outer loop
    vertex 35.042625285719524 96.74999999999999 18.84714149994629
    vertex 35.042625285719474 100.00000000000001 0.3384448807859822
    vertex 35.042625285719474 100.00000000000001 18.84714149994647
  endloop
endfacet
facet normal -0.535209154358174 2.2795173173267857e-16 0.844719575416131
  outer loop
    vertex 28.927755204321127 2.255973186038318e-14 27.0324214405005
    vertex 27.660675841196937 100.00000000000001 26.229607708963215
    vertex 27.66067584119689 2.255973186038318e-14 26.229607708963215
  endloop
endfacet
facet normal -0.535209154358174 2.2795173173267857e-16 0.844719575416131
  outer loop
    vertex 27.660675841196937 100.00000000000001 26.229607708963215
    vertex 28.927755204321127 2.255973186038318e-14 27.0324214405005
    vertex 28.927755204321173 100.00000000000001 27.0324214405005
  endloop
endfacet
facet normal -0.4811126603518984 1.6398138509890754e-15 0.8766587751509243
  outer loop
    vertex 35.04262528571943 0.0 18.84714149994645
    vertex 33.87003941096181 3.2500000000000053 18.203623262649874
    vertex 33.87003941096181 0.0 18.203623262649874
  endloop
endfacet
facet normal -0.4811126603518984 1.6398138509890754e-15 0.8766587751509243
  outer loop
    vertex 33.87003941096181 3.2500000000000053 18.203623262649874
    vertex 35.04262528571943 0.0 18.84714149994645
    vertex 35.04262528571943 3.2500000000000053 18.84714149994645
  endloop
endfacet
facet normal -0.4811126603520115 1.9777186900455405e-15 0.8766587751508623
  outer loop
    vertex 32.58522063503099 3.2500000000000053 23.32489801865119
    vertex 31.338074721062455 96.75000000000004 22.64046103413195
    vertex 31.338074721062366 3.2500000000000053 22.64046103413213
  endloop
endfacet
facet normal -0.4811126603520115 1.9777186900455405e-15 0.8766587751508623
  outer loop
    vertex 31.338074721062455 96.75000000000004 22.64046103413195
    vertex 32.58522063503099 3.2500000000000053 23.32489801865119
    vertex 32.58522063503108 96.75000000000004 23.324898018650988
  endloop
endfacet
facet normal 0.6371028219147884 -1.6206821848928065e-16 -0.7707788232094948
  outer loop
    vertex 17.453563393949324 100.00000000000001 17.40686229417091
    vertex 6.120150226449489 2.255973186038318e-14 8.039000472443323
    vertex 6.120150226449489 99.99999999999989 8.039000472443323
  endloop
endfacet
facet normal 0.6371028219147884 -1.6206821848928065e-16 -0.7707788232094948
  outer loop
    vertex 6.120150226449489 2.255973186038318e-14 8.039000472443323
    vertex 17.453563393949324 100.00000000000001 17.40686229417091
    vertex 17.453563393949278 2.255973186038318e-14 17.40686229417091
  endloop
endfacet
facet normal -4.1213734351163647e-16 1.0 1.0958570427821252e-16
  outer loop
    vertex 4.000000000000025 100.00000000000001 6.626664724566162
    vertex 4.120150226449538 100.00000000000001 6.03368777204493
    vertex 4.000000000000025 100.00000000000001 1.5000000000000084
  endloop
endfacet
facet normal -4.1213734351163647e-16 1.0 1.0958570427821252e-16
  outer loop
    vertex 4.120150226449538 100.00000000000001 6.03368777204493
    vertex 4.000000000000025 100.00000000000001 6.626664724566162
    vertex 5.820499891405931 100.00000000000001 7.791318428910974
  endloop
endfacet
facet normal -4.1213734351163647e-16 1.0 1.0958570427821252e-16
  outer loop
    vertex 2.000000000000034 100.00000000000001 1.5000000000000084
    vertex 6.1201502264495335 100.00000000000001 1.127986593019159e-14
    vertex 2.000000000000034 100.00000000000001 1.127986593019159e-14
  endloop
endfacet
facet normal -4.1213734351163647e-16 1.0 1.0958570427821252e-16
  outer loop
    vertex 6.1201502264495335 100.00000000000001 1.127986593019159e-14
    vertex 2.000000000000034 100.00000000000001 1.5000000000000084
    vertex 4.000000000000025 100.00000000000001 1.5000000000000084
  endloop
endfacet
facet normal -4.1213734351163647e-16 1.0 1.0958570427821252e-16
  outer loop
    vertex 6.1201502264495335 100.00000000000001 1.127986593019159e-14
    vertex 4.000000000000025 100.00000000000001 1.5000000000000084
    vertex 6.1201502264495335 100.00000000000001 6.03368777204493
  endloop
endfacet
facet normal -4.1213734351163647e-16 1.0 1.0958570427821252e-16
  outer loop
    vertex 6.1201502264495335 100.00000000000001 6.03368777204493
    vertex 4.000000000000025 100.00000000000001 1.5000000000000084
    vertex 4.120150226449538 100.00000000000001 6.03368777204493
  endloop
endfacet
facet normal -4.1213734351163647e-16 1.0 1.0958570427821252e-16
  outer loop
    vertex 4.579619250909988 100.00000000000001 9.369657356427144
    vertex 4.000000000000025 100.00000000000001 6.626664724566162
    vertex 2.00000000000003 100.00000000000001 6.626664724566162
  endloop
endfacet
facet normal -4.1213734351163647e-16 1.0 1.0958570427821252e-16
  outer loop
    vertex 4.000000000000025 100.00000000000001 6.626664724566162
    vertex 4.579619250909988 100.00000000000001 9.369657356427144
    vertex 5.820499891405931 100.00000000000001 7.791318428910974
  endloop
endfacet
facet normal -4.1213734351163647e-16 1.0 1.0958570427821252e-16
  outer loop
    vertex 5.820499891405931 100.00000000000001 7.791318428910974
    vertex 4.579619250909988 100.00000000000001 9.369657356427144
    vertex 6.120150226449489 99.99999999999989 8.039000472443323
  endloop
endfacet
facet normal -4.1213734351163647e-16 1.0 1.0958570427821252e-16
  outer loop
    vertex 6.120150226449489 99.99999999999989 8.039000472443323
    vertex 4.579619250909988 100.00000000000001 9.369657356427144
    vertex 17.453563393949324 100.00000000000001 17.40686229417091
  endloop
endfacet
facet normal -4.1213734351163647e-16 1.0 1.0958570427821252e-16
  outer loop
    vertex 17.453563393949324 100.00000000000001 17.40686229417091
    vertex 4.579619250909988 100.00000000000001 9.369657356427144
    vertex 16.19806376505094 100.00000000000001 18.96696683434157
  endloop
endfacet
facet normal -4.1213734351163647e-16 1.0 1.0958570427821252e-16
  outer loop
    vertex 17.453563393949324 100.00000000000001 17.40686229417091
    vertex 16.19806376505094 100.00000000000001 18.96696683434157
    vertex 28.23841616093161 100.00000000000001 24.209491749724616
  endloop
endfacet
facet normal -4.1213734351163647e-16 1.0 1.0958570427821252e-16
  outer loop
    vertex 28.23841616093161 100.00000000000001 24.209491749724616
    vertex 16.19806376505094 100.00000000000001 18.96696683434157
    vertex 27.660675841196937 100.00000000000001 26.229607708963215
  endloop
endfacet
facet normal -4.1213734351163647e-16 1.0 1.0958570427821252e-16
  outer loop
    vertex 31.042710172058616 100.00000000000001 19.295443129479615
    vertex 33.04271017205875 100.00000000000001 5.000000000000013
    vertex 31.04271017205872 100.00000000000001 5.000000000000013
  endloop
endfacet
facet normal -4.1213734351163647e-16 1.0 1.0958570427821252e-16
  outer loop
    vertex 33.04271017205875 100.00000000000001 5.000000000000013
    vertex 31.042710172058616 100.00000000000001 19.295443129479615
    vertex 33.79547937175085 100.00000000000001 18.16270451542741
  endloop
endfacet
facet normal -4.1213734351163647e-16 1.0 1.0958570427821252e-16
  outer loop
    vertex 33.79547937175085 100.00000000000001 18.16270451542741
    vertex 31.042710172058616 100.00000000000001 19.295443129479615
    vertex 31.33807472106241 100.00000000000001 22.64046103413213
  endloop
endfacet
facet normal -4.1213734351163647e-16 1.0 1.0958570427821252e-16
  outer loop
    vertex 31.33807472106241 100.00000000000001 22.64046103413213
    vertex 31.042710172058616 100.00000000000001 19.295443129479615
    vertex 28.23841616093161 100.00000000000001 24.209491749724616
  endloop
endfacet
facet normal -4.1213734351163647e-16 1.0 1.0958570427821252e-16
  outer loop
    vertex 31.33807472106241 100.00000000000001 22.64046103413213
    vertex 28.23841616093161 100.00000000000001 24.209491749724616
    vertex 28.927755204321173 100.00000000000001 27.0324214405005
  endloop
endfacet
facet normal -4.1213734351163647e-16 1.0 1.0958570427821252e-16
  outer loop
    vertex 28.927755204321173 100.00000000000001 27.0324214405005
    vertex 28.23841616093161 100.00000000000001 24.209491749724616
    vertex 27.660675841196937 100.00000000000001 26.229607708963215
  endloop
endfacet
facet normal -4.1213734351163647e-16 1.0 1.0958570427821252e-16
  outer loop
    vertex 33.04271017205875 100.00000000000001 5.000000000000013
    vertex 35.042625285719474 100.00000000000001 0.3384448807859822
    vertex 33.04271017205875 100.00000000000001 0.3384448807859822
  endloop
endfacet
facet normal -4.1213734351163647e-16 1.0 1.0958570427821252e-16
  outer loop
    vertex 35.042625285719474 100.00000000000001 0.3384448807859822
    vertex 33.04271017205875 100.00000000000001 5.000000000000013
    vertex 35.042625285719474 100.00000000000001 18.84714149994647
  endloop
endfacet
facet normal -4.1213734351163647e-16 1.0 1.0958570427821252e-16
  outer loop
    vertex 35.042625285719474 100.00000000000001 18.84714149994647
    vertex 33.04271017205875 100.00000000000001 5.000000000000013
    vertex 33.79547937175085 100.00000000000001 18.16270451542741
  endloop
endfacet
facet normal -0.8685272731620656 2.758772739315573e-16 -0.49564137818958076
  outer loop
    vertex 28.23841616093161 100.00000000000001 24.209491749724616
    vertex 31.042710172058573 2.255973186038318e-14 19.295443129479615
    vertex 28.238416160931568 2.255973186038318e-14 24.209491749724616
  endloop
endfacet
facet normal -0.8685272731620656 2.758772739315573e-16 -0.49564137818958076
  outer loop
    vertex 31.042710172058573 2.255973186038318e-14 19.295443129479615
    vertex 28.23841616093161 100.00000000000001 24.209491749724616
    vertex 31.042710172058616 100.00000000000001 19.295443129479615
  endloop
endfacet
facet normal 0.0 0.0 -1.0
  outer loop
    vertex 33.04271017205875 100.00000000000001 0.3384448807859822
    vertex 35.04262528571943 2.255973186038318e-14 0.3384448807859597
    vertex 33.042710172058705 2.255973186038318e-14 0.3384448807859597
  endloop
endfacet
facet normal 0.0 0.0 -1.0
  outer loop
    vertex 35.04262528571943 2.255973186038318e-14 0.3384448807859597
    vertex 33.04271017205875 100.00000000000001 0.3384448807859822
    vertex 35.042625285719474 100.00000000000001 0.3384448807859822
  endloop
endfacet
facet normal -0.6368603061588247 2.590515386660358e-16 0.7709792153095233
  outer loop
    vertex 16.198063765050893 2.255973186038318e-14 18.96696683434157
    vertex 4.579619250909988 100.00000000000001 9.369657356427144
    vertex 4.579619250909943 2.255973186038318e-14 9.369657356427133
  endloop
endfacet
facet normal -0.6368603061588247 2.590515386660358e-16 0.7709792153095233
  outer loop
    vertex 4.579619250909988 100.00000000000001 9.369657356427144
    vertex 16.198063765050893 2.255973186038318e-14 18.96696683434157
    vertex 16.19806376505094 100.00000000000001 18.96696683434157
  endloop
endfacet
facet normal 0.0 0.0 1.0
  outer loop
    vertex 3.999999999999991 2.255973186038318e-14 1.4999999999999973
    vertex 2.000000000000034 100.00000000000001 1.5000000000000084
    vertex 2.0000000000000004 2.255973186038318e-14 1.4999999999999973
  endloop
endfacet
facet normal 0.0 0.0 1.0
  outer loop
    vertex 2.000000000000034 100.00000000000001 1.5000000000000084
    vertex 3.999999999999991 2.255973186038318e-14 1.4999999999999973
    vertex 4.000000000000025 100.00000000000001 1.5000000000000084
  endloop
endfacet
facet normal 0.8766587751508623 5.458572020297356e-16 0.4811126603520115
  outer loop
    vertex 35.042625285719524 96.74999999999999 18.84714149994629
    vertex 32.58522063503099 3.2500000000000053 23.32489801865119
    vertex 35.04262528571943 3.2500000000000053 18.84714149994645
  endloop
endfacet
facet normal 0.8766587751508623 5.458572020297356e-16 0.4811126603520115
  outer loop
    vertex 32.58522063503099 3.2500000000000053 23.32489801865119
    vertex 35.042625285719524 96.74999999999999 18.84714149994629
    vertex 32.58522063503108 96.75000000000004 23.324898018650988
  endloop
endfacet
facet normal 1.0624801688310068e-15 1.0 -1.935996784512464e-15
  outer loop
    vertex 31.338074721062455 96.75000000000004 22.64046103413195
    vertex 35.042625285719524 96.74999999999999 18.84714149994629
    vertex 33.79547937175089 96.74999999999999 18.16270451542723
  endloop
endfacet
facet normal 1.0624801688310068e-15 1.0 -1.935996784512464e-15
  outer loop
    vertex 35.042625285719524 96.74999999999999 18.84714149994629
    vertex 31.338074721062455 96.75000000000004 22.64046103413195
    vertex 32.58522063503108 96.75000000000004 23.324898018650988
  endloop
endfacet
facet normal -0.4811126603519083 2.2083812304042443e-15 0.8766587751509188
  outer loop
    vertex 33.79547937175089 96.74999999999999 18.16270451542723
    vertex 35.042625285719474 100.00000000000001 18.84714149994647
    vertex 33.79547937175085 100.00000000000001 18.16270451542741
  endloop
endfacet
facet normal -0.4811126603519083 2.2083812304042443e-15 0.8766587751509188
  outer loop
    vertex 35.042625285719474 100.00000000000001 18.84714149994647
    vertex 33.79547937175089 96.74999999999999 18.16270451542723
    vertex 35.042625285719524 96.74999999999999 18.84714149994629
  endloop
endfacet
facet normal -1.0 3.0079642480510943e-16 -4.1402403575315394e-16
  outer loop
    vertex 33.04271017205875 1.3535839116229907e-13 5.000000000000013
    vertex 33.04271017205875 100.00000000000001 0.3384448807859822
    vertex 33.042710172058705 2.255973186038318e-14 0.3384448807859597
  endloop
endfacet
facet normal -1.0 3.0079642480510943e-16 -4.1402403575315394e-16
  outer loop
    vertex 33.04271017205875 100.00000000000001 0.3384448807859822
    vertex 33.04271017205875 1.3535839116229907e-13 5.000000000000013
    vertex 33.04271017205875 100.00000000000001 5.000000000000013
  endloop
endfacet
facet normal 0.8685272731620713 -1.9509088102861362e-15 0.49564137818957027
  outer loop
    vertex 33.87003941096181 3.2500000000000053 18.203623262649874
    vertex 31.338074721062366 2.255973186038318e-14 22.64046103413213
    vertex 33.87003941096181 0.0 18.203623262649874
  endloop
endfacet
facet normal 0.8685272731620713 -1.9509088102861362e-15 0.49564137818957027
  outer loop
    vertex 31.338074721062366 2.255973186038318e-14 22.64046103413213
    vertex 33.87003941096181 3.2500000000000053 18.203623262649874
    vertex 31.338074721062366 3.2500000000000053 22.64046103413213
  endloop
endfacet
facet normal -1.0 -0.0 -0.0
  outer loop
    vertex 2.000000000000034 100.00000000000001 1.5000000000000084
    vertex 2.0000000000000004 2.255973186038318e-14 0.0
    vertex 2.0000000000000004 2.255973186038318e-14 1.4999999999999973
  endloop
endfacet
facet normal -1.0 -0.0 -0.0
  outer loop
    vertex 2.0000000000000004 2.255973186038318e-14 0.0
    vertex 2.000000000000034 100.00000000000001 1.5000000000000084
    vertex 2.000000000000034 100.00000000000001 1.127986593019159e-14
  endloop
endfacet
facet normal -0.5352091543581953 2.279517317326851e-16 0.8447195754161174
  outer loop
    vertex 27.66067584119689 2.255973186038318e-14 26.229607708963215
    vertex 16.19806376505094 100.00000000000001 18.96696683434157
    vertex 16.198063765050893 2.255973186038318e-14 18.96696683434157
  endloop
endfacet
facet normal -0.5352091543581953 2.279517317326851e-16 0.8447195754161174
  outer loop
    vertex 16.19806376505094 100.00000000000001 18.96696683434157
    vertex 27.66067584119689 2.255973186038318e-14 26.229607708963215
    vertex 27.660675841196937 100.00000000000001 26.229607708963215
  endloop
endfacet
facet normal -2.5233906733488274e-15 -1.0 4.856834416033209e-16
  outer loop
    vertex 35.04262528571943 3.2500000000000053 18.84714149994645
    vertex 31.338074721062366 3.2500000000000053 22.64046103413213
    vertex 33.87003941096181 3.2500000000000053 18.203623262649874
  endloop
endfacet
facet normal -2.5233906733488274e-15 -1.0 4.856834416033209e-16
  outer loop
    vertex 31.338074721062366 3.2500000000000053 22.64046103413213
    vertex 35.04262528571943 3.2500000000000053 18.84714149994645
    vertex 32.58522063503099 3.2500000000000053 23.32489801865119
  endloop
endfacet
facet normal 0.0 0.0 -1.0
  outer loop
    vertex 2.000000000000034 100.00000000000001 1.127986593019159e-14
    vertex 6.120150226449489 2.255973186038318e-14 0.0
    vertex 2.0000000000000004 2.255973186038318e-14 0.0
  endloop
endfacet
facet normal 0.0 0.0 -1.0
  outer loop
    vertex 6.120150226449489 2.255973186038318e-14 0.0
    vertex 2.000000000000034 100.00000000000001 1.127986593019159e-14
    vertex 6.1201502264495335 100.00000000000001 1.127986593019159e-14
  endloop
endfacet
facet normal 0.8766587751508625 5.3700350191558355e-16 0.4811126603520112
  outer loop
    vertex 31.338074721062366 3.2500000000000053 22.64046103413213
    vertex 28.927755204321127 2.255973186038318e-14 27.0324214405005
    vertex 31.338074721062366 2.255973186038318e-14 22.64046103413213
  endloop
endfacet
facet normal 0.8766587751508625 5.3700350191558355e-16 0.4811126603520112
  outer loop
    vertex 28.927755204321127 2.255973186038318e-14 27.0324214405005
    vertex 31.338074721062366 3.2500000000000053 22.64046103413213
    vertex 28.927755204321173 100.00000000000001 27.0324214405005
  endloop
endfacet
facet normal 0.8766587751508625 5.3700350191558355e-16 0.4811126603520112
  outer loop
    vertex 28.927755204321173 100.00000000000001 27.0324214405005
    vertex 31.338074721062366 3.2500000000000053 22.64046103413213
    vertex 31.338074721062455 96.75000000000004 22.64046103413195
  endloop
endfacet
facet normal 0.8766587751508625 5.3700350191558355e-16 0.4811126603520112
  outer loop
    vertex 28.927755204321173 100.00000000000001 27.0324214405005
    vertex 31.338074721062455 96.75000000000004 22.64046103413195
    vertex 31.33807472106241 100.00000000000001 22.64046103413213
  endloop
endfacet
facet normal -0.7284677904894181 -2.044448209357348e-18 0.6850800524168436
  outer loop
    vertex 4.579619250909988 100.00000000000001 9.369657356427144
    vertex 1.9999999999999962 2.255973186038318e-14 6.62666472456615
    vertex 4.579619250909943 2.255973186038318e-14 9.369657356427133
  endloop
endfacet
facet normal -0.7284677904894181 -2.044448209357348e-18 0.6850800524168436
  outer loop
    vertex 1.9999999999999962 2.255973186038318e-14 6.62666472456615
    vertex 4.579619250909988 100.00000000000001 9.369657356427144
    vertex 2.00000000000003 100.00000000000001 6.626664724566162
  endloop
endfacet
facet normal 0.5334963838907334 -2.27419398542108e-16 -0.8458023459269378
  outer loop
    vertex 17.453563393949324 100.00000000000001 17.40686229417091
    vertex 28.238416160931568 2.255973186038318e-14 24.209491749724616
    vertex 17.453563393949278 2.255973186038318e-14 17.40686229417091
  endloop
endfacet
facet normal 0.5334963838907334 -2.27419398542108e-16 -0.8458023459269378
  outer loop
    vertex 28.238416160931568 2.255973186038318e-14 24.209491749724616
    vertex 17.453563393949324 100.00000000000001 17.40686229417091
    vertex 28.23841616093161 100.00000000000001 24.209491749724616
  endloop
endfacet
facet normal 2.0142617732484706e-15 7.519910620127672e-17 -1.0
  outer loop
    vertex 31.04271017205872 100.00000000000001 5.000000000000013
    vertex 33.04271017205875 1.3535839116229907e-13 5.000000000000013
    vertex 31.042710172058673 2.1657342585967854e-14 5.000000000000002
  endloop
endfacet
facet normal 2.0142617732484706e-15 7.519910620127672e-17 -1.0
  outer loop
    vertex 33.04271017205875 1.3535839116229907e-13 5.000000000000013
    vertex 31.04271017205872 100.00000000000001 5.000000000000013
    vertex 33.04271017205875 100.00000000000001 5.000000000000013
  endloop
endfacet
facet normal -1.0 4.887941903083029e-16 -7.540637842787657e-15
  outer loop
    vertex 31.042710172058573 2.255973186038318e-14 19.295443129479615
    vertex 31.04271017205872 100.00000000000001 5.000000000000013
    vertex 31.042710172058673 2.1657342585967854e-14 5.000000000000002
  endloop
endfacet
facet normal -1.0 4.887941903083029e-16 -7.540637842787657e-15
  outer loop
    vertex 31.04271017205872 100.00000000000001 5.000000000000013
    vertex 31.042710172058573 2.255973186038318e-14 19.295443129479615
    vertex 31.042710172058616 100.00000000000001 19.295443129479615
  endloop
endfacet
facet normal 1.0 -3.007964248051096e-16 2.1569945328332795e-15
  outer loop
    vertex 6.1201502264495335 100.00000000000001 1.127986593019159e-14
    vertex 6.120150226449489 2.255973186038318e-14 8.039000472443323
    vertex 6.120150226449489 2.255973186038318e-14 0.0
  endloop
endfacet
facet normal 1.0 -3.007964248051096e-16 2.1569945328332795e-15
  outer loop
    vertex 6.120150226449489 2.255973186038318e-14 8.039000472443323
    vertex 6.1201502264495335 100.00000000000001 1.127986593019159e-14
    vertex 6.120150226449489 99.99999999999989 8.039000472443323
  endloop
endfacet
facet normal 1.0 -3.007964248051096e-16 2.1569945328332795e-15
  outer loop
    vertex 6.120150226449489 99.99999999999989 8.039000472443323
    vertex 6.1201502264495335 100.00000000000001 1.127986593019159e-14
    vertex 6.1201502264495335 100.00000000000001 6.03368777204493
  endloop
endfacet
facet normal -1.0 0.0 0.0
  outer loop
    vertex 4.000000000000025 100.00000000000001 6.626664724566162
    vertex 3.999999999999991 2.255973186038318e-14 1.4999999999999973
    vertex 3.999999999999991 2.255973186038318e-14 6.62666472456615
  endloop
endfacet
facet normal -1.0 0.0 0.0
  outer loop
    vertex 3.999999999999991 2.255973186038318e-14 1.4999999999999973
    vertex 4.000000000000025 100.00000000000001 6.626664724566162
    vertex 4.000000000000025 100.00000000000001 1.5000000000000084
  endloop
endfacet
facet normal 0.0 1.127986593019159e-16 -1.0
  outer loop
    vertex 2.00000000000003 100.00000000000001 6.626664724566162
    vertex 3.999999999999991 2.255973186038318e-14 6.62666472456615
    vertex 1.9999999999999962 2.255973186038318e-14 6.62666472456615
  endloop
endfacet
facet normal 0.0 1.127986593019159e-16 -1.0
  outer loop
    vertex 3.999999999999991 2.255973186038318e-14 6.62666472456615
    vertex 2.00000000000003 100.00000000000001 6.626664724566162
    vertex 4.000000000000025 100.00000000000001 6.626664724566162
  endloop
endfacet
facet normal 5.832666230588867e-15 1.0 3.768353129186245e-14
  outer loop
    vertex 5.820499891405931 100.00000000000001 7.791318428910974
    vertex 6.1201502264495335 100.00000000000001 6.03368777204493
    vertex 4.120150226449538 100.00000000000001 6.03368777204493
  endloop
endfacet
facet normal 5.832666230588867e-15 1.0 3.768353129186245e-14
  outer loop
    vertex 6.1201502264495335 100.00000000000001 6.03368777204493
    vertex 5.820499891405931 100.00000000000001 7.791318428910974
    vertex 6.120150226449489 99.99999999999989 8.039000472443323
  endloop
endfacet
endsolid Dome Cover - Freestanding Section
