solid Dome Wall Support
facet normal 0.7881392652536086 -1.2000385821416946e-15 -0.6154969525233266
  outer loop
    vertex 6.084305797363382 2.255973186038318e-14 74.31285591145429
    vertex 13.218746434948253 99.99999999999989 83.44845403107033
    vertex 13.2187464349481 0.0 83.44845403107033
  endloop
endfacet
facet normal 0.7881392652536086 -1.2000385821416946e-15 -0.6154969525233266
  outer loop
    vertex 13.218746434948253 99.99999999999989 83.44845403107033
    vertex 6.084305797363382 2.255973186038318e-14 74.31285591145429
    vertex 6.084305797363535 99.99999999999997 74.31285591145429
  endloop
endfacet
facet normal 0.7047864828433946 -1.0750808065653394e-15 -0.7094194905704505
  outer loop
    vertex 13.218746434948253 99.99999999999989 83.44845403107033
    vertex 20.81993349614744 2.255973186038318e-14 90.99999999999997
    vertex 13.2187464349481 0.0 83.44845403107033
  endloop
endfacet
facet normal 0.7047864828433946 -1.0750808065653394e-15 -0.7094194905704505
  outer loop
    vertex 20.81993349614744 2.255973186038318e-14 90.99999999999997
    vertex 13.218746434948253 99.99999999999989 83.44845403107033
    vertex 20.81993349614759 99.99999999999997 90.99999999999997
  endloop
endfacet
facet normal 3.524958103184878e-16 0.0 -1.0
  outer loop
    vertex 1.678589752390796e-14 100.00000000000001 0.0
    vertex 3.9999999999999925 2.255973186038318e-14 6.724003161192427e-15
    vertex 0.0 2.255973186038318e-14 5.314019919918478e-15
  endloop
endfacet
facet normal 3.524958103184878e-16 0.0 -1.0
  outer loop
    vertex 3.9999999999999925 2.255973186038318e-14 6.724003161192427e-15
    vertex 1.678589752390796e-14 100.00000000000001 0.0
    vertex 4.00000000000001 100.00000000000001 1.4099832412739487e-15
  endloop
endfacet
facet normal -1.0 2.8215186447954046e-16 6.840116391737365e-16
  outer loop
    vertex 1.678589752390796e-14 100.00000000000001 84.80090252963186
    vertex 7.049916206369744e-14 2.255973186038318e-14 68.31285591145429
    vertex 0.0 2.255973186038318e-14 84.80090252963186
  endloop
endfacet
facet normal -1.0 2.8215186447954046e-16 6.840116391737365e-16
  outer loop
    vertex 7.049916206369744e-14 2.255973186038318e-14 68.31285591145429
    vertex 1.678589752390796e-14 100.00000000000001 84.80090252963186
    vertex 1.0504375147490918e-13 43.999999999999986 68.31285591145429
  endloop
endfacet
facet normal -1.0 2.8215186447954046e-16 6.840116391737365e-16
  outer loop
    vertex 1.0504375147490918e-13 43.999999999999986 68.31285591145429
    vertex 1.678589752390796e-14 100.00000000000001 84.80090252963186
    vertex 1.2478351685274447e-13 55.999999999999986 68.31285591145429
  endloop
endfacet
facet normal -1.0 2.8215186447954046e-16 6.840116391737365e-16
  outer loop
    vertex 1.0504375147490918e-13 43.999999999999986 68.31285591145429
    vertex 1.2478351685274447e-13 55.999999999999986 68.31285591145429
    vertex 1.973976537783528e-14 44.000000000000036 28.0
  endloop
endfacet
facet normal -1.0 2.8215186447954046e-16 6.840116391737365e-16
  outer loop
    vertex 1.973976537783528e-14 44.000000000000036 28.0
    vertex 1.2478351685274447e-13 55.999999999999986 68.31285591145429
    vertex 1.2689849171465539e-14 48.0511589211194 12.324464625156848
  endloop
endfacet
facet normal -1.0 2.8215186447954046e-16 6.840116391737365e-16
  outer loop
    vertex 1.973976537783528e-14 44.000000000000036 28.0
    vertex 1.2689849171465539e-14 48.0511589211194 12.324464625156848
    vertex 1.2689849171465539e-14 48.001234065485725 11.804752302349884
  endloop
endfacet
facet normal -1.0 2.8215186447954046e-16 6.840116391737365e-16
  outer loop
    vertex 1.2689849171465539e-14 48.0511589211194 12.324464625156848
    vertex 1.2478351685274447e-13 55.999999999999986 68.31285591145429
    vertex 1.2689849171465539e-14 48.233894075666626 12.813546676534783
  endloop
endfacet
facet normal -1.0 2.8215186447954046e-16 6.840116391737365e-16
  outer loop
    vertex 1.2689849171465539e-14 48.233894075666626 12.813546676534783
    vertex 1.2478351685274447e-13 55.999999999999986 68.31285591145429
    vertex 1.2689849171465539e-14 48.53698643032915 13.238668322928591
  endloop
endfacet
facet normal -1.0 2.8215186447954046e-16 6.840116391737365e-16
  outer loop
    vertex 1.2689849171465539e-14 48.53698643032915 13.238668322928591
    vertex 1.2478351685274447e-13 55.999999999999986 68.31285591145429
    vertex 1.2689849171465539e-14 48.9397807420205 13.57085822668327
  endloop
endfacet
facet normal -1.0 2.8215186447954046e-16 6.840116391737365e-16
  outer loop
    vertex 1.2689849171465539e-14 48.9397807420205 13.57085822668327
    vertex 1.2478351685274447e-13 55.999999999999986 68.31285591145429
    vertex 1.2689849171465539e-14 49.41482724404799 13.787478194827715
  endloop
endfacet
facet normal -1.0 2.8215186447954046e-16 6.840116391737365e-16
  outer loop
    vertex 1.2689849171465539e-14 49.41482724404799 13.787478194827715
    vertex 1.2478351685274447e-13 55.999999999999986 68.31285591145429
    vertex 1.2689849171465539e-14 49.92975230234989 13.873765934514305
  endloop
endfacet
facet normal -1.0 2.8215186447954046e-16 6.840116391737365e-16
  outer loop
    vertex 1.2689849171465539e-14 49.92975230234989 13.873765934514305
    vertex 1.2478351685274447e-13 55.999999999999986 68.31285591145429
    vertex 1.2689849171465539e-14 50.44946462515686 13.823841078880623
  endloop
endfacet
facet normal -1.0 2.8215186447954046e-16 6.840116391737365e-16
  outer loop
    vertex 1.2689849171465539e-14 50.44946462515686 13.823841078880623
    vertex 1.2478351685274447e-13 55.999999999999986 68.31285591145429
    vertex 1.2689849171465539e-14 50.9385466765348 13.64110592433339
  endloop
endfacet
facet normal -1.0 2.8215186447954046e-16 6.840116391737365e-16
  outer loop
    vertex 1.2689849171465539e-14 50.9385466765348 13.64110592433339
    vertex 1.2478351685274447e-13 55.999999999999986 68.31285591145429
    vertex 1.2689849171465539e-14 51.36366832292861 13.338013569670874
  endloop
endfacet
facet normal -1.0 2.8215186447954046e-16 6.840116391737365e-16
  outer loop
    vertex 1.2689849171465539e-14 51.36366832292861 13.338013569670874
    vertex 1.2478351685274447e-13 55.999999999999986 68.31285591145429
    vertex 1.2689849171465539e-14 51.695858226683285 12.935219257979524
  endloop
endfacet
facet normal -1.0 2.8215186447954046e-16 6.840116391737365e-16
  outer loop
    vertex 1.2689849171465539e-14 51.695858226683285 12.935219257979524
    vertex 1.2478351685274447e-13 55.999999999999986 68.31285591145429
    vertex 1.2689849171465539e-14 51.91247819482773 12.460172755952037
  endloop
endfacet
facet normal -1.0 2.8215186447954046e-16 6.840116391737365e-16
  outer loop
    vertex 1.2689849171465539e-14 51.91247819482773 12.460172755952037
    vertex 1.2478351685274447e-13 55.999999999999986 68.31285591145429
    vertex 1.2689849171465539e-14 51.99876593451432 11.945247697650121
  endloop
endfacet
facet normal -1.0 2.8215186447954046e-16 6.840116391737365e-16
  outer loop
    vertex 1.2478351685274447e-13 55.999999999999986 68.31285591145429
    vertex 1.678589752390796e-14 100.00000000000001 84.80090252963186
    vertex 1.3112844143847723e-13 99.99999999999997 68.31285591145429
  endloop
endfacet
facet normal -1.0 2.8215186447954046e-16 6.840116391737365e-16
  outer loop
    vertex 1.973976537783528e-14 44.000000000000036 28.0
    vertex 0.0 2.255973186038318e-14 5.314019919918478e-15
    vertex 4.93494134445882e-15 2.255973186038318e-14 28.00000000000001
  endloop
endfacet
facet normal -1.0 2.8215186447954046e-16 6.840116391737365e-16
  outer loop
    vertex 0.0 2.255973186038318e-14 5.314019919918478e-15
    vertex 1.973976537783528e-14 44.000000000000036 28.0
    vertex 1.2689849171465539e-14 48.087521805172315 11.289827244047968
  endloop
endfacet
facet normal -1.0 2.8215186447954046e-16 6.840116391737365e-16
  outer loop
    vertex 0.0 2.255973186038318e-14 5.314019919918478e-15
    vertex 1.2689849171465539e-14 48.087521805172315 11.289827244047968
    vertex 1.2689849171465539e-14 48.30414177331675 10.814780742020481
  endloop
endfacet
facet normal -1.0 2.8215186447954046e-16 6.840116391737365e-16
  outer loop
    vertex 0.0 2.255973186038318e-14 5.314019919918478e-15
    vertex 1.2689849171465539e-14 48.30414177331675 10.814780742020481
    vertex 1.2689849171465539e-14 48.63633167707143 10.411986430329133
  endloop
endfacet
facet normal -1.0 2.8215186447954046e-16 6.840116391737365e-16
  outer loop
    vertex 0.0 2.255973186038318e-14 5.314019919918478e-15
    vertex 1.2689849171465539e-14 48.63633167707143 10.411986430329133
    vertex 1.2689849171465539e-14 49.06145332346524 10.108894075666615
  endloop
endfacet
facet normal -1.0 2.8215186447954046e-16 6.840116391737365e-16
  outer loop
    vertex 0.0 2.255973186038318e-14 5.314019919918478e-15
    vertex 1.2689849171465539e-14 49.06145332346524 10.108894075666615
    vertex 1.2689849171465539e-14 49.550535374843186 9.92615892111938
  endloop
endfacet
facet normal -1.0 2.8215186447954046e-16 6.840116391737365e-16
  outer loop
    vertex 0.0 2.255973186038318e-14 5.314019919918478e-15
    vertex 1.2689849171465539e-14 49.550535374843186 9.92615892111938
    vertex 1.678589752390796e-14 100.00000000000001 0.0
  endloop
endfacet
facet normal -1.0 2.8215186447954046e-16 6.840116391737365e-16
  outer loop
    vertex 1.2689849171465539e-14 48.087521805172315 11.289827244047968
    vertex 1.973976537783528e-14 44.000000000000036 28.0
    vertex 1.2689849171465539e-14 48.001234065485725 11.804752302349884
  endloop
endfacet
facet normal -1.0 2.8215186447954046e-16 6.840116391737365e-16
  outer loop
    vertex 1.678589752390796e-14 100.00000000000001 0.0
    vertex 1.2689849171465539e-14 49.550535374843186 9.92615892111938
    vertex 1.2689849171465539e-14 50.07024769765015 9.876234065485702
  endloop
endfacet
facet normal -1.0 2.8215186447954046e-16 6.840116391737365e-16
  outer loop
    vertex 1.678589752390796e-14 100.00000000000001 0.0
    vertex 1.2689849171465539e-14 50.07024769765015 9.876234065485702
    vertex 1.2689849171465539e-14 50.58517275595205 9.962521805172289
  endloop
endfacet
facet normal -1.0 2.8215186447954046e-16 6.840116391737365e-16
  outer loop
    vertex 1.678589752390796e-14 100.00000000000001 0.0
    vertex 1.2689849171465539e-14 50.58517275595205 9.962521805172289
    vertex 1.2689849171465539e-14 51.06021925797954 10.179141773316733
  endloop
endfacet
facet normal -1.0 2.8215186447954046e-16 6.840116391737365e-16
  outer loop
    vertex 1.678589752390796e-14 100.00000000000001 0.0
    vertex 1.2689849171465539e-14 51.06021925797954 10.179141773316733
    vertex 1.2689849171465539e-14 51.46301356967089 10.511331677071412
  endloop
endfacet
facet normal -1.0 2.8215186447954046e-16 6.840116391737365e-16
  outer loop
    vertex 1.678589752390796e-14 100.00000000000001 0.0
    vertex 1.2689849171465539e-14 51.46301356967089 10.511331677071412
    vertex 1.2689849171465539e-14 51.76610592433342 10.936453323465221
  endloop
endfacet
facet normal -1.0 2.8215186447954046e-16 6.840116391737365e-16
  outer loop
    vertex 1.678589752390796e-14 100.00000000000001 0.0
    vertex 1.2689849171465539e-14 51.76610592433342 10.936453323465221
    vertex 1.2689849171465539e-14 51.94884107888064 11.425535374843157
  endloop
endfacet
facet normal -1.0 2.8215186447954046e-16 6.840116391737365e-16
  outer loop
    vertex 1.678589752390796e-14 100.00000000000001 0.0
    vertex 1.2689849171465539e-14 51.94884107888064 11.425535374843157
    vertex 1.2689849171465539e-14 51.99876593451432 11.945247697650121
  endloop
endfacet
facet normal -1.0 2.8215186447954046e-16 6.840116391737365e-16
  outer loop
    vertex 1.678589752390796e-14 100.00000000000001 0.0
    vertex 1.2689849171465539e-14 51.99876593451432 11.945247697650121
    vertex 9.164891068280667e-15 56.00000000000001 28.0
  endloop
endfacet
facet normal -1.0 2.8215186447954046e-16 6.840116391737365e-16
  outer loop
    vertex 9.164891068280667e-15 56.00000000000001 28.0
    vertex 1.2689849171465539e-14 51.99876593451432 11.945247697650121
    vertex 1.2478351685274447e-13 55.999999999999986 68.31285591145429
  endloop
endfacet
facet normal -1.0 2.8215186447954046e-16 6.840116391737365e-16
  outer loop
    vertex 1.678589752390796e-14 100.00000000000001 0.0
    vertex 9.164891068280667e-15 56.00000000000001 28.0
    vertex 1.762479051592436e-14 100.00000000000001 28.0
  endloop
endfacet
facet normal -0.7284677904894176 1.2227404217822857e-16 0.6850800524168442
  outer loop
    vertex 10.338725553437548 100.00000000000001 96.75655366263864
    vertex 3.0943770258459997 2.255973186038318e-14 89.0534034295928
    vertex 10.33872555343753 2.255973186038318e-14 96.75655366263864
  endloop
endfacet
facet normal -0.7284677904894176 1.2227404217822857e-16 0.6850800524168442
  outer loop
    vertex 3.0943770258459997 2.255973186038318e-14 89.0534034295928
    vertex 10.338725553437548 100.00000000000001 96.75655366263864
    vertex 3.0943770258460166 100.00000000000001 89.0534034295928
  endloop
endfacet
facet normal -0.7284677904894176 1.2227404217822857e-16 0.6850800524168442
  outer loop
    vertex 3.0943770258460166 100.00000000000001 89.0534034295928
    vertex 10.338725553437548 100.00000000000001 96.75655366263864
    vertex 8.838725553437527 100.00000000000001 95.161555119214
  endloop
endfacet
facet normal -0.8085869025984393 3.085689266146236e-16 0.5883767678505518
  outer loop
    vertex 3.0943770258460166 100.00000000000001 89.0534034295928
    vertex 0.0 2.255973186038318e-14 84.80090252963186
    vertex 3.0943770258459997 2.255973186038318e-14 89.0534034295928
  endloop
endfacet
facet normal -0.8085869025984393 3.085689266146236e-16 0.5883767678505518
  outer loop
    vertex 0.0 2.255973186038318e-14 84.80090252963186
    vertex 3.0943770258460166 100.00000000000001 89.0534034295928
    vertex 1.678589752390796e-14 100.00000000000001 84.80090252963186
  endloop
endfacet
facet normal 1.0 0.0 0.0
  outer loop
    vertex 4.00000000000001 100.00000000000001 1.4099832412739487e-15
    vertex 3.9999999999999925 2.255973186038318e-14 1.7500000000000049
    vertex 3.9999999999999925 2.255973186038318e-14 6.724003161192427e-15
  endloop
endfacet
facet normal 1.0 0.0 0.0
  outer loop
    vertex 3.9999999999999925 2.255973186038318e-14 1.7500000000000049
    vertex 4.00000000000001 100.00000000000001 1.4099832412739487e-15
    vertex 4.00000000000001 100.00000000000001 1.7499999999999996
  endloop
endfacet
facet normal 0.0 0.0 -1.0
  outer loop
    vertex 2.0000000000000133 100.00000000000001 22.0
    vertex 6.084305797363383 2.255973186038318e-14 22.000000000000004
    vertex 1.9999999999999962 2.255973186038318e-14 22.000000000000004
  endloop
endfacet
facet normal 0.0 0.0 -1.0
  outer loop
    vertex 6.084305797363383 2.255973186038318e-14 22.000000000000004
    vertex 2.0000000000000133 100.00000000000001 22.0
    vertex 6.0843057973634 100.00000000000001 22.0
  endloop
endfacet
facet normal 0.0 0.0 1.0
  outer loop
    vertex 15.45887577988698 2.255973186038318e-14 90.16155511921401
    vertex 10.33872555343746 100.00000000000001 90.16155511921401
    vertex 10.338725553437444 2.255973186038318e-14 90.16155511921401
  endloop
endfacet
facet normal 0.0 0.0 1.0
  outer loop
    vertex 10.33872555343746 100.00000000000001 90.16155511921401
    vertex 15.45887577988698 2.255973186038318e-14 90.16155511921401
    vertex 15.45887577988698 100.00000000000001 90.16155511921401
  endloop
endfacet
facet normal 0.0 0.0 -1.0
  outer loop
    vertex 10.33872555343746 100.00000000000001 92.661555119214
    vertex 12.33872555343753 2.255973186038318e-14 92.661555119214
    vertex 10.338725553437444 2.255973186038318e-14 92.661555119214
  endloop
endfacet
facet normal 0.0 0.0 -1.0
  outer loop
    vertex 12.33872555343753 2.255973186038318e-14 92.661555119214
    vertex 10.33872555343746 100.00000000000001 92.661555119214
    vertex 12.338725553437547 100.00000000000001 92.661555119214
  endloop
endfacet
facet normal 1.0 -8.459899447643693e-17 -2.0328697338608035e-15
  outer loop
    vertex 41.38143572549625 100.00000000000001 90.99999999999997
    vertex 41.38143572549625 2.251743236314496e-14 95.161555119214
    vertex 41.38143572549624 2.251743236314496e-14 90.99999999999997
  endloop
endfacet
facet normal 1.0 -8.459899447643693e-17 -2.0328697338608035e-15
  outer loop
    vertex 41.38143572549625 2.251743236314496e-14 95.161555119214
    vertex 41.38143572549625 100.00000000000001 90.99999999999997
    vertex 41.38143572549625 100.00000000000001 95.161555119214
  endloop
endfacet
facet normal 1.0 0.0 0.0
  outer loop
    vertex 10.33872555343746 100.00000000000001 90.16155511921401
    vertex 10.338725553437444 2.255973186038318e-14 92.661555119214
    vertex 10.338725553437444 2.255973186038318e-14 90.16155511921401
  endloop
endfacet
facet normal 1.0 0.0 0.0
  outer loop
    vertex 10.338725553437444 2.255973186038318e-14 92.661555119214
    vertex 10.33872555343746 100.00000000000001 90.16155511921401
    vertex 10.33872555343746 100.00000000000001 92.661555119214
  endloop
endfacet
facet normal 1.0 0.0 0.0
  outer loop
    vertex 1.9999999999999962 2.255973186038318e-14 1.7500000000000049
    vertex 2.000000000000005 49.550535374843186 9.92615892111938
    vertex 1.9999999999999962 2.255973186038318e-14 22.000000000000004
  endloop
endfacet
facet normal 1.0 0.0 0.0
  outer loop
    vertex 2.000000000000005 49.550535374843186 9.92615892111938
    vertex 1.9999999999999962 2.255973186038318e-14 1.7500000000000049
    vertex 2.0000000000000133 100.00000000000001 1.7499999999999996
  endloop
endfacet
facet normal 1.0 0.0 0.0
  outer loop
    vertex 1.9999999999999962 2.255973186038318e-14 22.000000000000004
    vertex 2.000000000000005 49.550535374843186 9.92615892111938
    vertex 2.000000000000005 49.06145332346524 10.108894075666615
  endloop
endfacet
facet normal 1.0 0.0 0.0
  outer loop
    vertex 1.9999999999999962 2.255973186038318e-14 22.000000000000004
    vertex 2.000000000000005 49.06145332346524 10.108894075666615
    vertex 2.000000000000005 48.63633167707143 10.411986430329133
  endloop
endfacet
facet normal 1.0 0.0 0.0
  outer loop
    vertex 1.9999999999999962 2.255973186038318e-14 22.000000000000004
    vertex 2.000000000000005 48.63633167707143 10.411986430329133
    vertex 2.000000000000005 48.30414177331675 10.814780742020481
  endloop
endfacet
facet normal 1.0 0.0 0.0
  outer loop
    vertex 1.9999999999999962 2.255973186038318e-14 22.000000000000004
    vertex 2.000000000000005 48.30414177331675 10.814780742020481
    vertex 2.000000000000005 48.087521805172315 11.289827244047968
  endloop
endfacet
facet normal 1.0 0.0 0.0
  outer loop
    vertex 1.9999999999999962 2.255973186038318e-14 22.000000000000004
    vertex 2.000000000000005 48.087521805172315 11.289827244047968
    vertex 2.000000000000005 48.001234065485725 11.804752302349884
  endloop
endfacet
facet normal 1.0 0.0 0.0
  outer loop
    vertex 2.000000000000005 49.550535374843186 9.92615892111938
    vertex 2.0000000000000133 100.00000000000001 1.7499999999999996
    vertex 2.000000000000005 50.07024769765015 9.876234065485702
  endloop
endfacet
facet normal 1.0 0.0 0.0
  outer loop
    vertex 2.000000000000005 50.07024769765015 9.876234065485702
    vertex 2.0000000000000133 100.00000000000001 1.7499999999999996
    vertex 2.000000000000005 50.58517275595205 9.962521805172289
  endloop
endfacet
facet normal 1.0 0.0 0.0
  outer loop
    vertex 2.000000000000005 50.58517275595205 9.962521805172289
    vertex 2.0000000000000133 100.00000000000001 1.7499999999999996
    vertex 2.000000000000005 51.06021925797954 10.179141773316733
  endloop
endfacet
facet normal 1.0 0.0 0.0
  outer loop
    vertex 2.000000000000005 51.06021925797954 10.179141773316733
    vertex 2.0000000000000133 100.00000000000001 1.7499999999999996
    vertex 2.000000000000005 51.46301356967089 10.511331677071412
  endloop
endfacet
facet normal 1.0 0.0 0.0
  outer loop
    vertex 2.000000000000005 51.46301356967089 10.511331677071412
    vertex 2.0000000000000133 100.00000000000001 1.7499999999999996
    vertex 2.000000000000005 51.76610592433342 10.936453323465221
  endloop
endfacet
facet normal 1.0 0.0 0.0
  outer loop
    vertex 2.000000000000005 51.76610592433342 10.936453323465221
    vertex 2.0000000000000133 100.00000000000001 1.7499999999999996
    vertex 2.000000000000005 51.94884107888064 11.425535374843157
  endloop
endfacet
facet normal 1.0 0.0 0.0
  outer loop
    vertex 2.000000000000005 51.94884107888064 11.425535374843157
    vertex 2.0000000000000133 100.00000000000001 1.7499999999999996
    vertex 2.000000000000005 51.99876593451432 11.945247697650121
  endloop
endfacet
facet normal 1.0 0.0 0.0
  outer loop
    vertex 1.9999999999999962 2.255973186038318e-14 22.000000000000004
    vertex 2.000000000000005 49.92975230234989 13.873765934514305
    vertex 2.0000000000000133 100.00000000000001 22.0
  endloop
endfacet
facet normal 1.0 0.0 0.0
  outer loop
    vertex 2.000000000000005 49.92975230234989 13.873765934514305
    vertex 1.9999999999999962 2.255973186038318e-14 22.000000000000004
    vertex 2.000000000000005 49.41482724404799 13.787478194827715
  endloop
endfacet
facet normal 1.0 0.0 0.0
  outer loop
    vertex 2.000000000000005 49.41482724404799 13.787478194827715
    vertex 1.9999999999999962 2.255973186038318e-14 22.000000000000004
    vertex 2.000000000000005 48.9397807420205 13.57085822668327
  endloop
endfacet
facet normal 1.0 0.0 0.0
  outer loop
    vertex 2.000000000000005 48.9397807420205 13.57085822668327
    vertex 1.9999999999999962 2.255973186038318e-14 22.000000000000004
    vertex 2.000000000000005 48.53698643032915 13.238668322928591
  endloop
endfacet
facet normal 1.0 0.0 0.0
  outer loop
    vertex 2.000000000000005 48.53698643032915 13.238668322928591
    vertex 1.9999999999999962 2.255973186038318e-14 22.000000000000004
    vertex 2.000000000000005 48.233894075666626 12.813546676534783
  endloop
endfacet
facet normal 1.0 0.0 0.0
  outer loop
    vertex 2.000000000000005 48.233894075666626 12.813546676534783
    vertex 1.9999999999999962 2.255973186038318e-14 22.000000000000004
    vertex 2.000000000000005 48.0511589211194 12.324464625156848
  endloop
endfacet
facet normal 1.0 0.0 0.0
  outer loop
    vertex 2.000000000000005 48.0511589211194 12.324464625156848
    vertex 1.9999999999999962 2.255973186038318e-14 22.000000000000004
    vertex 2.000000000000005 48.001234065485725 11.804752302349884
  endloop
endfacet
facet normal 1.0 0.0 0.0
  outer loop
    vertex 2.0000000000000133 100.00000000000001 22.0
    vertex 2.000000000000005 49.92975230234989 13.873765934514305
    vertex 2.000000000000005 50.44946462515686 13.823841078880623
  endloop
endfacet
facet normal 1.0 0.0 0.0
  outer loop
    vertex 2.0000000000000133 100.00000000000001 22.0
    vertex 2.000000000000005 50.44946462515686 13.823841078880623
    vertex 2.000000000000005 50.9385466765348 13.64110592433339
  endloop
endfacet
facet normal 1.0 0.0 0.0
  outer loop
    vertex 2.0000000000000133 100.00000000000001 22.0
    vertex 2.000000000000005 50.9385466765348 13.64110592433339
    vertex 2.000000000000005 51.36366832292861 13.338013569670874
  endloop
endfacet
facet normal 1.0 0.0 0.0
  outer loop
    vertex 2.0000000000000133 100.00000000000001 22.0
    vertex 2.000000000000005 51.36366832292861 13.338013569670874
    vertex 2.000000000000005 51.695858226683285 12.935219257979524
  endloop
endfacet
facet normal 1.0 0.0 0.0
  outer loop
    vertex 2.0000000000000133 100.00000000000001 22.0
    vertex 2.000000000000005 51.695858226683285 12.935219257979524
    vertex 2.000000000000005 51.91247819482773 12.460172755952037
  endloop
endfacet
facet normal 1.0 0.0 0.0
  outer loop
    vertex 2.0000000000000133 100.00000000000001 22.0
    vertex 2.000000000000005 51.91247819482773 12.460172755952037
    vertex 2.000000000000005 51.99876593451432 11.945247697650121
  endloop
endfacet
facet normal 1.0 0.0 0.0
  outer loop
    vertex 2.0000000000000133 100.00000000000001 22.0
    vertex 2.000000000000005 51.99876593451432 11.945247697650121
    vertex 2.0000000000000133 100.00000000000001 1.7499999999999996
  endloop
endfacet
facet normal 0.0 0.0 1.0
  outer loop
    vertex 3.9999999999999925 2.255973186038318e-14 1.7500000000000049
    vertex 2.0000000000000133 100.00000000000001 1.7499999999999996
    vertex 1.9999999999999962 2.255973186038318e-14 1.7500000000000049
  endloop
endfacet
facet normal 0.0 0.0 1.0
  outer loop
    vertex 2.0000000000000133 100.00000000000001 1.7499999999999996
    vertex 3.9999999999999925 2.255973186038318e-14 1.7500000000000049
    vertex 4.00000000000001 100.00000000000001 1.7499999999999996
  endloop
endfacet
facet normal 0.0 0.165269012714935 -0.986248525188368
  outer loop
    vertex 2.000000000000005 49.92975230234989 13.873765934514305
    vertex 1.2689849171465539e-14 49.41482724404799 13.787478194827715
    vertex 1.2689849171465539e-14 49.92975230234989 13.873765934514305
  endloop
endfacet
facet normal 0.0 0.165269012714935 -0.986248525188368
  outer loop
    vertex 1.2689849171465539e-14 49.41482724404799 13.787478194827715
    vertex 2.000000000000005 49.92975230234989 13.873765934514305
    vertex 2.000000000000005 49.41482724404799 13.787478194827715
  endloop
endfacet
facet normal 0.0 -0.4148975091896687 0.9098681535630362
  outer loop
    vertex 2.000000000000005 50.58517275595205 9.962521805172289
    vertex 1.2689849171465539e-14 51.06021925797954 10.179141773316733
    vertex 1.2689849171465539e-14 50.58517275595205 9.962521805172289
  endloop
endfacet
facet normal 0.0 -0.4148975091896687 0.9098681535630362
  outer loop
    vertex 1.2689849171465539e-14 51.06021925797954 10.179141773316733
    vertex 2.000000000000005 50.58517275595205 9.962521805172289
    vertex 2.000000000000005 51.06021925797954 10.179141773316733
  endloop
endfacet
facet normal 0.0 -0.6362514260636818 0.7714817709006035
  outer loop
    vertex 2.000000000000005 51.06021925797954 10.179141773316733
    vertex 1.2689849171465539e-14 51.46301356967089 10.511331677071412
    vertex 1.2689849171465539e-14 51.06021925797954 10.179141773316733
  endloop
endfacet
facet normal 0.0 -0.6362514260636818 0.7714817709006035
  outer loop
    vertex 1.2689849171465539e-14 51.46301356967089 10.511331677071412
    vertex 2.000000000000005 51.06021925797954 10.179141773316733
    vertex 2.000000000000005 51.46301356967089 10.511331677071412
  endloop
endfacet
facet normal 0.0 0.9954176896748651 -0.09562229385637122
  outer loop
    vertex 1.2689849171465539e-14 48.0511589211194 12.324464625156848
    vertex 2.000000000000005 48.001234065485725 11.804752302349884
    vertex 1.2689849171465539e-14 48.001234065485725 11.804752302349884
  endloop
endfacet
facet normal 0.0 0.9954176896748651 -0.09562229385637122
  outer loop
    vertex 2.000000000000005 48.001234065485725 11.804752302349884
    vertex 1.2689849171465539e-14 48.0511589211194 12.324464625156848
    vertex 2.000000000000005 48.0511589211194 12.324464625156848
  endloop
endfacet
facet normal -0.0 -0.580520180485194 -0.8142458597066602
  outer loop
    vertex 2.000000000000005 51.36366832292861 13.338013569670874
    vertex 1.2689849171465539e-14 50.9385466765348 13.64110592433339
    vertex 1.2689849171465539e-14 51.36366832292861 13.338013569670874
  endloop
endfacet
facet normal -0.0 -0.580520180485194 -0.8142458597066602
  outer loop
    vertex 1.2689849171465539e-14 50.9385466765348 13.64110592433339
    vertex 2.000000000000005 51.36366832292861 13.338013569670874
    vertex 2.000000000000005 50.9385466765348 13.64110592433339
  endloop
endfacet
facet normal 0.0 -0.8142458597066514 0.580520180485206
  outer loop
    vertex 2.000000000000005 51.76610592433342 10.936453323465221
    vertex 1.2689849171465539e-14 51.46301356967089 10.511331677071412
    vertex 2.000000000000005 51.46301356967089 10.511331677071412
  endloop
endfacet
facet normal 0.0 -0.8142458597066514 0.580520180485206
  outer loop
    vertex 1.2689849171465539e-14 51.46301356967089 10.511331677071412
    vertex 2.000000000000005 51.76610592433342 10.936453323465221
    vertex 1.2689849171465539e-14 51.76610592433342 10.936453323465221
  endloop
endfacet
facet normal 0.0 0.6362514260636802 -0.771481770900605
  outer loop
    vertex 2.000000000000005 48.9397807420205 13.57085822668327
    vertex 1.2689849171465539e-14 48.53698643032915 13.238668322928591
    vertex 1.2689849171465539e-14 48.9397807420205 13.57085822668327
  endloop
endfacet
facet normal 0.0 0.6362514260636802 -0.771481770900605
  outer loop
    vertex 1.2689849171465539e-14 48.53698643032915 13.238668322928591
    vertex 2.000000000000005 48.9397807420205 13.57085822668327
    vertex 2.000000000000005 48.53698643032915 13.238668322928591
  endloop
endfacet
facet normal 0.0 0.3499970991246771 0.9367507836155309
  outer loop
    vertex 2.000000000000005 49.06145332346524 10.108894075666615
    vertex 1.2689849171465539e-14 49.550535374843186 9.92615892111938
    vertex 1.2689849171465539e-14 49.06145332346524 10.108894075666615
  endloop
endfacet
facet normal 0.0 0.3499970991246771 0.9367507836155309
  outer loop
    vertex 1.2689849171465539e-14 49.550535374843186 9.92615892111938
    vertex 2.000000000000005 49.06145332346524 10.108894075666615
    vertex 2.000000000000005 49.550535374843186 9.92615892111938
  endloop
endfacet
facet normal 0.0 0.9367507836155331 -0.3499970991246708
  outer loop
    vertex 1.2689849171465539e-14 48.233894075666626 12.813546676534783
    vertex 2.000000000000005 48.0511589211194 12.324464625156848
    vertex 1.2689849171465539e-14 48.0511589211194 12.324464625156848
  endloop
endfacet
facet normal 0.0 0.9367507836155331 -0.3499970991246708
  outer loop
    vertex 2.000000000000005 48.0511589211194 12.324464625156848
    vertex 1.2689849171465539e-14 48.233894075666626 12.813546676534783
    vertex 2.000000000000005 48.233894075666626 12.813546676534783
  endloop
endfacet
facet normal -0.0 -0.7714817709006055 -0.6362514260636796
  outer loop
    vertex 2.000000000000005 51.36366832292861 13.338013569670874
    vertex 1.2689849171465539e-14 51.695858226683285 12.935219257979524
    vertex 2.000000000000005 51.695858226683285 12.935219257979524
  endloop
endfacet
facet normal -0.0 -0.7714817709006055 -0.6362514260636796
  outer loop
    vertex 1.2689849171465539e-14 51.695858226683285 12.935219257979524
    vertex 2.000000000000005 51.36366832292861 13.338013569670874
    vertex 1.2689849171465539e-14 51.36366832292861 13.338013569670874
  endloop
endfacet
facet normal -0.0 -0.09562229385638218 -0.9954176896748641
  outer loop
    vertex 2.000000000000005 50.44946462515686 13.823841078880623
    vertex 1.2689849171465539e-14 49.92975230234989 13.873765934514305
    vertex 1.2689849171465539e-14 50.44946462515686 13.823841078880623
  endloop
endfacet
facet normal -0.0 -0.09562229385638218 -0.9954176896748641
  outer loop
    vertex 1.2689849171465539e-14 49.92975230234989 13.873765934514305
    vertex 2.000000000000005 50.44946462515686 13.823841078880623
    vertex 2.000000000000005 49.92975230234989 13.873765934514305
  endloop
endfacet
facet normal 0.0 0.9862485251883668 0.165269012714942
  outer loop
    vertex 1.2689849171465539e-14 48.001234065485725 11.804752302349884
    vertex 2.000000000000005 48.087521805172315 11.289827244047968
    vertex 1.2689849171465539e-14 48.087521805172315 11.289827244047968
  endloop
endfacet
facet normal 0.0 0.9862485251883668 0.165269012714942
  outer loop
    vertex 2.000000000000005 48.087521805172315 11.289827244047968
    vertex 1.2689849171465539e-14 48.001234065485725 11.804752302349884
    vertex 2.000000000000005 48.001234065485725 11.804752302349884
  endloop
endfacet
facet normal -0.0 -0.9862485251883669 -0.16526901271494154
  outer loop
    vertex 2.000000000000005 51.91247819482773 12.460172755952037
    vertex 1.2689849171465539e-14 51.99876593451432 11.945247697650121
    vertex 2.000000000000005 51.99876593451432 11.945247697650121
  endloop
endfacet
facet normal -0.0 -0.9862485251883669 -0.16526901271494154
  outer loop
    vertex 1.2689849171465539e-14 51.99876593451432 11.945247697650121
    vertex 2.000000000000005 51.91247819482773 12.460172755952037
    vertex 1.2689849171465539e-14 51.91247819482773 12.460172755952037
  endloop
endfacet
facet normal 0.0 0.8142458597066523 -0.5805201804852047
  outer loop
    vertex 1.2689849171465539e-14 48.53698643032915 13.238668322928591
    vertex 2.000000000000005 48.233894075666626 12.813546676534783
    vertex 1.2689849171465539e-14 48.233894075666626 12.813546676534783
  endloop
endfacet
facet normal 0.0 0.8142458597066523 -0.5805201804852047
  outer loop
    vertex 2.000000000000005 48.233894075666626 12.813546676534783
    vertex 1.2689849171465539e-14 48.53698643032915 13.238668322928591
    vertex 2.000000000000005 48.53698643032915 13.238668322928591
  endloop
endfacet
facet normal 0.0 -0.9954176896748651 0.09562229385637122
  outer loop
    vertex 2.000000000000005 51.99876593451432 11.945247697650121
    vertex 1.2689849171465539e-14 51.94884107888064 11.425535374843157
    vertex 2.000000000000005 51.94884107888064 11.425535374843157
  endloop
endfacet
facet normal 0.0 -0.9954176896748651 0.09562229385637122
  outer loop
    vertex 1.2689849171465539e-14 51.94884107888064 11.425535374843157
    vertex 2.000000000000005 51.99876593451432 11.945247697650121
    vertex 1.2689849171465539e-14 51.99876593451432 11.945247697650121
  endloop
endfacet
facet normal 0.0 -0.9367507836155334 0.3499970991246699
  outer loop
    vertex 2.000000000000005 51.94884107888064 11.425535374843157
    vertex 1.2689849171465539e-14 51.76610592433342 10.936453323465221
    vertex 2.000000000000005 51.76610592433342 10.936453323465221
  endloop
endfacet
facet normal 0.0 -0.9367507836155334 0.3499970991246699
  outer loop
    vertex 1.2689849171465539e-14 51.76610592433342 10.936453323465221
    vertex 2.000000000000005 51.94884107888064 11.425535374843157
    vertex 1.2689849171465539e-14 51.94884107888064 11.425535374843157
  endloop
endfacet
facet normal 0.0 0.7714817709006042 0.6362514260636809
  outer loop
    vertex 1.2689849171465539e-14 48.30414177331675 10.814780742020481
    vertex 2.000000000000005 48.63633167707143 10.411986430329133
    vertex 1.2689849171465539e-14 48.63633167707143 10.411986430329133
  endloop
endfacet
facet normal 0.0 0.7714817709006042 0.6362514260636809
  outer loop
    vertex 2.000000000000005 48.63633167707143 10.411986430329133
    vertex 1.2689849171465539e-14 48.30414177331675 10.814780742020481
    vertex 2.000000000000005 48.30414177331675 10.814780742020481
  endloop
endfacet
facet normal 0.0 0.580520180485194 0.8142458597066602
  outer loop
    vertex 2.000000000000005 48.63633167707143 10.411986430329133
    vertex 1.2689849171465539e-14 49.06145332346524 10.108894075666615
    vertex 1.2689849171465539e-14 48.63633167707143 10.411986430329133
  endloop
endfacet
facet normal 0.0 0.580520180485194 0.8142458597066602
  outer loop
    vertex 1.2689849171465539e-14 49.06145332346524 10.108894075666615
    vertex 2.000000000000005 48.63633167707143 10.411986430329133
    vertex 2.000000000000005 49.06145332346524 10.108894075666615
  endloop
endfacet
facet normal -0.0 -0.34999709912467236 -0.9367507836155327
  outer loop
    vertex 2.000000000000005 50.9385466765348 13.64110592433339
    vertex 1.2689849171465539e-14 50.44946462515686 13.823841078880623
    vertex 1.2689849171465539e-14 50.9385466765348 13.64110592433339
  endloop
endfacet
facet normal -0.0 -0.34999709912467236 -0.9367507836155327
  outer loop
    vertex 1.2689849171465539e-14 50.44946462515686 13.823841078880623
    vertex 2.000000000000005 50.9385466765348 13.64110592433339
    vertex 2.000000000000005 50.44946462515686 13.823841078880623
  endloop
endfacet
facet normal 0.0 -0.16526901271493236 0.9862485251883684
  outer loop
    vertex 2.000000000000005 50.07024769765015 9.876234065485702
    vertex 1.2689849171465539e-14 50.58517275595205 9.962521805172289
    vertex 1.2689849171465539e-14 50.07024769765015 9.876234065485702
  endloop
endfacet
facet normal 0.0 -0.16526901271493236 0.9862485251883684
  outer loop
    vertex 1.2689849171465539e-14 50.58517275595205 9.962521805172289
    vertex 2.000000000000005 50.07024769765015 9.876234065485702
    vertex 2.000000000000005 50.58517275595205 9.962521805172289
  endloop
endfacet
facet normal 0.0 0.41489750918967105 -0.9098681535630353
  outer loop
    vertex 2.000000000000005 49.41482724404799 13.787478194827715
    vertex 1.2689849171465539e-14 48.9397807420205 13.57085822668327
    vertex 1.2689849171465539e-14 49.41482724404799 13.787478194827715
  endloop
endfacet
facet normal 0.0 0.41489750918967105 -0.9098681535630353
  outer loop
    vertex 1.2689849171465539e-14 48.9397807420205 13.57085822668327
    vertex 2.000000000000005 49.41482724404799 13.787478194827715
    vertex 2.000000000000005 48.9397807420205 13.57085822668327
  endloop
endfacet
facet normal 0.0 0.9098681535630423 0.41489750918965557
  outer loop
    vertex 1.2689849171465539e-14 48.087521805172315 11.289827244047968
    vertex 2.000000000000005 48.30414177331675 10.814780742020481
    vertex 1.2689849171465539e-14 48.30414177331675 10.814780742020481
  endloop
endfacet
facet normal 0.0 0.9098681535630423 0.41489750918965557
  outer loop
    vertex 2.000000000000005 48.30414177331675 10.814780742020481
    vertex 1.2689849171465539e-14 48.087521805172315 11.289827244047968
    vertex 2.000000000000005 48.087521805172315 11.289827244047968
  endloop
endfacet
facet normal 0.0 0.09562229385637681 0.9954176896748644
  outer loop
    vertex 2.000000000000005 49.550535374843186 9.92615892111938
    vertex 1.2689849171465539e-14 50.07024769765015 9.876234065485702
    vertex 1.2689849171465539e-14 49.550535374843186 9.92615892111938
  endloop
endfacet
facet normal 0.0 0.09562229385637681 0.9954176896748644
  outer loop
    vertex 1.2689849171465539e-14 50.07024769765015 9.876234065485702
    vertex 2.000000000000005 49.550535374843186 9.92615892111938
    vertex 2.000000000000005 50.07024769765015 9.876234065485702
  endloop
endfacet
facet normal -0.0 -0.9098681535630418 -0.4148975091896566
  outer loop
    vertex 2.000000000000005 51.695858226683285 12.935219257979524
    vertex 1.2689849171465539e-14 51.91247819482773 12.460172755952037
    vertex 2.000000000000005 51.91247819482773 12.460172755952037
  endloop
endfacet
facet normal -0.0 -0.9098681535630418 -0.4148975091896566
  outer loop
    vertex 1.2689849171465539e-14 51.91247819482773 12.460172755952037
    vertex 2.000000000000005 51.695858226683285 12.935219257979524
    vertex 1.2689849171465539e-14 51.695858226683285 12.935219257979524
  endloop
endfacet
facet normal 0.0 0.0 -1.0
  outer loop
    vertex 41.38143572549625 100.00000000000001 90.99999999999997
    vertex 26.46099190871585 54.75000000000005 90.99999999999982
    vertex 20.81993349614759 99.99999999999997 90.99999999999997
  endloop
endfacet
facet normal 0.0 0.0 -1.0
  outer loop
    vertex 26.46099190871585 54.75000000000005 90.99999999999982
    vertex 41.38143572549625 100.00000000000001 90.99999999999997
    vertex 35.96099190871585 54.75000000000005 90.99999999999982
  endloop
endfacet
facet normal 0.0 0.0 -1.0
  outer loop
    vertex 35.96099190871585 54.75000000000005 90.99999999999982
    vertex 41.38143572549625 100.00000000000001 90.99999999999997
    vertex 35.96099190871585 45.24999999999999 90.99999999999987
  endloop
endfacet
facet normal 0.0 0.0 -1.0
  outer loop
    vertex 35.96099190871585 45.24999999999999 90.99999999999987
    vertex 41.38143572549625 100.00000000000001 90.99999999999997
    vertex 41.38143572549624 2.251743236314496e-14 90.99999999999997
  endloop
endfacet
facet normal 0.0 0.0 -1.0
  outer loop
    vertex 20.81993349614744 2.255973186038318e-14 90.99999999999997
    vertex 26.46099190871585 45.24999999999999 90.99999999999982
    vertex 41.38143572549624 2.251743236314496e-14 90.99999999999997
  endloop
endfacet
facet normal 0.0 0.0 -1.0
  outer loop
    vertex 26.46099190871585 45.24999999999999 90.99999999999982
    vertex 20.81993349614744 2.255973186038318e-14 90.99999999999997
    vertex 20.81993349614759 99.99999999999997 90.99999999999997
  endloop
endfacet
facet normal 0.0 0.0 -1.0
  outer loop
    vertex 26.46099190871585 45.24999999999999 90.99999999999982
    vertex 20.81993349614759 99.99999999999997 90.99999999999997
    vertex 26.46099190871585 54.75000000000005 90.99999999999982
  endloop
endfacet
facet normal 0.0 0.0 -1.0
  outer loop
    vertex 41.38143572549624 2.251743236314496e-14 90.99999999999997
    vertex 26.46099190871585 45.24999999999999 90.99999999999982
    vertex 35.96099190871585 45.24999999999999 90.99999999999987
  endloop
endfacet
facet normal 1.0 -8.897631055421286e-16 -1.5611623321271229e-15
  outer loop
    vertex 6.084305797363452 47.99999999999998 72.31285591145429
    vertex 6.084305797363382 2.255973186038318e-14 74.31285591145429
    vertex 6.084305797363382 2.255973186038318e-14 72.31285591145429
  endloop
endfacet
facet normal 1.0 -8.897631055421286e-16 -1.5611623321271229e-15
  outer loop
    vertex 6.084305797363382 2.255973186038318e-14 74.31285591145429
    vertex 6.084305797363452 47.99999999999998 72.31285591145429
    vertex 6.084305797363535 99.99999999999997 74.31285591145429
  endloop
endfacet
facet normal 1.0 -8.897631055421286e-16 -1.5611623321271229e-15
  outer loop
    vertex 6.084305797363535 99.99999999999997 74.31285591145429
    vertex 6.084305797363452 47.99999999999998 72.31285591145429
    vertex 6.084305797363527 51.99999999999997 72.31285591145429
  endloop
endfacet
facet normal 1.0 -8.897631055421286e-16 -1.5611623321271229e-15
  outer loop
    vertex 6.084305797363527 51.99999999999997 72.31285591145429
    vertex 6.084305797363452 47.99999999999998 72.31285591145429
    vertex 6.0843057973633945 48.00000000000002 24.0
  endloop
endfacet
facet normal 1.0 -8.897631055421286e-16 -1.5611623321271229e-15
  outer loop
    vertex 6.084305797363535 99.99999999999997 74.31285591145429
    vertex 6.084305797363527 51.99999999999997 72.31285591145429
    vertex 6.084305797363532 99.99999999999997 72.31285591145429
  endloop
endfacet
facet normal 1.0 -8.897631055421286e-16 -1.5611623321271229e-15
  outer loop
    vertex 6.0843057973634 100.00000000000001 22.0
    vertex 6.08430579736337 2.255973186038318e-14 23.99999999999995
    vertex 6.084305797363383 2.255973186038318e-14 22.000000000000004
  endloop
endfacet
facet normal 1.0 -8.897631055421286e-16 -1.5611623321271229e-15
  outer loop
    vertex 6.08430579736337 2.255973186038318e-14 23.99999999999995
    vertex 6.0843057973634 100.00000000000001 22.0
    vertex 6.0843057973633945 48.00000000000002 24.0
  endloop
endfacet
facet normal 1.0 -8.897631055421286e-16 -1.5611623321271229e-15
  outer loop
    vertex 6.0843057973633945 48.00000000000002 24.0
    vertex 6.0843057973634 100.00000000000001 22.0
    vertex 6.0843057973633945 52.000000000000014 24.0
  endloop
endfacet
facet normal 1.0 -8.897631055421286e-16 -1.5611623321271229e-15
  outer loop
    vertex 6.0843057973633945 48.00000000000002 24.0
    vertex 6.0843057973633945 52.000000000000014 24.0
    vertex 6.084305797363527 51.99999999999997 72.31285591145429
  endloop
endfacet
facet normal 1.0 -8.897631055421286e-16 -1.5611623321271229e-15
  outer loop
    vertex 6.0843057973633945 52.000000000000014 24.0
    vertex 6.0843057973634 100.00000000000001 22.0
    vertex 6.0843057973634025 100.00000000000001 23.999999999999996
  endloop
endfacet
facet normal 1.0 -7.644047562744593e-16 -1.1981971353927655e-15
  outer loop
    vertex 3.5843057973633945 48.00000000000002 24.0
    vertex 3.584305797363381 2.255973186038318e-14 28.00000000000001
    vertex 3.58430579736337 2.255973186038318e-14 23.999999999999954
  endloop
endfacet
facet normal 1.0 -7.644047562744593e-16 -1.1981971353927655e-15
  outer loop
    vertex 3.584305797363381 2.255973186038318e-14 28.00000000000001
    vertex 3.5843057973633945 48.00000000000002 24.0
    vertex 3.584305797363396 44.000000000000036 28.0
  endloop
endfacet
facet normal 1.0 -7.644047562744593e-16 -1.1981971353927655e-15
  outer loop
    vertex 3.584305797363396 44.000000000000036 28.0
    vertex 3.5843057973633945 48.00000000000002 24.0
    vertex 3.5843057973634522 47.99999999999998 72.31285591145429
  endloop
endfacet
facet normal 1.0 -7.644047562744593e-16 -1.1981971353927655e-15
  outer loop
    vertex 3.584305797363481 43.999999999999986 68.31285591145429
    vertex 3.5843057973633825 2.255973186038318e-14 72.31285591145429
    vertex 3.584305797363447 2.255973186038318e-14 68.31285591145429
  endloop
endfacet
facet normal 1.0 -7.644047562744593e-16 -1.1981971353927655e-15
  outer loop
    vertex 3.5843057973633825 2.255973186038318e-14 72.31285591145429
    vertex 3.584305797363481 43.999999999999986 68.31285591145429
    vertex 3.5843057973634522 47.99999999999998 72.31285591145429
  endloop
endfacet
facet normal 1.0 -7.644047562744593e-16 -1.1981971353927655e-15
  outer loop
    vertex 3.5843057973634522 47.99999999999998 72.31285591145429
    vertex 3.584305797363481 43.999999999999986 68.31285591145429
    vertex 3.584305797363396 44.000000000000036 28.0
  endloop
endfacet
facet normal 7.296107913068226e-16 -9.987381292357142e-16 1.0
  outer loop
    vertex 6.08430579736337 2.255973186038318e-14 23.99999999999995
    vertex 3.5843057973633945 48.00000000000002 24.0
    vertex 3.58430579736337 2.255973186038318e-14 23.999999999999954
  endloop
endfacet
facet normal 7.296107913068226e-16 -9.987381292357142e-16 1.0
  outer loop
    vertex 3.5843057973633945 48.00000000000002 24.0
    vertex 6.08430579736337 2.255973186038318e-14 23.99999999999995
    vertex 6.0843057973633945 48.00000000000002 24.0
  endloop
endfacet
facet normal 0.0 0.0 -1.0
  outer loop
    vertex 1.3112844143847723e-13 99.99999999999997 68.31285591145429
    vertex 3.5843057973635157 55.999999999999986 68.31285591145429
    vertex 1.2478351685274447e-13 55.999999999999986 68.31285591145429
  endloop
endfacet
facet normal 0.0 0.0 -1.0
  outer loop
    vertex 3.5843057973635157 55.999999999999986 68.31285591145429
    vertex 1.3112844143847723e-13 99.99999999999997 68.31285591145429
    vertex 3.5843057973635224 99.99999999999997 68.31285591145429
  endloop
endfacet
facet normal 1.6823663674291573e-16 1.0 5.596163147045394e-16
  outer loop
    vertex 1.2478351685274447e-13 55.999999999999986 68.31285591145429
    vertex 3.5843057973634003 56.00000000000001 28.0
    vertex 9.164891068280667e-15 56.00000000000001 28.0
  endloop
endfacet
facet normal 1.6823663674291573e-16 1.0 5.596163147045394e-16
  outer loop
    vertex 3.5843057973634003 56.00000000000001 28.0
    vertex 1.2478351685274447e-13 55.999999999999986 68.31285591145429
    vertex 3.5843057973635157 55.999999999999986 68.31285591145429
  endloop
endfacet
facet normal -4.361007171323562e-32 2.5636058932253605e-16 1.0
  outer loop
    vertex 3.584305797363381 2.255973186038318e-14 28.00000000000001
    vertex 1.973976537783528e-14 44.000000000000036 28.0
    vertex 4.93494134445882e-15 2.255973186038318e-14 28.00000000000001
  endloop
endfacet
facet normal -4.361007171323562e-32 2.5636058932253605e-16 1.0
  outer loop
    vertex 1.973976537783528e-14 44.000000000000036 28.0
    vertex 3.584305797363381 2.255973186038318e-14 28.00000000000001
    vertex 3.584305797363396 44.000000000000036 28.0
  endloop
endfacet
facet normal 0.0 0.0 1.0
  outer loop
    vertex 3.5843057973634003 56.00000000000001 28.0
    vertex 1.762479051592436e-14 100.00000000000001 28.0
    vertex 9.164891068280667e-15 56.00000000000001 28.0
  endloop
endfacet
facet normal 0.0 0.0 1.0
  outer loop
    vertex 1.762479051592436e-14 100.00000000000001 28.0
    vertex 3.5843057973634003 56.00000000000001 28.0
    vertex 3.5843057973634087 100.00000000000001 28.0
  endloop
endfacet
facet normal 0.0 1.0 0.0
  outer loop
    vertex 1.678589752390796e-14 100.00000000000001 0.0
    vertex 2.0000000000000133 100.00000000000001 1.7499999999999996
    vertex 4.00000000000001 100.00000000000001 1.4099832412739487e-15
  endloop
endfacet
facet normal 0.0 1.0 0.0
  outer loop
    vertex 2.0000000000000133 100.00000000000001 1.7499999999999996
    vertex 1.678589752390796e-14 100.00000000000001 0.0
    vertex 1.762479051592436e-14 100.00000000000001 28.0
  endloop
endfacet
facet normal 0.0 1.0 0.0
  outer loop
    vertex 2.0000000000000133 100.00000000000001 1.7499999999999996
    vertex 1.762479051592436e-14 100.00000000000001 28.0
    vertex 2.0000000000000133 100.00000000000001 22.0
  endloop
endfacet
facet normal 0.0 1.0 0.0
  outer loop
    vertex 2.0000000000000133 100.00000000000001 22.0
    vertex 1.762479051592436e-14 100.00000000000001 28.0
    vertex 3.584305797363403 100.00000000000001 24.0
  endloop
endfacet
facet normal 0.0 1.0 0.0
  outer loop
    vertex 2.0000000000000133 100.00000000000001 22.0
    vertex 3.584305797363403 100.00000000000001 24.0
    vertex 6.0843057973634 100.00000000000001 22.0
  endloop
endfacet
facet normal 0.0 1.0 0.0
  outer loop
    vertex 6.0843057973634 100.00000000000001 22.0
    vertex 3.584305797363403 100.00000000000001 24.0
    vertex 6.0843057973634025 100.00000000000001 23.999999999999996
  endloop
endfacet
facet normal 0.0 1.0 0.0
  outer loop
    vertex 3.584305797363403 100.00000000000001 24.0
    vertex 1.762479051592436e-14 100.00000000000001 28.0
    vertex 3.5843057973634087 100.00000000000001 28.0
  endloop
endfacet
facet normal 0.0 1.0 0.0
  outer loop
    vertex 4.00000000000001 100.00000000000001 1.7499999999999996
    vertex 4.00000000000001 100.00000000000001 1.4099832412739487e-15
    vertex 2.0000000000000133 100.00000000000001 1.7499999999999996
  endloop
endfacet
facet normal -5.607887891430501e-16 -1.0 -1.1192326294090787e-15
  outer loop
    vertex 3.584305797363481 43.999999999999986 68.31285591145429
    vertex 1.973976537783528e-14 44.000000000000036 28.0
    vertex 3.584305797363396 44.000000000000036 28.0
  endloop
endfacet
facet normal -5.607887891430501e-16 -1.0 -1.1192326294090787e-15
  outer loop
    vertex 1.973976537783528e-14 44.000000000000036 28.0
    vertex 3.584305797363481 43.999999999999986 68.31285591145429
    vertex 1.0504375147490918e-13 43.999999999999986 68.31285591145429
  endloop
endfacet
facet normal 0.0 -1.0 0.0
  outer loop
    vertex 6.08430579736337 2.255973186038318e-14 23.99999999999995
    vertex 1.9999999999999962 2.255973186038318e-14 22.000000000000004
    vertex 6.084305797363383 2.255973186038318e-14 22.000000000000004
  endloop
endfacet
facet normal 0.0 -1.0 0.0
  outer loop
    vertex 0.0 2.255973186038318e-14 5.314019919918478e-15
    vertex 1.9999999999999962 2.255973186038318e-14 1.7500000000000049
    vertex 4.93494134445882e-15 2.255973186038318e-14 28.00000000000001
  endloop
endfacet
facet normal 0.0 -1.0 0.0
  outer loop
    vertex 1.9999999999999962 2.255973186038318e-14 1.7500000000000049
    vertex 0.0 2.255973186038318e-14 5.314019919918478e-15
    vertex 3.9999999999999925 2.255973186038318e-14 6.724003161192427e-15
  endloop
endfacet
facet normal 0.0 -1.0 0.0
  outer loop
    vertex 1.9999999999999962 2.255973186038318e-14 1.7500000000000049
    vertex 3.9999999999999925 2.255973186038318e-14 6.724003161192427e-15
    vertex 3.9999999999999925 2.255973186038318e-14 1.7500000000000049
  endloop
endfacet
facet normal 0.0 -1.0 0.0
  outer loop
    vertex 4.93494134445882e-15 2.255973186038318e-14 28.00000000000001
    vertex 1.9999999999999962 2.255973186038318e-14 1.7500000000000049
    vertex 1.9999999999999962 2.255973186038318e-14 22.000000000000004
  endloop
endfacet
facet normal 0.0 -1.0 0.0
  outer loop
    vertex 4.93494134445882e-15 2.255973186038318e-14 28.00000000000001
    vertex 1.9999999999999962 2.255973186038318e-14 22.000000000000004
    vertex 3.58430579736337 2.255973186038318e-14 23.999999999999954
  endloop
endfacet
facet normal 0.0 -1.0 0.0
  outer loop
    vertex 3.58430579736337 2.255973186038318e-14 23.999999999999954
    vertex 1.9999999999999962 2.255973186038318e-14 22.000000000000004
    vertex 6.08430579736337 2.255973186038318e-14 23.99999999999995
  endloop
endfacet
facet normal 0.0 -1.0 0.0
  outer loop
    vertex 4.93494134445882e-15 2.255973186038318e-14 28.00000000000001
    vertex 3.58430579736337 2.255973186038318e-14 23.999999999999954
    vertex 3.584305797363381 2.255973186038318e-14 28.00000000000001
  endloop
endfacet
facet normal 2.714152143661384e-15 5.874930171974739e-17 1.0
  outer loop
    vertex 6.0843057973633945 52.000000000000014 24.0
    vertex 3.584305797363403 100.00000000000001 24.0
    vertex 3.5843057973633945 52.000000000000014 24.000000000000004
  endloop
endfacet
facet normal 2.714152143661384e-15 5.874930171974739e-17 1.0
  outer loop
    vertex 3.584305797363403 100.00000000000001 24.0
    vertex 6.0843057973633945 52.000000000000014 24.0
    vertex 6.0843057973634025 100.00000000000001 23.999999999999996
  endloop
endfacet
facet normal -7.296107913068234e-16 1.0608870817825979e-30 -1.0
  outer loop
    vertex 3.5843057973634522 47.99999999999998 72.31285591145429
    vertex 6.084305797363382 2.255973186038318e-14 72.31285591145429
    vertex 3.5843057973633825 2.255973186038318e-14 72.31285591145429
  endloop
endfacet
facet normal -7.296107913068234e-16 1.0608870817825979e-30 -1.0
  outer loop
    vertex 6.084305797363382 2.255973186038318e-14 72.31285591145429
    vertex 3.5843057973634522 47.99999999999998 72.31285591145429
    vertex 6.084305797363452 47.99999999999998 72.31285591145429
  endloop
endfacet
facet normal 0.0 0.0 -1.0
  outer loop
    vertex 1.0504375147490918e-13 43.999999999999986 68.31285591145429
    vertex 3.584305797363447 2.255973186038318e-14 68.31285591145429
    vertex 7.049916206369744e-14 2.255973186038318e-14 68.31285591145429
  endloop
endfacet
facet normal 0.0 0.0 -1.0
  outer loop
    vertex 3.584305797363447 2.255973186038318e-14 68.31285591145429
    vertex 1.0504375147490918e-13 43.999999999999986 68.31285591145429
    vertex 3.584305797363481 43.999999999999986 68.31285591145429
  endloop
endfacet
facet normal 6.026561176754931e-16 1.0 -4.6773257018108655e-15
  outer loop
    vertex 8.838725553437527 100.00000000000001 95.161555119214
    vertex 10.33872555343746 100.00000000000001 90.16155511921401
    vertex 3.0943770258460166 100.00000000000001 89.0534034295928
  endloop
endfacet
facet normal 6.026561176754931e-16 1.0 -4.6773257018108655e-15
  outer loop
    vertex 10.33872555343746 100.00000000000001 90.16155511921401
    vertex 8.838725553437527 100.00000000000001 95.161555119214
    vertex 10.33872555343746 100.00000000000001 92.661555119214
  endloop
endfacet
facet normal 6.026561176754931e-16 1.0 -4.6773257018108655e-15
  outer loop
    vertex 10.33872555343746 100.00000000000001 92.661555119214
    vertex 8.838725553437527 100.00000000000001 95.161555119214
    vertex 12.338725553437547 100.00000000000001 92.661555119214
  endloop
endfacet
facet normal 6.026561176754931e-16 1.0 -4.6773257018108655e-15
  outer loop
    vertex 12.338725553437547 100.00000000000001 92.661555119214
    vertex 8.838725553437527 100.00000000000001 95.161555119214
    vertex 12.338725553437547 100.00000000000001 96.75655366263864
  endloop
endfacet
facet normal 6.026561176754931e-16 1.0 -4.6773257018108655e-15
  outer loop
    vertex 12.338725553437547 100.00000000000001 96.75655366263864
    vertex 8.838725553437527 100.00000000000001 95.161555119214
    vertex 10.338725553437548 100.00000000000001 96.75655366263864
  endloop
endfacet
facet normal 6.026561176754931e-16 1.0 -4.6773257018108655e-15
  outer loop
    vertex 16.458875779887638 100.00000000000031 93.35155220606232
    vertex 22.533813182559477 100.00000000000007 93.15165430507064
    vertex 15.45887577988698 100.00000000000001 92.28821984377971
  endloop
endfacet
facet normal 6.026561176754931e-16 1.0 -4.6773257018108655e-15
  outer loop
    vertex 22.533813182559477 100.00000000000007 93.15165430507064
    vertex 16.458875779887638 100.00000000000031 93.35155220606232
    vertex 22.533813182559477 100.00000000000007 95.161555119214
  endloop
endfacet
facet normal 6.026561176754931e-16 1.0 -4.6773257018108655e-15
  outer loop
    vertex 22.533813182559477 100.00000000000007 95.161555119214
    vertex 16.458875779887638 100.00000000000031 93.35155220606232
    vertex 16.458875779887638 100.00000000000031 95.16155511921376
  endloop
endfacet
facet normal 6.026561176754931e-16 1.0 -4.6773257018108655e-15
  outer loop
    vertex 1.678589752390796e-14 100.00000000000001 84.80090252963186
    vertex 3.5843057973635224 99.99999999999997 68.31285591145429
    vertex 1.3112844143847723e-13 99.99999999999997 68.31285591145429
  endloop
endfacet
facet normal 6.026561176754931e-16 1.0 -4.6773257018108655e-15
  outer loop
    vertex 3.5843057973635224 99.99999999999997 68.31285591145429
    vertex 1.678589752390796e-14 100.00000000000001 84.80090252963186
    vertex 3.5843057973635326 99.99999999999997 72.31285591145429
  endloop
endfacet
facet normal 6.026561176754931e-16 1.0 -4.6773257018108655e-15
  outer loop
    vertex 3.5843057973635326 99.99999999999997 72.31285591145429
    vertex 1.678589752390796e-14 100.00000000000001 84.80090252963186
    vertex 6.084305797363532 99.99999999999997 72.31285591145429
  endloop
endfacet
facet normal 6.026561176754931e-16 1.0 -4.6773257018108655e-15
  outer loop
    vertex 6.084305797363532 99.99999999999997 72.31285591145429
    vertex 1.678589752390796e-14 100.00000000000001 84.80090252963186
    vertex 6.084305797363535 99.99999999999997 74.31285591145429
  endloop
endfacet
facet normal 6.026561176754931e-16 1.0 -4.6773257018108655e-15
  outer loop
    vertex 6.084305797363535 99.99999999999997 74.31285591145429
    vertex 1.678589752390796e-14 100.00000000000001 84.80090252963186
    vertex 13.218746434948253 99.99999999999989 83.44845403107033
  endloop
endfacet
facet normal 6.026561176754931e-16 1.0 -4.6773257018108655e-15
  outer loop
    vertex 13.218746434948253 99.99999999999989 83.44845403107033
    vertex 1.678589752390796e-14 100.00000000000001 84.80090252963186
    vertex 20.81993349614759 99.99999999999997 90.99999999999997
  endloop
endfacet
facet normal 6.026561176754931e-16 1.0 -4.6773257018108655e-15
  outer loop
    vertex 20.81993349614759 99.99999999999997 90.99999999999997
    vertex 1.678589752390796e-14 100.00000000000001 84.80090252963186
    vertex 15.45887577988698 100.00000000000001 90.16155511921401
  endloop
endfacet
facet normal 6.026561176754931e-16 1.0 -4.6773257018108655e-15
  outer loop
    vertex 15.45887577988698 100.00000000000001 90.16155511921401
    vertex 1.678589752390796e-14 100.00000000000001 84.80090252963186
    vertex 3.0943770258460166 100.00000000000001 89.0534034295928
  endloop
endfacet
facet normal 6.026561176754931e-16 1.0 -4.6773257018108655e-15
  outer loop
    vertex 15.45887577988698 100.00000000000001 90.16155511921401
    vertex 3.0943770258460166 100.00000000000001 89.0534034295928
    vertex 10.33872555343746 100.00000000000001 90.16155511921401
  endloop
endfacet
facet normal 6.026561176754931e-16 1.0 -4.6773257018108655e-15
  outer loop
    vertex 20.81993349614759 99.99999999999997 90.99999999999997
    vertex 15.45887577988698 100.00000000000001 90.16155511921401
    vertex 15.45887577988698 100.00000000000001 92.28821984377971
  endloop
endfacet
facet normal 6.026561176754931e-16 1.0 -4.6773257018108655e-15
  outer loop
    vertex 20.81993349614759 99.99999999999997 90.99999999999997
    vertex 15.45887577988698 100.00000000000001 92.28821984377971
    vertex 41.38143572549625 100.00000000000001 90.99999999999997
  endloop
endfacet
facet normal 6.026561176754931e-16 1.0 -4.6773257018108655e-15
  outer loop
    vertex 41.38143572549625 100.00000000000001 90.99999999999997
    vertex 15.45887577988698 100.00000000000001 92.28821984377971
    vertex 39.88817063487225 100.00000000000007 93.15165430507064
  endloop
endfacet
facet normal 6.026561176754931e-16 1.0 -4.6773257018108655e-15
  outer loop
    vertex 41.38143572549625 100.00000000000001 90.99999999999997
    vertex 39.88817063487225 100.00000000000007 93.15165430507064
    vertex 41.38143572549625 100.00000000000001 95.161555119214
  endloop
endfacet
facet normal 6.026561176754931e-16 1.0 -4.6773257018108655e-15
  outer loop
    vertex 39.88817063487225 100.00000000000007 93.15165430507064
    vertex 15.45887577988698 100.00000000000001 92.28821984377971
    vertex 22.533813182559477 100.00000000000007 93.15165430507064
  endloop
endfacet
facet normal 6.026561176754931e-16 1.0 -4.6773257018108655e-15
  outer loop
    vertex 41.38143572549625 100.00000000000001 95.161555119214
    vertex 39.88817063487225 100.00000000000007 93.15165430507064
    vertex 39.88817063487225 100.00000000000001 95.161555119214
  endloop
endfacet
facet normal -0.7284677904894209 -1.6574936914176908e-16 0.6850800524168409
  outer loop
    vertex 16.45887577988698 7.351056091042613e-14 93.35155220606256
    vertex 15.45887577988698 100.00000000000001 92.28821984377971
    vertex 15.45887577988698 2.255973186038318e-14 92.28821984377971
  endloop
endfacet
facet normal -0.7284677904894209 -1.6574936914176908e-16 0.6850800524168409
  outer loop
    vertex 15.45887577988698 100.00000000000001 92.28821984377971
    vertex 16.45887577988698 7.351056091042613e-14 93.35155220606256
    vertex 16.458875779887638 100.00000000000031 93.35155220606232
  endloop
endfacet
facet normal -9.840508038057775e-16 -1.0 -9.33901812872733e-16
  outer loop
    vertex 6.084305797363452 47.99999999999998 72.31285591145429
    vertex 3.5843057973633945 48.00000000000002 24.0
    vertex 6.0843057973633945 48.00000000000002 24.0
  endloop
endfacet
facet normal -9.840508038057775e-16 -1.0 -9.33901812872733e-16
  outer loop
    vertex 3.5843057973633945 48.00000000000002 24.0
    vertex 6.084305797363452 47.99999999999998 72.31285591145429
    vertex 3.5843057973634522 47.99999999999998 72.31285591145429
  endloop
endfacet
facet normal -2.714152143661384e-15 3.189090864025262e-31 -1.0
  outer loop
    vertex 3.5843057973635326 99.99999999999997 72.31285591145429
    vertex 6.084305797363527 51.99999999999997 72.31285591145429
    vertex 3.5843057973635273 51.99999999999997 72.31285591145429
  endloop
endfacet
facet normal -2.714152143661384e-15 3.189090864025262e-31 -1.0
  outer loop
    vertex 6.084305797363527 51.99999999999997 72.31285591145429
    vertex 3.5843057973635326 99.99999999999997 72.31285591145429
    vertex 6.084305797363532 99.99999999999997 72.31285591145429
  endloop
endfacet
facet normal 1.0 -1.5384351043561115e-16 -2.7665474337261762e-15
  outer loop
    vertex 3.5843057973633945 52.000000000000014 24.000000000000004
    vertex 3.5843057973634003 56.00000000000001 28.0
    vertex 3.5843057973635157 55.999999999999986 68.31285591145429
  endloop
endfacet
facet normal 1.0 -1.5384351043561115e-16 -2.7665474337261762e-15
  outer loop
    vertex 3.5843057973634003 56.00000000000001 28.0
    vertex 3.5843057973633945 52.000000000000014 24.000000000000004
    vertex 3.584305797363403 100.00000000000001 24.0
  endloop
endfacet
facet normal 1.0 -1.5384351043561115e-16 -2.7665474337261762e-15
  outer loop
    vertex 3.5843057973634003 56.00000000000001 28.0
    vertex 3.584305797363403 100.00000000000001 24.0
    vertex 3.5843057973634087 100.00000000000001 28.0
  endloop
endfacet
facet normal 1.0 -1.5384351043561115e-16 -2.7665474337261762e-15
  outer loop
    vertex 3.5843057973635273 51.99999999999997 72.31285591145429
    vertex 3.5843057973635157 55.999999999999986 68.31285591145429
    vertex 3.5843057973635326 99.99999999999997 72.31285591145429
  endloop
endfacet
facet normal 1.0 -1.5384351043561115e-16 -2.7665474337261762e-15
  outer loop
    vertex 3.5843057973635157 55.999999999999986 68.31285591145429
    vertex 3.5843057973635273 51.99999999999997 72.31285591145429
    vertex 3.5843057973633945 52.000000000000014 24.000000000000004
  endloop
endfacet
facet normal 1.0 -1.5384351043561115e-16 -2.7665474337261762e-15
  outer loop
    vertex 3.5843057973635326 99.99999999999997 72.31285591145429
    vertex 3.5843057973635157 55.999999999999986 68.31285591145429
    vertex 3.5843057973635224 99.99999999999997 68.31285591145429
  endloop
endfacet
facet normal 1.4687325429937224e-16 1.0 9.339018128727337e-16
  outer loop
    vertex 3.5843057973633945 52.000000000000014 24.000000000000004
    vertex 6.084305797363527 51.99999999999997 72.31285591145429
    vertex 6.0843057973633945 52.000000000000014 24.0
  endloop
endfacet
facet normal 1.4687325429937224e-16 1.0 9.339018128727337e-16
  outer loop
    vertex 6.084305797363527 51.99999999999997 72.31285591145429
    vertex 3.5843057973633945 52.000000000000014 24.000000000000004
    vertex 3.5843057973635273 51.99999999999997 72.31285591145429
  endloop
endfacet
facet normal 0.0 0.0 1.0
  outer loop
    vertex 12.33872555343753 2.255973186038318e-14 96.75655366263864
    vertex 10.338725553437548 100.00000000000001 96.75655366263864
    vertex 10.33872555343753 2.255973186038318e-14 96.75655366263864
  endloop
endfacet
facet normal 0.0 0.0 1.0
  outer loop
    vertex 10.338725553437548 100.00000000000001 96.75655366263864
    vertex 12.33872555343753 2.255973186038318e-14 96.75655366263864
    vertex 12.338725553437547 100.00000000000001 96.75655366263864
  endloop
endfacet
facet normal -2.345250031293553e-16 -1.0 7.695605392722295e-16
  outer loop
    vertex 6.084305797363382 2.255973186038318e-14 74.31285591145429
    vertex 3.5843057973633825 2.255973186038318e-14 72.31285591145429
    vertex 6.084305797363382 2.255973186038318e-14 72.31285591145429
  endloop
endfacet
facet normal -2.345250031293553e-16 -1.0 7.695605392722295e-16
  outer loop
    vertex 3.5843057973633825 2.255973186038318e-14 72.31285591145429
    vertex 7.049916206369744e-14 2.255973186038318e-14 68.31285591145429
    vertex 3.584305797363447 2.255973186038318e-14 68.31285591145429
  endloop
endfacet
facet normal -2.345250031293553e-16 -1.0 7.695605392722295e-16
  outer loop
    vertex 7.049916206369744e-14 2.255973186038318e-14 68.31285591145429
    vertex 3.5843057973633825 2.255973186038318e-14 72.31285591145429
    vertex 0.0 2.255973186038318e-14 84.80090252963186
  endloop
endfacet
facet normal -2.345250031293553e-16 -1.0 7.695605392722295e-16
  outer loop
    vertex 0.0 2.255973186038318e-14 84.80090252963186
    vertex 3.5843057973633825 2.255973186038318e-14 72.31285591145429
    vertex 6.084305797363382 2.255973186038318e-14 74.31285591145429
  endloop
endfacet
facet normal -2.345250031293553e-16 -1.0 7.695605392722295e-16
  outer loop
    vertex 0.0 2.255973186038318e-14 84.80090252963186
    vertex 6.084305797363382 2.255973186038318e-14 74.31285591145429
    vertex 13.2187464349481 0.0 83.44845403107033
  endloop
endfacet
facet normal -2.345250031293553e-16 -1.0 7.695605392722295e-16
  outer loop
    vertex 0.0 2.255973186038318e-14 84.80090252963186
    vertex 13.2187464349481 0.0 83.44845403107033
    vertex 20.81993349614744 2.255973186038318e-14 90.99999999999997
  endloop
endfacet
facet normal -2.345250031293553e-16 -1.0 7.695605392722295e-16
  outer loop
    vertex 0.0 2.255973186038318e-14 84.80090252963186
    vertex 20.81993349614744 2.255973186038318e-14 90.99999999999997
    vertex 15.45887577988698 2.255973186038318e-14 90.16155511921401
  endloop
endfacet
facet normal -2.345250031293553e-16 -1.0 7.695605392722295e-16
  outer loop
    vertex 0.0 2.255973186038318e-14 84.80090252963186
    vertex 15.45887577988698 2.255973186038318e-14 90.16155511921401
    vertex 3.0943770258459997 2.255973186038318e-14 89.0534034295928
  endloop
endfacet
facet normal -2.345250031293553e-16 -1.0 7.695605392722295e-16
  outer loop
    vertex 15.45887577988698 2.255973186038318e-14 90.16155511921401
    vertex 20.81993349614744 2.255973186038318e-14 90.99999999999997
    vertex 15.45887577988698 2.255973186038318e-14 92.28821984377971
  endloop
endfacet
facet normal -2.345250031293553e-16 -1.0 7.695605392722295e-16
  outer loop
    vertex 41.38143572549624 2.251743236314496e-14 90.99999999999997
    vertex 39.88769361322552 2.255973186038318e-14 93.15210879141507
    vertex 20.81993349614744 2.255973186038318e-14 90.99999999999997
  endloop
endfacet
facet normal -2.345250031293553e-16 -1.0 7.695605392722295e-16
  outer loop
    vertex 39.88769361322552 2.255973186038318e-14 93.15210879141507
    vertex 41.38143572549624 2.251743236314496e-14 90.99999999999997
    vertex 41.38143572549625 2.251743236314496e-14 95.161555119214
  endloop
endfacet
facet normal -2.345250031293553e-16 -1.0 7.695605392722295e-16
  outer loop
    vertex 20.81993349614744 2.255973186038318e-14 90.99999999999997
    vertex 39.88769361322552 2.255973186038318e-14 93.15210879141507
    vertex 15.45887577988698 2.255973186038318e-14 92.28821984377971
  endloop
endfacet
facet normal -2.345250031293553e-16 -1.0 7.695605392722295e-16
  outer loop
    vertex 15.45887577988698 2.255973186038318e-14 92.28821984377971
    vertex 39.88769361322552 2.255973186038318e-14 93.15210879141507
    vertex 22.533336160912746 4.511946372076636e-14 93.15210879119027
  endloop
endfacet
facet normal -2.345250031293553e-16 -1.0 7.695605392722295e-16
  outer loop
    vertex 39.88769361322552 2.255973186038318e-14 93.15210879141507
    vertex 41.38143572549625 2.251743236314496e-14 95.161555119214
    vertex 39.88769361322552 2.255973186038318e-14 95.161555119214
  endloop
endfacet
facet normal -2.345250031293553e-16 -1.0 7.695605392722295e-16
  outer loop
    vertex 22.533336160912746 4.511946372076636e-14 93.15210879119027
    vertex 16.45887577988698 7.351056091042613e-14 93.35155220606256
    vertex 15.45887577988698 2.255973186038318e-14 92.28821984377971
  endloop
endfacet
facet normal -2.345250031293553e-16 -1.0 7.695605392722295e-16
  outer loop
    vertex 16.45887577988698 7.351056091042613e-14 93.35155220606256
    vertex 22.533336160912746 4.511946372076636e-14 93.15210879119027
    vertex 22.533336160912746 2.255973186038318e-14 95.161555119214
  endloop
endfacet
facet normal -2.345250031293553e-16 -1.0 7.695605392722295e-16
  outer loop
    vertex 16.45887577988698 7.351056091042613e-14 93.35155220606256
    vertex 22.533336160912746 2.255973186038318e-14 95.161555119214
    vertex 16.45887577988698 7.937777998539618e-14 95.161555119214
  endloop
endfacet
facet normal -2.345250031293553e-16 -1.0 7.695605392722295e-16
  outer loop
    vertex 12.33872555343753 2.255973186038318e-14 96.75655366263864
    vertex 10.338725553437444 2.255973186038318e-14 92.661555119214
    vertex 12.33872555343753 2.255973186038318e-14 92.661555119214
  endloop
endfacet
facet normal -2.345250031293553e-16 -1.0 7.695605392722295e-16
  outer loop
    vertex 3.0943770258459997 2.255973186038318e-14 89.0534034295928
    vertex 10.338725553437444 2.255973186038318e-14 92.661555119214
    vertex 10.33872555343753 2.255973186038318e-14 96.75655366263864
  endloop
endfacet
facet normal -2.345250031293553e-16 -1.0 7.695605392722295e-16
  outer loop
    vertex 10.338725553437444 2.255973186038318e-14 92.661555119214
    vertex 3.0943770258459997 2.255973186038318e-14 89.0534034295928
    vertex 10.338725553437444 2.255973186038318e-14 90.16155511921401
  endloop
endfacet
facet normal -2.345250031293553e-16 -1.0 7.695605392722295e-16
  outer loop
    vertex 10.338725553437444 2.255973186038318e-14 90.16155511921401
    vertex 3.0943770258459997 2.255973186038318e-14 89.0534034295928
    vertex 15.45887577988698 2.255973186038318e-14 90.16155511921401
  endloop
endfacet
facet normal -2.345250031293553e-16 -1.0 7.695605392722295e-16
  outer loop
    vertex 10.33872555343753 2.255973186038318e-14 96.75655366263864
    vertex 10.338725553437444 2.255973186038318e-14 92.661555119214
    vertex 12.33872555343753 2.255973186038318e-14 96.75655366263864
  endloop
endfacet
facet normal 1.0 0.0 0.0
  outer loop
    vertex 12.338725553437547 100.00000000000001 92.661555119214
    vertex 12.33872555343753 2.255973186038318e-14 96.75655366263864
    vertex 12.33872555343753 2.255973186038318e-14 92.661555119214
  endloop
endfacet
facet normal 1.0 0.0 0.0
  outer loop
    vertex 12.33872555343753 2.255973186038318e-14 96.75655366263864
    vertex 12.338725553437547 100.00000000000001 92.661555119214
    vertex 12.338725553437547 100.00000000000001 96.75655366263864
  endloop
endfacet
facet normal -1.0 0.0 0.0
  outer loop
    vertex 15.45887577988698 100.00000000000001 92.28821984377971
    vertex 15.45887577988698 2.255973186038318e-14 90.16155511921401
    vertex 15.45887577988698 2.255973186038318e-14 92.28821984377971
  endloop
endfacet
facet normal -1.0 0.0 0.0
  outer loop
    vertex 15.45887577988698 2.255973186038318e-14 90.16155511921401
    vertex 15.45887577988698 100.00000000000001 92.28821984377971
    vertex 15.45887577988698 100.00000000000001 90.16155511921401
  endloop
endfacet
facet normal 2.0083738337844175e-29 -1.0 -1.1279865930191516e-14
  outer loop
    vertex 35.96099190871584 54.75000000000002 92.99999999999984
    vertex 26.46099190871585 54.75000000000005 90.99999999999982
    vertex 35.96099190871585 54.75000000000005 90.99999999999982
  endloop
endfacet
facet normal 2.0083738337844175e-29 -1.0 -1.1279865930191516e-14
  outer loop
    vertex 26.46099190871585 54.75000000000005 90.99999999999982
    vertex 35.96099190871584 54.75000000000002 92.99999999999984
    vertex 26.460991908715847 54.75000000000002 92.9999999999998
  endloop
endfacet
facet normal 2.514905598415123e-29 -1.0 -1.0436806195617906e-14
  outer loop
    vertex 34.71099190871584 53.500000000000014 92.99999999999983
    vertex 27.710991908715844 53.49999999999999 95.1615551192139
    vertex 27.710991908715844 53.500000000000014 92.9999999999998
  endloop
endfacet
facet normal 2.514905598415123e-29 -1.0 -1.0436806195617906e-14
  outer loop
    vertex 27.710991908715844 53.49999999999999 95.1615551192139
    vertex 34.71099190871584 53.500000000000014 92.99999999999983
    vertex 34.71099190871584 53.49999999999999 95.1615551192139
  endloop
endfacet
facet normal -1.0 -1.667394415543689e-29 -2.8199664825478797e-15
  outer loop
    vertex 35.96099190871584 54.75000000000002 92.99999999999984
    vertex 35.96099190871585 45.24999999999999 90.99999999999987
    vertex 35.96099190871584 45.24999999999997 92.99999999999987
  endloop
endfacet
facet normal -1.0 -1.667394415543689e-29 -2.8199664825478797e-15
  outer loop
    vertex 35.96099190871585 45.24999999999999 90.99999999999987
    vertex 35.96099190871584 54.75000000000002 92.99999999999984
    vertex 35.96099190871585 54.75000000000005 90.99999999999982
  endloop
endfacet
facet normal -8.037185072911287e-29 1.0 1.127986593019161e-14
  outer loop
    vertex 26.460991908715847 45.24999999999997 92.9999999999998
    vertex 35.96099190871585 45.24999999999999 90.99999999999987
    vertex 26.46099190871585 45.24999999999999 90.99999999999982
  endloop
endfacet
facet normal -8.037185072911287e-29 1.0 1.127986593019161e-14
  outer loop
    vertex 35.96099190871585 45.24999999999999 90.99999999999987
    vertex 26.460991908715847 45.24999999999997 92.9999999999998
    vertex 35.96099190871584 45.24999999999997 92.99999999999987
  endloop
endfacet
facet normal -1.0083460361417901e-28 1.0 1.0436806195617824e-14
  outer loop
    vertex 27.710991908715844 46.49999999999996 95.16155511921392
    vertex 34.71099190871584 46.499999999999986 92.99999999999989
    vertex 27.710991908715844 46.499999999999986 92.99999999999982
  endloop
endfacet
facet normal -1.0083460361417901e-28 1.0 1.0436806195617824e-14
  outer loop
    vertex 34.71099190871584 46.499999999999986 92.99999999999989
    vertex 27.710991908715844 46.49999999999996 95.16155511921392
    vertex 34.71099190871584 46.49999999999996 95.16155511921399
  endloop
endfacet
facet normal 1.0 1.9320349873414108e-30 2.8199664825479026e-15
  outer loop
    vertex 26.46099190871585 45.24999999999999 90.99999999999982
    vertex 26.460991908715847 54.75000000000002 92.9999999999998
    vertex 26.460991908715847 45.24999999999997 92.9999999999998
  endloop
endfacet
facet normal 1.0 1.9320349873414108e-30 2.8199664825479026e-15
  outer loop
    vertex 26.460991908715847 54.75000000000002 92.9999999999998
    vertex 26.46099190871585 45.24999999999999 90.99999999999982
    vertex 26.46099190871585 54.75000000000005 90.99999999999982
  endloop
endfacet
facet normal 1.0 0.0 0.0
  outer loop
    vertex 27.710991908715844 46.499999999999986 92.99999999999982
    vertex 27.710991908715844 53.49999999999999 95.1615551192139
    vertex 27.710991908715844 46.49999999999996 95.16155511921392
  endloop
endfacet
facet normal 1.0 0.0 0.0
  outer loop
    vertex 27.710991908715844 53.49999999999999 95.1615551192139
    vertex 27.710991908715844 46.499999999999986 92.99999999999982
    vertex 27.710991908715844 53.500000000000014 92.9999999999998
  endloop
endfacet
facet normal -1.0 0.0 0.0
  outer loop
    vertex 34.71099190871584 53.49999999999999 95.1615551192139
    vertex 34.71099190871584 46.499999999999986 92.99999999999989
    vertex 34.71099190871584 46.49999999999996 95.16155511921399
  endloop
endfacet
facet normal -1.0 0.0 0.0
  outer loop
    vertex 34.71099190871584 46.499999999999986 92.99999999999989
    vertex 34.71099190871584 53.49999999999999 95.1615551192139
    vertex 34.71099190871584 53.500000000000014 92.99999999999983
  endloop
endfacet
facet normal 6.253307980608033e-15 -4.352647714559641e-15 -1.0
  outer loop
    vertex 26.460991908715847 54.75000000000002 92.9999999999998
    vertex 27.710991908715844 53.500000000000014 92.9999999999998
    vertex 26.460991908715847 45.24999999999997 92.9999999999998
  endloop
endfacet
facet normal 6.253307980608033e-15 -4.352647714559641e-15 -1.0
  outer loop
    vertex 27.710991908715844 53.500000000000014 92.9999999999998
    vertex 26.460991908715847 54.75000000000002 92.9999999999998
    vertex 35.96099190871584 54.75000000000002 92.99999999999984
  endloop
endfacet
facet normal 6.253307980608033e-15 -4.352647714559641e-15 -1.0
  outer loop
    vertex 27.710991908715844 53.500000000000014 92.9999999999998
    vertex 35.96099190871584 54.75000000000002 92.99999999999984
    vertex 34.71099190871584 53.500000000000014 92.99999999999983
  endloop
endfacet
facet normal 6.253307980608033e-15 -4.352647714559641e-15 -1.0
  outer loop
    vertex 34.71099190871584 53.500000000000014 92.99999999999983
    vertex 35.96099190871584 54.75000000000002 92.99999999999984
    vertex 34.71099190871584 46.499999999999986 92.99999999999989
  endloop
endfacet
facet normal 6.253307980608033e-15 -4.352647714559641e-15 -1.0
  outer loop
    vertex 26.460991908715847 45.24999999999997 92.9999999999998
    vertex 27.710991908715844 46.499999999999986 92.99999999999982
    vertex 35.96099190871584 45.24999999999997 92.99999999999987
  endloop
endfacet
facet normal 6.253307980608033e-15 -4.352647714559641e-15 -1.0
  outer loop
    vertex 27.710991908715844 46.499999999999986 92.99999999999982
    vertex 26.460991908715847 45.24999999999997 92.9999999999998
    vertex 27.710991908715844 53.500000000000014 92.9999999999998
  endloop
endfacet
facet normal 6.253307980608033e-15 -4.352647714559641e-15 -1.0
  outer loop
    vertex 35.96099190871584 45.24999999999997 92.99999999999987
    vertex 27.710991908715844 46.499999999999986 92.99999999999982
    vertex 34.71099190871584 46.499999999999986 92.99999999999989
  endloop
endfacet
facet normal 6.253307980608033e-15 -4.352647714559641e-15 -1.0
  outer loop
    vertex 35.96099190871584 45.24999999999997 92.99999999999987
    vertex 34.71099190871584 46.499999999999986 92.99999999999989
    vertex 35.96099190871584 54.75000000000002 92.99999999999984
  endloop
endfacet
facet normal 1.0 -6.499731240730771e-16 -7.297144089419556e-30
  outer loop
    vertex 22.533336160912746 4.511946372076636e-14 93.15210879119027
    vertex 22.533336160912754 15.000000000000018 95.16155511921409
    vertex 22.533336160912746 2.255973186038318e-14 95.161555119214
  endloop
endfacet
facet normal 1.0 -6.499731240730771e-16 -7.297144089419556e-30
  outer loop
    vertex 22.533336160912754 15.000000000000018 95.16155511921409
    vertex 22.533336160912746 4.511946372076636e-14 93.15210879119027
    vertex 22.533336160912754 15.00000000000004 93.15210879119034
  endloop
endfacet
facet normal -1.0 6.499731240730771e-16 0.0
  outer loop
    vertex 39.88769361322553 15.000000000000018 95.16155511921409
    vertex 39.88769361322552 2.255973186038318e-14 93.15210879141507
    vertex 39.88769361322552 2.255973186038318e-14 95.161555119214
  endloop
endfacet
facet normal -1.0 6.499731240730771e-16 0.0
  outer loop
    vertex 39.88769361322552 2.255973186038318e-14 93.15210879141507
    vertex 39.88769361322553 15.000000000000018 95.16155511921409
    vertex 39.88769361322553 15.000000000000018 93.15210879141516
  endloop
endfacet
facet normal 1.2999462482188697e-15 1.0 1.1224301070796018e-14
  outer loop
    vertex 22.533813182559456 85.00000000000004 95.16155511921383
    vertex 39.88817063487224 85.00000000000004 93.15165430507047
    vertex 22.533813182559456 85.00000000000004 93.15165430507047
  endloop
endfacet
facet normal 1.2999462482188697e-15 1.0 1.1224301070796018e-14
  outer loop
    vertex 39.88817063487224 85.00000000000004 93.15165430507047
    vertex 22.533813182559456 85.00000000000004 95.16155511921383
    vertex 39.88817063487224 85.0 95.16155511921383
  endloop
endfacet
facet normal -1.0 1.2999462482188697e-15 2.918197613172065e-29
  outer loop
    vertex 39.88817063487225 100.00000000000001 95.161555119214
    vertex 39.88817063487224 85.00000000000004 93.15165430507047
    vertex 39.88817063487224 85.0 95.16155511921383
  endloop
endfacet
facet normal -1.0 1.2999462482188697e-15 2.918197613172065e-29
  outer loop
    vertex 39.88817063487224 85.00000000000004 93.15165430507047
    vertex 39.88817063487225 100.00000000000001 95.161555119214
    vertex 39.88817063487225 100.00000000000007 93.15165430507064
  endloop
endfacet
facet normal 0.0 -1.1224301070796018e-14 1.0
  outer loop
    vertex 39.88817063487224 85.00000000000004 93.15165430507047
    vertex 22.533813182559477 100.00000000000007 93.15165430507064
    vertex 22.533813182559456 85.00000000000004 93.15165430507047
  endloop
endfacet
facet normal 0.0 -1.1224301070796018e-14 1.0
  outer loop
    vertex 22.533813182559477 100.00000000000007 93.15165430507064
    vertex 39.88817063487224 85.00000000000004 93.15165430507047
    vertex 39.88817063487225 100.00000000000007 93.15165430507064
  endloop
endfacet
facet normal -6.499731240730771e-16 -1.0 -5.61341986304614e-15
  outer loop
    vertex 39.88769361322553 15.000000000000018 93.15210879141516
    vertex 22.533336160912754 15.000000000000018 95.16155511921409
    vertex 22.533336160912754 15.00000000000004 93.15210879119034
  endloop
endfacet
facet normal -6.499731240730771e-16 -1.0 -5.61341986304614e-15
  outer loop
    vertex 22.533336160912754 15.000000000000018 95.16155511921409
    vertex 39.88769361322553 15.000000000000018 93.15210879141516
    vertex 39.88769361322553 15.000000000000018 95.16155511921409
  endloop
endfacet
facet normal 1.0 -1.2999462482188697e-15 0.0
  outer loop
    vertex 22.533813182559477 100.00000000000007 93.15165430507064
    vertex 22.533813182559456 85.00000000000004 95.16155511921383
    vertex 22.533813182559456 85.00000000000004 93.15165430507047
  endloop
endfacet
facet normal 1.0 -1.2999462482188697e-15 0.0
  outer loop
    vertex 22.533813182559456 85.00000000000004 95.16155511921383
    vertex 22.533813182559477 100.00000000000007 93.15165430507064
    vertex 22.533813182559477 100.00000000000007 95.161555119214
  endloop
endfacet
facet normal -1.295396436350104e-11 -5.613419863037721e-15 1.0
  outer loop
    vertex 39.88769361322552 2.255973186038318e-14 93.15210879141507
    vertex 22.533336160912754 15.00000000000004 93.15210879119034
    vertex 22.533336160912746 4.511946372076636e-14 93.15210879119027
  endloop
endfacet
facet normal -1.295396436350104e-11 -5.613419863037721e-15 1.0
  outer loop
    vertex 22.533336160912754 15.00000000000004 93.15210879119034
    vertex 39.88769361322552 2.255973186038318e-14 93.15210879141507
    vertex 39.88769361322553 15.000000000000018 93.15210879141516
  endloop
endfacet
facet normal -1.725082746989175e-15 9.959527073248812e-16 1.0
  outer loop
    vertex 22.533336160912754 15.000000000000018 95.16155511921409
    vertex 27.710991908715844 46.49999999999996 95.16155511921392
    vertex 22.533813182559456 85.00000000000004 95.16155511921383
  endloop
endfacet
facet normal -1.725082746989175e-15 9.959527073248812e-16 1.0
  outer loop
    vertex 27.710991908715844 46.49999999999996 95.16155511921392
    vertex 22.533336160912754 15.000000000000018 95.16155511921409
    vertex 39.88769361322553 15.000000000000018 95.16155511921409
  endloop
endfacet
facet normal -1.725082746989175e-15 9.959527073248812e-16 1.0
  outer loop
    vertex 27.710991908715844 46.49999999999996 95.16155511921392
    vertex 39.88769361322553 15.000000000000018 95.16155511921409
    vertex 34.71099190871584 46.49999999999996 95.16155511921399
  endloop
endfacet
facet normal -1.725082746989175e-15 9.959527073248812e-16 1.0
  outer loop
    vertex 34.71099190871584 46.49999999999996 95.16155511921399
    vertex 39.88769361322553 15.000000000000018 95.16155511921409
    vertex 34.71099190871584 53.49999999999999 95.1615551192139
  endloop
endfacet
facet normal -1.725082746989175e-15 9.959527073248812e-16 1.0
  outer loop
    vertex 41.38143572549625 2.251743236314496e-14 95.161555119214
    vertex 39.88769361322553 15.000000000000018 95.16155511921409
    vertex 39.88769361322552 2.255973186038318e-14 95.161555119214
  endloop
endfacet
facet normal -1.725082746989175e-15 9.959527073248812e-16 1.0
  outer loop
    vertex 39.88769361322553 15.000000000000018 95.16155511921409
    vertex 41.38143572549625 2.251743236314496e-14 95.161555119214
    vertex 39.88817063487224 85.0 95.16155511921383
  endloop
endfacet
facet normal -1.725082746989175e-15 9.959527073248812e-16 1.0
  outer loop
    vertex 39.88817063487224 85.0 95.16155511921383
    vertex 41.38143572549625 2.251743236314496e-14 95.161555119214
    vertex 39.88817063487225 100.00000000000001 95.161555119214
  endloop
endfacet
facet normal -1.725082746989175e-15 9.959527073248812e-16 1.0
  outer loop
    vertex 39.88817063487225 100.00000000000001 95.161555119214
    vertex 41.38143572549625 2.251743236314496e-14 95.161555119214
    vertex 41.38143572549625 100.00000000000001 95.161555119214
  endloop
endfacet
facet normal -1.725082746989175e-15 9.959527073248812e-16 1.0
  outer loop
    vertex 22.533813182559456 85.00000000000004 95.16155511921383
    vertex 27.710991908715844 53.49999999999999 95.1615551192139
    vertex 39.88817063487224 85.0 95.16155511921383
  endloop
endfacet
facet normal -1.725082746989175e-15 9.959527073248812e-16 1.0
  outer loop
    vertex 27.710991908715844 53.49999999999999 95.1615551192139
    vertex 22.533813182559456 85.00000000000004 95.16155511921383
    vertex 27.710991908715844 46.49999999999996 95.16155511921392
  endloop
endfacet
facet normal -1.725082746989175e-15 9.959527073248812e-16 1.0
  outer loop
    vertex 39.88817063487224 85.0 95.16155511921383
    vertex 27.710991908715844 53.49999999999999 95.1615551192139
    vertex 34.71099190871584 53.49999999999999 95.1615551192139
  endloop
endfacet
facet normal -1.725082746989175e-15 9.959527073248812e-16 1.0
  outer loop
    vertex 39.88817063487224 85.0 95.16155511921383
    vertex 34.71099190871584 53.49999999999999 95.1615551192139
    vertex 39.88769361322553 15.000000000000018 95.16155511921409
  endloop
endfacet
facet normal -1.725082746989175e-15 9.959527073248812e-16 1.0
  outer loop
    vertex 22.533336160912746 2.255973186038318e-14 95.161555119214
    vertex 16.458875779887638 100.00000000000031 95.16155511921376
    vertex 16.45887577988698 7.937777998539618e-14 95.161555119214
  endloop
endfacet
facet normal -1.725082746989175e-15 9.959527073248812e-16 1.0
  outer loop
    vertex 16.458875779887638 100.00000000000031 95.16155511921376
    vertex 22.533336160912746 2.255973186038318e-14 95.161555119214
    vertex 22.533336160912754 15.000000000000018 95.16155511921409
  endloop
endfacet
facet normal -1.725082746989175e-15 9.959527073248812e-16 1.0
  outer loop
    vertex 16.458875779887638 100.00000000000031 95.16155511921376
    vertex 22.533336160912754 15.000000000000018 95.16155511921409
    vertex 22.533813182559477 100.00000000000007 95.161555119214
  endloop
endfacet
facet normal -1.725082746989175e-15 9.959527073248812e-16 1.0
  outer loop
    vertex 22.533813182559477 100.00000000000007 95.161555119214
    vertex 22.533336160912754 15.000000000000018 95.16155511921409
    vertex 22.533813182559456 85.00000000000004 95.16155511921383
  endloop
endfacet
facet normal -1.0 6.570521904336586e-15 -1.1735547814067431e-29
  outer loop
    vertex 16.45887577988698 7.937777998539618e-14 95.161555119214
    vertex 16.458875779887638 100.00000000000031 93.35155220606232
    vertex 16.45887577988698 7.351056091042613e-14 93.35155220606256
  endloop
endfacet
facet normal -1.0 6.570521904336586e-15 -1.1735547814067431e-29
  outer loop
    vertex 16.458875779887638 100.00000000000031 93.35155220606232
    vertex 16.45887577988698 7.937777998539618e-14 95.161555119214
    vertex 16.458875779887638 100.00000000000031 95.16155511921376
  endloop
endfacet
endsolid Dome Wall Support
