solid Cover-Test
facet normal 0.7881392652536086 -1.2000385821416946e-15 -0.6154969525233266
  outer loop
    vertex 6.08430579736339 45.00000000000002 74.31285591145426
    vertex 13.218746434948214 54.99999999999988 83.44845403107055
    vertex 13.218746434948109 45.0 83.44845403107031
  endloop
endfacet
facet normal 0.7881392652536086 -1.2000385821416946e-15 -0.6154969525233266
  outer loop
    vertex 13.218746434948214 54.99999999999988 83.44845403107055
    vertex 6.08430579736339 45.00000000000002 74.31285591145426
    vertex 6.0843057973634975 54.999999999999964 74.3128559114545
  endloop
endfacet
facet normal 0.7047864828433946 -1.0750808065653394e-15 -0.7094194905704505
  outer loop
    vertex 13.218746434948214 54.99999999999988 83.44845403107055
    vertex 20.819933496147446 45.00000000000002 90.99999999999994
    vertex 13.218746434948109 45.0 83.44845403107031
  endloop
endfacet
facet normal 0.7047864828433946 -1.0750808065653394e-15 -0.7094194905704505
  outer loop
    vertex 20.819933496147446 45.00000000000002 90.99999999999994
    vertex 13.218746434948214 54.99999999999988 83.44845403107055
    vertex 20.819933496147552 54.999999999999964 91.00000000000018
  endloop
endfacet
facet normal 3.524958103184878e-16 0.0 -1.0
  outer loop
    vertex 1.678589752390796e-14 55.0 0.0
    vertex 3.9999999999999925 45.000000000000064 6.724003161192427e-15
    vertex 0.0 45.000000000000064 5.314019919918478e-15
  endloop
endfacet
facet normal 3.524958103184878e-16 0.0 -1.0
  outer loop
    vertex 3.9999999999999925 45.000000000000064 6.724003161192427e-15
    vertex 1.678589752390796e-14 55.0 0.0
    vertex 4.00000000000001 55.0 1.4099832412739487e-15
  endloop
endfacet
facet normal -1.0 -3.1883565248778204e-16 3.260638726786862e-16
  outer loop
    vertex -2.1430346575945155e-14 55.000000000000014 84.80090252963207
    vertex 1.0560454026405226e-13 45.000000000000036 68.31285591145429
    vertex 8.106483293510624e-15 45.00000000000002 84.80090252963183
  endloop
endfacet
facet normal -1.0 -3.1883565248778204e-16 3.260638726786862e-16
  outer loop
    vertex 1.0560454026405226e-13 45.000000000000036 68.31285591145429
    vertex -2.1430346575945155e-14 55.000000000000014 84.80090252963207
    vertex 4.93494134445882e-15 45.000000000000064 28.00000000000001
  endloop
endfacet
facet normal -1.0 -3.1883565248778204e-16 3.260638726786862e-16
  outer loop
    vertex 4.93494134445882e-15 45.000000000000064 28.00000000000001
    vertex -2.1430346575945155e-14 55.000000000000014 84.80090252963207
    vertex 0.0 45.000000000000064 5.314019919918478e-15
  endloop
endfacet
facet normal -1.0 -3.1883565248778204e-16 3.260638726786862e-16
  outer loop
    vertex 0.0 45.000000000000064 5.314019919918478e-15
    vertex -2.1430346575945155e-14 55.000000000000014 84.80090252963207
    vertex 1.2689849171465539e-14 48.001234065485725 11.804752302349884
  endloop
endfacet
facet normal -1.0 -3.1883565248778204e-16 3.260638726786862e-16
  outer loop
    vertex 1.2689849171465539e-14 48.001234065485725 11.804752302349884
    vertex -2.1430346575945155e-14 55.000000000000014 84.80090252963207
    vertex 1.2689849171465539e-14 48.0511589211194 12.324464625156848
  endloop
endfacet
facet normal -1.0 -3.1883565248778204e-16 3.260638726786862e-16
  outer loop
    vertex 1.2689849171465539e-14 48.0511589211194 12.324464625156848
    vertex -2.1430346575945155e-14 55.000000000000014 84.80090252963207
    vertex 1.2689849171465539e-14 48.233894075666626 12.813546676534783
  endloop
endfacet
facet normal -1.0 -3.1883565248778204e-16 3.260638726786862e-16
  outer loop
    vertex 1.2689849171465539e-14 48.233894075666626 12.813546676534783
    vertex -2.1430346575945155e-14 55.000000000000014 84.80090252963207
    vertex 1.2689849171465539e-14 48.53698643032915 13.238668322928591
  endloop
endfacet
facet normal -1.0 -3.1883565248778204e-16 3.260638726786862e-16
  outer loop
    vertex 1.2689849171465539e-14 48.53698643032915 13.238668322928591
    vertex -2.1430346575945155e-14 55.000000000000014 84.80090252963207
    vertex 1.2689849171465539e-14 48.9397807420205 13.57085822668327
  endloop
endfacet
facet normal -1.0 -3.1883565248778204e-16 3.260638726786862e-16
  outer loop
    vertex 1.2689849171465539e-14 48.9397807420205 13.57085822668327
    vertex -2.1430346575945155e-14 55.000000000000014 84.80090252963207
    vertex 1.2689849171465539e-14 49.41482724404799 13.787478194827715
  endloop
endfacet
facet normal -1.0 -3.1883565248778204e-16 3.260638726786862e-16
  outer loop
    vertex 1.2689849171465539e-14 49.41482724404799 13.787478194827715
    vertex -2.1430346575945155e-14 55.000000000000014 84.80090252963207
    vertex 1.2689849171465539e-14 49.92975230234989 13.873765934514305
  endloop
endfacet
facet normal -1.0 -3.1883565248778204e-16 3.260638726786862e-16
  outer loop
    vertex 1.2689849171465539e-14 49.92975230234989 13.873765934514305
    vertex -2.1430346575945155e-14 55.000000000000014 84.80090252963207
    vertex 1.2689849171465539e-14 50.44946462515686 13.823841078880623
  endloop
endfacet
facet normal -1.0 -3.1883565248778204e-16 3.260638726786862e-16
  outer loop
    vertex 1.2689849171465539e-14 50.44946462515686 13.823841078880623
    vertex -2.1430346575945155e-14 55.000000000000014 84.80090252963207
    vertex 1.2689849171465539e-14 50.9385466765348 13.64110592433339
  endloop
endfacet
facet normal -1.0 -3.1883565248778204e-16 3.260638726786862e-16
  outer loop
    vertex 1.2689849171465539e-14 50.9385466765348 13.64110592433339
    vertex -2.1430346575945155e-14 55.000000000000014 84.80090252963207
    vertex 1.2689849171465539e-14 51.36366832292861 13.338013569670874
  endloop
endfacet
facet normal -1.0 -3.1883565248778204e-16 3.260638726786862e-16
  outer loop
    vertex 1.2689849171465539e-14 51.36366832292861 13.338013569670874
    vertex -2.1430346575945155e-14 55.000000000000014 84.80090252963207
    vertex 1.2689849171465539e-14 51.695858226683285 12.935219257979524
  endloop
endfacet
facet normal -1.0 -3.1883565248778204e-16 3.260638726786862e-16
  outer loop
    vertex 1.2689849171465539e-14 51.695858226683285 12.935219257979524
    vertex -2.1430346575945155e-14 55.000000000000014 84.80090252963207
    vertex 1.2689849171465539e-14 51.91247819482773 12.460172755952037
  endloop
endfacet
facet normal -1.0 -3.1883565248778204e-16 3.260638726786862e-16
  outer loop
    vertex 1.2689849171465539e-14 51.91247819482773 12.460172755952037
    vertex -2.1430346575945155e-14 55.000000000000014 84.80090252963207
    vertex 1.2689849171465539e-14 51.99876593451432 11.945247697650121
  endloop
endfacet
facet normal -1.0 -3.1883565248778204e-16 3.260638726786862e-16
  outer loop
    vertex 1.2689849171465539e-14 51.99876593451432 11.945247697650121
    vertex -2.1430346575945155e-14 55.000000000000014 84.80090252963207
    vertex 9.291219733862412e-14 54.999999999999964 68.3128559114545
  endloop
endfacet
facet normal -1.0 -3.1883565248778204e-16 3.260638726786862e-16
  outer loop
    vertex 0.0 45.000000000000064 5.314019919918478e-15
    vertex 1.2689849171465539e-14 48.30414177331675 10.814780742020481
    vertex 1.678589752390796e-14 55.0 0.0
  endloop
endfacet
facet normal -1.0 -3.1883565248778204e-16 3.260638726786862e-16
  outer loop
    vertex 1.2689849171465539e-14 48.30414177331675 10.814780742020481
    vertex 0.0 45.000000000000064 5.314019919918478e-15
    vertex 1.2689849171465539e-14 48.087521805172315 11.289827244047968
  endloop
endfacet
facet normal -1.0 -3.1883565248778204e-16 3.260638726786862e-16
  outer loop
    vertex 1.2689849171465539e-14 48.087521805172315 11.289827244047968
    vertex 0.0 45.000000000000064 5.314019919918478e-15
    vertex 1.2689849171465539e-14 48.001234065485725 11.804752302349884
  endloop
endfacet
facet normal -1.0 -3.1883565248778204e-16 3.260638726786862e-16
  outer loop
    vertex 1.678589752390796e-14 55.0 0.0
    vertex 1.2689849171465539e-14 48.30414177331675 10.814780742020481
    vertex 1.2689849171465539e-14 48.63633167707143 10.411986430329133
  endloop
endfacet
facet normal -1.0 -3.1883565248778204e-16 3.260638726786862e-16
  outer loop
    vertex 1.678589752390796e-14 55.0 0.0
    vertex 1.2689849171465539e-14 48.63633167707143 10.411986430329133
    vertex 1.2689849171465539e-14 49.06145332346524 10.108894075666615
  endloop
endfacet
facet normal -1.0 -3.1883565248778204e-16 3.260638726786862e-16
  outer loop
    vertex 1.678589752390796e-14 55.0 0.0
    vertex 1.2689849171465539e-14 49.06145332346524 10.108894075666615
    vertex 1.2689849171465539e-14 49.550535374843186 9.92615892111938
  endloop
endfacet
facet normal -1.0 -3.1883565248778204e-16 3.260638726786862e-16
  outer loop
    vertex 1.678589752390796e-14 55.0 0.0
    vertex 1.2689849171465539e-14 49.550535374843186 9.92615892111938
    vertex 1.2689849171465539e-14 50.07024769765015 9.876234065485702
  endloop
endfacet
facet normal -1.0 -3.1883565248778204e-16 3.260638726786862e-16
  outer loop
    vertex 1.678589752390796e-14 55.0 0.0
    vertex 1.2689849171465539e-14 50.07024769765015 9.876234065485702
    vertex 1.2689849171465539e-14 50.58517275595205 9.962521805172289
  endloop
endfacet
facet normal -1.0 -3.1883565248778204e-16 3.260638726786862e-16
  outer loop
    vertex 1.678589752390796e-14 55.0 0.0
    vertex 1.2689849171465539e-14 50.58517275595205 9.962521805172289
    vertex 1.2689849171465539e-14 51.06021925797954 10.179141773316733
  endloop
endfacet
facet normal -1.0 -3.1883565248778204e-16 3.260638726786862e-16
  outer loop
    vertex 1.678589752390796e-14 55.0 0.0
    vertex 1.2689849171465539e-14 51.06021925797954 10.179141773316733
    vertex 1.2689849171465539e-14 51.46301356967089 10.511331677071412
  endloop
endfacet
facet normal -1.0 -3.1883565248778204e-16 3.260638726786862e-16
  outer loop
    vertex 1.678589752390796e-14 55.0 0.0
    vertex 1.2689849171465539e-14 51.46301356967089 10.511331677071412
    vertex 1.2689849171465539e-14 51.76610592433342 10.936453323465221
  endloop
endfacet
facet normal -1.0 -3.1883565248778204e-16 3.260638726786862e-16
  outer loop
    vertex 1.678589752390796e-14 55.0 0.0
    vertex 1.2689849171465539e-14 51.76610592433342 10.936453323465221
    vertex 1.2689849171465539e-14 51.94884107888064 11.425535374843157
  endloop
endfacet
facet normal -1.0 -3.1883565248778204e-16 3.260638726786862e-16
  outer loop
    vertex 1.678589752390796e-14 55.0 0.0
    vertex 1.2689849171465539e-14 51.94884107888064 11.425535374843157
    vertex 1.2689849171465539e-14 51.99876593451432 11.945247697650121
  endloop
endfacet
facet normal -1.0 -3.1883565248778204e-16 3.260638726786862e-16
  outer loop
    vertex 1.678589752390796e-14 55.0 0.0
    vertex 1.2689849171465539e-14 51.99876593451432 11.945247697650121
    vertex 9.291219733862412e-14 54.999999999999964 68.3128559114545
  endloop
endfacet
facet normal -1.0 -3.1883565248778204e-16 3.260638726786862e-16
  outer loop
    vertex 1.678589752390796e-14 55.0 0.0
    vertex 9.291219733862412e-14 54.999999999999964 68.3128559114545
    vertex 1.762479051592436e-14 55.0 28.0
  endloop
endfacet
facet normal -0.7284677904894176 1.2227404217822857e-16 0.6850800524168442
  outer loop
    vertex 10.33872555343751 55.000000000000014 96.75655366263885
    vertex 3.0943770258460077 45.00000000000002 89.05340342959278
    vertex 10.33872555343754 45.00000000000002 96.75655366263862
  endloop
endfacet
facet normal -0.7284677904894176 1.2227404217822857e-16 0.6850800524168442
  outer loop
    vertex 3.0943770258460077 45.00000000000002 89.05340342959278
    vertex 10.33872555343751 55.000000000000014 96.75655366263885
    vertex 3.0943770258459784 55.000000000000014 89.05340342959302
  endloop
endfacet
facet normal -0.7284677904894176 1.2227404217822857e-16 0.6850800524168442
  outer loop
    vertex 3.0943770258459784 55.000000000000014 89.05340342959302
    vertex 10.33872555343751 55.000000000000014 96.75655366263885
    vertex 8.83872555343749 55.000000000000014 95.16155511921421
  endloop
endfacet
facet normal -0.8085869025984393 3.085689266146236e-16 0.5883767678505518
  outer loop
    vertex 3.0943770258459784 55.000000000000014 89.05340342959302
    vertex 8.106483293510624e-15 45.00000000000002 84.80090252963183
    vertex 3.0943770258460077 45.00000000000002 89.05340342959278
  endloop
endfacet
facet normal -0.8085869025984393 3.085689266146236e-16 0.5883767678505518
  outer loop
    vertex 8.106483293510624e-15 45.00000000000002 84.80090252963183
    vertex 3.0943770258459784 55.000000000000014 89.05340342959302
    vertex -2.1430346575945155e-14 55.000000000000014 84.80090252963207
  endloop
endfacet
facet normal 1.0 0.0 0.0
  outer loop
    vertex 4.00000000000001 55.0 1.4099832412739487e-15
    vertex 3.9999999999999925 45.000000000000064 1.7500000000000049
    vertex 3.9999999999999925 45.000000000000064 6.724003161192427e-15
  endloop
endfacet
facet normal 1.0 0.0 0.0
  outer loop
    vertex 3.9999999999999925 45.000000000000064 1.7500000000000049
    vertex 4.00000000000001 55.0 1.4099832412739487e-15
    vertex 4.00000000000001 55.0 1.7499999999999996
  endloop
endfacet
facet normal 0.0 0.0 -1.0
  outer loop
    vertex 2.0000000000000133 55.0 22.0
    vertex 6.084305797363383 45.000000000000064 22.000000000000004
    vertex 1.9999999999999962 45.000000000000064 22.000000000000004
  endloop
endfacet
facet normal 0.0 0.0 -1.0
  outer loop
    vertex 6.084305797363383 45.000000000000064 22.000000000000004
    vertex 2.0000000000000133 55.0 22.0
    vertex 6.0843057973634 55.0 22.0
  endloop
endfacet
facet normal 0.0 0.0 1.0
  outer loop
    vertex 10.338725553437452 45.00000000000002 90.16155511921399
    vertex 15.458875779886942 55.000000000000014 90.16155511921423
    vertex 10.338725553437422 55.000000000000014 90.16155511921423
  endloop
endfacet
facet normal 0.0 0.0 1.0
  outer loop
    vertex 15.458875779886942 55.000000000000014 90.16155511921423
    vertex 10.338725553437452 45.00000000000002 90.16155511921399
    vertex 15.45887577988699 45.00000000000002 90.16155511921399
  endloop
endfacet
facet normal 0.0 0.0 -1.0
  outer loop
    vertex 12.33872555343751 55.000000000000014 92.66155511921421
    vertex 10.338725553437452 45.00000000000002 92.66155511921399
    vertex 10.338725553437422 55.000000000000014 92.66155511921421
  endloop
endfacet
facet normal 0.0 0.0 -1.0
  outer loop
    vertex 10.338725553437452 45.00000000000002 92.66155511921399
    vertex 12.33872555343751 55.000000000000014 92.66155511921421
    vertex 12.338725553437538 45.00000000000002 92.66155511921399
  endloop
endfacet
facet normal 1.0 -8.459899447643693e-17 -2.0328697338608035e-15
  outer loop
    vertex 41.38143572549622 55.000000000000014 91.00000000000018
    vertex 41.38143572549626 45.00000000000002 95.16155511921397
    vertex 41.381435725496246 45.00000000000002 90.99999999999994
  endloop
endfacet
facet normal 1.0 -8.459899447643693e-17 -2.0328697338608035e-15
  outer loop
    vertex 41.38143572549626 45.00000000000002 95.16155511921397
    vertex 41.38143572549622 55.000000000000014 91.00000000000018
    vertex 41.38143572549622 55.000000000000014 95.16155511921421
  endloop
endfacet
facet normal 1.0 0.0 0.0
  outer loop
    vertex 10.338725553437422 55.000000000000014 90.16155511921423
    vertex 10.338725553437452 45.00000000000002 92.66155511921399
    vertex 10.338725553437452 45.00000000000002 90.16155511921399
  endloop
endfacet
facet normal 1.0 0.0 0.0
  outer loop
    vertex 10.338725553437452 45.00000000000002 92.66155511921399
    vertex 10.338725553437422 55.000000000000014 90.16155511921423
    vertex 10.338725553437422 55.000000000000014 92.66155511921421
  endloop
endfacet
facet normal 1.0 0.0 0.0
  outer loop
    vertex 1.9999999999999962 45.000000000000064 1.7500000000000049
    vertex 2.000000000000005 48.087521805172315 11.289827244047968
    vertex 1.9999999999999962 45.000000000000064 22.000000000000004
  endloop
endfacet
facet normal 1.0 0.0 0.0
  outer loop
    vertex 2.000000000000005 48.087521805172315 11.289827244047968
    vertex 1.9999999999999962 45.000000000000064 1.7500000000000049
    vertex 2.000000000000005 48.30414177331675 10.814780742020481
  endloop
endfacet
facet normal 1.0 0.0 0.0
  outer loop
    vertex 2.000000000000005 48.30414177331675 10.814780742020481
    vertex 1.9999999999999962 45.000000000000064 1.7500000000000049
    vertex 2.0000000000000133 55.0 1.7499999999999996
  endloop
endfacet
facet normal 1.0 0.0 0.0
  outer loop
    vertex 1.9999999999999962 45.000000000000064 22.000000000000004
    vertex 2.000000000000005 48.087521805172315 11.289827244047968
    vertex 2.000000000000005 48.001234065485725 11.804752302349884
  endloop
endfacet
facet normal 1.0 0.0 0.0
  outer loop
    vertex 2.000000000000005 48.30414177331675 10.814780742020481
    vertex 2.0000000000000133 55.0 1.7499999999999996
    vertex 2.000000000000005 48.63633167707143 10.411986430329133
  endloop
endfacet
facet normal 1.0 0.0 0.0
  outer loop
    vertex 2.000000000000005 48.63633167707143 10.411986430329133
    vertex 2.0000000000000133 55.0 1.7499999999999996
    vertex 2.000000000000005 49.06145332346524 10.108894075666615
  endloop
endfacet
facet normal 1.0 0.0 0.0
  outer loop
    vertex 2.000000000000005 49.06145332346524 10.108894075666615
    vertex 2.0000000000000133 55.0 1.7499999999999996
    vertex 2.000000000000005 49.550535374843186 9.92615892111938
  endloop
endfacet
facet normal 1.0 0.0 0.0
  outer loop
    vertex 2.000000000000005 49.550535374843186 9.92615892111938
    vertex 2.0000000000000133 55.0 1.7499999999999996
    vertex 2.000000000000005 50.07024769765015 9.876234065485702
  endloop
endfacet
facet normal 1.0 0.0 0.0
  outer loop
    vertex 2.000000000000005 50.07024769765015 9.876234065485702
    vertex 2.0000000000000133 55.0 1.7499999999999996
    vertex 2.000000000000005 50.58517275595205 9.962521805172289
  endloop
endfacet
facet normal 1.0 0.0 0.0
  outer loop
    vertex 2.000000000000005 50.58517275595205 9.962521805172289
    vertex 2.0000000000000133 55.0 1.7499999999999996
    vertex 2.000000000000005 51.06021925797954 10.179141773316733
  endloop
endfacet
facet normal 1.0 0.0 0.0
  outer loop
    vertex 2.000000000000005 51.06021925797954 10.179141773316733
    vertex 2.0000000000000133 55.0 1.7499999999999996
    vertex 2.000000000000005 51.46301356967089 10.511331677071412
  endloop
endfacet
facet normal 1.0 0.0 0.0
  outer loop
    vertex 2.000000000000005 51.46301356967089 10.511331677071412
    vertex 2.0000000000000133 55.0 1.7499999999999996
    vertex 2.000000000000005 51.76610592433342 10.936453323465221
  endloop
endfacet
facet normal 1.0 0.0 0.0
  outer loop
    vertex 2.000000000000005 51.76610592433342 10.936453323465221
    vertex 2.0000000000000133 55.0 1.7499999999999996
    vertex 2.000000000000005 51.94884107888064 11.425535374843157
  endloop
endfacet
facet normal 1.0 0.0 0.0
  outer loop
    vertex 2.000000000000005 51.94884107888064 11.425535374843157
    vertex 2.0000000000000133 55.0 1.7499999999999996
    vertex 2.000000000000005 51.99876593451432 11.945247697650121
  endloop
endfacet
facet normal 1.0 0.0 0.0
  outer loop
    vertex 1.9999999999999962 45.000000000000064 22.000000000000004
    vertex 2.000000000000005 48.53698643032915 13.238668322928591
    vertex 2.0000000000000133 55.0 22.0
  endloop
endfacet
facet normal 1.0 0.0 0.0
  outer loop
    vertex 2.000000000000005 48.53698643032915 13.238668322928591
    vertex 1.9999999999999962 45.000000000000064 22.000000000000004
    vertex 2.000000000000005 48.233894075666626 12.813546676534783
  endloop
endfacet
facet normal 1.0 0.0 0.0
  outer loop
    vertex 2.000000000000005 48.233894075666626 12.813546676534783
    vertex 1.9999999999999962 45.000000000000064 22.000000000000004
    vertex 2.000000000000005 48.0511589211194 12.324464625156848
  endloop
endfacet
facet normal 1.0 0.0 0.0
  outer loop
    vertex 2.000000000000005 48.0511589211194 12.324464625156848
    vertex 1.9999999999999962 45.000000000000064 22.000000000000004
    vertex 2.000000000000005 48.001234065485725 11.804752302349884
  endloop
endfacet
facet normal 1.0 0.0 0.0
  outer loop
    vertex 2.0000000000000133 55.0 22.0
    vertex 2.000000000000005 48.53698643032915 13.238668322928591
    vertex 2.000000000000005 48.9397807420205 13.57085822668327
  endloop
endfacet
facet normal 1.0 0.0 0.0
  outer loop
    vertex 2.0000000000000133 55.0 22.0
    vertex 2.000000000000005 48.9397807420205 13.57085822668327
    vertex 2.000000000000005 49.41482724404799 13.787478194827715
  endloop
endfacet
facet normal 1.0 0.0 0.0
  outer loop
    vertex 2.0000000000000133 55.0 22.0
    vertex 2.000000000000005 49.41482724404799 13.787478194827715
    vertex 2.000000000000005 49.92975230234989 13.873765934514305
  endloop
endfacet
facet normal 1.0 0.0 0.0
  outer loop
    vertex 2.0000000000000133 55.0 22.0
    vertex 2.000000000000005 49.92975230234989 13.873765934514305
    vertex 2.000000000000005 50.44946462515686 13.823841078880623
  endloop
endfacet
facet normal 1.0 0.0 0.0
  outer loop
    vertex 2.0000000000000133 55.0 22.0
    vertex 2.000000000000005 50.44946462515686 13.823841078880623
    vertex 2.000000000000005 50.9385466765348 13.64110592433339
  endloop
endfacet
facet normal 1.0 0.0 0.0
  outer loop
    vertex 2.0000000000000133 55.0 22.0
    vertex 2.000000000000005 50.9385466765348 13.64110592433339
    vertex 2.000000000000005 51.36366832292861 13.338013569670874
  endloop
endfacet
facet normal 1.0 0.0 0.0
  outer loop
    vertex 2.0000000000000133 55.0 22.0
    vertex 2.000000000000005 51.36366832292861 13.338013569670874
    vertex 2.000000000000005 51.695858226683285 12.935219257979524
  endloop
endfacet
facet normal 1.0 0.0 0.0
  outer loop
    vertex 2.0000000000000133 55.0 22.0
    vertex 2.000000000000005 51.695858226683285 12.935219257979524
    vertex 2.000000000000005 51.91247819482773 12.460172755952037
  endloop
endfacet
facet normal 1.0 0.0 0.0
  outer loop
    vertex 2.0000000000000133 55.0 22.0
    vertex 2.000000000000005 51.91247819482773 12.460172755952037
    vertex 2.000000000000005 51.99876593451432 11.945247697650121
  endloop
endfacet
facet normal 1.0 0.0 0.0
  outer loop
    vertex 2.0000000000000133 55.0 22.0
    vertex 2.000000000000005 51.99876593451432 11.945247697650121
    vertex 2.0000000000000133 55.0 1.7499999999999996
  endloop
endfacet
facet normal 0.0 0.0 1.0
  outer loop
    vertex 3.9999999999999925 45.000000000000064 1.7500000000000049
    vertex 2.0000000000000133 55.0 1.7499999999999996
    vertex 1.9999999999999962 45.000000000000064 1.7500000000000049
  endloop
endfacet
facet normal 0.0 0.0 1.0
  outer loop
    vertex 2.0000000000000133 55.0 1.7499999999999996
    vertex 3.9999999999999925 45.000000000000064 1.7500000000000049
    vertex 4.00000000000001 55.0 1.7499999999999996
  endloop
endfacet
facet normal 0.0 0.16526901271493497 -0.9862485251883678
  outer loop
    vertex 2.000000000000005 49.92975230234989 13.873765934514305
    vertex 1.2689849171465539e-14 49.41482724404799 13.787478194827715
    vertex 1.2689849171465539e-14 49.92975230234989 13.873765934514305
  endloop
endfacet
facet normal 0.0 0.16526901271493497 -0.9862485251883678
  outer loop
    vertex 1.2689849171465539e-14 49.41482724404799 13.787478194827715
    vertex 2.000000000000005 49.92975230234989 13.873765934514305
    vertex 2.000000000000005 49.41482724404799 13.787478194827715
  endloop
endfacet
facet normal 0.0 -0.4148975091896687 0.9098681535630362
  outer loop
    vertex 2.000000000000005 50.58517275595205 9.962521805172289
    vertex 1.2689849171465539e-14 51.06021925797954 10.179141773316733
    vertex 1.2689849171465539e-14 50.58517275595205 9.962521805172289
  endloop
endfacet
facet normal 0.0 -0.4148975091896687 0.9098681535630362
  outer loop
    vertex 1.2689849171465539e-14 51.06021925797954 10.179141773316733
    vertex 2.000000000000005 50.58517275595205 9.962521805172289
    vertex 2.000000000000005 51.06021925797954 10.179141773316733
  endloop
endfacet
facet normal 0.0 -0.6362514260636818 0.7714817709006035
  outer loop
    vertex 2.000000000000005 51.06021925797954 10.179141773316733
    vertex 1.2689849171465539e-14 51.46301356967089 10.511331677071412
    vertex 1.2689849171465539e-14 51.06021925797954 10.179141773316733
  endloop
endfacet
facet normal 0.0 -0.6362514260636818 0.7714817709006035
  outer loop
    vertex 1.2689849171465539e-14 51.46301356967089 10.511331677071412
    vertex 2.000000000000005 51.06021925797954 10.179141773316733
    vertex 2.000000000000005 51.46301356967089 10.511331677071412
  endloop
endfacet
facet normal 0.0 0.9954176896748651 -0.09562229385637122
  outer loop
    vertex 1.2689849171465539e-14 48.0511589211194 12.324464625156848
    vertex 2.000000000000005 48.001234065485725 11.804752302349884
    vertex 1.2689849171465539e-14 48.001234065485725 11.804752302349884
  endloop
endfacet
facet normal 0.0 0.9954176896748651 -0.09562229385637122
  outer loop
    vertex 2.000000000000005 48.001234065485725 11.804752302349884
    vertex 1.2689849171465539e-14 48.0511589211194 12.324464625156848
    vertex 2.000000000000005 48.0511589211194 12.324464625156848
  endloop
endfacet
facet normal -0.0 -0.5805201804851939 -0.81424585970666
  outer loop
    vertex 2.000000000000005 51.36366832292861 13.338013569670874
    vertex 1.2689849171465539e-14 50.9385466765348 13.64110592433339
    vertex 1.2689849171465539e-14 51.36366832292861 13.338013569670874
  endloop
endfacet
facet normal -0.0 -0.5805201804851939 -0.81424585970666
  outer loop
    vertex 1.2689849171465539e-14 50.9385466765348 13.64110592433339
    vertex 2.000000000000005 51.36366832292861 13.338013569670874
    vertex 2.000000000000005 50.9385466765348 13.64110592433339
  endloop
endfacet
facet normal 0.0 -0.8142458597066514 0.580520180485206
  outer loop
    vertex 2.000000000000005 51.76610592433342 10.936453323465221
    vertex 1.2689849171465539e-14 51.46301356967089 10.511331677071412
    vertex 2.000000000000005 51.46301356967089 10.511331677071412
  endloop
endfacet
facet normal 0.0 -0.8142458597066514 0.580520180485206
  outer loop
    vertex 1.2689849171465539e-14 51.46301356967089 10.511331677071412
    vertex 2.000000000000005 51.76610592433342 10.936453323465221
    vertex 1.2689849171465539e-14 51.76610592433342 10.936453323465221
  endloop
endfacet
facet normal 0.0 0.6362514260636801 -0.7714817709006048
  outer loop
    vertex 2.000000000000005 48.9397807420205 13.57085822668327
    vertex 1.2689849171465539e-14 48.53698643032915 13.238668322928591
    vertex 1.2689849171465539e-14 48.9397807420205 13.57085822668327
  endloop
endfacet
facet normal 0.0 0.6362514260636801 -0.7714817709006048
  outer loop
    vertex 1.2689849171465539e-14 48.53698643032915 13.238668322928591
    vertex 2.000000000000005 48.9397807420205 13.57085822668327
    vertex 2.000000000000005 48.53698643032915 13.238668322928591
  endloop
endfacet
facet normal 0.0 0.3499970991246771 0.9367507836155309
  outer loop
    vertex 2.000000000000005 49.06145332346524 10.108894075666615
    vertex 1.2689849171465539e-14 49.550535374843186 9.92615892111938
    vertex 1.2689849171465539e-14 49.06145332346524 10.108894075666615
  endloop
endfacet
facet normal 0.0 0.3499970991246771 0.9367507836155309
  outer loop
    vertex 1.2689849171465539e-14 49.550535374843186 9.92615892111938
    vertex 2.000000000000005 49.06145332346524 10.108894075666615
    vertex 2.000000000000005 49.550535374843186 9.92615892111938
  endloop
endfacet
facet normal 0.0 0.9367507836155331 -0.3499970991246708
  outer loop
    vertex 1.2689849171465539e-14 48.233894075666626 12.813546676534783
    vertex 2.000000000000005 48.0511589211194 12.324464625156848
    vertex 1.2689849171465539e-14 48.0511589211194 12.324464625156848
  endloop
endfacet
facet normal 0.0 0.9367507836155331 -0.3499970991246708
  outer loop
    vertex 2.000000000000005 48.0511589211194 12.324464625156848
    vertex 1.2689849171465539e-14 48.233894075666626 12.813546676534783
    vertex 2.000000000000005 48.233894075666626 12.813546676534783
  endloop
endfacet
facet normal -0.0 -0.7714817709006053 -0.6362514260636795
  outer loop
    vertex 2.000000000000005 51.36366832292861 13.338013569670874
    vertex 1.2689849171465539e-14 51.695858226683285 12.935219257979524
    vertex 2.000000000000005 51.695858226683285 12.935219257979524
  endloop
endfacet
facet normal -0.0 -0.7714817709006053 -0.6362514260636795
  outer loop
    vertex 1.2689849171465539e-14 51.695858226683285 12.935219257979524
    vertex 2.000000000000005 51.36366832292861 13.338013569670874
    vertex 1.2689849171465539e-14 51.36366832292861 13.338013569670874
  endloop
endfacet
facet normal -0.0 -0.09562229385638216 -0.9954176896748639
  outer loop
    vertex 2.000000000000005 50.44946462515686 13.823841078880623
    vertex 1.2689849171465539e-14 49.92975230234989 13.873765934514305
    vertex 1.2689849171465539e-14 50.44946462515686 13.823841078880623
  endloop
endfacet
facet normal -0.0 -0.09562229385638216 -0.9954176896748639
  outer loop
    vertex 1.2689849171465539e-14 49.92975230234989 13.873765934514305
    vertex 2.000000000000005 50.44946462515686 13.823841078880623
    vertex 2.000000000000005 49.92975230234989 13.873765934514305
  endloop
endfacet
facet normal 0.0 0.9862485251883668 0.165269012714942
  outer loop
    vertex 1.2689849171465539e-14 48.001234065485725 11.804752302349884
    vertex 2.000000000000005 48.087521805172315 11.289827244047968
    vertex 1.2689849171465539e-14 48.087521805172315 11.289827244047968
  endloop
endfacet
facet normal 0.0 0.9862485251883668 0.165269012714942
  outer loop
    vertex 2.000000000000005 48.087521805172315 11.289827244047968
    vertex 1.2689849171465539e-14 48.001234065485725 11.804752302349884
    vertex 2.000000000000005 48.001234065485725 11.804752302349884
  endloop
endfacet
facet normal -0.0 -0.9862485251883669 -0.16526901271494154
  outer loop
    vertex 2.000000000000005 51.91247819482773 12.460172755952037
    vertex 1.2689849171465539e-14 51.99876593451432 11.945247697650121
    vertex 2.000000000000005 51.99876593451432 11.945247697650121
  endloop
endfacet
facet normal -0.0 -0.9862485251883669 -0.16526901271494154
  outer loop
    vertex 1.2689849171465539e-14 51.99876593451432 11.945247697650121
    vertex 2.000000000000005 51.91247819482773 12.460172755952037
    vertex 1.2689849171465539e-14 51.91247819482773 12.460172755952037
  endloop
endfacet
facet normal 0.0 0.8142458597066523 -0.5805201804852047
  outer loop
    vertex 1.2689849171465539e-14 48.53698643032915 13.238668322928591
    vertex 2.000000000000005 48.233894075666626 12.813546676534783
    vertex 1.2689849171465539e-14 48.233894075666626 12.813546676534783
  endloop
endfacet
facet normal 0.0 0.8142458597066523 -0.5805201804852047
  outer loop
    vertex 2.000000000000005 48.233894075666626 12.813546676534783
    vertex 1.2689849171465539e-14 48.53698643032915 13.238668322928591
    vertex 2.000000000000005 48.53698643032915 13.238668322928591
  endloop
endfacet
facet normal 0.0 -0.9954176896748651 0.09562229385637122
  outer loop
    vertex 2.000000000000005 51.99876593451432 11.945247697650121
    vertex 1.2689849171465539e-14 51.94884107888064 11.425535374843157
    vertex 2.000000000000005 51.94884107888064 11.425535374843157
  endloop
endfacet
facet normal 0.0 -0.9954176896748651 0.09562229385637122
  outer loop
    vertex 1.2689849171465539e-14 51.94884107888064 11.425535374843157
    vertex 2.000000000000005 51.99876593451432 11.945247697650121
    vertex 1.2689849171465539e-14 51.99876593451432 11.945247697650121
  endloop
endfacet
facet normal 0.0 -0.9367507836155334 0.3499970991246699
  outer loop
    vertex 2.000000000000005 51.94884107888064 11.425535374843157
    vertex 1.2689849171465539e-14 51.76610592433342 10.936453323465221
    vertex 2.000000000000005 51.76610592433342 10.936453323465221
  endloop
endfacet
facet normal 0.0 -0.9367507836155334 0.3499970991246699
  outer loop
    vertex 1.2689849171465539e-14 51.76610592433342 10.936453323465221
    vertex 2.000000000000005 51.94884107888064 11.425535374843157
    vertex 1.2689849171465539e-14 51.94884107888064 11.425535374843157
  endloop
endfacet
facet normal 0.0 0.7714817709006042 0.6362514260636809
  outer loop
    vertex 1.2689849171465539e-14 48.30414177331675 10.814780742020481
    vertex 2.000000000000005 48.63633167707143 10.411986430329133
    vertex 1.2689849171465539e-14 48.63633167707143 10.411986430329133
  endloop
endfacet
facet normal 0.0 0.7714817709006042 0.6362514260636809
  outer loop
    vertex 2.000000000000005 48.63633167707143 10.411986430329133
    vertex 1.2689849171465539e-14 48.30414177331675 10.814780742020481
    vertex 2.000000000000005 48.30414177331675 10.814780742020481
  endloop
endfacet
facet normal 0.0 0.5805201804851939 0.81424585970666
  outer loop
    vertex 2.000000000000005 48.63633167707143 10.411986430329133
    vertex 1.2689849171465539e-14 49.06145332346524 10.108894075666615
    vertex 1.2689849171465539e-14 48.63633167707143 10.411986430329133
  endloop
endfacet
facet normal 0.0 0.5805201804851939 0.81424585970666
  outer loop
    vertex 1.2689849171465539e-14 49.06145332346524 10.108894075666615
    vertex 2.000000000000005 48.63633167707143 10.411986430329133
    vertex 2.000000000000005 49.06145332346524 10.108894075666615
  endloop
endfacet
facet normal -0.0 -0.34999709912467236 -0.9367507836155327
  outer loop
    vertex 2.000000000000005 50.9385466765348 13.64110592433339
    vertex 1.2689849171465539e-14 50.44946462515686 13.823841078880623
    vertex 1.2689849171465539e-14 50.9385466765348 13.64110592433339
  endloop
endfacet
facet normal -0.0 -0.34999709912467236 -0.9367507836155327
  outer loop
    vertex 1.2689849171465539e-14 50.44946462515686 13.823841078880623
    vertex 2.000000000000005 50.9385466765348 13.64110592433339
    vertex 2.000000000000005 50.44946462515686 13.823841078880623
  endloop
endfacet
facet normal 0.0 -0.16526901271493236 0.9862485251883684
  outer loop
    vertex 2.000000000000005 50.07024769765015 9.876234065485702
    vertex 1.2689849171465539e-14 50.58517275595205 9.962521805172289
    vertex 1.2689849171465539e-14 50.07024769765015 9.876234065485702
  endloop
endfacet
facet normal 0.0 -0.16526901271493236 0.9862485251883684
  outer loop
    vertex 1.2689849171465539e-14 50.58517275595205 9.962521805172289
    vertex 2.000000000000005 50.07024769765015 9.876234065485702
    vertex 2.000000000000005 50.58517275595205 9.962521805172289
  endloop
endfacet
facet normal 0.0 0.41489750918967094 -0.9098681535630351
  outer loop
    vertex 2.000000000000005 49.41482724404799 13.787478194827715
    vertex 1.2689849171465539e-14 48.9397807420205 13.57085822668327
    vertex 1.2689849171465539e-14 49.41482724404799 13.787478194827715
  endloop
endfacet
facet normal 0.0 0.41489750918967094 -0.9098681535630351
  outer loop
    vertex 1.2689849171465539e-14 48.9397807420205 13.57085822668327
    vertex 2.000000000000005 49.41482724404799 13.787478194827715
    vertex 2.000000000000005 48.9397807420205 13.57085822668327
  endloop
endfacet
facet normal 0.0 0.9098681535630423 0.41489750918965557
  outer loop
    vertex 1.2689849171465539e-14 48.087521805172315 11.289827244047968
    vertex 2.000000000000005 48.30414177331675 10.814780742020481
    vertex 1.2689849171465539e-14 48.30414177331675 10.814780742020481
  endloop
endfacet
facet normal 0.0 0.9098681535630423 0.41489750918965557
  outer loop
    vertex 2.000000000000005 48.30414177331675 10.814780742020481
    vertex 1.2689849171465539e-14 48.087521805172315 11.289827244047968
    vertex 2.000000000000005 48.087521805172315 11.289827244047968
  endloop
endfacet
facet normal 0.0 0.09562229385637681 0.9954176896748644
  outer loop
    vertex 2.000000000000005 49.550535374843186 9.92615892111938
    vertex 1.2689849171465539e-14 50.07024769765015 9.876234065485702
    vertex 1.2689849171465539e-14 49.550535374843186 9.92615892111938
  endloop
endfacet
facet normal 0.0 0.09562229385637681 0.9954176896748644
  outer loop
    vertex 1.2689849171465539e-14 50.07024769765015 9.876234065485702
    vertex 2.000000000000005 49.550535374843186 9.92615892111938
    vertex 2.000000000000005 50.07024769765015 9.876234065485702
  endloop
endfacet
facet normal -0.0 -0.9098681535630418 -0.4148975091896566
  outer loop
    vertex 2.000000000000005 51.695858226683285 12.935219257979524
    vertex 1.2689849171465539e-14 51.91247819482773 12.460172755952037
    vertex 2.000000000000005 51.91247819482773 12.460172755952037
  endloop
endfacet
facet normal -0.0 -0.9098681535630418 -0.4148975091896566
  outer loop
    vertex 1.2689849171465539e-14 51.91247819482773 12.460172755952037
    vertex 2.000000000000005 51.695858226683285 12.935219257979524
    vertex 1.2689849171465539e-14 51.695858226683285 12.935219257979524
  endloop
endfacet
facet normal 0.0 0.0 -1.0
  outer loop
    vertex 41.38143572549622 55.000000000000014 91.00000000000018
    vertex 26.46099190871585 54.75000000000005 90.99999999999982
    vertex 20.819933496147552 54.999999999999964 91.00000000000018
  endloop
endfacet
facet normal 0.0 0.0 -1.0
  outer loop
    vertex 26.46099190871585 54.75000000000005 90.99999999999982
    vertex 41.38143572549622 55.000000000000014 91.00000000000018
    vertex 35.96099190871585 54.75000000000005 90.99999999999982
  endloop
endfacet
facet normal 0.0 0.0 -1.0
  outer loop
    vertex 35.96099190871585 54.75000000000005 90.99999999999982
    vertex 41.38143572549622 55.000000000000014 91.00000000000018
    vertex 35.96099190871585 45.24999999999999 90.99999999999987
  endloop
endfacet
facet normal 0.0 0.0 -1.0
  outer loop
    vertex 20.819933496147446 45.00000000000002 90.99999999999994
    vertex 26.46099190871585 45.24999999999999 90.99999999999982
    vertex 41.381435725496246 45.00000000000002 90.99999999999994
  endloop
endfacet
facet normal 0.0 0.0 -1.0
  outer loop
    vertex 26.46099190871585 45.24999999999999 90.99999999999982
    vertex 20.819933496147446 45.00000000000002 90.99999999999994
    vertex 20.819933496147552 54.999999999999964 91.00000000000018
  endloop
endfacet
facet normal 0.0 0.0 -1.0
  outer loop
    vertex 26.46099190871585 45.24999999999999 90.99999999999982
    vertex 20.819933496147552 54.999999999999964 91.00000000000018
    vertex 26.46099190871585 54.75000000000005 90.99999999999982
  endloop
endfacet
facet normal 0.0 0.0 -1.0
  outer loop
    vertex 41.381435725496246 45.00000000000002 90.99999999999994
    vertex 26.46099190871585 45.24999999999999 90.99999999999982
    vertex 35.96099190871585 45.24999999999999 90.99999999999987
  endloop
endfacet
facet normal 0.0 0.0 -1.0
  outer loop
    vertex 41.381435725496246 45.00000000000002 90.99999999999994
    vertex 35.96099190871585 45.24999999999999 90.99999999999987
    vertex 41.38143572549622 55.000000000000014 91.00000000000018
  endloop
endfacet
facet normal 1.0 -8.897631055421286e-16 -1.5611623321271229e-15
  outer loop
    vertex 6.084305797363452 47.99999999999998 72.31285591145429
    vertex 6.08430579736339 45.00000000000002 74.31285591145426
    vertex 6.08430579736339 45.00000000000002 72.31285591145426
  endloop
endfacet
facet normal 1.0 -8.897631055421286e-16 -1.5611623321271229e-15
  outer loop
    vertex 6.08430579736339 45.00000000000002 74.31285591145426
    vertex 6.084305797363452 47.99999999999998 72.31285591145429
    vertex 6.0843057973634975 54.999999999999964 74.3128559114545
  endloop
endfacet
facet normal 1.0 -8.897631055421286e-16 -1.5611623321271229e-15
  outer loop
    vertex 6.0843057973634975 54.999999999999964 74.3128559114545
    vertex 6.084305797363452 47.99999999999998 72.31285591145429
    vertex 6.084305797363527 51.99999999999997 72.31285591145429
  endloop
endfacet
facet normal 1.0 -8.897631055421286e-16 -1.5611623321271229e-15
  outer loop
    vertex 6.084305797363527 51.99999999999997 72.31285591145429
    vertex 6.084305797363452 47.99999999999998 72.31285591145429
    vertex 6.0843057973633945 48.00000000000002 24.0
  endloop
endfacet
facet normal 1.0 -8.897631055421286e-16 -1.5611623321271229e-15
  outer loop
    vertex 6.0843057973634975 54.999999999999964 74.3128559114545
    vertex 6.084305797363527 51.99999999999997 72.31285591145429
    vertex 6.084305797363494 54.999999999999964 72.3128559114545
  endloop
endfacet
facet normal 1.0 -8.897631055421286e-16 -1.5611623321271229e-15
  outer loop
    vertex 6.0843057973634 55.0 22.0
    vertex 6.08430579736337 45.000000000000064 23.99999999999995
    vertex 6.084305797363383 45.000000000000064 22.000000000000004
  endloop
endfacet
facet normal 1.0 -8.897631055421286e-16 -1.5611623321271229e-15
  outer loop
    vertex 6.08430579736337 45.000000000000064 23.99999999999995
    vertex 6.0843057973634 55.0 22.0
    vertex 6.0843057973633945 48.00000000000002 24.0
  endloop
endfacet
facet normal 1.0 -8.897631055421286e-16 -1.5611623321271229e-15
  outer loop
    vertex 6.0843057973633945 48.00000000000002 24.0
    vertex 6.0843057973634 55.0 22.0
    vertex 6.0843057973633945 52.000000000000014 24.0
  endloop
endfacet
facet normal 1.0 -8.897631055421286e-16 -1.5611623321271229e-15
  outer loop
    vertex 6.0843057973633945 48.00000000000002 24.0
    vertex 6.0843057973633945 52.000000000000014 24.0
    vertex 6.084305797363527 51.99999999999997 72.31285591145429
  endloop
endfacet
facet normal 1.0 -8.897631055421286e-16 -1.5611623321271229e-15
  outer loop
    vertex 6.0843057973633945 52.000000000000014 24.0
    vertex 6.0843057973634 55.0 22.0
    vertex 6.0843057973634025 55.0 23.999999999999996
  endloop
endfacet
facet normal 1.0 -4.58244553414045e-15 -1.1471598603525503e-15
  outer loop
    vertex 3.5843057973633945 48.00000000000002 24.0
    vertex 3.5843057973633967 45.00000000000008 28.0
    vertex 3.58430579736337 45.000000000000064 23.999999999999954
  endloop
endfacet
facet normal 1.0 -4.58244553414045e-15 -1.1471598603525503e-15
  outer loop
    vertex 3.5843057973633967 45.00000000000008 28.0
    vertex 3.5843057973633945 48.00000000000002 24.0
    vertex 3.5843057973634522 47.99999999999998 72.31285591145429
  endloop
endfacet
facet normal 1.0 -4.58244553414045e-15 -1.1471598603525503e-15
  outer loop
    vertex 3.584305797363482 45.000000000000036 68.31285591145429
    vertex 3.5843057973634522 47.99999999999998 72.31285591145429
    vertex 3.5843057973633905 45.00000000000002 72.31285591145426
  endloop
endfacet
facet normal 1.0 -4.58244553414045e-15 -1.1471598603525503e-15
  outer loop
    vertex 3.5843057973634522 47.99999999999998 72.31285591145429
    vertex 3.584305797363482 45.000000000000036 68.31285591145429
    vertex 3.5843057973633967 45.00000000000008 28.0
  endloop
endfacet
facet normal 7.296107913068226e-16 -9.987381292357142e-16 1.0
  outer loop
    vertex 6.08430579736337 45.000000000000064 23.99999999999995
    vertex 3.5843057973633945 48.00000000000002 24.0
    vertex 3.58430579736337 45.000000000000064 23.999999999999954
  endloop
endfacet
facet normal 7.296107913068226e-16 -9.987381292357142e-16 1.0
  outer loop
    vertex 3.5843057973633945 48.00000000000002 24.0
    vertex 6.08430579736337 45.000000000000064 23.99999999999995
    vertex 6.0843057973633945 48.00000000000002 24.0
  endloop
endfacet
facet normal 7.867538770331077e-15 1.0 6.995203933806547e-16
  outer loop
    vertex 9.291219733862412e-14 54.999999999999964 68.3128559114545
    vertex 3.5843057973634003 54.999999999999964 28.0
    vertex 1.762479051592436e-14 55.0 28.0
  endloop
endfacet
facet normal 7.867538770331077e-15 1.0 6.995203933806547e-16
  outer loop
    vertex 3.5843057973634003 54.999999999999964 28.0
    vertex 9.291219733862412e-14 54.999999999999964 68.3128559114545
    vertex 3.5843057973635157 54.99999999999994 68.31285591145429
  endloop
endfacet
facet normal 2.3685470843457055e-17 1.0 3.100644992648097e-16
  outer loop
    vertex 1.678589752390796e-14 55.0 0.0
    vertex 2.0000000000000133 55.0 1.7499999999999996
    vertex 4.00000000000001 55.0 1.4099832412739487e-15
  endloop
endfacet
facet normal 2.3685470843457055e-17 1.0 3.100644992648097e-16
  outer loop
    vertex 2.0000000000000133 55.0 1.7499999999999996
    vertex 1.678589752390796e-14 55.0 0.0
    vertex 1.762479051592436e-14 55.0 28.0
  endloop
endfacet
facet normal 2.3685470843457055e-17 1.0 3.100644992648097e-16
  outer loop
    vertex 2.0000000000000133 55.0 1.7499999999999996
    vertex 1.762479051592436e-14 55.0 28.0
    vertex 2.0000000000000133 55.0 22.0
  endloop
endfacet
facet normal 2.3685470843457055e-17 1.0 3.100644992648097e-16
  outer loop
    vertex 2.0000000000000133 55.0 22.0
    vertex 1.762479051592436e-14 55.0 28.0
    vertex 3.584305797363403 55.0 24.0
  endloop
endfacet
facet normal 2.3685470843457055e-17 1.0 3.100644992648097e-16
  outer loop
    vertex 2.0000000000000133 55.0 22.0
    vertex 3.584305797363403 55.0 24.0
    vertex 6.0843057973634 55.0 22.0
  endloop
endfacet
facet normal 2.3685470843457055e-17 1.0 3.100644992648097e-16
  outer loop
    vertex 6.0843057973634 55.0 22.0
    vertex 3.584305797363403 55.0 24.0
    vertex 6.0843057973634025 55.0 23.999999999999996
  endloop
endfacet
facet normal 2.3685470843457055e-17 1.0 3.100644992648097e-16
  outer loop
    vertex 3.584305797363403 55.0 24.0
    vertex 1.762479051592436e-14 55.0 28.0
    vertex 3.5843057973634003 54.999999999999964 28.0
  endloop
endfacet
facet normal 2.3685470843457055e-17 1.0 3.100644992648097e-16
  outer loop
    vertex 4.00000000000001 55.0 1.7499999999999996
    vertex 4.00000000000001 55.0 1.4099832412739487e-15
    vertex 2.0000000000000133 55.0 1.7499999999999996
  endloop
endfacet
facet normal 2.360261631099335e-15 -1.0 -9.09376511394883e-16
  outer loop
    vertex 3.584305797363482 45.000000000000036 68.31285591145429
    vertex 4.93494134445882e-15 45.000000000000064 28.00000000000001
    vertex 3.5843057973633967 45.00000000000008 28.0
  endloop
endfacet
facet normal 2.360261631099335e-15 -1.0 -9.09376511394883e-16
  outer loop
    vertex 4.93494134445882e-15 45.000000000000064 28.00000000000001
    vertex 3.584305797363482 45.000000000000036 68.31285591145429
    vertex 1.0560454026405226e-13 45.000000000000036 68.31285591145429
  endloop
endfacet
facet normal 1.1842735421735496e-17 -1.0 1.5503224963240493e-16
  outer loop
    vertex 6.08430579736337 45.000000000000064 23.99999999999995
    vertex 1.9999999999999962 45.000000000000064 22.000000000000004
    vertex 6.084305797363383 45.000000000000064 22.000000000000004
  endloop
endfacet
facet normal 1.1842735421735496e-17 -1.0 1.5503224963240493e-16
  outer loop
    vertex 0.0 45.000000000000064 5.314019919918478e-15
    vertex 1.9999999999999962 45.000000000000064 1.7500000000000049
    vertex 4.93494134445882e-15 45.000000000000064 28.00000000000001
  endloop
endfacet
facet normal 1.1842735421735496e-17 -1.0 1.5503224963240493e-16
  outer loop
    vertex 1.9999999999999962 45.000000000000064 1.7500000000000049
    vertex 0.0 45.000000000000064 5.314019919918478e-15
    vertex 3.9999999999999925 45.000000000000064 6.724003161192427e-15
  endloop
endfacet
facet normal 1.1842735421735496e-17 -1.0 1.5503224963240493e-16
  outer loop
    vertex 1.9999999999999962 45.000000000000064 1.7500000000000049
    vertex 3.9999999999999925 45.000000000000064 6.724003161192427e-15
    vertex 3.9999999999999925 45.000000000000064 1.7500000000000049
  endloop
endfacet
facet normal 1.1842735421735496e-17 -1.0 1.5503224963240493e-16
  outer loop
    vertex 4.93494134445882e-15 45.000000000000064 28.00000000000001
    vertex 1.9999999999999962 45.000000000000064 1.7500000000000049
    vertex 1.9999999999999962 45.000000000000064 22.000000000000004
  endloop
endfacet
facet normal 1.1842735421735496e-17 -1.0 1.5503224963240493e-16
  outer loop
    vertex 4.93494134445882e-15 45.000000000000064 28.00000000000001
    vertex 1.9999999999999962 45.000000000000064 22.000000000000004
    vertex 3.58430579736337 45.000000000000064 23.999999999999954
  endloop
endfacet
facet normal 1.1842735421735496e-17 -1.0 1.5503224963240493e-16
  outer loop
    vertex 3.58430579736337 45.000000000000064 23.999999999999954
    vertex 1.9999999999999962 45.000000000000064 22.000000000000004
    vertex 6.08430579736337 45.000000000000064 23.99999999999995
  endloop
endfacet
facet normal 1.1842735421735496e-17 -1.0 1.5503224963240493e-16
  outer loop
    vertex 4.93494134445882e-15 45.000000000000064 28.00000000000001
    vertex 3.58430579736337 45.000000000000064 23.999999999999954
    vertex 3.5843057973633967 45.00000000000008 28.0
  endloop
endfacet
facet normal 2.714152143661384e-15 5.874930171974739e-17 1.0
  outer loop
    vertex 6.0843057973633945 52.000000000000014 24.0
    vertex 3.584305797363403 55.0 24.0
    vertex 3.5843057973633945 52.000000000000014 24.000000000000004
  endloop
endfacet
facet normal 2.714152143661384e-15 5.874930171974739e-17 1.0
  outer loop
    vertex 3.584305797363403 55.0 24.0
    vertex 6.0843057973633945 52.000000000000014 24.0
    vertex 6.0843057973634025 55.0 23.999999999999996
  endloop
endfacet
facet normal -7.296107913068234e-16 1.0608870817825979e-30 -1.0
  outer loop
    vertex 3.5843057973634522 47.99999999999998 72.31285591145429
    vertex 6.08430579736339 45.00000000000002 72.31285591145426
    vertex 3.5843057973633905 45.00000000000002 72.31285591145426
  endloop
endfacet
facet normal -7.296107913068234e-16 1.0608870817825979e-30 -1.0
  outer loop
    vertex 6.08430579736339 45.00000000000002 72.31285591145426
    vertex 3.5843057973634522 47.99999999999998 72.31285591145429
    vertex 6.084305797363452 47.99999999999998 72.31285591145429
  endloop
endfacet
facet normal 5.943005408006161e-16 1.0 -4.893802630775978e-15
  outer loop
    vertex 8.83872555343749 55.000000000000014 95.16155511921421
    vertex 10.338725553437422 55.000000000000014 90.16155511921423
    vertex 3.0943770258459784 55.000000000000014 89.05340342959302
  endloop
endfacet
facet normal 5.943005408006161e-16 1.0 -4.893802630775978e-15
  outer loop
    vertex 10.338725553437422 55.000000000000014 90.16155511921423
    vertex 8.83872555343749 55.000000000000014 95.16155511921421
    vertex 10.338725553437422 55.000000000000014 92.66155511921421
  endloop
endfacet
facet normal 5.943005408006161e-16 1.0 -4.893802630775978e-15
  outer loop
    vertex 10.338725553437422 55.000000000000014 92.66155511921421
    vertex 8.83872555343749 55.000000000000014 95.16155511921421
    vertex 12.33872555343751 55.000000000000014 92.66155511921421
  endloop
endfacet
facet normal 5.943005408006161e-16 1.0 -4.893802630775978e-15
  outer loop
    vertex 12.33872555343751 55.000000000000014 92.66155511921421
    vertex 8.83872555343749 55.000000000000014 95.16155511921421
    vertex 12.33872555343751 55.000000000000014 96.75655366263885
  endloop
endfacet
facet normal 5.943005408006161e-16 1.0 -4.893802630775978e-15
  outer loop
    vertex 12.33872555343751 55.000000000000014 96.75655366263885
    vertex 8.83872555343749 55.000000000000014 95.16155511921421
    vertex 10.33872555343751 55.000000000000014 96.75655366263885
  endloop
endfacet
facet normal 5.943005408006161e-16 1.0 -4.893802630775978e-15
  outer loop
    vertex 9.291219733862412e-14 54.999999999999964 68.3128559114545
    vertex 3.584305797363495 54.999999999999964 72.3128559114545
    vertex 3.5843057973635157 54.99999999999994 68.31285591145429
  endloop
endfacet
facet normal 5.943005408006161e-16 1.0 -4.893802630775978e-15
  outer loop
    vertex 3.584305797363495 54.999999999999964 72.3128559114545
    vertex 9.291219733862412e-14 54.999999999999964 68.3128559114545
    vertex -2.1430346575945155e-14 55.000000000000014 84.80090252963207
  endloop
endfacet
facet normal 5.943005408006161e-16 1.0 -4.893802630775978e-15
  outer loop
    vertex 3.584305797363495 54.999999999999964 72.3128559114545
    vertex -2.1430346575945155e-14 55.000000000000014 84.80090252963207
    vertex 6.084305797363494 54.999999999999964 72.3128559114545
  endloop
endfacet
facet normal 5.943005408006161e-16 1.0 -4.893802630775978e-15
  outer loop
    vertex 6.084305797363494 54.999999999999964 72.3128559114545
    vertex -2.1430346575945155e-14 55.000000000000014 84.80090252963207
    vertex 6.0843057973634975 54.999999999999964 74.3128559114545
  endloop
endfacet
facet normal 5.943005408006161e-16 1.0 -4.893802630775978e-15
  outer loop
    vertex 6.0843057973634975 54.999999999999964 74.3128559114545
    vertex -2.1430346575945155e-14 55.000000000000014 84.80090252963207
    vertex 13.218746434948214 54.99999999999988 83.44845403107055
  endloop
endfacet
facet normal 5.943005408006161e-16 1.0 -4.893802630775978e-15
  outer loop
    vertex 13.218746434948214 54.99999999999988 83.44845403107055
    vertex -2.1430346575945155e-14 55.000000000000014 84.80090252963207
    vertex 20.819933496147552 54.999999999999964 91.00000000000018
  endloop
endfacet
facet normal 5.943005408006161e-16 1.0 -4.893802630775978e-15
  outer loop
    vertex 20.819933496147552 54.999999999999964 91.00000000000018
    vertex -2.1430346575945155e-14 55.000000000000014 84.80090252963207
    vertex 15.458875779886942 55.000000000000014 90.16155511921423
  endloop
endfacet
facet normal 5.943005408006161e-16 1.0 -4.893802630775978e-15
  outer loop
    vertex 15.458875779886942 55.000000000000014 90.16155511921423
    vertex -2.1430346575945155e-14 55.000000000000014 84.80090252963207
    vertex 3.0943770258459784 55.000000000000014 89.05340342959302
  endloop
endfacet
facet normal 5.943005408006161e-16 1.0 -4.893802630775978e-15
  outer loop
    vertex 15.458875779886942 55.000000000000014 90.16155511921423
    vertex 3.0943770258459784 55.000000000000014 89.05340342959302
    vertex 10.338725553437422 55.000000000000014 90.16155511921423
  endloop
endfacet
facet normal 5.943005408006161e-16 1.0 -4.893802630775978e-15
  outer loop
    vertex 20.819933496147552 54.999999999999964 91.00000000000018
    vertex 15.458875779886942 55.000000000000014 90.16155511921423
    vertex 15.458875779886942 55.000000000000014 92.28821984377993
  endloop
endfacet
facet normal 5.943005408006161e-16 1.0 -4.893802630775978e-15
  outer loop
    vertex 20.819933496147552 54.999999999999964 91.00000000000018
    vertex 15.458875779886942 55.000000000000014 92.28821984377993
    vertex 41.38143572549622 55.000000000000014 91.00000000000018
  endloop
endfacet
facet normal 5.943005408006161e-16 1.0 -4.893802630775978e-15
  outer loop
    vertex 41.38143572549622 55.000000000000014 91.00000000000018
    vertex 15.458875779886942 55.000000000000014 92.28821984377993
    vertex 41.38143572549622 55.000000000000014 95.16155511921421
  endloop
endfacet
facet normal 5.943005408006161e-16 1.0 -4.893802630775978e-15
  outer loop
    vertex 41.38143572549622 55.000000000000014 95.16155511921421
    vertex 15.458875779886942 55.000000000000014 92.28821984377993
    vertex 16.4588757798876 55.000000000000306 93.35155220606254
  endloop
endfacet
facet normal 5.943005408006161e-16 1.0 -4.893802630775978e-15
  outer loop
    vertex 41.38143572549622 55.000000000000014 95.16155511921421
    vertex 16.4588757798876 55.000000000000306 93.35155220606254
    vertex 16.4588757798876 55.000000000000306 95.16155511921397
  endloop
endfacet
facet normal -0.7284677904894209 -1.6574936914176908e-16 0.6850800524168409
  outer loop
    vertex 16.45887577988699 45.00000000000008 93.35155220606255
    vertex 15.458875779886942 55.000000000000014 92.28821984377993
    vertex 15.45887577988699 45.00000000000002 92.2882198437797
  endloop
endfacet
facet normal -0.7284677904894209 -1.6574936914176908e-16 0.6850800524168409
  outer loop
    vertex 15.458875779886942 55.000000000000014 92.28821984377993
    vertex 16.45887577988699 45.00000000000008 93.35155220606255
    vertex 16.4588757798876 55.000000000000306 93.35155220606254
  endloop
endfacet
facet normal -9.840508038057775e-16 -1.0 -9.33901812872733e-16
  outer loop
    vertex 6.084305797363452 47.99999999999998 72.31285591145429
    vertex 3.5843057973633945 48.00000000000002 24.0
    vertex 6.0843057973633945 48.00000000000002 24.0
  endloop
endfacet
facet normal -9.840508038057775e-16 -1.0 -9.33901812872733e-16
  outer loop
    vertex 3.5843057973633945 48.00000000000002 24.0
    vertex 6.084305797363452 47.99999999999998 72.31285591145429
    vertex 3.5843057973634522 47.99999999999998 72.31285591145429
  endloop
endfacet
facet normal -2.714152143661384e-15 3.189090864025262e-31 -1.0
  outer loop
    vertex 6.084305797363494 54.999999999999964 72.3128559114545
    vertex 3.5843057973635273 51.99999999999997 72.31285591145429
    vertex 3.584305797363495 54.999999999999964 72.3128559114545
  endloop
endfacet
facet normal -2.714152143661384e-15 3.189090864025262e-31 -1.0
  outer loop
    vertex 3.5843057973635273 51.99999999999997 72.31285591145429
    vertex 6.084305797363494 54.999999999999964 72.3128559114545
    vertex 6.084305797363527 51.99999999999997 72.31285591145429
  endloop
endfacet
facet normal 1.0 2.467470672229495e-15 -2.4616377403231067e-15
  outer loop
    vertex 3.5843057973633945 52.000000000000014 24.000000000000004
    vertex 3.5843057973634003 54.999999999999964 28.0
    vertex 3.5843057973635157 54.99999999999994 68.31285591145429
  endloop
endfacet
facet normal 1.0 2.467470672229495e-15 -2.4616377403231067e-15
  outer loop
    vertex 3.5843057973634003 54.999999999999964 28.0
    vertex 3.5843057973633945 52.000000000000014 24.000000000000004
    vertex 3.584305797363403 55.0 24.0
  endloop
endfacet
facet normal 1.0 2.467470672229495e-15 -2.4616377403231067e-15
  outer loop
    vertex 3.5843057973633945 52.000000000000014 24.000000000000004
    vertex 3.584305797363495 54.999999999999964 72.3128559114545
    vertex 3.5843057973635273 51.99999999999997 72.31285591145429
  endloop
endfacet
facet normal 1.0 2.467470672229495e-15 -2.4616377403231067e-15
  outer loop
    vertex 3.584305797363495 54.999999999999964 72.3128559114545
    vertex 3.5843057973633945 52.000000000000014 24.000000000000004
    vertex 3.5843057973635157 54.99999999999994 68.31285591145429
  endloop
endfacet
facet normal 1.4687325429937224e-16 1.0 9.339018128727337e-16
  outer loop
    vertex 3.5843057973633945 52.000000000000014 24.000000000000004
    vertex 6.084305797363527 51.99999999999997 72.31285591145429
    vertex 6.0843057973633945 52.000000000000014 24.0
  endloop
endfacet
facet normal 1.4687325429937224e-16 1.0 9.339018128727337e-16
  outer loop
    vertex 6.084305797363527 51.99999999999997 72.31285591145429
    vertex 3.5843057973633945 52.000000000000014 24.000000000000004
    vertex 3.5843057973635273 51.99999999999997 72.31285591145429
  endloop
endfacet
facet normal 0.0 0.0 1.0
  outer loop
    vertex 10.33872555343754 45.00000000000002 96.75655366263862
    vertex 12.33872555343751 55.000000000000014 96.75655366263885
    vertex 10.33872555343751 55.000000000000014 96.75655366263885
  endloop
endfacet
facet normal 0.0 0.0 1.0
  outer loop
    vertex 12.33872555343751 55.000000000000014 96.75655366263885
    vertex 10.33872555343754 45.00000000000002 96.75655366263862
    vertex 12.338725553437538 45.00000000000002 96.75655366263862
  endloop
endfacet
facet normal -1.1123771939367552e-16 -1.0 3.425143094057533e-16
  outer loop
    vertex 6.08430579736339 45.00000000000002 74.31285591145426
    vertex 3.5843057973633905 45.00000000000002 72.31285591145426
    vertex 6.08430579736339 45.00000000000002 72.31285591145426
  endloop
endfacet
facet normal -1.1123771939367552e-16 -1.0 3.425143094057533e-16
  outer loop
    vertex 41.38143572549626 45.00000000000002 95.16155511921397
    vertex 20.819933496147446 45.00000000000002 90.99999999999994
    vertex 41.381435725496246 45.00000000000002 90.99999999999994
  endloop
endfacet
facet normal -1.1123771939367552e-16 -1.0 3.425143094057533e-16
  outer loop
    vertex 20.819933496147446 45.00000000000002 90.99999999999994
    vertex 41.38143572549626 45.00000000000002 95.16155511921397
    vertex 15.45887577988699 45.00000000000002 92.2882198437797
  endloop
endfacet
facet normal -1.1123771939367552e-16 -1.0 3.425143094057533e-16
  outer loop
    vertex 15.45887577988699 45.00000000000002 92.2882198437797
    vertex 41.38143572549626 45.00000000000002 95.16155511921397
    vertex 16.45887577988699 45.00000000000008 93.35155220606255
  endloop
endfacet
facet normal -1.1123771939367552e-16 -1.0 3.425143094057533e-16
  outer loop
    vertex 16.45887577988699 45.00000000000008 93.35155220606255
    vertex 41.38143572549626 45.00000000000002 95.16155511921397
    vertex 16.45887577988699 45.00000000000008 95.16155511921397
  endloop
endfacet
facet normal -1.1123771939367552e-16 -1.0 3.425143094057533e-16
  outer loop
    vertex 3.5843057973633905 45.00000000000002 72.31285591145426
    vertex 1.0560454026405226e-13 45.000000000000036 68.31285591145429
    vertex 3.584305797363482 45.000000000000036 68.31285591145429
  endloop
endfacet
facet normal -1.1123771939367552e-16 -1.0 3.425143094057533e-16
  outer loop
    vertex 1.0560454026405226e-13 45.000000000000036 68.31285591145429
    vertex 3.5843057973633905 45.00000000000002 72.31285591145426
    vertex 8.106483293510624e-15 45.00000000000002 84.80090252963183
  endloop
endfacet
facet normal -1.1123771939367552e-16 -1.0 3.425143094057533e-16
  outer loop
    vertex 8.106483293510624e-15 45.00000000000002 84.80090252963183
    vertex 3.5843057973633905 45.00000000000002 72.31285591145426
    vertex 6.08430579736339 45.00000000000002 74.31285591145426
  endloop
endfacet
facet normal -1.1123771939367552e-16 -1.0 3.425143094057533e-16
  outer loop
    vertex 8.106483293510624e-15 45.00000000000002 84.80090252963183
    vertex 6.08430579736339 45.00000000000002 74.31285591145426
    vertex 13.218746434948109 45.0 83.44845403107031
  endloop
endfacet
facet normal -1.1123771939367552e-16 -1.0 3.425143094057533e-16
  outer loop
    vertex 8.106483293510624e-15 45.00000000000002 84.80090252963183
    vertex 13.218746434948109 45.0 83.44845403107031
    vertex 20.819933496147446 45.00000000000002 90.99999999999994
  endloop
endfacet
facet normal -1.1123771939367552e-16 -1.0 3.425143094057533e-16
  outer loop
    vertex 8.106483293510624e-15 45.00000000000002 84.80090252963183
    vertex 20.819933496147446 45.00000000000002 90.99999999999994
    vertex 15.45887577988699 45.00000000000002 90.16155511921399
  endloop
endfacet
facet normal -1.1123771939367552e-16 -1.0 3.425143094057533e-16
  outer loop
    vertex 8.106483293510624e-15 45.00000000000002 84.80090252963183
    vertex 15.45887577988699 45.00000000000002 90.16155511921399
    vertex 3.0943770258460077 45.00000000000002 89.05340342959278
  endloop
endfacet
facet normal -1.1123771939367552e-16 -1.0 3.425143094057533e-16
  outer loop
    vertex 15.45887577988699 45.00000000000002 90.16155511921399
    vertex 20.819933496147446 45.00000000000002 90.99999999999994
    vertex 15.45887577988699 45.00000000000002 92.2882198437797
  endloop
endfacet
facet normal -1.1123771939367552e-16 -1.0 3.425143094057533e-16
  outer loop
    vertex 12.338725553437538 45.00000000000002 96.75655366263862
    vertex 10.338725553437452 45.00000000000002 92.66155511921399
    vertex 12.338725553437538 45.00000000000002 92.66155511921399
  endloop
endfacet
facet normal -1.1123771939367552e-16 -1.0 3.425143094057533e-16
  outer loop
    vertex 3.0943770258460077 45.00000000000002 89.05340342959278
    vertex 10.338725553437452 45.00000000000002 92.66155511921399
    vertex 10.33872555343754 45.00000000000002 96.75655366263862
  endloop
endfacet
facet normal -1.1123771939367552e-16 -1.0 3.425143094057533e-16
  outer loop
    vertex 10.338725553437452 45.00000000000002 92.66155511921399
    vertex 3.0943770258460077 45.00000000000002 89.05340342959278
    vertex 10.338725553437452 45.00000000000002 90.16155511921399
  endloop
endfacet
facet normal -1.1123771939367552e-16 -1.0 3.425143094057533e-16
  outer loop
    vertex 10.338725553437452 45.00000000000002 90.16155511921399
    vertex 3.0943770258460077 45.00000000000002 89.05340342959278
    vertex 15.45887577988699 45.00000000000002 90.16155511921399
  endloop
endfacet
facet normal -1.1123771939367552e-16 -1.0 3.425143094057533e-16
  outer loop
    vertex 10.33872555343754 45.00000000000002 96.75655366263862
    vertex 10.338725553437452 45.00000000000002 92.66155511921399
    vertex 12.338725553437538 45.00000000000002 96.75655366263862
  endloop
endfacet
facet normal 1.0 0.0 0.0
  outer loop
    vertex 12.33872555343751 55.000000000000014 92.66155511921421
    vertex 12.338725553437538 45.00000000000002 96.75655366263862
    vertex 12.338725553437538 45.00000000000002 92.66155511921399
  endloop
endfacet
facet normal 1.0 0.0 0.0
  outer loop
    vertex 12.338725553437538 45.00000000000002 96.75655366263862
    vertex 12.33872555343751 55.000000000000014 92.66155511921421
    vertex 12.33872555343751 55.000000000000014 96.75655366263885
  endloop
endfacet
facet normal -1.0 0.0 0.0
  outer loop
    vertex 15.458875779886942 55.000000000000014 92.28821984377993
    vertex 15.45887577988699 45.00000000000002 90.16155511921399
    vertex 15.45887577988699 45.00000000000002 92.2882198437797
  endloop
endfacet
facet normal -1.0 0.0 0.0
  outer loop
    vertex 15.45887577988699 45.00000000000002 90.16155511921399
    vertex 15.458875779886942 55.000000000000014 92.28821984377993
    vertex 15.458875779886942 55.000000000000014 90.16155511921423
  endloop
endfacet
facet normal 2.0083738337844175e-29 -1.0 -1.1279865930191516e-14
  outer loop
    vertex 35.96099190871584 54.75000000000002 92.99999999999984
    vertex 26.46099190871585 54.75000000000005 90.99999999999982
    vertex 35.96099190871585 54.75000000000005 90.99999999999982
  endloop
endfacet
facet normal 2.0083738337844175e-29 -1.0 -1.1279865930191516e-14
  outer loop
    vertex 26.46099190871585 54.75000000000005 90.99999999999982
    vertex 35.96099190871584 54.75000000000002 92.99999999999984
    vertex 26.460991908715847 54.75000000000002 92.9999999999998
  endloop
endfacet
facet normal 2.514905598415123e-29 -1.0 -1.0436806195617906e-14
  outer loop
    vertex 34.71099190871584 53.500000000000014 92.99999999999983
    vertex 27.710991908715844 53.49999999999999 95.1615551192139
    vertex 27.710991908715844 53.500000000000014 92.9999999999998
  endloop
endfacet
facet normal 2.514905598415123e-29 -1.0 -1.0436806195617906e-14
  outer loop
    vertex 27.710991908715844 53.49999999999999 95.1615551192139
    vertex 34.71099190871584 53.500000000000014 92.99999999999983
    vertex 34.71099190871584 53.49999999999999 95.1615551192139
  endloop
endfacet
facet normal -1.0 -1.667394415543689e-29 -2.8199664825478797e-15
  outer loop
    vertex 35.96099190871584 54.75000000000002 92.99999999999984
    vertex 35.96099190871585 45.24999999999999 90.99999999999987
    vertex 35.96099190871584 45.24999999999997 92.99999999999987
  endloop
endfacet
facet normal -1.0 -1.667394415543689e-29 -2.8199664825478797e-15
  outer loop
    vertex 35.96099190871585 45.24999999999999 90.99999999999987
    vertex 35.96099190871584 54.75000000000002 92.99999999999984
    vertex 35.96099190871585 54.75000000000005 90.99999999999982
  endloop
endfacet
facet normal -8.037185072911287e-29 1.0 1.127986593019161e-14
  outer loop
    vertex 26.460991908715847 45.24999999999997 92.9999999999998
    vertex 35.96099190871585 45.24999999999999 90.99999999999987
    vertex 26.46099190871585 45.24999999999999 90.99999999999982
  endloop
endfacet
facet normal -8.037185072911287e-29 1.0 1.127986593019161e-14
  outer loop
    vertex 35.96099190871585 45.24999999999999 90.99999999999987
    vertex 26.460991908715847 45.24999999999997 92.9999999999998
    vertex 35.96099190871584 45.24999999999997 92.99999999999987
  endloop
endfacet
facet normal -1.0083460361417901e-28 1.0 1.0436806195617824e-14
  outer loop
    vertex 27.710991908715844 46.49999999999996 95.16155511921392
    vertex 34.71099190871584 46.499999999999986 92.99999999999989
    vertex 27.710991908715844 46.499999999999986 92.99999999999982
  endloop
endfacet
facet normal -1.0083460361417901e-28 1.0 1.0436806195617824e-14
  outer loop
    vertex 34.71099190871584 46.499999999999986 92.99999999999989
    vertex 27.710991908715844 46.49999999999996 95.16155511921392
    vertex 34.71099190871584 46.49999999999996 95.16155511921399
  endloop
endfacet
facet normal 1.0 1.9320349873414108e-30 2.8199664825479026e-15
  outer loop
    vertex 26.46099190871585 45.24999999999999 90.99999999999982
    vertex 26.460991908715847 54.75000000000002 92.9999999999998
    vertex 26.460991908715847 45.24999999999997 92.9999999999998
  endloop
endfacet
facet normal 1.0 1.9320349873414108e-30 2.8199664825479026e-15
  outer loop
    vertex 26.460991908715847 54.75000000000002 92.9999999999998
    vertex 26.46099190871585 45.24999999999999 90.99999999999982
    vertex 26.46099190871585 54.75000000000005 90.99999999999982
  endloop
endfacet
facet normal 1.0 0.0 0.0
  outer loop
    vertex 27.710991908715844 46.499999999999986 92.99999999999982
    vertex 27.710991908715844 53.49999999999999 95.1615551192139
    vertex 27.710991908715844 46.49999999999996 95.16155511921392
  endloop
endfacet
facet normal 1.0 0.0 0.0
  outer loop
    vertex 27.710991908715844 53.49999999999999 95.1615551192139
    vertex 27.710991908715844 46.499999999999986 92.99999999999982
    vertex 27.710991908715844 53.500000000000014 92.9999999999998
  endloop
endfacet
facet normal -1.0 0.0 0.0
  outer loop
    vertex 34.71099190871584 53.49999999999999 95.1615551192139
    vertex 34.71099190871584 46.499999999999986 92.99999999999989
    vertex 34.71099190871584 46.49999999999996 95.16155511921399
  endloop
endfacet
facet normal -1.0 0.0 0.0
  outer loop
    vertex 34.71099190871584 46.499999999999986 92.99999999999989
    vertex 34.71099190871584 53.49999999999999 95.1615551192139
    vertex 34.71099190871584 53.500000000000014 92.99999999999983
  endloop
endfacet
facet normal 6.253307980608033e-15 -4.352647714559641e-15 -1.0
  outer loop
    vertex 26.460991908715847 54.75000000000002 92.9999999999998
    vertex 27.710991908715844 53.500000000000014 92.9999999999998
    vertex 26.460991908715847 45.24999999999997 92.9999999999998
  endloop
endfacet
facet normal 6.253307980608033e-15 -4.352647714559641e-15 -1.0
  outer loop
    vertex 27.710991908715844 53.500000000000014 92.9999999999998
    vertex 26.460991908715847 54.75000000000002 92.9999999999998
    vertex 35.96099190871584 54.75000000000002 92.99999999999984
  endloop
endfacet
facet normal 6.253307980608033e-15 -4.352647714559641e-15 -1.0
  outer loop
    vertex 27.710991908715844 53.500000000000014 92.9999999999998
    vertex 35.96099190871584 54.75000000000002 92.99999999999984
    vertex 34.71099190871584 53.500000000000014 92.99999999999983
  endloop
endfacet
facet normal 6.253307980608033e-15 -4.352647714559641e-15 -1.0
  outer loop
    vertex 34.71099190871584 53.500000000000014 92.99999999999983
    vertex 35.96099190871584 54.75000000000002 92.99999999999984
    vertex 34.71099190871584 46.499999999999986 92.99999999999989
  endloop
endfacet
facet normal 6.253307980608033e-15 -4.352647714559641e-15 -1.0
  outer loop
    vertex 26.460991908715847 45.24999999999997 92.9999999999998
    vertex 27.710991908715844 46.499999999999986 92.99999999999982
    vertex 35.96099190871584 45.24999999999997 92.99999999999987
  endloop
endfacet
facet normal 6.253307980608033e-15 -4.352647714559641e-15 -1.0
  outer loop
    vertex 27.710991908715844 46.499999999999986 92.99999999999982
    vertex 26.460991908715847 45.24999999999997 92.9999999999998
    vertex 27.710991908715844 53.500000000000014 92.9999999999998
  endloop
endfacet
facet normal 6.253307980608033e-15 -4.352647714559641e-15 -1.0
  outer loop
    vertex 35.96099190871584 45.24999999999997 92.99999999999987
    vertex 27.710991908715844 46.499999999999986 92.99999999999982
    vertex 34.71099190871584 46.499999999999986 92.99999999999989
  endloop
endfacet
facet normal 6.253307980608033e-15 -4.352647714559641e-15 -1.0
  outer loop
    vertex 35.96099190871584 45.24999999999997 92.99999999999987
    vertex 34.71099190871584 46.499999999999986 92.99999999999989
    vertex 35.96099190871584 54.75000000000002 92.99999999999984
  endloop
endfacet
facet normal -4.3458606271439495e-15 6.701708994290641e-16 1.0
  outer loop
    vertex 16.45887577988699 45.00000000000008 95.16155511921397
    vertex 27.710991908715844 46.49999999999996 95.16155511921392
    vertex 16.4588757798876 55.000000000000306 95.16155511921397
  endloop
endfacet
facet normal -4.3458606271439495e-15 6.701708994290641e-16 1.0
  outer loop
    vertex 27.710991908715844 46.49999999999996 95.16155511921392
    vertex 16.45887577988699 45.00000000000008 95.16155511921397
    vertex 41.38143572549626 45.00000000000002 95.16155511921397
  endloop
endfacet
facet normal -4.3458606271439495e-15 6.701708994290641e-16 1.0
  outer loop
    vertex 27.710991908715844 46.49999999999996 95.16155511921392
    vertex 41.38143572549626 45.00000000000002 95.16155511921397
    vertex 34.71099190871584 46.49999999999996 95.16155511921399
  endloop
endfacet
facet normal -4.3458606271439495e-15 6.701708994290641e-16 1.0
  outer loop
    vertex 34.71099190871584 46.49999999999996 95.16155511921399
    vertex 41.38143572549626 45.00000000000002 95.16155511921397
    vertex 34.71099190871584 53.49999999999999 95.1615551192139
  endloop
endfacet
facet normal -4.3458606271439495e-15 6.701708994290641e-16 1.0
  outer loop
    vertex 34.71099190871584 53.49999999999999 95.1615551192139
    vertex 41.38143572549626 45.00000000000002 95.16155511921397
    vertex 41.38143572549622 55.000000000000014 95.16155511921421
  endloop
endfacet
facet normal -4.3458606271439495e-15 6.701708994290641e-16 1.0
  outer loop
    vertex 16.4588757798876 55.000000000000306 95.16155511921397
    vertex 27.710991908715844 53.49999999999999 95.1615551192139
    vertex 41.38143572549622 55.000000000000014 95.16155511921421
  endloop
endfacet
facet normal -4.3458606271439495e-15 6.701708994290641e-16 1.0
  outer loop
    vertex 27.710991908715844 53.49999999999999 95.1615551192139
    vertex 16.4588757798876 55.000000000000306 95.16155511921397
    vertex 27.710991908715844 46.49999999999996 95.16155511921392
  endloop
endfacet
facet normal -4.3458606271439495e-15 6.701708994290641e-16 1.0
  outer loop
    vertex 41.38143572549622 55.000000000000014 95.16155511921421
    vertex 27.710991908715844 53.49999999999999 95.1615551192139
    vertex 34.71099190871584 53.49999999999999 95.1615551192139
  endloop
endfacet
facet normal -1.0 6.570521904336586e-15 -1.1735547814067431e-29
  outer loop
    vertex 16.45887577988699 45.00000000000008 95.16155511921397
    vertex 16.4588757798876 55.000000000000306 93.35155220606254
    vertex 16.45887577988699 45.00000000000008 93.35155220606255
  endloop
endfacet
facet normal -1.0 6.570521904336586e-15 -1.1735547814067431e-29
  outer loop
    vertex 16.4588757798876 55.000000000000306 93.35155220606254
    vertex 16.45887577988699 45.00000000000008 95.16155511921397
    vertex 16.4588757798876 55.000000000000306 95.16155511921397
  endloop
endfacet
endsolid Cover-Test
