solid Dome Wall Support - Right End
facet normal 0.7881392652536086 -1.2000385821416946e-15 -0.6154969525233266
  outer loop
    vertex 6.084305797363382 2.255973186038318e-14 74.31285591145429
    vertex 13.218746434948251 49.99999999999984 83.44845403107051
    vertex 13.2187464349481 0.0 83.44845403107033
  endloop
endfacet
facet normal 0.7881392652536086 -1.2000385821416946e-15 -0.6154969525233266
  outer loop
    vertex 13.218746434948251 49.99999999999984 83.44845403107051
    vertex 6.084305797363382 2.255973186038318e-14 74.31285591145429
    vertex 6.084305797363493 49.99999999999992 74.31285591145448
  endloop
endfacet
facet normal 0.7047864828433946 -1.0750808065653394e-15 -0.7094194905704505
  outer loop
    vertex 13.218746434948251 49.99999999999984 83.44845403107051
    vertex 20.81993349614744 2.255973186038318e-14 90.99999999999997
    vertex 13.2187464349481 0.0 83.44845403107033
  endloop
endfacet
facet normal 0.7047864828433946 -1.0750808065653394e-15 -0.7094194905704505
  outer loop
    vertex 20.81993349614744 2.255973186038318e-14 90.99999999999997
    vertex 13.218746434948251 49.99999999999984 83.44845403107051
    vertex 20.819933496147588 49.99999999999992 91.00000000000014
  endloop
endfacet
facet normal 3.524958103184878e-16 0.0 -1.0
  outer loop
    vertex 1.678589752390796e-14 49.99999999999995 0.0
    vertex 3.9999999999999925 2.255973186038318e-14 6.724003161192427e-15
    vertex 0.0 2.255973186038318e-14 5.314019919918478e-15
  endloop
endfacet
facet normal 3.524958103184878e-16 0.0 -1.0
  outer loop
    vertex 3.9999999999999925 2.255973186038318e-14 6.724003161192427e-15
    vertex 1.678589752390796e-14 49.99999999999995 0.0
    vertex 4.00000000000001 49.99999999999995 1.4099832412739487e-15
  endloop
endfacet
facet normal -1.0 5.327777787038891e-16 3.865924994168777e-16
  outer loop
    vertex -2.5676595920373303e-14 49.99999999999997 84.80090252963204
    vertex 7.049916206369744e-14 2.255973186038318e-14 68.31285591145429
    vertex 0.0 2.255973186038318e-14 84.80090252963186
  endloop
endfacet
facet normal -1.0 5.327777787038891e-16 3.865924994168777e-16
  outer loop
    vertex 7.049916206369744e-14 2.255973186038318e-14 68.31285591145429
    vertex -2.5676595920373303e-14 49.99999999999997 84.80090252963204
    vertex 1.0504375147490918e-13 43.999999999999986 68.31285591145429
  endloop
endfacet
facet normal -1.0 5.327777787038891e-16 3.865924994168777e-16
  outer loop
    vertex 1.0504375147490918e-13 43.999999999999986 68.31285591145429
    vertex -2.5676595920373303e-14 49.99999999999997 84.80090252963204
    vertex 1.973976537783528e-14 44.000000000000036 28.0
  endloop
endfacet
facet normal -1.0 5.327777787038891e-16 3.865924994168777e-16
  outer loop
    vertex 1.973976537783528e-14 44.000000000000036 28.0
    vertex -2.5676595920373303e-14 49.99999999999997 84.80090252963204
    vertex 1.678589752390796e-14 49.99999999999995 0.0
  endloop
endfacet
facet normal -1.0 5.327777787038891e-16 3.865924994168777e-16
  outer loop
    vertex 1.973976537783528e-14 44.000000000000036 28.0
    vertex 0.0 2.255973186038318e-14 5.314019919918478e-15
    vertex 4.93494134445882e-15 2.255973186038318e-14 28.00000000000001
  endloop
endfacet
facet normal -1.0 5.327777787038891e-16 3.865924994168777e-16
  outer loop
    vertex 0.0 2.255973186038318e-14 5.314019919918478e-15
    vertex 1.973976537783528e-14 44.000000000000036 28.0
    vertex 1.678589752390796e-14 49.99999999999995 0.0
  endloop
endfacet
facet normal -0.7284677904894176 1.2227404217822857e-16 0.6850800524168442
  outer loop
    vertex 10.338725553437502 49.99999999999997 96.75655366263882
    vertex 3.0943770258459997 2.255973186038318e-14 89.0534034295928
    vertex 10.33872555343753 2.255973186038318e-14 96.75655366263864
  endloop
endfacet
facet normal -0.7284677904894176 1.2227404217822857e-16 0.6850800524168442
  outer loop
    vertex 3.0943770258459997 2.255973186038318e-14 89.0534034295928
    vertex 10.338725553437502 49.99999999999997 96.75655366263882
    vertex 3.094377025845975 49.99999999999997 89.05340342959299
  endloop
endfacet
facet normal -0.7284677904894176 1.2227404217822857e-16 0.6850800524168442
  outer loop
    vertex 3.094377025845975 49.99999999999997 89.05340342959299
    vertex 10.338725553437502 49.99999999999997 96.75655366263882
    vertex 8.838725553437483 49.99999999999997 95.16155511921419
  endloop
endfacet
facet normal -0.8085869025984393 3.085689266146236e-16 0.5883767678505518
  outer loop
    vertex 3.094377025845975 49.99999999999997 89.05340342959299
    vertex 0.0 2.255973186038318e-14 84.80090252963186
    vertex 3.0943770258459997 2.255973186038318e-14 89.0534034295928
  endloop
endfacet
facet normal -0.8085869025984393 3.085689266146236e-16 0.5883767678505518
  outer loop
    vertex 0.0 2.255973186038318e-14 84.80090252963186
    vertex 3.094377025845975 49.99999999999997 89.05340342959299
    vertex -2.5676595920373303e-14 49.99999999999997 84.80090252963204
  endloop
endfacet
facet normal 1.0 0.0 0.0
  outer loop
    vertex 4.00000000000001 49.99999999999995 1.4099832412739487e-15
    vertex 3.9999999999999925 2.255973186038318e-14 1.7500000000000049
    vertex 3.9999999999999925 2.255973186038318e-14 6.724003161192427e-15
  endloop
endfacet
facet normal 1.0 0.0 0.0
  outer loop
    vertex 3.9999999999999925 2.255973186038318e-14 1.7500000000000049
    vertex 4.00000000000001 49.99999999999995 1.4099832412739487e-15
    vertex 4.00000000000001 49.99999999999995 1.7499999999999996
  endloop
endfacet
facet normal 0.0 0.0 -1.0
  outer loop
    vertex 2.0000000000000133 49.99999999999995 22.0
    vertex 6.084305797363383 2.255973186038318e-14 22.000000000000004
    vertex 1.9999999999999962 2.255973186038318e-14 22.000000000000004
  endloop
endfacet
facet normal 0.0 0.0 -1.0
  outer loop
    vertex 6.084305797363383 2.255973186038318e-14 22.000000000000004
    vertex 2.0000000000000133 49.99999999999995 22.0
    vertex 6.0843057973634 49.99999999999995 22.0
  endloop
endfacet
facet normal 0.0 0.0 1.0
  outer loop
    vertex 10.338725553437444 2.255973186038318e-14 90.16155511921401
    vertex 15.458875779886977 49.99999999999997 90.16155511921419
    vertex 10.338725553437415 49.99999999999997 90.16155511921419
  endloop
endfacet
facet normal 0.0 0.0 1.0
  outer loop
    vertex 15.458875779886977 49.99999999999997 90.16155511921419
    vertex 10.338725553437444 2.255973186038318e-14 90.16155511921401
    vertex 15.45887577988698 2.255973186038318e-14 90.16155511921401
  endloop
endfacet
facet normal 0.0 0.0 -1.0
  outer loop
    vertex 12.338725553437502 49.99999999999997 92.66155511921419
    vertex 10.338725553437444 2.255973186038318e-14 92.661555119214
    vertex 10.338725553437415 49.99999999999997 92.66155511921419
  endloop
endfacet
facet normal 0.0 0.0 -1.0
  outer loop
    vertex 10.338725553437444 2.255973186038318e-14 92.661555119214
    vertex 12.338725553437502 49.99999999999997 92.66155511921419
    vertex 12.33872555343753 2.255973186038318e-14 92.661555119214
  endloop
endfacet
facet normal 1.0 -8.459899447643693e-17 -2.0328697338608035e-15
  outer loop
    vertex 41.38143572549625 49.99999999999997 91.00000000000014
    vertex 41.38143572549625 2.251743236314496e-14 95.161555119214
    vertex 41.38143572549624 2.251743236314496e-14 90.99999999999997
  endloop
endfacet
facet normal 1.0 -8.459899447643693e-17 -2.0328697338608035e-15
  outer loop
    vertex 41.38143572549625 2.251743236314496e-14 95.161555119214
    vertex 41.38143572549625 49.99999999999997 91.00000000000014
    vertex 41.38143572549625 49.99999999999997 95.16155511921419
  endloop
endfacet
facet normal 1.0 0.0 0.0
  outer loop
    vertex 10.338725553437415 49.99999999999997 90.16155511921419
    vertex 10.338725553437444 2.255973186038318e-14 92.661555119214
    vertex 10.338725553437444 2.255973186038318e-14 90.16155511921401
  endloop
endfacet
facet normal 1.0 0.0 0.0
  outer loop
    vertex 10.338725553437444 2.255973186038318e-14 92.661555119214
    vertex 10.338725553437415 49.99999999999997 90.16155511921419
    vertex 10.338725553437415 49.99999999999997 92.66155511921419
  endloop
endfacet
facet normal 1.0 0.0 0.0
  outer loop
    vertex 2.0000000000000133 49.99999999999995 1.7499999999999996
    vertex 1.9999999999999962 2.255973186038318e-14 22.000000000000004
    vertex 1.9999999999999962 2.255973186038318e-14 1.7500000000000049
  endloop
endfacet
facet normal 1.0 0.0 0.0
  outer loop
    vertex 1.9999999999999962 2.255973186038318e-14 22.000000000000004
    vertex 2.0000000000000133 49.99999999999995 1.7499999999999996
    vertex 2.0000000000000133 49.99999999999995 22.0
  endloop
endfacet
facet normal 0.0 0.0 1.0
  outer loop
    vertex 3.9999999999999925 2.255973186038318e-14 1.7500000000000049
    vertex 2.0000000000000133 49.99999999999995 1.7499999999999996
    vertex 1.9999999999999962 2.255973186038318e-14 1.7500000000000049
  endloop
endfacet
facet normal 0.0 0.0 1.0
  outer loop
    vertex 2.0000000000000133 49.99999999999995 1.7499999999999996
    vertex 3.9999999999999925 2.255973186038318e-14 1.7500000000000049
    vertex 4.00000000000001 49.99999999999995 1.7499999999999996
  endloop
endfacet
facet normal 0.0 0.0 -1.0
  outer loop
    vertex 20.819933496147588 49.99999999999992 91.00000000000014
    vertex 41.38143572549624 2.251743236314496e-14 90.99999999999997
    vertex 20.81993349614744 2.255973186038318e-14 90.99999999999997
  endloop
endfacet
facet normal 0.0 0.0 -1.0
  outer loop
    vertex 41.38143572549624 2.251743236314496e-14 90.99999999999997
    vertex 20.819933496147588 49.99999999999992 91.00000000000014
    vertex 41.38143572549625 49.99999999999997 91.00000000000014
  endloop
endfacet
facet normal 1.0 -1.274333573568295e-15 -9.312655191477072e-16
  outer loop
    vertex 6.0843057973634 49.99999999999995 22.0
    vertex 6.08430579736337 2.255973186038318e-14 23.99999999999995
    vertex 6.084305797363383 2.255973186038318e-14 22.000000000000004
  endloop
endfacet
facet normal 1.0 -1.274333573568295e-15 -9.312655191477072e-16
  outer loop
    vertex 6.08430579736337 2.255973186038318e-14 23.99999999999995
    vertex 6.0843057973634 49.99999999999995 22.0
    vertex 6.0843057973633945 48.00000000000002 24.0
  endloop
endfacet
facet normal 1.0 -1.274333573568295e-15 -9.312655191477072e-16
  outer loop
    vertex 6.0843057973633945 48.00000000000002 24.0
    vertex 6.0843057973634 49.99999999999995 22.0
    vertex 6.084305797363493 49.99999999999992 74.31285591145448
  endloop
endfacet
facet normal 1.0 -1.274333573568295e-15 -9.312655191477072e-16
  outer loop
    vertex 6.084305797363452 47.99999999999998 72.31285591145429
    vertex 6.084305797363382 2.255973186038318e-14 74.31285591145429
    vertex 6.084305797363382 2.255973186038318e-14 72.31285591145429
  endloop
endfacet
facet normal 1.0 -1.274333573568295e-15 -9.312655191477072e-16
  outer loop
    vertex 6.084305797363382 2.255973186038318e-14 74.31285591145429
    vertex 6.084305797363452 47.99999999999998 72.31285591145429
    vertex 6.084305797363493 49.99999999999992 74.31285591145448
  endloop
endfacet
facet normal 1.0 -1.274333573568295e-15 -9.312655191477072e-16
  outer loop
    vertex 6.084305797363493 49.99999999999992 74.31285591145448
    vertex 6.084305797363452 47.99999999999998 72.31285591145429
    vertex 6.0843057973633945 48.00000000000002 24.0
  endloop
endfacet
facet normal 1.0 -7.644047562744593e-16 -1.1981971353927655e-15
  outer loop
    vertex 3.5843057973633945 48.00000000000002 24.0
    vertex 3.584305797363381 2.255973186038318e-14 28.00000000000001
    vertex 3.58430579736337 2.255973186038318e-14 23.999999999999954
  endloop
endfacet
facet normal 1.0 -7.644047562744593e-16 -1.1981971353927655e-15
  outer loop
    vertex 3.584305797363381 2.255973186038318e-14 28.00000000000001
    vertex 3.5843057973633945 48.00000000000002 24.0
    vertex 3.584305797363396 44.000000000000036 28.0
  endloop
endfacet
facet normal 1.0 -7.644047562744593e-16 -1.1981971353927655e-15
  outer loop
    vertex 3.584305797363396 44.000000000000036 28.0
    vertex 3.5843057973633945 48.00000000000002 24.0
    vertex 3.5843057973634522 47.99999999999998 72.31285591145429
  endloop
endfacet
facet normal 1.0 -7.644047562744593e-16 -1.1981971353927655e-15
  outer loop
    vertex 3.584305797363481 43.999999999999986 68.31285591145429
    vertex 3.5843057973633825 2.255973186038318e-14 72.31285591145429
    vertex 3.584305797363447 2.255973186038318e-14 68.31285591145429
  endloop
endfacet
facet normal 1.0 -7.644047562744593e-16 -1.1981971353927655e-15
  outer loop
    vertex 3.5843057973633825 2.255973186038318e-14 72.31285591145429
    vertex 3.584305797363481 43.999999999999986 68.31285591145429
    vertex 3.5843057973634522 47.99999999999998 72.31285591145429
  endloop
endfacet
facet normal 1.0 -7.644047562744593e-16 -1.1981971353927655e-15
  outer loop
    vertex 3.5843057973634522 47.99999999999998 72.31285591145429
    vertex 3.584305797363481 43.999999999999986 68.31285591145429
    vertex 3.584305797363396 44.000000000000036 28.0
  endloop
endfacet
facet normal 7.296107913068226e-16 -9.987381292357142e-16 1.0
  outer loop
    vertex 6.08430579736337 2.255973186038318e-14 23.99999999999995
    vertex 3.5843057973633945 48.00000000000002 24.0
    vertex 3.58430579736337 2.255973186038318e-14 23.999999999999954
  endloop
endfacet
facet normal 7.296107913068226e-16 -9.987381292357142e-16 1.0
  outer loop
    vertex 3.5843057973633945 48.00000000000002 24.0
    vertex 6.08430579736337 2.255973186038318e-14 23.99999999999995
    vertex 6.0843057973633945 48.00000000000002 24.0
  endloop
endfacet
facet normal -1.3849784362575626e-16 1.0 -5.257852015121318e-16
  outer loop
    vertex 8.838725553437483 49.99999999999997 95.16155511921419
    vertex 10.338725553437415 49.99999999999997 90.16155511921419
    vertex 3.094377025845975 49.99999999999997 89.05340342959299
  endloop
endfacet
facet normal -1.3849784362575626e-16 1.0 -5.257852015121318e-16
  outer loop
    vertex 10.338725553437415 49.99999999999997 90.16155511921419
    vertex 8.838725553437483 49.99999999999997 95.16155511921419
    vertex 10.338725553437415 49.99999999999997 92.66155511921419
  endloop
endfacet
facet normal -1.3849784362575626e-16 1.0 -5.257852015121318e-16
  outer loop
    vertex 10.338725553437415 49.99999999999997 92.66155511921419
    vertex 8.838725553437483 49.99999999999997 95.16155511921419
    vertex 12.338725553437502 49.99999999999997 92.66155511921419
  endloop
endfacet
facet normal -1.3849784362575626e-16 1.0 -5.257852015121318e-16
  outer loop
    vertex 12.338725553437502 49.99999999999997 92.66155511921419
    vertex 8.838725553437483 49.99999999999997 95.16155511921419
    vertex 12.338725553437502 49.99999999999997 96.75655366263882
  endloop
endfacet
facet normal -1.3849784362575626e-16 1.0 -5.257852015121318e-16
  outer loop
    vertex 12.338725553437502 49.99999999999997 96.75655366263882
    vertex 8.838725553437483 49.99999999999997 95.16155511921419
    vertex 10.338725553437502 49.99999999999997 96.75655366263882
  endloop
endfacet
facet normal -1.3849784362575626e-16 1.0 -5.257852015121318e-16
  outer loop
    vertex 16.458875779887634 50.00000000000026 93.35155220606251
    vertex 22.533336160912757 49.99999999999998 93.15210879138043
    vertex 15.458875779886977 49.99999999999997 92.2882198437799
  endloop
endfacet
facet normal -1.3849784362575626e-16 1.0 -5.257852015121318e-16
  outer loop
    vertex 22.533336160912757 49.99999999999998 93.15210879138043
    vertex 16.458875779887634 50.00000000000026 93.35155220606251
    vertex 22.533336160912754 49.999999999999986 95.16155511921406
  endloop
endfacet
facet normal -1.3849784362575626e-16 1.0 -5.257852015121318e-16
  outer loop
    vertex 22.533336160912754 49.999999999999986 95.16155511921406
    vertex 16.458875779887634 50.00000000000026 93.35155220606251
    vertex 16.458875779887634 50.00000000000026 95.16155511921393
  endloop
endfacet
facet normal -1.3849784362575626e-16 1.0 -5.257852015121318e-16
  outer loop
    vertex 1.678589752390796e-14 49.99999999999995 0.0
    vertex 2.0000000000000133 49.99999999999995 1.7499999999999996
    vertex 4.00000000000001 49.99999999999995 1.4099832412739487e-15
  endloop
endfacet
facet normal -1.3849784362575626e-16 1.0 -5.257852015121318e-16
  outer loop
    vertex 2.0000000000000133 49.99999999999995 1.7499999999999996
    vertex 1.678589752390796e-14 49.99999999999995 0.0
    vertex -2.5676595920373303e-14 49.99999999999997 84.80090252963204
  endloop
endfacet
facet normal -1.3849784362575626e-16 1.0 -5.257852015121318e-16
  outer loop
    vertex 2.0000000000000133 49.99999999999995 1.7499999999999996
    vertex -2.5676595920373303e-14 49.99999999999997 84.80090252963204
    vertex 2.0000000000000133 49.99999999999995 22.0
  endloop
endfacet
facet normal -1.3849784362575626e-16 1.0 -5.257852015121318e-16
  outer loop
    vertex 2.0000000000000133 49.99999999999995 22.0
    vertex -2.5676595920373303e-14 49.99999999999997 84.80090252963204
    vertex 6.0843057973634 49.99999999999995 22.0
  endloop
endfacet
facet normal -1.3849784362575626e-16 1.0 -5.257852015121318e-16
  outer loop
    vertex 6.0843057973634 49.99999999999995 22.0
    vertex -2.5676595920373303e-14 49.99999999999997 84.80090252963204
    vertex 6.084305797363493 49.99999999999992 74.31285591145448
  endloop
endfacet
facet normal -1.3849784362575626e-16 1.0 -5.257852015121318e-16
  outer loop
    vertex 6.084305797363493 49.99999999999992 74.31285591145448
    vertex -2.5676595920373303e-14 49.99999999999997 84.80090252963204
    vertex 13.218746434948251 49.99999999999984 83.44845403107051
  endloop
endfacet
facet normal -1.3849784362575626e-16 1.0 -5.257852015121318e-16
  outer loop
    vertex 13.218746434948251 49.99999999999984 83.44845403107051
    vertex -2.5676595920373303e-14 49.99999999999997 84.80090252963204
    vertex 20.819933496147588 49.99999999999992 91.00000000000014
  endloop
endfacet
facet normal -1.3849784362575626e-16 1.0 -5.257852015121318e-16
  outer loop
    vertex 20.819933496147588 49.99999999999992 91.00000000000014
    vertex -2.5676595920373303e-14 49.99999999999997 84.80090252963204
    vertex 15.458875779886977 49.99999999999997 90.16155511921419
  endloop
endfacet
facet normal -1.3849784362575626e-16 1.0 -5.257852015121318e-16
  outer loop
    vertex 15.458875779886977 49.99999999999997 90.16155511921419
    vertex -2.5676595920373303e-14 49.99999999999997 84.80090252963204
    vertex 3.094377025845975 49.99999999999997 89.05340342959299
  endloop
endfacet
facet normal -1.3849784362575626e-16 1.0 -5.257852015121318e-16
  outer loop
    vertex 15.458875779886977 49.99999999999997 90.16155511921419
    vertex 3.094377025845975 49.99999999999997 89.05340342959299
    vertex 10.338725553437415 49.99999999999997 90.16155511921419
  endloop
endfacet
facet normal -1.3849784362575626e-16 1.0 -5.257852015121318e-16
  outer loop
    vertex 20.819933496147588 49.99999999999992 91.00000000000014
    vertex 15.458875779886977 49.99999999999997 90.16155511921419
    vertex 15.458875779886977 49.99999999999997 92.2882198437799
  endloop
endfacet
facet normal -1.3849784362575626e-16 1.0 -5.257852015121318e-16
  outer loop
    vertex 20.819933496147588 49.99999999999992 91.00000000000014
    vertex 15.458875779886977 49.99999999999997 92.2882198437799
    vertex 41.38143572549625 49.99999999999997 91.00000000000014
  endloop
endfacet
facet normal -1.3849784362575626e-16 1.0 -5.257852015121318e-16
  outer loop
    vertex 41.38143572549625 49.99999999999997 91.00000000000014
    vertex 15.458875779886977 49.99999999999997 92.2882198437799
    vertex 39.88769361322552 49.99999999999998 93.15210879138051
  endloop
endfacet
facet normal -1.3849784362575626e-16 1.0 -5.257852015121318e-16
  outer loop
    vertex 41.38143572549625 49.99999999999997 91.00000000000014
    vertex 39.88769361322552 49.99999999999998 93.15210879138051
    vertex 41.38143572549625 49.99999999999997 95.16155511921419
  endloop
endfacet
facet normal -1.3849784362575626e-16 1.0 -5.257852015121318e-16
  outer loop
    vertex 39.88769361322552 49.99999999999998 93.15210879138051
    vertex 15.458875779886977 49.99999999999997 92.2882198437799
    vertex 22.533336160912757 49.99999999999998 93.15210879138043
  endloop
endfacet
facet normal -1.3849784362575626e-16 1.0 -5.257852015121318e-16
  outer loop
    vertex 41.38143572549625 49.99999999999997 95.16155511921419
    vertex 39.88769361322552 49.99999999999998 93.15210879138051
    vertex 39.88769361322553 49.999999999999986 95.16155511921419
  endloop
endfacet
facet normal -1.3849784362575626e-16 1.0 -5.257852015121318e-16
  outer loop
    vertex 4.00000000000001 49.99999999999995 1.7499999999999996
    vertex 4.00000000000001 49.99999999999995 1.4099832412739487e-15
    vertex 2.0000000000000133 49.99999999999995 1.7499999999999996
  endloop
endfacet
facet normal -4.361007171323562e-32 2.5636058932253605e-16 1.0
  outer loop
    vertex 3.584305797363381 2.255973186038318e-14 28.00000000000001
    vertex 1.973976537783528e-14 44.000000000000036 28.0
    vertex 4.93494134445882e-15 2.255973186038318e-14 28.00000000000001
  endloop
endfacet
facet normal -4.361007171323562e-32 2.5636058932253605e-16 1.0
  outer loop
    vertex 1.973976537783528e-14 44.000000000000036 28.0
    vertex 3.584305797363381 2.255973186038318e-14 28.00000000000001
    vertex 3.584305797363396 44.000000000000036 28.0
  endloop
endfacet
facet normal -5.607887891430501e-16 -1.0 -1.1192326294090787e-15
  outer loop
    vertex 3.584305797363481 43.999999999999986 68.31285591145429
    vertex 1.973976537783528e-14 44.000000000000036 28.0
    vertex 3.584305797363396 44.000000000000036 28.0
  endloop
endfacet
facet normal -5.607887891430501e-16 -1.0 -1.1192326294090787e-15
  outer loop
    vertex 1.973976537783528e-14 44.000000000000036 28.0
    vertex 3.584305797363481 43.999999999999986 68.31285591145429
    vertex 1.0504375147490918e-13 43.999999999999986 68.31285591145429
  endloop
endfacet
facet normal 0.0 -1.0 0.0
  outer loop
    vertex 6.08430579736337 2.255973186038318e-14 23.99999999999995
    vertex 1.9999999999999962 2.255973186038318e-14 22.000000000000004
    vertex 6.084305797363383 2.255973186038318e-14 22.000000000000004
  endloop
endfacet
facet normal 0.0 -1.0 0.0
  outer loop
    vertex 0.0 2.255973186038318e-14 5.314019919918478e-15
    vertex 1.9999999999999962 2.255973186038318e-14 1.7500000000000049
    vertex 4.93494134445882e-15 2.255973186038318e-14 28.00000000000001
  endloop
endfacet
facet normal 0.0 -1.0 0.0
  outer loop
    vertex 1.9999999999999962 2.255973186038318e-14 1.7500000000000049
    vertex 0.0 2.255973186038318e-14 5.314019919918478e-15
    vertex 3.9999999999999925 2.255973186038318e-14 6.724003161192427e-15
  endloop
endfacet
facet normal 0.0 -1.0 0.0
  outer loop
    vertex 1.9999999999999962 2.255973186038318e-14 1.7500000000000049
    vertex 3.9999999999999925 2.255973186038318e-14 6.724003161192427e-15
    vertex 3.9999999999999925 2.255973186038318e-14 1.7500000000000049
  endloop
endfacet
facet normal 0.0 -1.0 0.0
  outer loop
    vertex 4.93494134445882e-15 2.255973186038318e-14 28.00000000000001
    vertex 1.9999999999999962 2.255973186038318e-14 1.7500000000000049
    vertex 1.9999999999999962 2.255973186038318e-14 22.000000000000004
  endloop
endfacet
facet normal 0.0 -1.0 0.0
  outer loop
    vertex 4.93494134445882e-15 2.255973186038318e-14 28.00000000000001
    vertex 1.9999999999999962 2.255973186038318e-14 22.000000000000004
    vertex 3.58430579736337 2.255973186038318e-14 23.999999999999954
  endloop
endfacet
facet normal 0.0 -1.0 0.0
  outer loop
    vertex 3.58430579736337 2.255973186038318e-14 23.999999999999954
    vertex 1.9999999999999962 2.255973186038318e-14 22.000000000000004
    vertex 6.08430579736337 2.255973186038318e-14 23.99999999999995
  endloop
endfacet
facet normal 0.0 -1.0 0.0
  outer loop
    vertex 4.93494134445882e-15 2.255973186038318e-14 28.00000000000001
    vertex 3.58430579736337 2.255973186038318e-14 23.999999999999954
    vertex 3.584305797363381 2.255973186038318e-14 28.00000000000001
  endloop
endfacet
facet normal -7.296107913068234e-16 1.0608870817825979e-30 -1.0
  outer loop
    vertex 3.5843057973634522 47.99999999999998 72.31285591145429
    vertex 6.084305797363382 2.255973186038318e-14 72.31285591145429
    vertex 3.5843057973633825 2.255973186038318e-14 72.31285591145429
  endloop
endfacet
facet normal -7.296107913068234e-16 1.0608870817825979e-30 -1.0
  outer loop
    vertex 6.084305797363382 2.255973186038318e-14 72.31285591145429
    vertex 3.5843057973634522 47.99999999999998 72.31285591145429
    vertex 6.084305797363452 47.99999999999998 72.31285591145429
  endloop
endfacet
facet normal 0.0 0.0 -1.0
  outer loop
    vertex 1.0504375147490918e-13 43.999999999999986 68.31285591145429
    vertex 3.584305797363447 2.255973186038318e-14 68.31285591145429
    vertex 7.049916206369744e-14 2.255973186038318e-14 68.31285591145429
  endloop
endfacet
facet normal 0.0 0.0 -1.0
  outer loop
    vertex 3.584305797363447 2.255973186038318e-14 68.31285591145429
    vertex 1.0504375147490918e-13 43.999999999999986 68.31285591145429
    vertex 3.584305797363481 43.999999999999986 68.31285591145429
  endloop
endfacet
facet normal -0.7284677904894209 -1.6574936914176908e-16 0.6850800524168409
  outer loop
    vertex 16.45887577988698 7.351056091042613e-14 93.35155220606256
    vertex 15.458875779886977 49.99999999999997 92.2882198437799
    vertex 15.45887577988698 2.255973186038318e-14 92.28821984377971
  endloop
endfacet
facet normal -0.7284677904894209 -1.6574936914176908e-16 0.6850800524168409
  outer loop
    vertex 15.458875779886977 49.99999999999997 92.2882198437799
    vertex 16.45887577988698 7.351056091042613e-14 93.35155220606256
    vertex 16.458875779887634 50.00000000000026 93.35155220606251
  endloop
endfacet
facet normal -9.840508038057775e-16 -1.0 -9.33901812872733e-16
  outer loop
    vertex 6.084305797363452 47.99999999999998 72.31285591145429
    vertex 3.5843057973633945 48.00000000000002 24.0
    vertex 6.0843057973633945 48.00000000000002 24.0
  endloop
endfacet
facet normal -9.840508038057775e-16 -1.0 -9.33901812872733e-16
  outer loop
    vertex 3.5843057973633945 48.00000000000002 24.0
    vertex 6.084305797363452 47.99999999999998 72.31285591145429
    vertex 3.5843057973634522 47.99999999999998 72.31285591145429
  endloop
endfacet
facet normal 0.0 0.0 1.0
  outer loop
    vertex 10.33872555343753 2.255973186038318e-14 96.75655366263864
    vertex 12.338725553437502 49.99999999999997 96.75655366263882
    vertex 10.338725553437502 49.99999999999997 96.75655366263882
  endloop
endfacet
facet normal 0.0 0.0 1.0
  outer loop
    vertex 12.338725553437502 49.99999999999997 96.75655366263882
    vertex 10.33872555343753 2.255973186038318e-14 96.75655366263864
    vertex 12.33872555343753 2.255973186038318e-14 96.75655366263864
  endloop
endfacet
facet normal -2.345250031293553e-16 -1.0 7.695605392722295e-16
  outer loop
    vertex 6.084305797363382 2.255973186038318e-14 74.31285591145429
    vertex 3.5843057973633825 2.255973186038318e-14 72.31285591145429
    vertex 6.084305797363382 2.255973186038318e-14 72.31285591145429
  endloop
endfacet
facet normal -2.345250031293553e-16 -1.0 7.695605392722295e-16
  outer loop
    vertex 3.5843057973633825 2.255973186038318e-14 72.31285591145429
    vertex 7.049916206369744e-14 2.255973186038318e-14 68.31285591145429
    vertex 3.584305797363447 2.255973186038318e-14 68.31285591145429
  endloop
endfacet
facet normal -2.345250031293553e-16 -1.0 7.695605392722295e-16
  outer loop
    vertex 7.049916206369744e-14 2.255973186038318e-14 68.31285591145429
    vertex 3.5843057973633825 2.255973186038318e-14 72.31285591145429
    vertex 0.0 2.255973186038318e-14 84.80090252963186
  endloop
endfacet
facet normal -2.345250031293553e-16 -1.0 7.695605392722295e-16
  outer loop
    vertex 0.0 2.255973186038318e-14 84.80090252963186
    vertex 3.5843057973633825 2.255973186038318e-14 72.31285591145429
    vertex 6.084305797363382 2.255973186038318e-14 74.31285591145429
  endloop
endfacet
facet normal -2.345250031293553e-16 -1.0 7.695605392722295e-16
  outer loop
    vertex 0.0 2.255973186038318e-14 84.80090252963186
    vertex 6.084305797363382 2.255973186038318e-14 74.31285591145429
    vertex 13.2187464349481 0.0 83.44845403107033
  endloop
endfacet
facet normal -2.345250031293553e-16 -1.0 7.695605392722295e-16
  outer loop
    vertex 0.0 2.255973186038318e-14 84.80090252963186
    vertex 13.2187464349481 0.0 83.44845403107033
    vertex 20.81993349614744 2.255973186038318e-14 90.99999999999997
  endloop
endfacet
facet normal -2.345250031293553e-16 -1.0 7.695605392722295e-16
  outer loop
    vertex 0.0 2.255973186038318e-14 84.80090252963186
    vertex 20.81993349614744 2.255973186038318e-14 90.99999999999997
    vertex 15.45887577988698 2.255973186038318e-14 90.16155511921401
  endloop
endfacet
facet normal -2.345250031293553e-16 -1.0 7.695605392722295e-16
  outer loop
    vertex 0.0 2.255973186038318e-14 84.80090252963186
    vertex 15.45887577988698 2.255973186038318e-14 90.16155511921401
    vertex 3.0943770258459997 2.255973186038318e-14 89.0534034295928
  endloop
endfacet
facet normal -2.345250031293553e-16 -1.0 7.695605392722295e-16
  outer loop
    vertex 15.45887577988698 2.255973186038318e-14 90.16155511921401
    vertex 20.81993349614744 2.255973186038318e-14 90.99999999999997
    vertex 15.45887577988698 2.255973186038318e-14 92.28821984377971
  endloop
endfacet
facet normal -2.345250031293553e-16 -1.0 7.695605392722295e-16
  outer loop
    vertex 41.38143572549624 2.251743236314496e-14 90.99999999999997
    vertex 39.88769361322552 2.255973186038318e-14 93.15210879141507
    vertex 20.81993349614744 2.255973186038318e-14 90.99999999999997
  endloop
endfacet
facet normal -2.345250031293553e-16 -1.0 7.695605392722295e-16
  outer loop
    vertex 39.88769361322552 2.255973186038318e-14 93.15210879141507
    vertex 41.38143572549624 2.251743236314496e-14 90.99999999999997
    vertex 41.38143572549625 2.251743236314496e-14 95.161555119214
  endloop
endfacet
facet normal -2.345250031293553e-16 -1.0 7.695605392722295e-16
  outer loop
    vertex 20.81993349614744 2.255973186038318e-14 90.99999999999997
    vertex 39.88769361322552 2.255973186038318e-14 93.15210879141507
    vertex 15.45887577988698 2.255973186038318e-14 92.28821984377971
  endloop
endfacet
facet normal -2.345250031293553e-16 -1.0 7.695605392722295e-16
  outer loop
    vertex 15.45887577988698 2.255973186038318e-14 92.28821984377971
    vertex 39.88769361322552 2.255973186038318e-14 93.15210879141507
    vertex 22.533336160912746 4.511946372076636e-14 93.15210879119027
  endloop
endfacet
facet normal -2.345250031293553e-16 -1.0 7.695605392722295e-16
  outer loop
    vertex 39.88769361322552 2.255973186038318e-14 93.15210879141507
    vertex 41.38143572549625 2.251743236314496e-14 95.161555119214
    vertex 39.88769361322552 2.255973186038318e-14 95.161555119214
  endloop
endfacet
facet normal -2.345250031293553e-16 -1.0 7.695605392722295e-16
  outer loop
    vertex 22.533336160912746 4.511946372076636e-14 93.15210879119027
    vertex 16.45887577988698 7.351056091042613e-14 93.35155220606256
    vertex 15.45887577988698 2.255973186038318e-14 92.28821984377971
  endloop
endfacet
facet normal -2.345250031293553e-16 -1.0 7.695605392722295e-16
  outer loop
    vertex 16.45887577988698 7.351056091042613e-14 93.35155220606256
    vertex 22.533336160912746 4.511946372076636e-14 93.15210879119027
    vertex 22.533336160912746 2.255973186038318e-14 95.161555119214
  endloop
endfacet
facet normal -2.345250031293553e-16 -1.0 7.695605392722295e-16
  outer loop
    vertex 16.45887577988698 7.351056091042613e-14 93.35155220606256
    vertex 22.533336160912746 2.255973186038318e-14 95.161555119214
    vertex 16.45887577988698 7.937777998539618e-14 95.161555119214
  endloop
endfacet
facet normal -2.345250031293553e-16 -1.0 7.695605392722295e-16
  outer loop
    vertex 12.33872555343753 2.255973186038318e-14 96.75655366263864
    vertex 10.338725553437444 2.255973186038318e-14 92.661555119214
    vertex 12.33872555343753 2.255973186038318e-14 92.661555119214
  endloop
endfacet
facet normal -2.345250031293553e-16 -1.0 7.695605392722295e-16
  outer loop
    vertex 3.0943770258459997 2.255973186038318e-14 89.0534034295928
    vertex 10.338725553437444 2.255973186038318e-14 92.661555119214
    vertex 10.33872555343753 2.255973186038318e-14 96.75655366263864
  endloop
endfacet
facet normal -2.345250031293553e-16 -1.0 7.695605392722295e-16
  outer loop
    vertex 10.338725553437444 2.255973186038318e-14 92.661555119214
    vertex 3.0943770258459997 2.255973186038318e-14 89.0534034295928
    vertex 10.338725553437444 2.255973186038318e-14 90.16155511921401
  endloop
endfacet
facet normal -2.345250031293553e-16 -1.0 7.695605392722295e-16
  outer loop
    vertex 10.338725553437444 2.255973186038318e-14 90.16155511921401
    vertex 3.0943770258459997 2.255973186038318e-14 89.0534034295928
    vertex 15.45887577988698 2.255973186038318e-14 90.16155511921401
  endloop
endfacet
facet normal -2.345250031293553e-16 -1.0 7.695605392722295e-16
  outer loop
    vertex 10.33872555343753 2.255973186038318e-14 96.75655366263864
    vertex 10.338725553437444 2.255973186038318e-14 92.661555119214
    vertex 12.33872555343753 2.255973186038318e-14 96.75655366263864
  endloop
endfacet
facet normal 1.0 0.0 0.0
  outer loop
    vertex 12.338725553437502 49.99999999999997 92.66155511921419
    vertex 12.33872555343753 2.255973186038318e-14 96.75655366263864
    vertex 12.33872555343753 2.255973186038318e-14 92.661555119214
  endloop
endfacet
facet normal 1.0 0.0 0.0
  outer loop
    vertex 12.33872555343753 2.255973186038318e-14 96.75655366263864
    vertex 12.338725553437502 49.99999999999997 92.66155511921419
    vertex 12.338725553437502 49.99999999999997 96.75655366263882
  endloop
endfacet
facet normal -1.0 0.0 0.0
  outer loop
    vertex 15.458875779886977 49.99999999999997 92.2882198437799
    vertex 15.45887577988698 2.255973186038318e-14 90.16155511921401
    vertex 15.45887577988698 2.255973186038318e-14 92.28821984377971
  endloop
endfacet
facet normal -1.0 0.0 0.0
  outer loop
    vertex 15.45887577988698 2.255973186038318e-14 90.16155511921401
    vertex 15.458875779886977 49.99999999999997 92.2882198437799
    vertex 15.458875779886977 49.99999999999997 90.16155511921419
  endloop
endfacet
facet normal 1.0 -6.499731240730771e-16 -7.297144089419556e-30
  outer loop
    vertex 22.533336160912746 4.511946372076636e-14 93.15210879119027
    vertex 22.533336160912754 15.000000000000018 95.16155511921409
    vertex 22.533336160912746 2.255973186038318e-14 95.161555119214
  endloop
endfacet
facet normal 1.0 -6.499731240730771e-16 -7.297144089419556e-30
  outer loop
    vertex 22.533336160912754 15.000000000000018 95.16155511921409
    vertex 22.533336160912746 4.511946372076636e-14 93.15210879119027
    vertex 22.533336160912754 15.00000000000004 93.15210879119034
  endloop
endfacet
facet normal -1.0 6.499731240730771e-16 0.0
  outer loop
    vertex 39.88769361322553 15.000000000000018 95.16155511921409
    vertex 39.88769361322552 2.255973186038318e-14 93.15210879141507
    vertex 39.88769361322552 2.255973186038318e-14 95.161555119214
  endloop
endfacet
facet normal -1.0 6.499731240730771e-16 0.0
  outer loop
    vertex 39.88769361322552 2.255973186038318e-14 93.15210879141507
    vertex 39.88769361322553 15.000000000000018 95.16155511921409
    vertex 39.88769361322553 15.000000000000018 93.15210879141516
  endloop
endfacet
facet normal -6.499731240730771e-16 -1.0 -5.61341986304614e-15
  outer loop
    vertex 39.88769361322553 15.000000000000018 93.15210879141516
    vertex 22.533336160912754 15.000000000000018 95.16155511921409
    vertex 22.533336160912754 15.00000000000004 93.15210879119034
  endloop
endfacet
facet normal -6.499731240730771e-16 -1.0 -5.61341986304614e-15
  outer loop
    vertex 22.533336160912754 15.000000000000018 95.16155511921409
    vertex 39.88769361322553 15.000000000000018 93.15210879141516
    vertex 39.88769361322553 15.000000000000018 95.16155511921409
  endloop
endfacet
facet normal -1.295396436350104e-11 -5.613419863037721e-15 1.0
  outer loop
    vertex 39.88769361322552 2.255973186038318e-14 93.15210879141507
    vertex 22.533336160912754 15.00000000000004 93.15210879119034
    vertex 22.533336160912746 4.511946372076636e-14 93.15210879119027
  endloop
endfacet
facet normal -1.295396436350104e-11 -5.613419863037721e-15 1.0
  outer loop
    vertex 22.533336160912754 15.00000000000004 93.15210879119034
    vertex 39.88769361322552 2.255973186038318e-14 93.15210879141507
    vertex 39.88769361322553 15.000000000000018 93.15210879141516
  endloop
endfacet
facet normal -1.0 6.570521904336586e-15 -1.1735547814067431e-29
  outer loop
    vertex 16.45887577988698 7.937777998539618e-14 95.161555119214
    vertex 16.458875779887634 50.00000000000026 93.35155220606251
    vertex 16.45887577988698 7.351056091042613e-14 93.35155220606256
  endloop
endfacet
facet normal -1.0 6.570521904336586e-15 -1.1735547814067431e-29
  outer loop
    vertex 16.458875779887634 50.00000000000026 93.35155220606251
    vertex 16.45887577988698 7.937777998539618e-14 95.161555119214
    vertex 16.458875779887634 50.00000000000026 95.16155511921393
  endloop
endfacet
facet normal -3.556870218070821e-15 -1.5770923661656575e-15 1.0
  outer loop
    vertex 41.38143572549625 2.251743236314496e-14 95.161555119214
    vertex 39.88769361322553 15.000000000000018 95.16155511921409
    vertex 39.88769361322552 2.255973186038318e-14 95.161555119214
  endloop
endfacet
facet normal -3.556870218070821e-15 -1.5770923661656575e-15 1.0
  outer loop
    vertex 39.88769361322553 15.000000000000018 95.16155511921409
    vertex 41.38143572549625 2.251743236314496e-14 95.161555119214
    vertex 39.88769361322553 35.00000000000019 95.16155511921407
  endloop
endfacet
facet normal -3.556870218070821e-15 -1.5770923661656575e-15 1.0
  outer loop
    vertex 39.88769361322553 35.00000000000019 95.16155511921407
    vertex 41.38143572549625 2.251743236314496e-14 95.161555119214
    vertex 39.88769361322553 49.999999999999986 95.16155511921419
  endloop
endfacet
facet normal -3.556870218070821e-15 -1.5770923661656575e-15 1.0
  outer loop
    vertex 39.88769361322553 49.999999999999986 95.16155511921419
    vertex 41.38143572549625 2.251743236314496e-14 95.161555119214
    vertex 41.38143572549625 49.99999999999997 95.16155511921419
  endloop
endfacet
facet normal -3.556870218070821e-15 -1.5770923661656575e-15 1.0
  outer loop
    vertex 39.88769361322553 15.000000000000018 95.16155511921409
    vertex 22.533336160912754 35.00000000000019 95.16155511921407
    vertex 22.533336160912754 15.000000000000018 95.16155511921409
  endloop
endfacet
facet normal -3.556870218070821e-15 -1.5770923661656575e-15 1.0
  outer loop
    vertex 22.533336160912754 35.00000000000019 95.16155511921407
    vertex 39.88769361322553 15.000000000000018 95.16155511921409
    vertex 39.88769361322553 35.00000000000019 95.16155511921407
  endloop
endfacet
facet normal -3.556870218070821e-15 -1.5770923661656575e-15 1.0
  outer loop
    vertex 22.533336160912746 2.255973186038318e-14 95.161555119214
    vertex 16.458875779887634 50.00000000000026 95.16155511921393
    vertex 16.45887577988698 7.937777998539618e-14 95.161555119214
  endloop
endfacet
facet normal -3.556870218070821e-15 -1.5770923661656575e-15 1.0
  outer loop
    vertex 16.458875779887634 50.00000000000026 95.16155511921393
    vertex 22.533336160912746 2.255973186038318e-14 95.161555119214
    vertex 22.533336160912754 49.999999999999986 95.16155511921406
  endloop
endfacet
facet normal -3.556870218070821e-15 -1.5770923661656575e-15 1.0
  outer loop
    vertex 22.533336160912754 49.999999999999986 95.16155511921406
    vertex 22.533336160912746 2.255973186038318e-14 95.161555119214
    vertex 22.533336160912754 15.000000000000018 95.16155511921409
  endloop
endfacet
facet normal -3.556870218070821e-15 -1.5770923661656575e-15 1.0
  outer loop
    vertex 22.533336160912754 49.999999999999986 95.16155511921406
    vertex 22.533336160912754 15.000000000000018 95.16155511921409
    vertex 22.533336160912754 35.00000000000019 95.16155511921407
  endloop
endfacet
facet normal -3.574852182601892e-15 -3.3839597790575237e-15 1.0
  outer loop
    vertex 39.88769361322552 35.000000000000185 93.15210879138043
    vertex 22.533336160912757 49.99999999999998 93.15210879138043
    vertex 22.533336160912757 35.000000000000185 93.15210879138043
  endloop
endfacet
facet normal -3.574852182601892e-15 -3.3839597790575237e-15 1.0
  outer loop
    vertex 22.533336160912757 49.99999999999998 93.15210879138043
    vertex 39.88769361322552 35.000000000000185 93.15210879138043
    vertex 39.88769361322552 49.99999999999998 93.15210879138051
  endloop
endfacet
facet normal 1.0 2.688256889333512e-30 3.574852182601892e-15
  outer loop
    vertex 22.533336160912757 49.99999999999998 93.15210879138043
    vertex 22.533336160912754 35.00000000000019 95.16155511921407
    vertex 22.533336160912757 35.000000000000185 93.15210879138043
  endloop
endfacet
facet normal 1.0 2.688256889333512e-30 3.574852182601892e-15
  outer loop
    vertex 22.533336160912754 35.00000000000019 95.16155511921407
    vertex 22.533336160912757 49.99999999999998 93.15210879138043
    vertex 22.533336160912754 49.999999999999986 95.16155511921406
  endloop
endfacet
facet normal -0.0 1.0 3.3839597790575237e-15
  outer loop
    vertex 22.533336160912754 35.00000000000019 95.16155511921407
    vertex 39.88769361322552 35.000000000000185 93.15210879138043
    vertex 22.533336160912757 35.000000000000185 93.15210879138043
  endloop
endfacet
facet normal -0.0 1.0 3.3839597790575237e-15
  outer loop
    vertex 39.88769361322552 35.000000000000185 93.15210879138043
    vertex 22.533336160912754 35.00000000000019 95.16155511921407
    vertex 39.88769361322553 35.00000000000019 95.16155511921407
  endloop
endfacet
facet normal -1.0 2.688256889333512e-29 -3.574852182601892e-15
  outer loop
    vertex 39.88769361322553 35.00000000000019 95.16155511921407
    vertex 39.88769361322552 49.99999999999998 93.15210879138051
    vertex 39.88769361322552 35.000000000000185 93.15210879138043
  endloop
endfacet
facet normal -1.0 2.688256889333512e-29 -3.574852182601892e-15
  outer loop
    vertex 39.88769361322552 49.99999999999998 93.15210879138051
    vertex 39.88769361322553 35.00000000000019 95.16155511921407
    vertex 39.88769361322553 49.999999999999986 95.16155511921419
  endloop
endfacet
endsolid Dome Wall Support - Right End
