solid Cover-Test
facet normal 0.8766587751508645 2.4971539093940045e-28 0.4811126603520076
  outer loop
    vertex 42.63420492518836 10.000000000000016 108.82425963464141
    vertex 40.176800274499826 6.750000000000033 113.30201615334613
    vertex 42.634204925188264 6.749999999999988 108.82425963464141
  endloop
endfacet
facet normal 0.8766587751508645 2.4971539093940045e-28 0.4811126603520076
  outer loop
    vertex 40.176800274499826 6.750000000000033 113.30201615334613
    vertex 42.63420492518836 10.000000000000016 108.82425963464141
    vertex 40.17680027449992 10.000000000000016 113.30201615334613
  endloop
endfacet
facet normal 4.74053965552176e-16 -1.0 -8.522080577507258e-16
  outer loop
    vertex 43.881350839156894 0.0 109.50869661916045
    vertex 41.88143572549617 2.255973186038318e-14 90.99999999999996
    vertex 43.881350839156894 2.255973186038318e-14 90.99999999999996
  endloop
endfacet
facet normal 4.74053965552176e-16 -1.0 -8.522080577507258e-16
  outer loop
    vertex 41.88143572549617 2.255973186038318e-14 90.99999999999996
    vertex 43.881350839156894 0.0 109.50869661916045
    vertex 41.88143572549622 1.3535839116229907e-13 95.66155511921401
  endloop
endfacet
facet normal 4.74053965552176e-16 -1.0 -8.522080577507258e-16
  outer loop
    vertex 41.88143572549622 1.3535839116229907e-13 95.66155511921401
    vertex 43.881350839156894 0.0 109.50869661916045
    vertex 42.70876496439927 0.0 108.86517838186387
  endloop
endfacet
facet normal 4.74053965552176e-16 -1.0 -8.522080577507258e-16
  outer loop
    vertex 41.88143572549622 1.3535839116229907e-13 95.66155511921401
    vertex 39.88143572549604 2.255973186038318e-14 109.95699824869361
    vertex 39.88143572549614 2.1657342585967854e-14 95.661555119214
  endloop
endfacet
facet normal 4.74053965552176e-16 -1.0 -8.522080577507258e-16
  outer loop
    vertex 39.88143572549604 2.255973186038318e-14 109.95699824869361
    vertex 41.88143572549622 1.3535839116229907e-13 95.66155511921401
    vertex 42.70876496439927 0.0 108.86517838186387
  endloop
endfacet
facet normal 4.74053965552176e-16 -1.0 -8.522080577507258e-16
  outer loop
    vertex 39.88143572549604 2.255973186038318e-14 109.95699824869361
    vertex 42.70876496439927 0.0 108.86517838186387
    vertex 40.17680027449983 2.255973186038318e-14 113.30201615334613
  endloop
endfacet
facet normal 4.74053965552176e-16 -1.0 -8.522080577507258e-16
  outer loop
    vertex 39.88143572549604 2.255973186038318e-14 109.95699824869361
    vertex 40.17680027449983 2.255973186038318e-14 113.30201615334613
    vertex 37.077141714369034 2.255973186038318e-14 114.8710468689386
  endloop
endfacet
facet normal 4.74053965552176e-16 -1.0 -8.522080577507258e-16
  outer loop
    vertex 37.077141714369034 2.255973186038318e-14 114.8710468689386
    vertex 40.17680027449983 2.255973186038318e-14 113.30201615334613
    vertex 37.76648075775859 2.255973186038318e-14 117.6939765597145
  endloop
endfacet
facet normal 4.74053965552176e-16 -1.0 -8.522080577507258e-16
  outer loop
    vertex 37.077141714369034 2.255973186038318e-14 114.8710468689386
    vertex 37.76648075775859 2.255973186038318e-14 117.6939765597145
    vertex 36.499401394634354 2.255973186038318e-14 116.89116282817722
  endloop
endfacet
facet normal 4.74053965552176e-16 -1.0 -8.522080577507258e-16
  outer loop
    vertex 14.958875779886956 2.255973186038318e-14 90.661555119214
    vertex 12.838725553437458 2.255973186038318e-14 92.161555119214
    vertex 10.838725553437468 2.255973186038318e-14 90.661555119214
  endloop
endfacet
facet normal 4.74053965552176e-16 -1.0 -8.522080577507258e-16
  outer loop
    vertex 12.838725553437458 2.255973186038318e-14 92.161555119214
    vertex 14.958875779886956 2.255973186038318e-14 90.661555119214
    vertex 14.958875779886956 2.255973186038318e-14 98.70055559165732
  endloop
endfacet
facet normal 4.74053965552176e-16 -1.0 -8.522080577507258e-16
  outer loop
    vertex 12.838725553437458 2.255973186038318e-14 92.161555119214
    vertex 14.958875779886956 2.255973186038318e-14 98.70055559165732
    vertex 12.838725553437458 2.255973186038318e-14 97.28821984378014
  endloop
endfacet
facet normal 4.74053965552176e-16 -1.0 -8.522080577507258e-16
  outer loop
    vertex 12.838725553437458 2.255973186038318e-14 97.28821984378014
    vertex 14.958875779886956 2.255973186038318e-14 98.70055559165732
    vertex 10.838725553437463 2.255973186038318e-14 97.28821984378014
  endloop
endfacet
facet normal 4.74053965552176e-16 -1.0 -8.522080577507258e-16
  outer loop
    vertex 10.838725553437463 2.255973186038318e-14 97.28821984378014
    vertex 14.958875779886956 2.255973186038318e-14 98.70055559165732
    vertex 13.41834480434741 2.255973186038318e-14 100.03121247564113
  endloop
endfacet
facet normal 4.74053965552176e-16 -1.0 -8.522080577507258e-16
  outer loop
    vertex 13.41834480434741 2.255973186038318e-14 100.03121247564113
    vertex 14.958875779886956 2.255973186038318e-14 98.70055559165732
    vertex 26.292288947386744 2.255973186038318e-14 108.0684174133849
  endloop
endfacet
facet normal 4.74053965552176e-16 -1.0 -8.522080577507258e-16
  outer loop
    vertex 13.41834480434741 2.255973186038318e-14 100.03121247564113
    vertex 26.292288947386744 2.255973186038318e-14 108.0684174133849
    vertex 25.03678931848836 2.255973186038318e-14 109.62852195355556
  endloop
endfacet
facet normal 4.74053965552176e-16 -1.0 -8.522080577507258e-16
  outer loop
    vertex 25.03678931848836 2.255973186038318e-14 109.62852195355556
    vertex 26.292288947386744 2.255973186038318e-14 108.0684174133849
    vertex 37.077141714369034 2.255973186038318e-14 114.8710468689386
  endloop
endfacet
facet normal 4.74053965552176e-16 -1.0 -8.522080577507258e-16
  outer loop
    vertex 25.03678931848836 2.255973186038318e-14 109.62852195355556
    vertex 37.077141714369034 2.255973186038318e-14 114.8710468689386
    vertex 36.499401394634354 2.255973186038318e-14 116.89116282817722
  endloop
endfacet
facet normal 4.74053965552176e-16 -1.0 -8.522080577507258e-16
  outer loop
    vertex 10.838725553437468 2.255973186038318e-14 92.161555119214
    vertex 10.838725553437468 2.255973186038318e-14 90.661555119214
    vertex 12.838725553437458 2.255973186038318e-14 92.161555119214
  endloop
endfacet
facet normal 1.0 0.0 0.0
  outer loop
    vertex 43.881350839156894 2.255973186038318e-14 90.99999999999996
    vertex 43.881350839156894 3.2500000000000053 109.50869661916045
    vertex 43.881350839156894 0.0 109.50869661916045
  endloop
endfacet
facet normal 1.0 0.0 0.0
  outer loop
    vertex 43.881350839156894 3.2500000000000053 109.50869661916045
    vertex 43.881350839156894 2.255973186038318e-14 90.99999999999996
    vertex 43.88135083915698 10.000000000000016 90.99999999999997
  endloop
endfacet
facet normal 1.0 0.0 0.0
  outer loop
    vertex 43.881350839156894 3.2500000000000053 109.50869661916045
    vertex 43.88135083915698 10.000000000000016 90.99999999999997
    vertex 43.88135083915689 6.749999999999988 109.50869661916047
  endloop
endfacet
facet normal 1.0 0.0 0.0
  outer loop
    vertex 43.88135083915689 6.749999999999988 109.50869661916047
    vertex 43.88135083915698 10.000000000000016 90.99999999999997
    vertex 43.88135083915698 10.000000000000016 109.50869661916047
  endloop
endfacet
facet normal -0.535209154358174 2.2795173173267857e-16 0.844719575416131
  outer loop
    vertex 37.76648075775859 2.255973186038318e-14 117.6939765597145
    vertex 36.49940139463444 10.000000000000016 116.89116282817722
    vertex 36.499401394634354 2.255973186038318e-14 116.89116282817722
  endloop
endfacet
facet normal -0.535209154358174 2.2795173173267857e-16 0.844719575416131
  outer loop
    vertex 36.49940139463444 10.000000000000016 116.89116282817722
    vertex 37.76648075775859 2.255973186038318e-14 117.6939765597145
    vertex 37.76648075775868 10.000000000000016 117.6939765597145
  endloop
endfacet
facet normal -0.4811126603518984 1.6398138509890754e-15 0.8766587751509243
  outer loop
    vertex 43.881350839156894 0.0 109.50869661916045
    vertex 42.70876496439927 3.2500000000000053 108.86517838186387
    vertex 42.70876496439927 0.0 108.86517838186387
  endloop
endfacet
facet normal -0.4811126603518984 1.6398138509890754e-15 0.8766587751509243
  outer loop
    vertex 42.70876496439927 3.2500000000000053 108.86517838186387
    vertex 43.881350839156894 0.0 109.50869661916045
    vertex 43.881350839156894 3.2500000000000053 109.50869661916045
  endloop
endfacet
facet normal -0.4811126603520115 1.9777186900455405e-15 0.8766587751508623
  outer loop
    vertex 40.17680027449983 3.2500000000000053 113.30201615334613
    vertex 41.42394618846845 6.750000000000033 113.98645313786517
    vertex 40.176800274499826 6.750000000000033 113.30201615334613
  endloop
endfacet
facet normal -0.4811126603520115 1.9777186900455405e-15 0.8766587751508623
  outer loop
    vertex 41.42394618846845 6.750000000000033 113.98645313786517
    vertex 40.17680027449983 3.2500000000000053 113.30201615334613
    vertex 41.423946188468456 3.2500000000000053 113.98645313786518
  endloop
endfacet
facet normal 0.6371028219147882 -4.304796027422084e-15 -0.770778823209495
  outer loop
    vertex 14.958875779886993 9.999999999999881 98.7005555916573
    vertex 26.292288947386744 2.255973186038318e-14 108.0684174133849
    vertex 14.958875779886956 2.255973186038318e-14 98.70055559165732
  endloop
endfacet
facet normal 0.6371028219147882 -4.304796027422084e-15 -0.770778823209495
  outer loop
    vertex 26.292288947386744 2.255973186038318e-14 108.0684174133849
    vertex 14.958875779886993 9.999999999999881 98.7005555916573
    vertex 26.292288947386826 10.000000000000016 108.0684174133849
  endloop
endfacet
facet normal -0.8685272731620656 2.758772739315573e-16 -0.49564137818958076
  outer loop
    vertex 37.07714171436912 10.000000000000016 114.8710468689386
    vertex 39.88143572549604 2.255973186038318e-14 109.95699824869361
    vertex 37.077141714369034 2.255973186038318e-14 114.8710468689386
  endloop
endfacet
facet normal -0.8685272731620656 2.758772739315573e-16 -0.49564137818958076
  outer loop
    vertex 39.88143572549604 2.255973186038318e-14 109.95699824869361
    vertex 37.07714171436912 10.000000000000016 114.8710468689386
    vertex 39.881435725496125 10.000000000000016 109.95699824869361
  endloop
endfacet
facet normal 0.0 0.0 -1.0
  outer loop
    vertex 41.88143572549625 10.000000000000016 90.99999999999997
    vertex 43.881350839156894 2.255973186038318e-14 90.99999999999996
    vertex 41.88143572549617 2.255973186038318e-14 90.99999999999996
  endloop
endfacet
facet normal 0.0 0.0 -1.0
  outer loop
    vertex 43.881350839156894 2.255973186038318e-14 90.99999999999996
    vertex 41.88143572549625 10.000000000000016 90.99999999999997
    vertex 43.88135083915698 10.000000000000016 90.99999999999997
  endloop
endfacet
facet normal -0.6368603061588247 2.590515386660358e-16 0.7709792153095233
  outer loop
    vertex 25.03678931848836 2.255973186038318e-14 109.62852195355556
    vertex 13.418344804347491 10.000000000000016 100.03121247564113
    vertex 13.41834480434741 2.255973186038318e-14 100.03121247564113
  endloop
endfacet
facet normal -0.6368603061588247 2.590515386660358e-16 0.7709792153095233
  outer loop
    vertex 13.418344804347491 10.000000000000016 100.03121247564113
    vertex 25.03678931848836 2.255973186038318e-14 109.62852195355556
    vertex 25.036789318488438 10.000000000000016 109.62852195355556
  endloop
endfacet
facet normal 0.0 0.0 1.0
  outer loop
    vertex 12.838725553437458 2.255973186038318e-14 92.161555119214
    vertex 10.838725553437538 10.000000000000016 92.161555119214
    vertex 10.838725553437468 2.255973186038318e-14 92.161555119214
  endloop
endfacet
facet normal 0.0 0.0 1.0
  outer loop
    vertex 10.838725553437538 10.000000000000016 92.161555119214
    vertex 12.838725553437458 2.255973186038318e-14 92.161555119214
    vertex 12.838725553437529 10.000000000000016 92.161555119214
  endloop
endfacet
facet normal 0.8766587751508623 5.458572020297356e-16 0.4811126603520115
  outer loop
    vertex 43.88135083915689 6.749999999999988 109.50869661916047
    vertex 41.423946188468456 3.2500000000000053 113.98645313786518
    vertex 43.881350839156894 3.2500000000000053 109.50869661916045
  endloop
endfacet
facet normal 0.8766587751508623 5.458572020297356e-16 0.4811126603520115
  outer loop
    vertex 41.423946188468456 3.2500000000000053 113.98645313786518
    vertex 43.88135083915689 6.749999999999988 109.50869661916047
    vertex 41.42394618846845 6.750000000000033 113.98645313786517
  endloop
endfacet
facet normal 1.0624801688310068e-15 1.0 -1.935996784512464e-15
  outer loop
    vertex 40.176800274499826 6.750000000000033 113.30201615334613
    vertex 43.88135083915689 6.749999999999988 109.50869661916047
    vertex 42.634204925188264 6.749999999999988 108.82425963464141
  endloop
endfacet
facet normal 1.0624801688310068e-15 1.0 -1.935996784512464e-15
  outer loop
    vertex 43.88135083915689 6.749999999999988 109.50869661916047
    vertex 40.176800274499826 6.750000000000033 113.30201615334613
    vertex 41.42394618846845 6.750000000000033 113.98645313786517
  endloop
endfacet
facet normal -0.4811126603519084 2.2083812304042447e-15 0.8766587751509191
  outer loop
    vertex 43.88135083915689 6.749999999999988 109.50869661916047
    vertex 42.63420492518836 10.000000000000016 108.82425963464141
    vertex 42.634204925188264 6.749999999999988 108.82425963464141
  endloop
endfacet
facet normal -0.4811126603519084 2.2083812304042447e-15 0.8766587751509191
  outer loop
    vertex 42.63420492518836 10.000000000000016 108.82425963464141
    vertex 43.88135083915689 6.749999999999988 109.50869661916047
    vertex 43.88135083915698 10.000000000000016 109.50869661916047
  endloop
endfacet
facet normal -1.0 3.0079642480510943e-16 -4.1402403575315394e-16
  outer loop
    vertex 41.88143572549622 1.3535839116229907e-13 95.66155511921401
    vertex 41.88143572549625 10.000000000000016 90.99999999999997
    vertex 41.88143572549617 2.255973186038318e-14 90.99999999999996
  endloop
endfacet
facet normal -1.0 3.0079642480510943e-16 -4.1402403575315394e-16
  outer loop
    vertex 41.88143572549625 10.000000000000016 90.99999999999997
    vertex 41.88143572549622 1.3535839116229907e-13 95.66155511921401
    vertex 41.88143572549625 10.000000000000016 95.661555119214
  endloop
endfacet
facet normal 0.8685272731620716 -1.9509088102861366e-15 0.4956413781895704
  outer loop
    vertex 42.70876496439927 3.2500000000000053 108.86517838186387
    vertex 40.17680027449983 2.255973186038318e-14 113.30201615334613
    vertex 42.70876496439927 0.0 108.86517838186387
  endloop
endfacet
facet normal 0.8685272731620716 -1.9509088102861366e-15 0.4956413781895704
  outer loop
    vertex 40.17680027449983 2.255973186038318e-14 113.30201615334613
    vertex 42.70876496439927 3.2500000000000053 108.86517838186387
    vertex 40.17680027449983 3.2500000000000053 113.30201615334613
  endloop
endfacet
facet normal -1.0 -0.0 -0.0
  outer loop
    vertex 10.838725553437538 10.000000000000016 92.161555119214
    vertex 10.838725553437468 2.255973186038318e-14 90.661555119214
    vertex 10.838725553437468 2.255973186038318e-14 92.161555119214
  endloop
endfacet
facet normal -1.0 -0.0 -0.0
  outer loop
    vertex 10.838725553437468 2.255973186038318e-14 90.661555119214
    vertex 10.838725553437538 10.000000000000016 92.161555119214
    vertex 10.838725553437538 10.000000000000016 90.661555119214
  endloop
endfacet
facet normal -0.5352091543581953 2.279517317326851e-16 0.8447195754161174
  outer loop
    vertex 36.499401394634354 2.255973186038318e-14 116.89116282817722
    vertex 25.036789318488438 10.000000000000016 109.62852195355556
    vertex 25.03678931848836 2.255973186038318e-14 109.62852195355556
  endloop
endfacet
facet normal -0.5352091543581953 2.279517317326851e-16 0.8447195754161174
  outer loop
    vertex 25.036789318488438 10.000000000000016 109.62852195355556
    vertex 36.499401394634354 2.255973186038318e-14 116.89116282817722
    vertex 36.49940139463444 10.000000000000016 116.89116282817722
  endloop
endfacet
facet normal -2.5233906733488274e-15 -1.0 4.856834416033209e-16
  outer loop
    vertex 43.881350839156894 3.2500000000000053 109.50869661916045
    vertex 40.17680027449983 3.2500000000000053 113.30201615334613
    vertex 42.70876496439927 3.2500000000000053 108.86517838186387
  endloop
endfacet
facet normal -2.5233906733488274e-15 -1.0 4.856834416033209e-16
  outer loop
    vertex 40.17680027449983 3.2500000000000053 113.30201615334613
    vertex 43.881350839156894 3.2500000000000053 109.50869661916045
    vertex 41.423946188468456 3.2500000000000053 113.98645313786518
  endloop
endfacet
facet normal 0.0 0.0 -1.0
  outer loop
    vertex 10.838725553437538 10.000000000000016 90.661555119214
    vertex 14.958875779886956 2.255973186038318e-14 90.661555119214
    vertex 10.838725553437468 2.255973186038318e-14 90.661555119214
  endloop
endfacet
facet normal 0.0 0.0 -1.0
  outer loop
    vertex 14.958875779886956 2.255973186038318e-14 90.661555119214
    vertex 10.838725553437538 10.000000000000016 90.661555119214
    vertex 14.958875779887038 10.000000000000016 90.661555119214
  endloop
endfacet
facet normal 0.8766587751508625 5.3700350191558355e-16 0.4811126603520112
  outer loop
    vertex 40.17680027449983 3.2500000000000053 113.30201615334613
    vertex 37.76648075775859 2.255973186038318e-14 117.6939765597145
    vertex 40.17680027449983 2.255973186038318e-14 113.30201615334613
  endloop
endfacet
facet normal 0.8766587751508625 5.3700350191558355e-16 0.4811126603520112
  outer loop
    vertex 37.76648075775859 2.255973186038318e-14 117.6939765597145
    vertex 40.17680027449983 3.2500000000000053 113.30201615334613
    vertex 37.76648075775868 10.000000000000016 117.6939765597145
  endloop
endfacet
facet normal 0.8766587751508625 5.3700350191558355e-16 0.4811126603520112
  outer loop
    vertex 37.76648075775868 10.000000000000016 117.6939765597145
    vertex 40.17680027449983 3.2500000000000053 113.30201615334613
    vertex 40.176800274499826 6.750000000000033 113.30201615334613
  endloop
endfacet
facet normal 0.8766587751508625 5.3700350191558355e-16 0.4811126603520112
  outer loop
    vertex 37.76648075775868 10.000000000000016 117.6939765597145
    vertex 40.176800274499826 6.750000000000033 113.30201615334613
    vertex 40.17680027449992 10.000000000000016 113.30201615334613
  endloop
endfacet
facet normal -0.7284677904894181 -2.044448209357348e-18 0.6850800524168436
  outer loop
    vertex 13.418344804347491 10.000000000000016 100.03121247564113
    vertex 10.838725553437463 2.255973186038318e-14 97.28821984378014
    vertex 13.41834480434741 2.255973186038318e-14 100.03121247564113
  endloop
endfacet
facet normal -0.7284677904894181 -2.044448209357348e-18 0.6850800524168436
  outer loop
    vertex 10.838725553437463 2.255973186038318e-14 97.28821984378014
    vertex 13.418344804347491 10.000000000000016 100.03121247564113
    vertex 10.838725553437534 10.000000000000016 97.28821984378014
  endloop
endfacet
facet normal 0.5334963838907334 -2.27419398542108e-16 -0.8458023459269378
  outer loop
    vertex 26.292288947386826 10.000000000000016 108.0684174133849
    vertex 37.077141714369034 2.255973186038318e-14 114.8710468689386
    vertex 26.292288947386744 2.255973186038318e-14 108.0684174133849
  endloop
endfacet
facet normal 0.5334963838907334 -2.27419398542108e-16 -0.8458023459269378
  outer loop
    vertex 37.077141714369034 2.255973186038318e-14 114.8710468689386
    vertex 26.292288947386826 10.000000000000016 108.0684174133849
    vertex 37.07714171436912 10.000000000000016 114.8710468689386
  endloop
endfacet
facet normal 2.0142617732484706e-15 7.519910620127672e-17 -1.0
  outer loop
    vertex 39.881435725496225 10.000000000000016 95.661555119214
    vertex 41.88143572549622 1.3535839116229907e-13 95.66155511921401
    vertex 39.88143572549614 2.1657342585967854e-14 95.661555119214
  endloop
endfacet
facet normal 2.0142617732484706e-15 7.519910620127672e-17 -1.0
  outer loop
    vertex 41.88143572549622 1.3535839116229907e-13 95.66155511921401
    vertex 39.881435725496225 10.000000000000016 95.661555119214
    vertex 41.88143572549625 10.000000000000016 95.661555119214
  endloop
endfacet
facet normal -1.0 4.887941903083029e-16 -7.540637842787657e-15
  outer loop
    vertex 39.88143572549604 2.255973186038318e-14 109.95699824869361
    vertex 39.881435725496225 10.000000000000016 95.661555119214
    vertex 39.88143572549614 2.1657342585967854e-14 95.661555119214
  endloop
endfacet
facet normal -1.0 4.887941903083029e-16 -7.540637842787657e-15
  outer loop
    vertex 39.881435725496225 10.000000000000016 95.661555119214
    vertex 39.88143572549604 2.255973186038318e-14 109.95699824869361
    vertex 39.881435725496125 10.000000000000016 109.95699824869361
  endloop
endfacet
facet normal 1.0 1.1400482837657819e-14 1.3604058011867166e-14
  outer loop
    vertex 14.958875779887038 10.000000000000016 90.661555119214
    vertex 14.958875779886956 2.255973186038318e-14 98.70055559165732
    vertex 14.958875779886956 2.255973186038318e-14 90.661555119214
  endloop
endfacet
facet normal 1.0 1.1400482837657819e-14 1.3604058011867166e-14
  outer loop
    vertex 14.958875779886956 2.255973186038318e-14 98.70055559165732
    vertex 14.958875779887038 10.000000000000016 90.661555119214
    vertex 14.958875779886993 9.999999999999881 98.7005555916573
  endloop
endfacet
facet normal 1.0 1.1400482837657819e-14 1.3604058011867166e-14
  outer loop
    vertex 14.958875779886993 9.999999999999881 98.7005555916573
    vertex 14.958875779887038 10.000000000000016 90.661555119214
    vertex 14.958875779886467 10.000000000000338 96.69524289125552
  endloop
endfacet
facet normal -1.0 0.0 0.0
  outer loop
    vertex 12.838725553437529 10.000000000000016 97.28821984378014
    vertex 12.838725553437458 2.255973186038318e-14 92.161555119214
    vertex 12.838725553437458 2.255973186038318e-14 97.28821984378014
  endloop
endfacet
facet normal -1.0 0.0 0.0
  outer loop
    vertex 12.838725553437458 2.255973186038318e-14 92.161555119214
    vertex 12.838725553437529 10.000000000000016 97.28821984378014
    vertex 12.838725553437529 10.000000000000016 92.161555119214
  endloop
endfacet
facet normal 0.0 1.127986593019159e-16 -1.0
  outer loop
    vertex 10.838725553437534 10.000000000000016 97.28821984378014
    vertex 12.838725553437458 2.255973186038318e-14 97.28821984378014
    vertex 10.838725553437463 2.255973186038318e-14 97.28821984378014
  endloop
endfacet
facet normal 0.0 1.127986593019159e-16 -1.0
  outer loop
    vertex 12.838725553437458 2.255973186038318e-14 97.28821984378014
    vertex 10.838725553437534 10.000000000000016 97.28821984378014
    vertex 12.838725553437529 10.000000000000016 97.28821984378014
  endloop
endfacet
facet normal 1.9685248528122553e-14 1.0 1.271819181101426e-13
  outer loop
    vertex 14.659225444842866 10.000000000000338 98.45287354812156
    vertex 14.958875779886467 10.000000000000338 96.69524289125552
    vertex 12.958875779886473 10.000000000000338 96.69524289125552
  endloop
endfacet
facet normal 1.9685248528122553e-14 1.0 1.271819181101426e-13
  outer loop
    vertex 14.958875779886467 10.000000000000338 96.69524289125552
    vertex 14.659225444842866 10.000000000000338 98.45287354812156
    vertex 14.958875779886993 9.999999999999881 98.7005555916573
  endloop
endfacet
facet normal 2.445760095161299e-15 1.0 1.0089627530776549e-16
  outer loop
    vertex 12.838725553437529 10.000000000000016 97.28821984378014
    vertex 12.958875779886473 10.000000000000338 96.69524289125552
    vertex 12.838725553437529 10.000000000000016 92.161555119214
  endloop
endfacet
facet normal 2.445760095161299e-15 1.0 1.0089627530776549e-16
  outer loop
    vertex 12.958875779886473 10.000000000000338 96.69524289125552
    vertex 12.838725553437529 10.000000000000016 97.28821984378014
    vertex 14.659225444842866 10.000000000000338 98.45287354812156
  endloop
endfacet
facet normal 2.445760095161299e-15 1.0 1.0089627530776549e-16
  outer loop
    vertex 10.838725553437538 10.000000000000016 92.161555119214
    vertex 14.958875779887038 10.000000000000016 90.661555119214
    vertex 10.838725553437538 10.000000000000016 90.661555119214
  endloop
endfacet
facet normal 2.445760095161299e-15 1.0 1.0089627530776549e-16
  outer loop
    vertex 14.958875779887038 10.000000000000016 90.661555119214
    vertex 10.838725553437538 10.000000000000016 92.161555119214
    vertex 12.838725553437529 10.000000000000016 92.161555119214
  endloop
endfacet
facet normal 2.445760095161299e-15 1.0 1.0089627530776549e-16
  outer loop
    vertex 14.958875779887038 10.000000000000016 90.661555119214
    vertex 12.838725553437529 10.000000000000016 92.161555119214
    vertex 14.958875779886467 10.000000000000338 96.69524289125552
  endloop
endfacet
facet normal 2.445760095161299e-15 1.0 1.0089627530776549e-16
  outer loop
    vertex 14.958875779886467 10.000000000000338 96.69524289125552
    vertex 12.838725553437529 10.000000000000016 92.161555119214
    vertex 12.958875779886473 10.000000000000338 96.69524289125552
  endloop
endfacet
facet normal 2.445760095161299e-15 1.0 1.0089627530776549e-16
  outer loop
    vertex 13.418344804347491 10.000000000000016 100.03121247564113
    vertex 12.838725553437529 10.000000000000016 97.28821984378014
    vertex 10.838725553437534 10.000000000000016 97.28821984378014
  endloop
endfacet
facet normal 2.445760095161299e-15 1.0 1.0089627530776549e-16
  outer loop
    vertex 12.838725553437529 10.000000000000016 97.28821984378014
    vertex 13.418344804347491 10.000000000000016 100.03121247564113
    vertex 14.659225444842866 10.000000000000338 98.45287354812156
  endloop
endfacet
facet normal 2.445760095161299e-15 1.0 1.0089627530776549e-16
  outer loop
    vertex 14.659225444842866 10.000000000000338 98.45287354812156
    vertex 13.418344804347491 10.000000000000016 100.03121247564113
    vertex 14.958875779886993 9.999999999999881 98.7005555916573
  endloop
endfacet
facet normal 2.445760095161299e-15 1.0 1.0089627530776549e-16
  outer loop
    vertex 14.958875779886993 9.999999999999881 98.7005555916573
    vertex 13.418344804347491 10.000000000000016 100.03121247564113
    vertex 26.292288947386826 10.000000000000016 108.0684174133849
  endloop
endfacet
facet normal 2.445760095161299e-15 1.0 1.0089627530776549e-16
  outer loop
    vertex 26.292288947386826 10.000000000000016 108.0684174133849
    vertex 13.418344804347491 10.000000000000016 100.03121247564113
    vertex 25.036789318488438 10.000000000000016 109.62852195355556
  endloop
endfacet
facet normal 2.445760095161299e-15 1.0 1.0089627530776549e-16
  outer loop
    vertex 26.292288947386826 10.000000000000016 108.0684174133849
    vertex 25.036789318488438 10.000000000000016 109.62852195355556
    vertex 37.07714171436912 10.000000000000016 114.8710468689386
  endloop
endfacet
facet normal 2.445760095161299e-15 1.0 1.0089627530776549e-16
  outer loop
    vertex 37.07714171436912 10.000000000000016 114.8710468689386
    vertex 25.036789318488438 10.000000000000016 109.62852195355556
    vertex 36.49940139463444 10.000000000000016 116.89116282817722
  endloop
endfacet
facet normal 2.445760095161299e-15 1.0 1.0089627530776549e-16
  outer loop
    vertex 39.881435725496125 10.000000000000016 109.95699824869361
    vertex 41.88143572549625 10.000000000000016 95.661555119214
    vertex 39.881435725496225 10.000000000000016 95.661555119214
  endloop
endfacet
facet normal 2.445760095161299e-15 1.0 1.0089627530776549e-16
  outer loop
    vertex 41.88143572549625 10.000000000000016 95.661555119214
    vertex 39.881435725496125 10.000000000000016 109.95699824869361
    vertex 42.63420492518836 10.000000000000016 108.82425963464141
  endloop
endfacet
facet normal 2.445760095161299e-15 1.0 1.0089627530776549e-16
  outer loop
    vertex 42.63420492518836 10.000000000000016 108.82425963464141
    vertex 39.881435725496125 10.000000000000016 109.95699824869361
    vertex 40.17680027449992 10.000000000000016 113.30201615334613
  endloop
endfacet
facet normal 2.445760095161299e-15 1.0 1.0089627530776549e-16
  outer loop
    vertex 40.17680027449992 10.000000000000016 113.30201615334613
    vertex 39.881435725496125 10.000000000000016 109.95699824869361
    vertex 37.07714171436912 10.000000000000016 114.8710468689386
  endloop
endfacet
facet normal 2.445760095161299e-15 1.0 1.0089627530776549e-16
  outer loop
    vertex 40.17680027449992 10.000000000000016 113.30201615334613
    vertex 37.07714171436912 10.000000000000016 114.8710468689386
    vertex 37.76648075775868 10.000000000000016 117.6939765597145
  endloop
endfacet
facet normal 2.445760095161299e-15 1.0 1.0089627530776549e-16
  outer loop
    vertex 37.76648075775868 10.000000000000016 117.6939765597145
    vertex 37.07714171436912 10.000000000000016 114.8710468689386
    vertex 36.49940139463444 10.000000000000016 116.89116282817722
  endloop
endfacet
facet normal 2.445760095161299e-15 1.0 1.0089627530776549e-16
  outer loop
    vertex 41.88143572549625 10.000000000000016 95.661555119214
    vertex 43.88135083915698 10.000000000000016 90.99999999999997
    vertex 41.88143572549625 10.000000000000016 90.99999999999997
  endloop
endfacet
facet normal 2.445760095161299e-15 1.0 1.0089627530776549e-16
  outer loop
    vertex 43.88135083915698 10.000000000000016 90.99999999999997
    vertex 41.88143572549625 10.000000000000016 95.661555119214
    vertex 43.88135083915698 10.000000000000016 109.50869661916047
  endloop
endfacet
facet normal 2.445760095161299e-15 1.0 1.0089627530776549e-16
  outer loop
    vertex 43.88135083915698 10.000000000000016 109.50869661916047
    vertex 41.88143572549625 10.000000000000016 95.661555119214
    vertex 42.63420492518836 10.000000000000016 108.82425963464141
  endloop
endfacet
endsolid Cover-Test
