solid Dome Wall Support - Left End
facet normal 0.7881392652536086 -1.2000385821416946e-15 -0.6154969525233266
  outer loop
    vertex 6.084305797363392 50.00000000000002 74.31285591145429
    vertex 13.218746434948253 99.99999999999989 83.44845403107033
    vertex 13.2187464349481 50.0 83.44845403107033
  endloop
endfacet
facet normal 0.7881392652536086 -1.2000385821416946e-15 -0.6154969525233266
  outer loop
    vertex 13.218746434948253 99.99999999999989 83.44845403107033
    vertex 6.084305797363392 50.00000000000002 74.31285591145429
    vertex 6.084305797363535 99.99999999999997 74.31285591145429
  endloop
endfacet
facet normal 0.7047864828433946 -1.0750808065653394e-15 -0.7094194905704505
  outer loop
    vertex 13.218746434948253 99.99999999999989 83.44845403107033
    vertex 20.81993349614744 50.00000000000002 90.99999999999997
    vertex 13.2187464349481 50.0 83.44845403107033
  endloop
endfacet
facet normal 0.7047864828433946 -1.0750808065653394e-15 -0.7094194905704505
  outer loop
    vertex 20.81993349614744 50.00000000000002 90.99999999999997
    vertex 13.218746434948253 99.99999999999989 83.44845403107033
    vertex 20.81993349614759 99.99999999999997 90.99999999999997
  endloop
endfacet
facet normal 3.524958103184878e-16 0.0 -1.0
  outer loop
    vertex 1.678589752390796e-14 100.00000000000001 0.0
    vertex 3.9999999999999925 50.00000000000005 6.724003161192427e-15
    vertex 0.0 50.00000000000005 5.314019919918478e-15
  endloop
endfacet
facet normal 3.524958103184878e-16 0.0 -1.0
  outer loop
    vertex 3.9999999999999925 50.00000000000005 6.724003161192427e-15
    vertex 1.678589752390796e-14 100.00000000000001 0.0
    vertex 4.00000000000001 100.00000000000001 1.4099832412739487e-15
  endloop
endfacet
facet normal -1.0 1.7542686050883262e-17 7.576618575310907e-16
  outer loop
    vertex 9.007203659456249e-15 50.00000000000002 84.80090252963186
    vertex 1.2478351685274447e-13 55.999999999999986 68.31285591145429
    vertex 0.0 50.00000000000005 5.314019919918478e-15
  endloop
endfacet
facet normal -1.0 1.7542686050883262e-17 7.576618575310907e-16
  outer loop
    vertex 1.2478351685274447e-13 55.999999999999986 68.31285591145429
    vertex 9.007203659456249e-15 50.00000000000002 84.80090252963186
    vertex 1.678589752390796e-14 100.00000000000001 84.80090252963186
  endloop
endfacet
facet normal -1.0 1.7542686050883262e-17 7.576618575310907e-16
  outer loop
    vertex 1.2478351685274447e-13 55.999999999999986 68.31285591145429
    vertex 1.678589752390796e-14 100.00000000000001 84.80090252963186
    vertex 1.3112844143847723e-13 99.99999999999997 68.31285591145429
  endloop
endfacet
facet normal -1.0 1.7542686050883262e-17 7.576618575310907e-16
  outer loop
    vertex 0.0 50.00000000000005 5.314019919918478e-15
    vertex 9.164891068280667e-15 56.00000000000001 28.0
    vertex 1.678589752390796e-14 100.00000000000001 0.0
  endloop
endfacet
facet normal -1.0 1.7542686050883262e-17 7.576618575310907e-16
  outer loop
    vertex 9.164891068280667e-15 56.00000000000001 28.0
    vertex 0.0 50.00000000000005 5.314019919918478e-15
    vertex 1.2478351685274447e-13 55.999999999999986 68.31285591145429
  endloop
endfacet
facet normal -1.0 1.7542686050883262e-17 7.576618575310907e-16
  outer loop
    vertex 1.678589752390796e-14 100.00000000000001 0.0
    vertex 9.164891068280667e-15 56.00000000000001 28.0
    vertex 1.762479051592436e-14 100.00000000000001 28.0
  endloop
endfacet
facet normal -0.7284677904894176 1.2227404217822857e-16 0.6850800524168442
  outer loop
    vertex 10.338725553437548 100.00000000000001 96.75655366263864
    vertex 3.0943770258460086 50.00000000000002 89.0534034295928
    vertex 10.338725553437534 50.00000000000002 96.75655366263864
  endloop
endfacet
facet normal -0.7284677904894176 1.2227404217822857e-16 0.6850800524168442
  outer loop
    vertex 3.0943770258460086 50.00000000000002 89.0534034295928
    vertex 10.338725553437548 100.00000000000001 96.75655366263864
    vertex 3.0943770258460166 100.00000000000001 89.0534034295928
  endloop
endfacet
facet normal -0.7284677904894176 1.2227404217822857e-16 0.6850800524168442
  outer loop
    vertex 3.0943770258460166 100.00000000000001 89.0534034295928
    vertex 10.338725553437548 100.00000000000001 96.75655366263864
    vertex 8.838725553437527 100.00000000000001 95.161555119214
  endloop
endfacet
facet normal -0.8085869025984393 3.085689266146236e-16 0.5883767678505518
  outer loop
    vertex 3.0943770258460166 100.00000000000001 89.0534034295928
    vertex 9.007203659456249e-15 50.00000000000002 84.80090252963186
    vertex 3.0943770258460086 50.00000000000002 89.0534034295928
  endloop
endfacet
facet normal -0.8085869025984393 3.085689266146236e-16 0.5883767678505518
  outer loop
    vertex 9.007203659456249e-15 50.00000000000002 84.80090252963186
    vertex 3.0943770258460166 100.00000000000001 89.0534034295928
    vertex 1.678589752390796e-14 100.00000000000001 84.80090252963186
  endloop
endfacet
facet normal 1.0 0.0 0.0
  outer loop
    vertex 4.00000000000001 100.00000000000001 1.4099832412739487e-15
    vertex 3.9999999999999925 50.00000000000005 1.7500000000000049
    vertex 3.9999999999999925 50.00000000000005 6.724003161192427e-15
  endloop
endfacet
facet normal 1.0 0.0 0.0
  outer loop
    vertex 3.9999999999999925 50.00000000000005 1.7500000000000049
    vertex 4.00000000000001 100.00000000000001 1.4099832412739487e-15
    vertex 4.00000000000001 100.00000000000001 1.7499999999999996
  endloop
endfacet
facet normal 0.0 0.0 -1.0
  outer loop
    vertex 2.0000000000000133 100.00000000000001 22.0
    vertex 6.084305797363383 50.00000000000005 22.000000000000004
    vertex 1.9999999999999962 50.00000000000005 22.000000000000004
  endloop
endfacet
facet normal 0.0 0.0 -1.0
  outer loop
    vertex 6.084305797363383 50.00000000000005 22.000000000000004
    vertex 2.0000000000000133 100.00000000000001 22.0
    vertex 6.0843057973634 100.00000000000001 22.0
  endloop
endfacet
facet normal 0.0 0.0 1.0
  outer loop
    vertex 15.45887577988698 50.00000000000002 90.16155511921401
    vertex 10.33872555343746 100.00000000000001 90.16155511921401
    vertex 10.338725553437447 50.00000000000002 90.16155511921401
  endloop
endfacet
facet normal 0.0 0.0 1.0
  outer loop
    vertex 10.33872555343746 100.00000000000001 90.16155511921401
    vertex 15.45887577988698 50.00000000000002 90.16155511921401
    vertex 15.45887577988698 100.00000000000001 90.16155511921401
  endloop
endfacet
facet normal 0.0 0.0 -1.0
  outer loop
    vertex 10.33872555343746 100.00000000000001 92.661555119214
    vertex 12.338725553437534 50.00000000000002 92.661555119214
    vertex 10.338725553437447 50.00000000000002 92.661555119214
  endloop
endfacet
facet normal 0.0 0.0 -1.0
  outer loop
    vertex 12.338725553437534 50.00000000000002 92.661555119214
    vertex 10.33872555343746 100.00000000000001 92.661555119214
    vertex 12.338725553437547 100.00000000000001 92.661555119214
  endloop
endfacet
facet normal 1.0 -8.459899447643693e-17 -2.0328697338608035e-15
  outer loop
    vertex 41.38143572549625 100.00000000000001 90.99999999999997
    vertex 41.38143572549625 50.00000000000002 95.161555119214
    vertex 41.38143572549624 50.00000000000002 90.99999999999997
  endloop
endfacet
facet normal 1.0 -8.459899447643693e-17 -2.0328697338608035e-15
  outer loop
    vertex 41.38143572549625 50.00000000000002 95.161555119214
    vertex 41.38143572549625 100.00000000000001 90.99999999999997
    vertex 41.38143572549625 100.00000000000001 95.161555119214
  endloop
endfacet
facet normal 1.0 0.0 0.0
  outer loop
    vertex 10.33872555343746 100.00000000000001 90.16155511921401
    vertex 10.338725553437447 50.00000000000002 92.661555119214
    vertex 10.338725553437447 50.00000000000002 90.16155511921401
  endloop
endfacet
facet normal 1.0 0.0 0.0
  outer loop
    vertex 10.338725553437447 50.00000000000002 92.661555119214
    vertex 10.33872555343746 100.00000000000001 90.16155511921401
    vertex 10.33872555343746 100.00000000000001 92.661555119214
  endloop
endfacet
facet normal 1.0 0.0 0.0
  outer loop
    vertex 2.0000000000000133 100.00000000000001 1.7499999999999996
    vertex 1.9999999999999962 50.00000000000005 22.000000000000004
    vertex 1.9999999999999962 50.00000000000005 1.7500000000000049
  endloop
endfacet
facet normal 1.0 0.0 0.0
  outer loop
    vertex 1.9999999999999962 50.00000000000005 22.000000000000004
    vertex 2.0000000000000133 100.00000000000001 1.7499999999999996
    vertex 2.0000000000000133 100.00000000000001 22.0
  endloop
endfacet
facet normal 0.0 0.0 1.0
  outer loop
    vertex 3.9999999999999925 50.00000000000005 1.7500000000000049
    vertex 2.0000000000000133 100.00000000000001 1.7499999999999996
    vertex 1.9999999999999962 50.00000000000005 1.7500000000000049
  endloop
endfacet
facet normal 0.0 0.0 1.0
  outer loop
    vertex 2.0000000000000133 100.00000000000001 1.7499999999999996
    vertex 3.9999999999999925 50.00000000000005 1.7500000000000049
    vertex 4.00000000000001 100.00000000000001 1.7499999999999996
  endloop
endfacet
facet normal 0.0 0.0 -1.0
  outer loop
    vertex 20.81993349614759 99.99999999999997 90.99999999999997
    vertex 41.38143572549624 50.00000000000002 90.99999999999997
    vertex 20.81993349614744 50.00000000000002 90.99999999999997
  endloop
endfacet
facet normal 0.0 0.0 -1.0
  outer loop
    vertex 41.38143572549624 50.00000000000002 90.99999999999997
    vertex 20.81993349614759 99.99999999999997 90.99999999999997
    vertex 41.38143572549625 100.00000000000001 90.99999999999997
  endloop
endfacet
facet normal 1.0 -1.2206815684380943e-15 -1.7231373833029477e-15
  outer loop
    vertex 6.084305797363383 50.00000000000005 22.000000000000004
    vertex 6.0843057973633945 52.000000000000014 24.0
    vertex 6.084305797363527 51.99999999999997 72.31285591145429
  endloop
endfacet
facet normal 1.0 -1.2206815684380943e-15 -1.7231373833029477e-15
  outer loop
    vertex 6.0843057973633945 52.000000000000014 24.0
    vertex 6.084305797363383 50.00000000000005 22.000000000000004
    vertex 6.0843057973634 100.00000000000001 22.0
  endloop
endfacet
facet normal 1.0 -1.2206815684380943e-15 -1.7231373833029477e-15
  outer loop
    vertex 6.0843057973633945 52.000000000000014 24.0
    vertex 6.0843057973634 100.00000000000001 22.0
    vertex 6.0843057973634025 100.00000000000001 23.999999999999996
  endloop
endfacet
facet normal 1.0 -1.2206815684380943e-15 -1.7231373833029477e-15
  outer loop
    vertex 6.084305797363392 50.00000000000002 74.31285591145429
    vertex 6.084305797363527 51.99999999999997 72.31285591145429
    vertex 6.084305797363535 99.99999999999997 74.31285591145429
  endloop
endfacet
facet normal 1.0 -1.2206815684380943e-15 -1.7231373833029477e-15
  outer loop
    vertex 6.084305797363527 51.99999999999997 72.31285591145429
    vertex 6.084305797363392 50.00000000000002 74.31285591145429
    vertex 6.084305797363383 50.00000000000005 22.000000000000004
  endloop
endfacet
facet normal 1.0 -1.2206815684380943e-15 -1.7231373833029477e-15
  outer loop
    vertex 6.084305797363535 99.99999999999997 74.31285591145429
    vertex 6.084305797363527 51.99999999999997 72.31285591145429
    vertex 6.084305797363532 99.99999999999997 72.31285591145429
  endloop
endfacet
facet normal 0.0 0.0 -1.0
  outer loop
    vertex 1.3112844143847723e-13 99.99999999999997 68.31285591145429
    vertex 3.5843057973635157 55.999999999999986 68.31285591145429
    vertex 1.2478351685274447e-13 55.999999999999986 68.31285591145429
  endloop
endfacet
facet normal 0.0 0.0 -1.0
  outer loop
    vertex 3.5843057973635157 55.999999999999986 68.31285591145429
    vertex 1.3112844143847723e-13 99.99999999999997 68.31285591145429
    vertex 3.5843057973635224 99.99999999999997 68.31285591145429
  endloop
endfacet
facet normal 1.6823663674291573e-16 1.0 5.596163147045394e-16
  outer loop
    vertex 1.2478351685274447e-13 55.999999999999986 68.31285591145429
    vertex 3.5843057973634003 56.00000000000001 28.0
    vertex 9.164891068280667e-15 56.00000000000001 28.0
  endloop
endfacet
facet normal 1.6823663674291573e-16 1.0 5.596163147045394e-16
  outer loop
    vertex 3.5843057973634003 56.00000000000001 28.0
    vertex 1.2478351685274447e-13 55.999999999999986 68.31285591145429
    vertex 3.5843057973635157 55.999999999999986 68.31285591145429
  endloop
endfacet
facet normal 0.0 0.0 1.0
  outer loop
    vertex 3.5843057973634003 56.00000000000001 28.0
    vertex 1.762479051592436e-14 100.00000000000001 28.0
    vertex 9.164891068280667e-15 56.00000000000001 28.0
  endloop
endfacet
facet normal 0.0 0.0 1.0
  outer loop
    vertex 1.762479051592436e-14 100.00000000000001 28.0
    vertex 3.5843057973634003 56.00000000000001 28.0
    vertex 3.5843057973634087 100.00000000000001 28.0
  endloop
endfacet
facet normal 0.0 1.0 0.0
  outer loop
    vertex 1.678589752390796e-14 100.00000000000001 0.0
    vertex 2.0000000000000133 100.00000000000001 1.7499999999999996
    vertex 4.00000000000001 100.00000000000001 1.4099832412739487e-15
  endloop
endfacet
facet normal 0.0 1.0 0.0
  outer loop
    vertex 2.0000000000000133 100.00000000000001 1.7499999999999996
    vertex 1.678589752390796e-14 100.00000000000001 0.0
    vertex 1.762479051592436e-14 100.00000000000001 28.0
  endloop
endfacet
facet normal 0.0 1.0 0.0
  outer loop
    vertex 2.0000000000000133 100.00000000000001 1.7499999999999996
    vertex 1.762479051592436e-14 100.00000000000001 28.0
    vertex 2.0000000000000133 100.00000000000001 22.0
  endloop
endfacet
facet normal 0.0 1.0 0.0
  outer loop
    vertex 2.0000000000000133 100.00000000000001 22.0
    vertex 1.762479051592436e-14 100.00000000000001 28.0
    vertex 3.584305797363403 100.00000000000001 24.0
  endloop
endfacet
facet normal 0.0 1.0 0.0
  outer loop
    vertex 2.0000000000000133 100.00000000000001 22.0
    vertex 3.584305797363403 100.00000000000001 24.0
    vertex 6.0843057973634 100.00000000000001 22.0
  endloop
endfacet
facet normal 0.0 1.0 0.0
  outer loop
    vertex 6.0843057973634 100.00000000000001 22.0
    vertex 3.584305797363403 100.00000000000001 24.0
    vertex 6.0843057973634025 100.00000000000001 23.999999999999996
  endloop
endfacet
facet normal 0.0 1.0 0.0
  outer loop
    vertex 3.584305797363403 100.00000000000001 24.0
    vertex 1.762479051592436e-14 100.00000000000001 28.0
    vertex 3.5843057973634087 100.00000000000001 28.0
  endloop
endfacet
facet normal 0.0 1.0 0.0
  outer loop
    vertex 4.00000000000001 100.00000000000001 1.7499999999999996
    vertex 4.00000000000001 100.00000000000001 1.4099832412739487e-15
    vertex 2.0000000000000133 100.00000000000001 1.7499999999999996
  endloop
endfacet
facet normal 2.714152143661384e-15 5.874930171974739e-17 1.0
  outer loop
    vertex 6.0843057973633945 52.000000000000014 24.0
    vertex 3.584305797363403 100.00000000000001 24.0
    vertex 3.5843057973633945 52.000000000000014 24.000000000000004
  endloop
endfacet
facet normal 2.714152143661384e-15 5.874930171974739e-17 1.0
  outer loop
    vertex 3.584305797363403 100.00000000000001 24.0
    vertex 6.0843057973633945 52.000000000000014 24.0
    vertex 6.0843057973634025 100.00000000000001 23.999999999999996
  endloop
endfacet
facet normal 6.026561176754931e-16 1.0 -4.6773257018108655e-15
  outer loop
    vertex 8.838725553437527 100.00000000000001 95.161555119214
    vertex 10.33872555343746 100.00000000000001 90.16155511921401
    vertex 3.0943770258460166 100.00000000000001 89.0534034295928
  endloop
endfacet
facet normal 6.026561176754931e-16 1.0 -4.6773257018108655e-15
  outer loop
    vertex 10.33872555343746 100.00000000000001 90.16155511921401
    vertex 8.838725553437527 100.00000000000001 95.161555119214
    vertex 10.33872555343746 100.00000000000001 92.661555119214
  endloop
endfacet
facet normal 6.026561176754931e-16 1.0 -4.6773257018108655e-15
  outer loop
    vertex 10.33872555343746 100.00000000000001 92.661555119214
    vertex 8.838725553437527 100.00000000000001 95.161555119214
    vertex 12.338725553437547 100.00000000000001 92.661555119214
  endloop
endfacet
facet normal 6.026561176754931e-16 1.0 -4.6773257018108655e-15
  outer loop
    vertex 12.338725553437547 100.00000000000001 92.661555119214
    vertex 8.838725553437527 100.00000000000001 95.161555119214
    vertex 12.338725553437547 100.00000000000001 96.75655366263864
  endloop
endfacet
facet normal 6.026561176754931e-16 1.0 -4.6773257018108655e-15
  outer loop
    vertex 12.338725553437547 100.00000000000001 96.75655366263864
    vertex 8.838725553437527 100.00000000000001 95.161555119214
    vertex 10.338725553437548 100.00000000000001 96.75655366263864
  endloop
endfacet
facet normal 6.026561176754931e-16 1.0 -4.6773257018108655e-15
  outer loop
    vertex 16.458875779887638 100.00000000000031 93.35155220606232
    vertex 22.533813182559477 100.00000000000007 93.15165430507064
    vertex 15.45887577988698 100.00000000000001 92.28821984377971
  endloop
endfacet
facet normal 6.026561176754931e-16 1.0 -4.6773257018108655e-15
  outer loop
    vertex 22.533813182559477 100.00000000000007 93.15165430507064
    vertex 16.458875779887638 100.00000000000031 93.35155220606232
    vertex 22.533813182559477 100.00000000000007 95.161555119214
  endloop
endfacet
facet normal 6.026561176754931e-16 1.0 -4.6773257018108655e-15
  outer loop
    vertex 22.533813182559477 100.00000000000007 95.161555119214
    vertex 16.458875779887638 100.00000000000031 93.35155220606232
    vertex 16.458875779887638 100.00000000000031 95.16155511921376
  endloop
endfacet
facet normal 6.026561176754931e-16 1.0 -4.6773257018108655e-15
  outer loop
    vertex 1.678589752390796e-14 100.00000000000001 84.80090252963186
    vertex 3.5843057973635224 99.99999999999997 68.31285591145429
    vertex 1.3112844143847723e-13 99.99999999999997 68.31285591145429
  endloop
endfacet
facet normal 6.026561176754931e-16 1.0 -4.6773257018108655e-15
  outer loop
    vertex 3.5843057973635224 99.99999999999997 68.31285591145429
    vertex 1.678589752390796e-14 100.00000000000001 84.80090252963186
    vertex 3.5843057973635326 99.99999999999997 72.31285591145429
  endloop
endfacet
facet normal 6.026561176754931e-16 1.0 -4.6773257018108655e-15
  outer loop
    vertex 3.5843057973635326 99.99999999999997 72.31285591145429
    vertex 1.678589752390796e-14 100.00000000000001 84.80090252963186
    vertex 6.084305797363532 99.99999999999997 72.31285591145429
  endloop
endfacet
facet normal 6.026561176754931e-16 1.0 -4.6773257018108655e-15
  outer loop
    vertex 6.084305797363532 99.99999999999997 72.31285591145429
    vertex 1.678589752390796e-14 100.00000000000001 84.80090252963186
    vertex 6.084305797363535 99.99999999999997 74.31285591145429
  endloop
endfacet
facet normal 6.026561176754931e-16 1.0 -4.6773257018108655e-15
  outer loop
    vertex 6.084305797363535 99.99999999999997 74.31285591145429
    vertex 1.678589752390796e-14 100.00000000000001 84.80090252963186
    vertex 13.218746434948253 99.99999999999989 83.44845403107033
  endloop
endfacet
facet normal 6.026561176754931e-16 1.0 -4.6773257018108655e-15
  outer loop
    vertex 13.218746434948253 99.99999999999989 83.44845403107033
    vertex 1.678589752390796e-14 100.00000000000001 84.80090252963186
    vertex 20.81993349614759 99.99999999999997 90.99999999999997
  endloop
endfacet
facet normal 6.026561176754931e-16 1.0 -4.6773257018108655e-15
  outer loop
    vertex 20.81993349614759 99.99999999999997 90.99999999999997
    vertex 1.678589752390796e-14 100.00000000000001 84.80090252963186
    vertex 15.45887577988698 100.00000000000001 90.16155511921401
  endloop
endfacet
facet normal 6.026561176754931e-16 1.0 -4.6773257018108655e-15
  outer loop
    vertex 15.45887577988698 100.00000000000001 90.16155511921401
    vertex 1.678589752390796e-14 100.00000000000001 84.80090252963186
    vertex 3.0943770258460166 100.00000000000001 89.0534034295928
  endloop
endfacet
facet normal 6.026561176754931e-16 1.0 -4.6773257018108655e-15
  outer loop
    vertex 15.45887577988698 100.00000000000001 90.16155511921401
    vertex 3.0943770258460166 100.00000000000001 89.0534034295928
    vertex 10.33872555343746 100.00000000000001 90.16155511921401
  endloop
endfacet
facet normal 6.026561176754931e-16 1.0 -4.6773257018108655e-15
  outer loop
    vertex 20.81993349614759 99.99999999999997 90.99999999999997
    vertex 15.45887577988698 100.00000000000001 90.16155511921401
    vertex 15.45887577988698 100.00000000000001 92.28821984377971
  endloop
endfacet
facet normal 6.026561176754931e-16 1.0 -4.6773257018108655e-15
  outer loop
    vertex 20.81993349614759 99.99999999999997 90.99999999999997
    vertex 15.45887577988698 100.00000000000001 92.28821984377971
    vertex 41.38143572549625 100.00000000000001 90.99999999999997
  endloop
endfacet
facet normal 6.026561176754931e-16 1.0 -4.6773257018108655e-15
  outer loop
    vertex 41.38143572549625 100.00000000000001 90.99999999999997
    vertex 15.45887577988698 100.00000000000001 92.28821984377971
    vertex 39.88817063487225 100.00000000000007 93.15165430507064
  endloop
endfacet
facet normal 6.026561176754931e-16 1.0 -4.6773257018108655e-15
  outer loop
    vertex 41.38143572549625 100.00000000000001 90.99999999999997
    vertex 39.88817063487225 100.00000000000007 93.15165430507064
    vertex 41.38143572549625 100.00000000000001 95.161555119214
  endloop
endfacet
facet normal 6.026561176754931e-16 1.0 -4.6773257018108655e-15
  outer loop
    vertex 39.88817063487225 100.00000000000007 93.15165430507064
    vertex 15.45887577988698 100.00000000000001 92.28821984377971
    vertex 22.533813182559477 100.00000000000007 93.15165430507064
  endloop
endfacet
facet normal 6.026561176754931e-16 1.0 -4.6773257018108655e-15
  outer loop
    vertex 41.38143572549625 100.00000000000001 95.161555119214
    vertex 39.88817063487225 100.00000000000007 93.15165430507064
    vertex 39.88817063487225 100.00000000000001 95.161555119214
  endloop
endfacet
facet normal -0.7284677904894209 -1.6574936914176908e-16 0.6850800524168409
  outer loop
    vertex 16.45887577988698 50.000000000000064 93.35155220606256
    vertex 15.45887577988698 100.00000000000001 92.28821984377971
    vertex 15.45887577988698 50.00000000000002 92.28821984377971
  endloop
endfacet
facet normal -0.7284677904894209 -1.6574936914176908e-16 0.6850800524168409
  outer loop
    vertex 15.45887577988698 100.00000000000001 92.28821984377971
    vertex 16.45887577988698 50.000000000000064 93.35155220606256
    vertex 16.458875779887638 100.00000000000031 93.35155220606232
  endloop
endfacet
facet normal 2.4982987130960873e-16 -1.0 -2.943168184160687e-16
  outer loop
    vertex 6.084305797363392 50.00000000000002 74.31285591145429
    vertex 1.9999999999999962 50.00000000000005 22.000000000000004
    vertex 6.084305797363383 50.00000000000005 22.000000000000004
  endloop
endfacet
facet normal 2.4982987130960873e-16 -1.0 -2.943168184160687e-16
  outer loop
    vertex 41.38143572549625 50.00000000000002 95.161555119214
    vertex 20.81993349614744 50.00000000000002 90.99999999999997
    vertex 41.38143572549624 50.00000000000002 90.99999999999997
  endloop
endfacet
facet normal 2.4982987130960873e-16 -1.0 -2.943168184160687e-16
  outer loop
    vertex 20.81993349614744 50.00000000000002 90.99999999999997
    vertex 41.38143572549625 50.00000000000002 95.161555119214
    vertex 15.45887577988698 50.00000000000002 92.28821984377971
  endloop
endfacet
facet normal 2.4982987130960873e-16 -1.0 -2.943168184160687e-16
  outer loop
    vertex 15.45887577988698 50.00000000000002 92.28821984377971
    vertex 41.38143572549625 50.00000000000002 95.161555119214
    vertex 16.45887577988698 50.000000000000064 93.35155220606256
  endloop
endfacet
facet normal 2.4982987130960873e-16 -1.0 -2.943168184160687e-16
  outer loop
    vertex 16.45887577988698 50.000000000000064 93.35155220606256
    vertex 41.38143572549625 50.00000000000002 95.161555119214
    vertex 16.45887577988698 50.00000000000008 95.161555119214
  endloop
endfacet
facet normal 2.4982987130960873e-16 -1.0 -2.943168184160687e-16
  outer loop
    vertex 0.0 50.00000000000005 5.314019919918478e-15
    vertex 1.9999999999999962 50.00000000000005 1.7500000000000049
    vertex 9.007203659456249e-15 50.00000000000002 84.80090252963186
  endloop
endfacet
facet normal 2.4982987130960873e-16 -1.0 -2.943168184160687e-16
  outer loop
    vertex 1.9999999999999962 50.00000000000005 1.7500000000000049
    vertex 0.0 50.00000000000005 5.314019919918478e-15
    vertex 3.9999999999999925 50.00000000000005 6.724003161192427e-15
  endloop
endfacet
facet normal 2.4982987130960873e-16 -1.0 -2.943168184160687e-16
  outer loop
    vertex 1.9999999999999962 50.00000000000005 1.7500000000000049
    vertex 3.9999999999999925 50.00000000000005 6.724003161192427e-15
    vertex 3.9999999999999925 50.00000000000005 1.7500000000000049
  endloop
endfacet
facet normal 2.4982987130960873e-16 -1.0 -2.943168184160687e-16
  outer loop
    vertex 9.007203659456249e-15 50.00000000000002 84.80090252963186
    vertex 1.9999999999999962 50.00000000000005 1.7500000000000049
    vertex 1.9999999999999962 50.00000000000005 22.000000000000004
  endloop
endfacet
facet normal 2.4982987130960873e-16 -1.0 -2.943168184160687e-16
  outer loop
    vertex 9.007203659456249e-15 50.00000000000002 84.80090252963186
    vertex 1.9999999999999962 50.00000000000005 22.000000000000004
    vertex 6.084305797363392 50.00000000000002 74.31285591145429
  endloop
endfacet
facet normal 2.4982987130960873e-16 -1.0 -2.943168184160687e-16
  outer loop
    vertex 9.007203659456249e-15 50.00000000000002 84.80090252963186
    vertex 6.084305797363392 50.00000000000002 74.31285591145429
    vertex 13.2187464349481 50.0 83.44845403107033
  endloop
endfacet
facet normal 2.4982987130960873e-16 -1.0 -2.943168184160687e-16
  outer loop
    vertex 9.007203659456249e-15 50.00000000000002 84.80090252963186
    vertex 13.2187464349481 50.0 83.44845403107033
    vertex 20.81993349614744 50.00000000000002 90.99999999999997
  endloop
endfacet
facet normal 2.4982987130960873e-16 -1.0 -2.943168184160687e-16
  outer loop
    vertex 9.007203659456249e-15 50.00000000000002 84.80090252963186
    vertex 20.81993349614744 50.00000000000002 90.99999999999997
    vertex 15.45887577988698 50.00000000000002 90.16155511921401
  endloop
endfacet
facet normal 2.4982987130960873e-16 -1.0 -2.943168184160687e-16
  outer loop
    vertex 9.007203659456249e-15 50.00000000000002 84.80090252963186
    vertex 15.45887577988698 50.00000000000002 90.16155511921401
    vertex 3.0943770258460086 50.00000000000002 89.0534034295928
  endloop
endfacet
facet normal 2.4982987130960873e-16 -1.0 -2.943168184160687e-16
  outer loop
    vertex 15.45887577988698 50.00000000000002 90.16155511921401
    vertex 20.81993349614744 50.00000000000002 90.99999999999997
    vertex 15.45887577988698 50.00000000000002 92.28821984377971
  endloop
endfacet
facet normal 2.4982987130960873e-16 -1.0 -2.943168184160687e-16
  outer loop
    vertex 12.338725553437534 50.00000000000002 96.75655366263864
    vertex 10.338725553437447 50.00000000000002 92.661555119214
    vertex 12.338725553437534 50.00000000000002 92.661555119214
  endloop
endfacet
facet normal 2.4982987130960873e-16 -1.0 -2.943168184160687e-16
  outer loop
    vertex 3.0943770258460086 50.00000000000002 89.0534034295928
    vertex 10.338725553437447 50.00000000000002 92.661555119214
    vertex 10.338725553437534 50.00000000000002 96.75655366263864
  endloop
endfacet
facet normal 2.4982987130960873e-16 -1.0 -2.943168184160687e-16
  outer loop
    vertex 10.338725553437447 50.00000000000002 92.661555119214
    vertex 3.0943770258460086 50.00000000000002 89.0534034295928
    vertex 10.338725553437447 50.00000000000002 90.16155511921401
  endloop
endfacet
facet normal 2.4982987130960873e-16 -1.0 -2.943168184160687e-16
  outer loop
    vertex 10.338725553437447 50.00000000000002 90.16155511921401
    vertex 3.0943770258460086 50.00000000000002 89.0534034295928
    vertex 15.45887577988698 50.00000000000002 90.16155511921401
  endloop
endfacet
facet normal 2.4982987130960873e-16 -1.0 -2.943168184160687e-16
  outer loop
    vertex 10.338725553437534 50.00000000000002 96.75655366263864
    vertex 10.338725553437447 50.00000000000002 92.661555119214
    vertex 12.338725553437534 50.00000000000002 96.75655366263864
  endloop
endfacet
facet normal -2.714152143661384e-15 3.189090864025262e-31 -1.0
  outer loop
    vertex 3.5843057973635326 99.99999999999997 72.31285591145429
    vertex 6.084305797363527 51.99999999999997 72.31285591145429
    vertex 3.5843057973635273 51.99999999999997 72.31285591145429
  endloop
endfacet
facet normal -2.714152143661384e-15 3.189090864025262e-31 -1.0
  outer loop
    vertex 6.084305797363527 51.99999999999997 72.31285591145429
    vertex 3.5843057973635326 99.99999999999997 72.31285591145429
    vertex 6.084305797363532 99.99999999999997 72.31285591145429
  endloop
endfacet
facet normal 1.0 -1.5384351043561115e-16 -2.7665474337261762e-15
  outer loop
    vertex 3.5843057973633945 52.000000000000014 24.000000000000004
    vertex 3.5843057973634003 56.00000000000001 28.0
    vertex 3.5843057973635157 55.999999999999986 68.31285591145429
  endloop
endfacet
facet normal 1.0 -1.5384351043561115e-16 -2.7665474337261762e-15
  outer loop
    vertex 3.5843057973634003 56.00000000000001 28.0
    vertex 3.5843057973633945 52.000000000000014 24.000000000000004
    vertex 3.584305797363403 100.00000000000001 24.0
  endloop
endfacet
facet normal 1.0 -1.5384351043561115e-16 -2.7665474337261762e-15
  outer loop
    vertex 3.5843057973634003 56.00000000000001 28.0
    vertex 3.584305797363403 100.00000000000001 24.0
    vertex 3.5843057973634087 100.00000000000001 28.0
  endloop
endfacet
facet normal 1.0 -1.5384351043561115e-16 -2.7665474337261762e-15
  outer loop
    vertex 3.5843057973635273 51.99999999999997 72.31285591145429
    vertex 3.5843057973635157 55.999999999999986 68.31285591145429
    vertex 3.5843057973635326 99.99999999999997 72.31285591145429
  endloop
endfacet
facet normal 1.0 -1.5384351043561115e-16 -2.7665474337261762e-15
  outer loop
    vertex 3.5843057973635157 55.999999999999986 68.31285591145429
    vertex 3.5843057973635273 51.99999999999997 72.31285591145429
    vertex 3.5843057973633945 52.000000000000014 24.000000000000004
  endloop
endfacet
facet normal 1.0 -1.5384351043561115e-16 -2.7665474337261762e-15
  outer loop
    vertex 3.5843057973635326 99.99999999999997 72.31285591145429
    vertex 3.5843057973635157 55.999999999999986 68.31285591145429
    vertex 3.5843057973635224 99.99999999999997 68.31285591145429
  endloop
endfacet
facet normal 1.4687325429937224e-16 1.0 9.339018128727337e-16
  outer loop
    vertex 3.5843057973633945 52.000000000000014 24.000000000000004
    vertex 6.084305797363527 51.99999999999997 72.31285591145429
    vertex 6.0843057973633945 52.000000000000014 24.0
  endloop
endfacet
facet normal 1.4687325429937224e-16 1.0 9.339018128727337e-16
  outer loop
    vertex 6.084305797363527 51.99999999999997 72.31285591145429
    vertex 3.5843057973633945 52.000000000000014 24.000000000000004
    vertex 3.5843057973635273 51.99999999999997 72.31285591145429
  endloop
endfacet
facet normal 0.0 0.0 1.0
  outer loop
    vertex 12.338725553437534 50.00000000000002 96.75655366263864
    vertex 10.338725553437548 100.00000000000001 96.75655366263864
    vertex 10.338725553437534 50.00000000000002 96.75655366263864
  endloop
endfacet
facet normal 0.0 0.0 1.0
  outer loop
    vertex 10.338725553437548 100.00000000000001 96.75655366263864
    vertex 12.338725553437534 50.00000000000002 96.75655366263864
    vertex 12.338725553437547 100.00000000000001 96.75655366263864
  endloop
endfacet
facet normal 1.0 0.0 0.0
  outer loop
    vertex 12.338725553437547 100.00000000000001 92.661555119214
    vertex 12.338725553437534 50.00000000000002 96.75655366263864
    vertex 12.338725553437534 50.00000000000002 92.661555119214
  endloop
endfacet
facet normal 1.0 0.0 0.0
  outer loop
    vertex 12.338725553437534 50.00000000000002 96.75655366263864
    vertex 12.338725553437547 100.00000000000001 92.661555119214
    vertex 12.338725553437547 100.00000000000001 96.75655366263864
  endloop
endfacet
facet normal -1.0 0.0 0.0
  outer loop
    vertex 15.45887577988698 100.00000000000001 92.28821984377971
    vertex 15.45887577988698 50.00000000000002 90.16155511921401
    vertex 15.45887577988698 50.00000000000002 92.28821984377971
  endloop
endfacet
facet normal -1.0 0.0 0.0
  outer loop
    vertex 15.45887577988698 50.00000000000002 90.16155511921401
    vertex 15.45887577988698 100.00000000000001 92.28821984377971
    vertex 15.45887577988698 100.00000000000001 90.16155511921401
  endloop
endfacet
facet normal 1.2999462482188697e-15 1.0 1.1224301070796018e-14
  outer loop
    vertex 22.533813182559456 85.00000000000004 95.16155511921383
    vertex 39.88817063487224 85.00000000000004 93.15165430507047
    vertex 22.533813182559456 85.00000000000004 93.15165430507047
  endloop
endfacet
facet normal 1.2999462482188697e-15 1.0 1.1224301070796018e-14
  outer loop
    vertex 39.88817063487224 85.00000000000004 93.15165430507047
    vertex 22.533813182559456 85.00000000000004 95.16155511921383
    vertex 39.88817063487224 85.0 95.16155511921383
  endloop
endfacet
facet normal -1.0 1.2999462482188697e-15 2.918197613172065e-29
  outer loop
    vertex 39.88817063487225 100.00000000000001 95.161555119214
    vertex 39.88817063487224 85.00000000000004 93.15165430507047
    vertex 39.88817063487224 85.0 95.16155511921383
  endloop
endfacet
facet normal -1.0 1.2999462482188697e-15 2.918197613172065e-29
  outer loop
    vertex 39.88817063487224 85.00000000000004 93.15165430507047
    vertex 39.88817063487225 100.00000000000001 95.161555119214
    vertex 39.88817063487225 100.00000000000007 93.15165430507064
  endloop
endfacet
facet normal 0.0 -1.1224301070796018e-14 1.0
  outer loop
    vertex 39.88817063487224 85.00000000000004 93.15165430507047
    vertex 22.533813182559477 100.00000000000007 93.15165430507064
    vertex 22.533813182559456 85.00000000000004 93.15165430507047
  endloop
endfacet
facet normal 0.0 -1.1224301070796018e-14 1.0
  outer loop
    vertex 22.533813182559477 100.00000000000007 93.15165430507064
    vertex 39.88817063487224 85.00000000000004 93.15165430507047
    vertex 39.88817063487225 100.00000000000007 93.15165430507064
  endloop
endfacet
facet normal 1.0 -1.2999462482188697e-15 0.0
  outer loop
    vertex 22.533813182559477 100.00000000000007 93.15165430507064
    vertex 22.533813182559456 85.00000000000004 95.16155511921383
    vertex 22.533813182559456 85.00000000000004 93.15165430507047
  endloop
endfacet
facet normal 1.0 -1.2999462482188697e-15 0.0
  outer loop
    vertex 22.533813182559456 85.00000000000004 95.16155511921383
    vertex 22.533813182559477 100.00000000000007 93.15165430507064
    vertex 22.533813182559477 100.00000000000007 95.161555119214
  endloop
endfacet
facet normal -2.9320931072879713e-15 9.259596747359288e-16 1.0
  outer loop
    vertex 16.45887577988698 50.00000000000008 95.161555119214
    vertex 22.533813182559456 85.00000000000004 95.16155511921383
    vertex 16.458875779887638 100.00000000000031 95.16155511921376
  endloop
endfacet
facet normal -2.9320931072879713e-15 9.259596747359288e-16 1.0
  outer loop
    vertex 22.533813182559456 85.00000000000004 95.16155511921383
    vertex 16.45887577988698 50.00000000000008 95.161555119214
    vertex 41.38143572549625 50.00000000000002 95.161555119214
  endloop
endfacet
facet normal -2.9320931072879713e-15 9.259596747359288e-16 1.0
  outer loop
    vertex 22.533813182559456 85.00000000000004 95.16155511921383
    vertex 41.38143572549625 50.00000000000002 95.161555119214
    vertex 39.88817063487224 85.0 95.16155511921383
  endloop
endfacet
facet normal -2.9320931072879713e-15 9.259596747359288e-16 1.0
  outer loop
    vertex 39.88817063487224 85.0 95.16155511921383
    vertex 41.38143572549625 50.00000000000002 95.161555119214
    vertex 39.88817063487225 100.00000000000001 95.161555119214
  endloop
endfacet
facet normal -2.9320931072879713e-15 9.259596747359288e-16 1.0
  outer loop
    vertex 39.88817063487225 100.00000000000001 95.161555119214
    vertex 41.38143572549625 50.00000000000002 95.161555119214
    vertex 41.38143572549625 100.00000000000001 95.161555119214
  endloop
endfacet
facet normal -2.9320931072879713e-15 9.259596747359288e-16 1.0
  outer loop
    vertex 22.533813182559477 100.00000000000007 95.161555119214
    vertex 16.458875779887638 100.00000000000031 95.16155511921376
    vertex 22.533813182559456 85.00000000000004 95.16155511921383
  endloop
endfacet
facet normal -1.0 6.570521904336586e-15 -1.1735547814067431e-29
  outer loop
    vertex 16.45887577988698 50.00000000000008 95.161555119214
    vertex 16.458875779887638 100.00000000000031 93.35155220606232
    vertex 16.45887577988698 50.000000000000064 93.35155220606256
  endloop
endfacet
facet normal -1.0 6.570521904336586e-15 -1.1735547814067431e-29
  outer loop
    vertex 16.458875779887638 100.00000000000031 93.35155220606232
    vertex 16.45887577988698 50.00000000000008 95.161555119214
    vertex 16.458875779887638 100.00000000000031 95.16155511921376
  endloop
endfacet
endsolid Dome Wall Support - Left End
