solid Dome Wall Support - Left End
facet normal 0.7881392652536086 -1.2000385821416946e-15 -0.6154969525233266
  outer loop
    vertex 6.084305797363535 100.0 74.31285591145429
    vertex 13.2187464349481 50.0 83.44845403107033
    vertex 6.084305797363393 50.0 74.31285591145429
  endloop
endfacet
facet normal 0.7881392652536086 -1.2000385821416946e-15 -0.6154969525233266
  outer loop
    vertex 13.2187464349481 50.0 83.44845403107033
    vertex 6.084305797363535 100.0 74.31285591145429
    vertex 13.218746434948253 99.99999999999982 83.44845403107033
  endloop
endfacet
facet normal 0.7047864828433946 -1.0750808065653394e-15 -0.7094194905704505
  outer loop
    vertex 13.218746434948253 99.99999999999982 83.44845403107033
    vertex 20.81993349614744 50.0 90.99999999999997
    vertex 13.2187464349481 50.0 83.44845403107033
  endloop
endfacet
facet normal 0.7047864828433946 -1.0750808065653394e-15 -0.7094194905704505
  outer loop
    vertex 20.81993349614744 50.0 90.99999999999997
    vertex 13.218746434948253 99.99999999999982 83.44845403107033
    vertex 20.81993349614759 100.0 90.99999999999997
  endloop
endfacet
facet normal 3.524958103184878e-16 0.0 -1.0
  outer loop
    vertex 1.6787612966417952e-14 100.0 0.0
    vertex 3.9999999999999925 50.0 6.697420396051256e-15
    vertex 0.0 50.0 5.287437154777308e-15
  endloop
endfacet
facet normal 3.524958103184878e-16 0.0 -1.0
  outer loop
    vertex 3.9999999999999925 50.0 6.697420396051256e-15
    vertex 1.6787612966417952e-14 100.0 0.0
    vertex 4.00000000000001 100.0 1.4099832412739487e-15
  endloop
endfacet
facet normal -1.0 1.7542686050883262e-17 7.576618575310907e-16
  outer loop
    vertex 9.010674151266328e-15 50.0 84.80090252963186
    vertex 1.2478351685274447e-13 56.00000000000008 68.31285591145429
    vertex 0.0 50.0 5.287437154777308e-15
  endloop
endfacet
facet normal -1.0 1.7542686050883262e-17 7.576618575310907e-16
  outer loop
    vertex 1.2478351685274447e-13 56.00000000000008 68.31285591145429
    vertex 9.010674151266328e-15 50.0 84.80090252963186
    vertex 1.6787612966417952e-14 100.0 84.80090252963186
  endloop
endfacet
facet normal -1.0 1.7542686050883262e-17 7.576618575310907e-16
  outer loop
    vertex 1.2478351685274447e-13 56.00000000000008 68.31285591145429
    vertex 1.6787612966417952e-14 100.0 84.80090252963186
    vertex 1.3112844143847723e-13 100.0 68.31285591145429
  endloop
endfacet
facet normal -1.0 1.7542686050883262e-17 7.576618575310907e-16
  outer loop
    vertex 0.0 50.0 5.287437154777308e-15
    vertex 9.164891068280667e-15 56.00000000000008 28.0
    vertex 1.6787612966417952e-14 100.0 0.0
  endloop
endfacet
facet normal -1.0 1.7542686050883262e-17 7.576618575310907e-16
  outer loop
    vertex 9.164891068280667e-15 56.00000000000008 28.0
    vertex 0.0 50.0 5.287437154777308e-15
    vertex 1.2478351685274447e-13 56.00000000000008 68.31285591145429
  endloop
endfacet
facet normal -1.0 1.7542686050883262e-17 7.576618575310907e-16
  outer loop
    vertex 1.6787612966417952e-14 100.0 0.0
    vertex 9.164891068280667e-15 56.00000000000008 28.0
    vertex 1.762479051592436e-14 100.0 28.0
  endloop
endfacet
facet normal -0.7284677904894176 1.2227404217822857e-16 0.6850800524168442
  outer loop
    vertex 10.338725553437548 100.0 96.75655366263864
    vertex 3.0943770258460086 50.0 89.0534034295928
    vertex 10.338725553437534 50.0 96.75655366263864
  endloop
endfacet
facet normal -0.7284677904894176 1.2227404217822857e-16 0.6850800524168442
  outer loop
    vertex 3.0943770258460086 50.0 89.0534034295928
    vertex 10.338725553437548 100.0 96.75655366263864
    vertex 3.094377025846016 100.0 89.0534034295928
  endloop
endfacet
facet normal -0.7284677904894176 1.2227404217822857e-16 0.6850800524168442
  outer loop
    vertex 3.094377025846016 100.0 89.0534034295928
    vertex 10.338725553437548 100.0 96.75655366263864
    vertex 8.838725553437527 100.0 95.161555119214
  endloop
endfacet
facet normal -0.8085869025984393 3.085689266146236e-16 0.5883767678505518
  outer loop
    vertex 3.094377025846016 100.0 89.0534034295928
    vertex 9.010674151266328e-15 50.0 84.80090252963186
    vertex 3.0943770258460086 50.0 89.0534034295928
  endloop
endfacet
facet normal -0.8085869025984393 3.085689266146236e-16 0.5883767678505518
  outer loop
    vertex 9.010674151266328e-15 50.0 84.80090252963186
    vertex 3.094377025846016 100.0 89.0534034295928
    vertex 1.6787612966417952e-14 100.0 84.80090252963186
  endloop
endfacet
facet normal 1.0 0.0 0.0
  outer loop
    vertex 4.00000000000001 100.0 1.4099832412739487e-15
    vertex 3.9999999999999925 50.0 1.7500000000000049
    vertex 3.9999999999999925 50.0 6.697420396051256e-15
  endloop
endfacet
facet normal 1.0 0.0 0.0
  outer loop
    vertex 3.9999999999999925 50.0 1.7500000000000049
    vertex 4.00000000000001 100.0 1.4099832412739487e-15
    vertex 4.00000000000001 100.0 1.7499999999999996
  endloop
endfacet
facet normal 0.0 0.0 -1.0
  outer loop
    vertex 2.0000000000000133 100.0 22.0
    vertex 6.084305797363383 50.0 22.000000000000004
    vertex 1.9999999999999962 50.0 22.000000000000004
  endloop
endfacet
facet normal 0.0 0.0 -1.0
  outer loop
    vertex 6.084305797363383 50.0 22.000000000000004
    vertex 2.0000000000000133 100.0 22.0
    vertex 6.0843057973634 100.0 22.0
  endloop
endfacet
facet normal 0.0 0.0 1.0
  outer loop
    vertex 15.45887577988698 50.0 90.16155511921401
    vertex 10.33872555343746 100.0 90.16155511921401
    vertex 10.338725553437447 50.0 90.16155511921401
  endloop
endfacet
facet normal 0.0 0.0 1.0
  outer loop
    vertex 10.33872555343746 100.0 90.16155511921401
    vertex 15.45887577988698 50.0 90.16155511921401
    vertex 15.45887577988698 100.0 90.16155511921401
  endloop
endfacet
facet normal 0.0 0.0 -1.0
  outer loop
    vertex 10.33872555343746 100.0 92.661555119214
    vertex 12.338725553437534 50.0 92.661555119214
    vertex 10.338725553437447 50.0 92.661555119214
  endloop
endfacet
facet normal 0.0 0.0 -1.0
  outer loop
    vertex 12.338725553437534 50.0 92.661555119214
    vertex 10.33872555343746 100.0 92.661555119214
    vertex 12.338725553437547 100.0 92.661555119214
  endloop
endfacet
facet normal 1.0 -8.459899447643693e-17 -2.0328697338608035e-15
  outer loop
    vertex 41.38143572549625 100.0 90.99999999999997
    vertex 41.38143572549625 50.0 95.161555119214
    vertex 41.38143572549624 50.0 90.99999999999997
  endloop
endfacet
facet normal 1.0 -8.459899447643693e-17 -2.0328697338608035e-15
  outer loop
    vertex 41.38143572549625 50.0 95.161555119214
    vertex 41.38143572549625 100.0 90.99999999999997
    vertex 41.38143572549625 100.0 95.161555119214
  endloop
endfacet
facet normal 1.0 0.0 0.0
  outer loop
    vertex 10.33872555343746 100.0 90.16155511921401
    vertex 10.338725553437447 50.0 92.661555119214
    vertex 10.338725553437447 50.0 90.16155511921401
  endloop
endfacet
facet normal 1.0 0.0 0.0
  outer loop
    vertex 10.338725553437447 50.0 92.661555119214
    vertex 10.33872555343746 100.0 90.16155511921401
    vertex 10.33872555343746 100.0 92.661555119214
  endloop
endfacet
facet normal 1.0 0.0 0.0
  outer loop
    vertex 2.0000000000000133 100.0 1.7499999999999996
    vertex 1.9999999999999962 50.0 22.000000000000004
    vertex 1.9999999999999962 50.0 1.7500000000000049
  endloop
endfacet
facet normal 1.0 0.0 0.0
  outer loop
    vertex 1.9999999999999962 50.0 22.000000000000004
    vertex 2.0000000000000133 100.0 1.7499999999999996
    vertex 2.0000000000000133 100.0 22.0
  endloop
endfacet
facet normal 0.0 0.0 1.0
  outer loop
    vertex 3.9999999999999925 50.0 1.7500000000000049
    vertex 2.0000000000000133 100.0 1.7499999999999996
    vertex 1.9999999999999962 50.0 1.7500000000000049
  endloop
endfacet
facet normal 0.0 0.0 1.0
  outer loop
    vertex 2.0000000000000133 100.0 1.7499999999999996
    vertex 3.9999999999999925 50.0 1.7500000000000049
    vertex 4.00000000000001 100.0 1.7499999999999996
  endloop
endfacet
facet normal 0.0 0.0 -1.0
  outer loop
    vertex 20.81993349614759 100.0 90.99999999999997
    vertex 41.38143572549624 50.0 90.99999999999997
    vertex 20.81993349614744 50.0 90.99999999999997
  endloop
endfacet
facet normal 0.0 0.0 -1.0
  outer loop
    vertex 41.38143572549624 50.0 90.99999999999997
    vertex 20.81993349614759 100.0 90.99999999999997
    vertex 41.38143572549625 100.0 90.99999999999997
  endloop
endfacet
facet normal 1.0 -1.2206815684380943e-15 -1.7231373833029477e-15
  outer loop
    vertex 6.084305797363383 50.0 22.000000000000004
    vertex 6.0843057973633945 52.000000000000085 24.0
    vertex 6.084305797363393 50.0 74.31285591145429
  endloop
endfacet
facet normal 1.0 -1.2206815684380943e-15 -1.7231373833029477e-15
  outer loop
    vertex 6.0843057973633945 52.000000000000085 24.0
    vertex 6.084305797363383 50.0 22.000000000000004
    vertex 6.0843057973634 100.0 22.0
  endloop
endfacet
facet normal 1.0 -1.2206815684380943e-15 -1.7231373833029477e-15
  outer loop
    vertex 6.084305797363393 50.0 74.31285591145429
    vertex 6.0843057973633945 52.000000000000085 24.0
    vertex 6.084305797363527 51.99999999999991 72.31285591145429
  endloop
endfacet
facet normal 1.0 -1.2206815684380943e-15 -1.7231373833029477e-15
  outer loop
    vertex 6.0843057973633945 52.000000000000085 24.0
    vertex 6.0843057973634 100.0 22.0
    vertex 6.0843057973634025 100.0 23.999999999999996
  endloop
endfacet
facet normal 1.0 -1.2206815684380943e-15 -1.7231373833029477e-15
  outer loop
    vertex 6.084305797363527 51.99999999999991 72.31285591145429
    vertex 6.084305797363535 100.0 74.31285591145429
    vertex 6.084305797363393 50.0 74.31285591145429
  endloop
endfacet
facet normal 1.0 -1.2206815684380943e-15 -1.7231373833029477e-15
  outer loop
    vertex 6.084305797363535 100.0 74.31285591145429
    vertex 6.084305797363527 51.99999999999991 72.31285591145429
    vertex 6.084305797363532 100.0 72.31285591145429
  endloop
endfacet
facet normal 0.0 0.0 -1.0
  outer loop
    vertex 1.3112844143847723e-13 100.0 68.31285591145429
    vertex 3.5843057973635157 56.00000000000008 68.31285591145429
    vertex 1.2478351685274447e-13 56.00000000000008 68.31285591145429
  endloop
endfacet
facet normal 0.0 0.0 -1.0
  outer loop
    vertex 3.5843057973635157 56.00000000000008 68.31285591145429
    vertex 1.3112844143847723e-13 100.0 68.31285591145429
    vertex 3.584305797363523 100.0 68.31285591145429
  endloop
endfacet
facet normal 1.6823663674291573e-16 1.0 5.596163147045394e-16
  outer loop
    vertex 1.2478351685274447e-13 56.00000000000008 68.31285591145429
    vertex 3.5843057973634003 56.00000000000008 28.0
    vertex 9.164891068280667e-15 56.00000000000008 28.0
  endloop
endfacet
facet normal 1.6823663674291573e-16 1.0 5.596163147045394e-16
  outer loop
    vertex 3.5843057973634003 56.00000000000008 28.0
    vertex 1.2478351685274447e-13 56.00000000000008 68.31285591145429
    vertex 3.5843057973635157 56.00000000000008 68.31285591145429
  endloop
endfacet
facet normal 0.0 0.0 1.0
  outer loop
    vertex 3.5843057973634003 56.00000000000008 28.0
    vertex 1.762479051592436e-14 100.0 28.0
    vertex 9.164891068280667e-15 56.00000000000008 28.0
  endloop
endfacet
facet normal 0.0 0.0 1.0
  outer loop
    vertex 1.762479051592436e-14 100.0 28.0
    vertex 3.5843057973634003 56.00000000000008 28.0
    vertex 3.5843057973634087 100.0 28.0
  endloop
endfacet
facet normal 0.0 1.0 0.0
  outer loop
    vertex 1.6787612966417952e-14 100.0 0.0
    vertex 2.0000000000000133 100.0 1.7499999999999996
    vertex 4.00000000000001 100.0 1.4099832412739487e-15
  endloop
endfacet
facet normal 0.0 1.0 0.0
  outer loop
    vertex 2.0000000000000133 100.0 1.7499999999999996
    vertex 1.6787612966417952e-14 100.0 0.0
    vertex 1.762479051592436e-14 100.0 28.0
  endloop
endfacet
facet normal 0.0 1.0 0.0
  outer loop
    vertex 2.0000000000000133 100.0 1.7499999999999996
    vertex 1.762479051592436e-14 100.0 28.0
    vertex 2.0000000000000133 100.0 22.0
  endloop
endfacet
facet normal 0.0 1.0 0.0
  outer loop
    vertex 2.0000000000000133 100.0 22.0
    vertex 1.762479051592436e-14 100.0 28.0
    vertex 3.584305797363403 100.0 24.0
  endloop
endfacet
facet normal 0.0 1.0 0.0
  outer loop
    vertex 2.0000000000000133 100.0 22.0
    vertex 3.584305797363403 100.0 24.0
    vertex 6.0843057973634 100.0 22.0
  endloop
endfacet
facet normal 0.0 1.0 0.0
  outer loop
    vertex 6.0843057973634 100.0 22.0
    vertex 3.584305797363403 100.0 24.0
    vertex 6.0843057973634025 100.0 23.999999999999996
  endloop
endfacet
facet normal 0.0 1.0 0.0
  outer loop
    vertex 3.584305797363403 100.0 24.0
    vertex 1.762479051592436e-14 100.0 28.0
    vertex 3.5843057973634087 100.0 28.0
  endloop
endfacet
facet normal 0.0 1.0 0.0
  outer loop
    vertex 4.00000000000001 100.0 1.7499999999999996
    vertex 4.00000000000001 100.0 1.4099832412739487e-15
    vertex 2.0000000000000133 100.0 1.7499999999999996
  endloop
endfacet
facet normal 2.714152143661384e-15 5.874930171974739e-17 1.0
  outer loop
    vertex 6.0843057973633945 52.000000000000085 24.0
    vertex 3.584305797363403 100.0 24.0
    vertex 3.5843057973633945 52.000000000000085 24.000000000000004
  endloop
endfacet
facet normal 2.714152143661384e-15 5.874930171974739e-17 1.0
  outer loop
    vertex 3.584305797363403 100.0 24.0
    vertex 6.0843057973633945 52.000000000000085 24.0
    vertex 6.0843057973634025 100.0 23.999999999999996
  endloop
endfacet
facet normal 6.026561176754931e-16 1.0 -4.6773257018108655e-15
  outer loop
    vertex 8.838725553437527 100.0 95.161555119214
    vertex 10.33872555343746 100.0 90.16155511921401
    vertex 3.094377025846016 100.0 89.0534034295928
  endloop
endfacet
facet normal 6.026561176754931e-16 1.0 -4.6773257018108655e-15
  outer loop
    vertex 10.33872555343746 100.0 90.16155511921401
    vertex 8.838725553437527 100.0 95.161555119214
    vertex 10.33872555343746 100.0 92.661555119214
  endloop
endfacet
facet normal 6.026561176754931e-16 1.0 -4.6773257018108655e-15
  outer loop
    vertex 10.33872555343746 100.0 92.661555119214
    vertex 8.838725553437527 100.0 95.161555119214
    vertex 12.338725553437547 100.0 92.661555119214
  endloop
endfacet
facet normal 6.026561176754931e-16 1.0 -4.6773257018108655e-15
  outer loop
    vertex 12.338725553437547 100.0 92.661555119214
    vertex 8.838725553437527 100.0 95.161555119214
    vertex 12.338725553437547 100.0 96.75655366263864
  endloop
endfacet
facet normal 6.026561176754931e-16 1.0 -4.6773257018108655e-15
  outer loop
    vertex 12.338725553437547 100.0 96.75655366263864
    vertex 8.838725553437527 100.0 95.161555119214
    vertex 10.338725553437548 100.0 96.75655366263864
  endloop
endfacet
facet normal 6.026561176754931e-16 1.0 -4.6773257018108655e-15
  outer loop
    vertex 16.458875779887638 100.00000000000036 93.35155220606232
    vertex 22.533813182559477 100.0 93.15165430507064
    vertex 15.45887577988698 100.0 92.28821984377971
  endloop
endfacet
facet normal 6.026561176754931e-16 1.0 -4.6773257018108655e-15
  outer loop
    vertex 22.533813182559477 100.0 93.15165430507064
    vertex 16.458875779887638 100.00000000000036 93.35155220606232
    vertex 22.533813182559477 100.0 95.161555119214
  endloop
endfacet
facet normal 6.026561176754931e-16 1.0 -4.6773257018108655e-15
  outer loop
    vertex 22.533813182559477 100.0 95.161555119214
    vertex 16.458875779887638 100.00000000000036 93.35155220606232
    vertex 16.458875779887638 100.00000000000036 95.16155511921376
  endloop
endfacet
facet normal 6.026561176754931e-16 1.0 -4.6773257018108655e-15
  outer loop
    vertex 1.6787612966417952e-14 100.0 84.80090252963186
    vertex 3.584305797363523 100.0 68.31285591145429
    vertex 1.3112844143847723e-13 100.0 68.31285591145429
  endloop
endfacet
facet normal 6.026561176754931e-16 1.0 -4.6773257018108655e-15
  outer loop
    vertex 3.584305797363523 100.0 68.31285591145429
    vertex 1.6787612966417952e-14 100.0 84.80090252963186
    vertex 3.5843057973635326 100.0 72.31285591145429
  endloop
endfacet
facet normal 6.026561176754931e-16 1.0 -4.6773257018108655e-15
  outer loop
    vertex 3.5843057973635326 100.0 72.31285591145429
    vertex 1.6787612966417952e-14 100.0 84.80090252963186
    vertex 6.084305797363532 100.0 72.31285591145429
  endloop
endfacet
facet normal 6.026561176754931e-16 1.0 -4.6773257018108655e-15
  outer loop
    vertex 6.084305797363532 100.0 72.31285591145429
    vertex 1.6787612966417952e-14 100.0 84.80090252963186
    vertex 6.084305797363535 100.0 74.31285591145429
  endloop
endfacet
facet normal 6.026561176754931e-16 1.0 -4.6773257018108655e-15
  outer loop
    vertex 6.084305797363535 100.0 74.31285591145429
    vertex 1.6787612966417952e-14 100.0 84.80090252963186
    vertex 13.218746434948253 99.99999999999982 83.44845403107033
  endloop
endfacet
facet normal 6.026561176754931e-16 1.0 -4.6773257018108655e-15
  outer loop
    vertex 13.218746434948253 99.99999999999982 83.44845403107033
    vertex 1.6787612966417952e-14 100.0 84.80090252963186
    vertex 20.81993349614759 100.0 90.99999999999997
  endloop
endfacet
facet normal 6.026561176754931e-16 1.0 -4.6773257018108655e-15
  outer loop
    vertex 20.81993349614759 100.0 90.99999999999997
    vertex 1.6787612966417952e-14 100.0 84.80090252963186
    vertex 15.45887577988698 100.0 90.16155511921401
  endloop
endfacet
facet normal 6.026561176754931e-16 1.0 -4.6773257018108655e-15
  outer loop
    vertex 15.45887577988698 100.0 90.16155511921401
    vertex 1.6787612966417952e-14 100.0 84.80090252963186
    vertex 3.094377025846016 100.0 89.0534034295928
  endloop
endfacet
facet normal 6.026561176754931e-16 1.0 -4.6773257018108655e-15
  outer loop
    vertex 15.45887577988698 100.0 90.16155511921401
    vertex 3.094377025846016 100.0 89.0534034295928
    vertex 10.33872555343746 100.0 90.16155511921401
  endloop
endfacet
facet normal 6.026561176754931e-16 1.0 -4.6773257018108655e-15
  outer loop
    vertex 20.81993349614759 100.0 90.99999999999997
    vertex 15.45887577988698 100.0 90.16155511921401
    vertex 15.45887577988698 100.0 92.28821984377971
  endloop
endfacet
facet normal 6.026561176754931e-16 1.0 -4.6773257018108655e-15
  outer loop
    vertex 20.81993349614759 100.0 90.99999999999997
    vertex 15.45887577988698 100.0 92.28821984377971
    vertex 41.38143572549625 100.0 90.99999999999997
  endloop
endfacet
facet normal 6.026561176754931e-16 1.0 -4.6773257018108655e-15
  outer loop
    vertex 41.38143572549625 100.0 90.99999999999997
    vertex 15.45887577988698 100.0 92.28821984377971
    vertex 39.88817063487225 100.0 93.15165430507064
  endloop
endfacet
facet normal 6.026561176754931e-16 1.0 -4.6773257018108655e-15
  outer loop
    vertex 41.38143572549625 100.0 90.99999999999997
    vertex 39.88817063487225 100.0 93.15165430507064
    vertex 41.38143572549625 100.0 95.161555119214
  endloop
endfacet
facet normal 6.026561176754931e-16 1.0 -4.6773257018108655e-15
  outer loop
    vertex 39.88817063487225 100.0 93.15165430507064
    vertex 15.45887577988698 100.0 92.28821984377971
    vertex 22.533813182559477 100.0 93.15165430507064
  endloop
endfacet
facet normal 6.026561176754931e-16 1.0 -4.6773257018108655e-15
  outer loop
    vertex 41.38143572549625 100.0 95.161555119214
    vertex 39.88817063487225 100.0 93.15165430507064
    vertex 39.88817063487225 100.0 95.161555119214
  endloop
endfacet
facet normal -0.7284677904894209 -1.6574936914176908e-16 0.6850800524168409
  outer loop
    vertex 16.458875779887638 100.00000000000036 93.35155220606232
    vertex 15.45887577988698 50.0 92.28821984377971
    vertex 16.45887577988698 50.0 93.35155220606256
  endloop
endfacet
facet normal -0.7284677904894209 -1.6574936914176908e-16 0.6850800524168409
  outer loop
    vertex 15.45887577988698 50.0 92.28821984377971
    vertex 16.458875779887638 100.00000000000036 93.35155220606232
    vertex 15.45887577988698 100.0 92.28821984377971
  endloop
endfacet
facet normal -2.714152143661384e-15 3.189090864025262e-31 -1.0
  outer loop
    vertex 3.5843057973635326 100.0 72.31285591145429
    vertex 6.084305797363527 51.99999999999991 72.31285591145429
    vertex 3.5843057973635273 51.99999999999991 72.31285591145429
  endloop
endfacet
facet normal -2.714152143661384e-15 3.189090864025262e-31 -1.0
  outer loop
    vertex 6.084305797363527 51.99999999999991 72.31285591145429
    vertex 3.5843057973635326 100.0 72.31285591145429
    vertex 6.084305797363532 100.0 72.31285591145429
  endloop
endfacet
facet normal 1.0 -1.5384351043561115e-16 -2.7665474337261762e-15
  outer loop
    vertex 3.584305797363403 100.0 24.0
    vertex 3.5843057973634003 56.00000000000008 28.0
    vertex 3.5843057973633945 52.000000000000085 24.000000000000004
  endloop
endfacet
facet normal 1.0 -1.5384351043561115e-16 -2.7665474337261762e-15
  outer loop
    vertex 3.5843057973634003 56.00000000000008 28.0
    vertex 3.584305797363403 100.0 24.0
    vertex 3.5843057973634087 100.0 28.0
  endloop
endfacet
facet normal 1.0 -1.5384351043561115e-16 -2.7665474337261762e-15
  outer loop
    vertex 3.5843057973635273 51.99999999999991 72.31285591145429
    vertex 3.5843057973635157 56.00000000000008 68.31285591145429
    vertex 3.5843057973635326 100.0 72.31285591145429
  endloop
endfacet
facet normal 1.0 -1.5384351043561115e-16 -2.7665474337261762e-15
  outer loop
    vertex 3.5843057973635157 56.00000000000008 68.31285591145429
    vertex 3.5843057973635273 51.99999999999991 72.31285591145429
    vertex 3.5843057973633945 52.000000000000085 24.000000000000004
  endloop
endfacet
facet normal 1.0 -1.5384351043561115e-16 -2.7665474337261762e-15
  outer loop
    vertex 3.5843057973635157 56.00000000000008 68.31285591145429
    vertex 3.5843057973633945 52.000000000000085 24.000000000000004
    vertex 3.5843057973634003 56.00000000000008 28.0
  endloop
endfacet
facet normal 1.0 -1.5384351043561115e-16 -2.7665474337261762e-15
  outer loop
    vertex 3.5843057973635326 100.0 72.31285591145429
    vertex 3.5843057973635157 56.00000000000008 68.31285591145429
    vertex 3.584305797363523 100.0 68.31285591145429
  endloop
endfacet
facet normal 1.4687325429937224e-16 1.0 9.339018128727337e-16
  outer loop
    vertex 3.5843057973633945 52.000000000000085 24.000000000000004
    vertex 6.084305797363527 51.99999999999991 72.31285591145429
    vertex 6.0843057973633945 52.000000000000085 24.0
  endloop
endfacet
facet normal 1.4687325429937224e-16 1.0 9.339018128727337e-16
  outer loop
    vertex 6.084305797363527 51.99999999999991 72.31285591145429
    vertex 3.5843057973633945 52.000000000000085 24.000000000000004
    vertex 3.5843057973635273 51.99999999999991 72.31285591145429
  endloop
endfacet
facet normal 0.0 0.0 1.0
  outer loop
    vertex 12.338725553437534 50.0 96.75655366263864
    vertex 10.338725553437548 100.0 96.75655366263864
    vertex 10.338725553437534 50.0 96.75655366263864
  endloop
endfacet
facet normal 0.0 0.0 1.0
  outer loop
    vertex 10.338725553437548 100.0 96.75655366263864
    vertex 12.338725553437534 50.0 96.75655366263864
    vertex 12.338725553437547 100.0 96.75655366263864
  endloop
endfacet
facet normal 1.0 0.0 0.0
  outer loop
    vertex 12.338725553437547 100.0 92.661555119214
    vertex 12.338725553437534 50.0 96.75655366263864
    vertex 12.338725553437534 50.0 92.661555119214
  endloop
endfacet
facet normal 1.0 0.0 0.0
  outer loop
    vertex 12.338725553437534 50.0 96.75655366263864
    vertex 12.338725553437547 100.0 92.661555119214
    vertex 12.338725553437547 100.0 96.75655366263864
  endloop
endfacet
facet normal -1.0 0.0 0.0
  outer loop
    vertex 15.45887577988698 100.0 92.28821984377971
    vertex 15.45887577988698 50.0 90.16155511921401
    vertex 15.45887577988698 50.0 92.28821984377971
  endloop
endfacet
facet normal -1.0 0.0 0.0
  outer loop
    vertex 15.45887577988698 50.0 90.16155511921401
    vertex 15.45887577988698 100.0 92.28821984377971
    vertex 15.45887577988698 100.0 90.16155511921401
  endloop
endfacet
facet normal 1.2999462482188697e-15 1.0 1.1224301070796018e-14
  outer loop
    vertex 22.533813182559456 84.99999999999999 95.16155511921383
    vertex 39.88817063487224 84.99999999999999 93.15165430507047
    vertex 22.533813182559456 84.99999999999999 93.15165430507047
  endloop
endfacet
facet normal 1.2999462482188697e-15 1.0 1.1224301070796018e-14
  outer loop
    vertex 39.88817063487224 84.99999999999999 93.15165430507047
    vertex 22.533813182559456 84.99999999999999 95.16155511921383
    vertex 39.88817063487224 84.99999999999999 95.16155511921383
  endloop
endfacet
facet normal -1.0 1.2999462482188697e-15 2.918197613172065e-29
  outer loop
    vertex 39.88817063487225 100.0 95.161555119214
    vertex 39.88817063487224 84.99999999999999 93.15165430507047
    vertex 39.88817063487224 84.99999999999999 95.16155511921383
  endloop
endfacet
facet normal -1.0 1.2999462482188697e-15 2.918197613172065e-29
  outer loop
    vertex 39.88817063487224 84.99999999999999 93.15165430507047
    vertex 39.88817063487225 100.0 95.161555119214
    vertex 39.88817063487225 100.0 93.15165430507064
  endloop
endfacet
facet normal 0.0 -1.1224301070796018e-14 1.0
  outer loop
    vertex 39.88817063487224 84.99999999999999 93.15165430507047
    vertex 22.533813182559477 100.0 93.15165430507064
    vertex 22.533813182559456 84.99999999999999 93.15165430507047
  endloop
endfacet
facet normal 0.0 -1.1224301070796018e-14 1.0
  outer loop
    vertex 22.533813182559477 100.0 93.15165430507064
    vertex 39.88817063487224 84.99999999999999 93.15165430507047
    vertex 39.88817063487225 100.0 93.15165430507064
  endloop
endfacet
facet normal 1.0 -1.2999462482188697e-15 0.0
  outer loop
    vertex 22.533813182559477 100.0 93.15165430507064
    vertex 22.533813182559456 84.99999999999999 95.16155511921383
    vertex 22.533813182559456 84.99999999999999 93.15165430507047
  endloop
endfacet
facet normal 1.0 -1.2999462482188697e-15 0.0
  outer loop
    vertex 22.533813182559456 84.99999999999999 95.16155511921383
    vertex 22.533813182559477 100.0 93.15165430507064
    vertex 22.533813182559477 100.0 95.161555119214
  endloop
endfacet
facet normal -1.0 6.570521904336586e-15 -1.1735547814067431e-29
  outer loop
    vertex 16.458875779887638 100.00000000000036 95.16155511921376
    vertex 16.45887577988698 50.0 93.35155220606256
    vertex 16.45887577988698 50.0 95.161555119214
  endloop
endfacet
facet normal -1.0 6.570521904336586e-15 -1.1735547814067431e-29
  outer loop
    vertex 16.45887577988698 50.0 93.35155220606256
    vertex 16.458875779887638 100.00000000000036 95.16155511921376
    vertex 16.458875779887638 100.00000000000036 93.35155220606232
  endloop
endfacet
facet normal -4.7004125247633495e-06 7.953328397123982e-05 0.9999999968261815
  outer loop
    vertex 41.38143572549625 50.0 95.161555119214
    vertex 39.88815332840506 65.00000100675517 95.16606297885774
    vertex 39.88815332840459 50.000002420427 95.16806338575157
  endloop
endfacet
facet normal -4.7004125247633495e-06 7.953328397123982e-05 0.9999999968261815
  outer loop
    vertex 39.88815332840506 65.00000100675517 95.16606297885774
    vertex 41.38143572549625 50.0 95.161555119214
    vertex 39.88817063487224 84.99999999999999 95.16155511921383
  endloop
endfacet
facet normal -4.7004125247633495e-06 7.953328397123982e-05 0.9999999968261815
  outer loop
    vertex 39.88817063487224 84.99999999999999 95.16155511921383
    vertex 41.38143572549625 50.0 95.161555119214
    vertex 39.88817063487225 100.0 95.161555119214
  endloop
endfacet
facet normal -4.7004125247633495e-06 7.953328397123982e-05 0.9999999968261815
  outer loop
    vertex 39.88817063487225 100.0 95.161555119214
    vertex 41.38143572549625 50.0 95.161555119214
    vertex 41.38143572549625 100.0 95.161555119214
  endloop
endfacet
facet normal -4.7004125247633495e-06 7.953328397123982e-05 0.9999999968261815
  outer loop
    vertex 39.88815332840506 65.00000100675517 95.16606297885774
    vertex 22.533813182559456 84.99999999999999 95.16155511921383
    vertex 22.533782896243373 65.00000106327086 95.16745391033456
  endloop
endfacet
facet normal -4.7004125247633495e-06 7.953328397123982e-05 0.9999999968261815
  outer loop
    vertex 22.533813182559456 84.99999999999999 95.16155511921383
    vertex 39.88815332840506 65.00000100675517 95.16606297885774
    vertex 39.88817063487224 84.99999999999999 95.16155511921383
  endloop
endfacet
facet normal -4.7004125247633495e-06 7.953328397123982e-05 0.9999999968261815
  outer loop
    vertex 22.533782896243235 50.000002420427 95.16806338169988
    vertex 16.458875779887638 100.00000000000036 95.16155511921376
    vertex 16.45887577988698 50.0 95.161555119214
  endloop
endfacet
facet normal -4.7004125247633495e-06 7.953328397123982e-05 0.9999999968261815
  outer loop
    vertex 16.458875779887638 100.00000000000036 95.16155511921376
    vertex 22.533782896243235 50.000002420427 95.16806338169988
    vertex 22.533782896243373 65.00000106327086 95.16745391033456
  endloop
endfacet
facet normal -4.7004125247633495e-06 7.953328397123982e-05 0.9999999968261815
  outer loop
    vertex 16.458875779887638 100.00000000000036 95.16155511921376
    vertex 22.533782896243373 65.00000106327086 95.16745391033456
    vertex 22.533813182559477 100.0 95.161555119214
  endloop
endfacet
facet normal -4.7004125247633495e-06 7.953328397123982e-05 0.9999999968261815
  outer loop
    vertex 22.533813182559477 100.0 95.161555119214
    vertex 22.533782896243373 65.00000106327086 95.16745391033456
    vertex 22.533813182559456 84.99999999999999 95.16155511921383
  endloop
endfacet
facet normal -0.9999999994636015 4.368064511486398e-09 3.2753583075903576e-05
  outer loop
    vertex 39.88815332840506 65.00000100675517 95.16606297885774
    vertex 39.8880871837726 50.00027531082431 93.14860087396151
    vertex 39.88815332840459 50.000002420427 95.16806338575157
  endloop
endfacet
facet normal -0.9999999994636015 4.368064511486398e-09 3.2753583075903576e-05
  outer loop
    vertex 39.8880871837726 50.00027531082431 93.14860087396151
    vertex 39.88815332840506 65.00000100675517 95.16606297885774
    vertex 39.88808718377307 65.00027389715247 93.14660046706767
  endloop
endfacet
facet normal -1.4087088675043834e-08 -0.999999990869913 -0.00013513021027801252
  outer loop
    vertex 39.88815332840506 65.00000100675517 95.16606297885774
    vertex 22.53371675161138 65.00027395366817 93.1479913985445
    vertex 39.88808718377307 65.00027389715247 93.14660046706767
  endloop
endfacet
facet normal -1.4087088675043834e-08 -0.999999990869913 -0.00013513021027801252
  outer loop
    vertex 22.53371675161138 65.00027395366817 93.1479913985445
    vertex 39.88815332840506 65.00000100675517 95.16606297885774
    vertex 22.533782896243373 65.00000106327086 95.16745391033456
  endloop
endfacet
facet normal 0.9999999994636015 -1.3308342367098106e-09 -3.2753582665482014e-05
  outer loop
    vertex 22.53371675161124 50.00027531082431 93.14860086990981
    vertex 22.533782896243373 65.00000106327086 95.16745391033456
    vertex 22.533782896243235 50.000002420427 95.16806338169988
  endloop
endfacet
facet normal 0.9999999994636015 -1.3308342367098106e-09 -3.2753582665482014e-05
  outer loop
    vertex 22.533782896243373 65.00000106327086 95.16745391033456
    vertex 22.53371675161124 50.00027531082431 93.14860086990981
    vertex 22.53371675161138 65.00027395366817 93.1479913985445
  endloop
endfacet
facet normal 4.007426916186175e-05 8.699594952038924e-05 0.9999999954128789
  outer loop
    vertex 39.8880871837726 50.00027531082431 93.14860087396151
    vertex 22.53371675161138 65.00027395366817 93.1479913985445
    vertex 22.53371675161124 50.00027531082431 93.14860086990981
  endloop
endfacet
facet normal 4.007426916186175e-05 8.699594952038924e-05 0.9999999954128789
  outer loop
    vertex 22.53371675161138 65.00027395366817 93.1479913985445
    vertex 39.8880871837726 50.00027531082431 93.14860087396151
    vertex 39.88808718377307 65.00027389715247 93.14660046706767
  endloop
endfacet
facet normal 2.313573585145012e-06 -0.9999999999973186 -1.0237911445944843e-07
  outer loop
    vertex 6.084305797363393 50.0 74.31285591145429
    vertex 1.9999999999999962 50.0 22.000000000000004
    vertex 6.084305797363383 50.0 22.000000000000004
  endloop
endfacet
facet normal 2.313573585145012e-06 -0.9999999999973186 -1.0237911445944843e-07
  outer loop
    vertex 22.53371675161124 50.00027531082431 93.14860086990981
    vertex 16.45887577988698 50.0 93.35155220606256
    vertex 15.45887577988698 50.0 92.28821984377971
  endloop
endfacet
facet normal 2.313573585145012e-06 -0.9999999999973186 -1.0237911445944843e-07
  outer loop
    vertex 16.45887577988698 50.0 93.35155220606256
    vertex 22.53371675161124 50.00027531082431 93.14860086990981
    vertex 22.533782896243235 50.000002420427 95.16806338169988
  endloop
endfacet
facet normal 2.313573585145012e-06 -0.9999999999973186 -1.0237911445944843e-07
  outer loop
    vertex 16.45887577988698 50.0 93.35155220606256
    vertex 22.533782896243235 50.000002420427 95.16806338169988
    vertex 16.45887577988698 50.0 95.161555119214
  endloop
endfacet
facet normal 2.313573585145012e-06 -0.9999999999973186 -1.0237911445944843e-07
  outer loop
    vertex 41.38143572549624 50.0 90.99999999999997
    vertex 39.8880871837726 50.00027531082431 93.14860087396151
    vertex 20.81993349614744 50.0 90.99999999999997
  endloop
endfacet
facet normal 2.313573585145012e-06 -0.9999999999973186 -1.0237911445944843e-07
  outer loop
    vertex 39.8880871837726 50.00027531082431 93.14860087396151
    vertex 41.38143572549624 50.0 90.99999999999997
    vertex 41.38143572549625 50.0 95.161555119214
  endloop
endfacet
facet normal 2.313573585145012e-06 -0.9999999999973186 -1.0237911445944843e-07
  outer loop
    vertex 20.81993349614744 50.0 90.99999999999997
    vertex 39.8880871837726 50.00027531082431 93.14860087396151
    vertex 15.45887577988698 50.0 92.28821984377971
  endloop
endfacet
facet normal 2.313573585145012e-06 -0.9999999999973186 -1.0237911445944843e-07
  outer loop
    vertex 15.45887577988698 50.0 92.28821984377971
    vertex 39.8880871837726 50.00027531082431 93.14860087396151
    vertex 22.53371675161124 50.00027531082431 93.14860086990981
  endloop
endfacet
facet normal 2.313573585145012e-06 -0.9999999999973186 -1.0237911445944843e-07
  outer loop
    vertex 39.8880871837726 50.00027531082431 93.14860087396151
    vertex 41.38143572549625 50.0 95.161555119214
    vertex 39.88815332840459 50.000002420427 95.16806338575157
  endloop
endfacet
facet normal 2.313573585145012e-06 -0.9999999999973186 -1.0237911445944843e-07
  outer loop
    vertex 0.0 50.0 5.287437154777308e-15
    vertex 1.9999999999999962 50.0 1.7500000000000049
    vertex 9.010674151266328e-15 50.0 84.80090252963186
  endloop
endfacet
facet normal 2.313573585145012e-06 -0.9999999999973186 -1.0237911445944843e-07
  outer loop
    vertex 1.9999999999999962 50.0 1.7500000000000049
    vertex 0.0 50.0 5.287437154777308e-15
    vertex 3.9999999999999925 50.0 6.697420396051256e-15
  endloop
endfacet
facet normal 2.313573585145012e-06 -0.9999999999973186 -1.0237911445944843e-07
  outer loop
    vertex 1.9999999999999962 50.0 1.7500000000000049
    vertex 3.9999999999999925 50.0 6.697420396051256e-15
    vertex 3.9999999999999925 50.0 1.7500000000000049
  endloop
endfacet
facet normal 2.313573585145012e-06 -0.9999999999973186 -1.0237911445944843e-07
  outer loop
    vertex 9.010674151266328e-15 50.0 84.80090252963186
    vertex 1.9999999999999962 50.0 1.7500000000000049
    vertex 1.9999999999999962 50.0 22.000000000000004
  endloop
endfacet
facet normal 2.313573585145012e-06 -0.9999999999973186 -1.0237911445944843e-07
  outer loop
    vertex 9.010674151266328e-15 50.0 84.80090252963186
    vertex 1.9999999999999962 50.0 22.000000000000004
    vertex 6.084305797363393 50.0 74.31285591145429
  endloop
endfacet
facet normal 2.313573585145012e-06 -0.9999999999973186 -1.0237911445944843e-07
  outer loop
    vertex 9.010674151266328e-15 50.0 84.80090252963186
    vertex 6.084305797363393 50.0 74.31285591145429
    vertex 13.2187464349481 50.0 83.44845403107033
  endloop
endfacet
facet normal 2.313573585145012e-06 -0.9999999999973186 -1.0237911445944843e-07
  outer loop
    vertex 9.010674151266328e-15 50.0 84.80090252963186
    vertex 13.2187464349481 50.0 83.44845403107033
    vertex 20.81993349614744 50.0 90.99999999999997
  endloop
endfacet
facet normal 2.313573585145012e-06 -0.9999999999973186 -1.0237911445944843e-07
  outer loop
    vertex 9.010674151266328e-15 50.0 84.80090252963186
    vertex 20.81993349614744 50.0 90.99999999999997
    vertex 15.45887577988698 50.0 90.16155511921401
  endloop
endfacet
facet normal 2.313573585145012e-06 -0.9999999999973186 -1.0237911445944843e-07
  outer loop
    vertex 9.010674151266328e-15 50.0 84.80090252963186
    vertex 15.45887577988698 50.0 90.16155511921401
    vertex 3.0943770258460086 50.0 89.0534034295928
  endloop
endfacet
facet normal 2.313573585145012e-06 -0.9999999999973186 -1.0237911445944843e-07
  outer loop
    vertex 15.45887577988698 50.0 90.16155511921401
    vertex 20.81993349614744 50.0 90.99999999999997
    vertex 15.45887577988698 50.0 92.28821984377971
  endloop
endfacet
facet normal 2.313573585145012e-06 -0.9999999999973186 -1.0237911445944843e-07
  outer loop
    vertex 12.338725553437534 50.0 96.75655366263864
    vertex 10.338725553437447 50.0 92.661555119214
    vertex 12.338725553437534 50.0 92.661555119214
  endloop
endfacet
facet normal 2.313573585145012e-06 -0.9999999999973186 -1.0237911445944843e-07
  outer loop
    vertex 3.0943770258460086 50.0 89.0534034295928
    vertex 10.338725553437447 50.0 92.661555119214
    vertex 10.338725553437534 50.0 96.75655366263864
  endloop
endfacet
facet normal 2.313573585145012e-06 -0.9999999999973186 -1.0237911445944843e-07
  outer loop
    vertex 10.338725553437447 50.0 92.661555119214
    vertex 3.0943770258460086 50.0 89.0534034295928
    vertex 10.338725553437447 50.0 90.16155511921401
  endloop
endfacet
facet normal 2.313573585145012e-06 -0.9999999999973186 -1.0237911445944843e-07
  outer loop
    vertex 10.338725553437447 50.0 90.16155511921401
    vertex 3.0943770258460086 50.0 89.0534034295928
    vertex 15.45887577988698 50.0 90.16155511921401
  endloop
endfacet
facet normal 2.313573585145012e-06 -0.9999999999973186 -1.0237911445944843e-07
  outer loop
    vertex 10.338725553437534 50.0 96.75655366263864
    vertex 10.338725553437447 50.0 92.661555119214
    vertex 12.338725553437534 50.0 96.75655366263864
  endloop
endfacet
endsolid Dome Wall Support - Left End
