solid Structure - Back Right - Exterior
facet normal -0.0007257073784967756 -6.393874120587429e-06 0.9999997366539249
  outer loop
    vertex 2.0518782152947876 10.000699928958255 1.749402128657585
    vertex 4.05308050357367 46.00073416475396 1.751084596054365
    vertex 2.0518353847853565 46.000742835094556 1.7496322773784545
  endloop
endfacet
facet normal -0.0007257073784967756 -6.393874120587429e-06 0.9999997366539249
  outer loop
    vertex 4.05308050357367 46.00073416475396 1.751084596054365
    vertex 2.0518782152947876 10.000699928958255 1.749402128657585
    vertex 4.053123334083105 10.000691258617657 1.7508544473334953
  endloop
endfacet
facet normal 0.9999997408769584 5.319238570729102e-06 0.0007198734068710146
  outer loop
    vertex 2.0518782152947876 10.000699928958255 1.749402128657585
    vertex 2.0368933204961777 46.00055032879004 22.299397342559292
    vertex 2.0372330288115177 10.0005764521766 22.30024819225741
  endloop
endfacet
facet normal 0.9999997408769584 5.319238570729102e-06 0.0007198734068710146
  outer loop
    vertex 2.0368933204961777 46.00055032879004 22.299397342559292
    vertex 2.0518782152947876 10.000699928958255 1.749402128657585
    vertex 2.0518353847853565 46.000742835094556 1.7496322773784545
  endloop
endfacet
facet normal -6.124132214190232e-08 0.9999999999846696 5.536896631321749e-06
  outer loop
    vertex 52.48943779992887 46.00020059036326 89.37887558265203
    vertex 54.53722004149 46.000602727660194 22.329221525517
    vertex 52.53722054933411 46.0006024968274 22.327796262005222
  endloop
endfacet
facet normal -6.124132214190232e-08 0.9999999999846696 5.536896631321749e-06
  outer loop
    vertex 54.53722004149 46.000602727660194 22.329221525517
    vertex 52.48943779992887 46.00020059036326 89.37887558265203
    vertex 54.49086436996569 46.000278850641045 87.38030135682384
  endloop
endfacet
facet normal -6.124132214190232e-08 0.9999999999846696 5.536896631321749e-06
  outer loop
    vertex 54.49086436996569 46.000278850641045 87.38030135682384
    vertex 52.48943779992887 46.00020059036326 89.37887558265203
    vertex 95.49085390355957 46.00027853056817 87.40959728261754
  endloop
endfacet
facet normal -6.124132214190232e-08 0.9999999999846696 5.536896631321749e-06
  outer loop
    vertex 95.49085390355957 46.00027853056817 87.40959728261754
    vertex 52.48943779992887 46.00020059036326 89.37887558265203
    vertex 95.48942679794597 46.000200493462714 89.40963578653646
  endloop
endfacet
facet normal -0.9999997565954786 -7.187467253781257e-07 -0.0006977166095899701
  outer loop
    vertex 95.46559499058192 0.0 122.85812721336875
    vertex 95.47539423876052 2.0000299217806328 109.11469866080435
    vertex 95.49157270322362 0.00017623136228834822 85.33560540969175
  endloop
endfacet
facet normal -0.9999997565954786 -7.187467253781257e-07 -0.0006977166095899701
  outer loop
    vertex 95.47539423876052 2.0000299217806328 109.11469866080435
    vertex 95.46559499058192 0.0 122.85812721336875
    vertex 95.46559498203918 3.99999999992717 122.85815118949934
  endloop
endfacet
facet normal -0.9999997565954786 -7.187467253781257e-07 -0.0006977166095899701
  outer loop
    vertex 95.47539423876052 2.0000299217806328 109.11469866080435
    vertex 95.46559498203918 3.99999999992717 122.85815118949934
    vertex 95.47538898916402 4.000029921674057 109.114718628544
  endloop
endfacet
facet normal -0.9999997565954786 -7.187467253781257e-07 -0.0006977166095899701
  outer loop
    vertex 95.49157270322362 0.00017623136228834822 85.33560540969175
    vertex 95.48943912634385 2.0002005119138544 89.40622154212399
    vertex 95.49125735356046 20.75021780999422 85.34246538349235
  endloop
endfacet
facet normal -0.9999997565954786 -7.187467253781257e-07 -0.0006977166095899701
  outer loop
    vertex 95.48943912634385 2.0002005119138544 89.40622154212399
    vertex 95.49157270322362 0.00017623136228834822 85.33560540969175
    vertex 95.47539423876052 2.0000299217806328 109.11469866080435
  endloop
endfacet
facet normal -0.9999997565954786 -7.187467253781257e-07 -0.0006977166095899701
  outer loop
    vertex 95.49125735356046 20.75021780999422 85.34246538349235
    vertex 95.48943912634385 2.0002005119138544 89.40622154212399
    vertex 95.49061879558539 20.750217819940627 87.40786632655899
  endloop
endfacet
facet normal -0.9999997565954786 -7.187467253781257e-07 -0.0006977166095899701
  outer loop
    vertex 95.49061879558539 20.750217819940627 87.40786632655899
    vertex 95.48943912634385 2.0002005119138544 89.40622154212399
    vertex 95.4894335687321 21.50020051028918 89.40786592285733
  endloop
endfacet
facet normal -0.9999997565954786 -7.187467253781257e-07 -0.0006977166095899701
  outer loop
    vertex 95.49061879558539 20.750217819940627 87.40786632655899
    vertex 95.4894335687321 21.50020051028918 89.40786592285733
    vertex 95.49037859082347 21.500392941097278 87.40786615538143
  endloop
endfacet
facet normal -0.9999997460779514 -1.1541640284896955e-07 -0.0007126317558883661
  outer loop
    vertex 54.49086403684846 48.00027884408473 87.38045741551554
    vertex 54.53722004149 46.000602727660194 22.329221525517
    vertex 54.49086436996569 46.000278850641045 87.38030135682384
  endloop
endfacet
facet normal -0.9999997460779514 -1.1541640284896955e-07 -0.0007126317558883661
  outer loop
    vertex 54.53722004149 46.000602727660194 22.329221525517
    vertex 54.49086403684846 48.00027884408473 87.38045741551554
    vertex 54.537219792752026 48.00060272196377 22.32923412259125
  endloop
endfacet
facet normal -0.0007135831963360978 -5.852208371258457e-05 0.9999997436870609
  outer loop
    vertex 54.49086436996569 46.000278850641045 87.38030135682384
    vertex 95.49085362604856 48.00027852588477 87.40967531188433
    vertex 54.49086403684846 48.00027884408473 87.38045741551554
  endloop
endfacet
facet normal -0.0007135831963360978 -5.852208371258457e-05 0.9999997436870609
  outer loop
    vertex 95.49085362604856 48.00027852588477 87.40967531188433
    vertex 54.49086436996569 46.000278850641045 87.38030135682384
    vertex 95.49085390355957 46.00027853056817 87.40959728261754
  endloop
endfacet
facet normal 0.018382804898297328 -0.0001681293513175854 0.9998310078291194
  outer loop
    vertex 91.97047296161114 0.00022449551997922866 85.4037087946491
    vertex 95.49125735356046 20.75021780999422 85.34246538349235
    vertex 91.97047291729426 20.750235362639074 85.40383317089338
  endloop
endfacet
facet normal 0.018382804898297328 -0.0001681293513175854 0.9998310078291194
  outer loop
    vertex 95.49125735356046 20.75021780999422 85.34246538349235
    vertex 91.97047296161114 0.00022449551997922866 85.4037087946491
    vertex 95.49157270322362 0.00017623136228834822 85.33560540969175
  endloop
endfacet
facet normal 0.0006095389426287717 0.00021848699586616936 -0.999999790362833
  outer loop
    vertex 91.24085635234232 29.25021778165131 87.40738825267356
    vertex 91.9903777192978 28.500392830769396 87.40688587399144
    vertex 91.24086008888197 20.750217827569696 87.40482624568166
  endloop
endfacet
facet normal 0.0006095389426287717 0.00021848699586616936 -0.999999790362833
  outer loop
    vertex 91.9903777192978 28.500392830769396 87.40688587399144
    vertex 91.24085635234232 29.25021778165131 87.40738825267356
    vertex 95.49067728407289 29.250217777399612 87.41042837806383
  endloop
endfacet
facet normal 0.0006095389426287717 0.00021848699586616936 -0.999999790362833
  outer loop
    vertex 91.9903777192978 28.500392830769396 87.40688587399144
    vertex 95.49067728407289 29.250217777399612 87.41042837806383
    vertex 95.49037629466962 28.500393654089788 87.40887833914512
  endloop
endfacet
facet normal 0.0006095389426287717 0.00021848699586616936 -0.999999790362833
  outer loop
    vertex 91.24086008888197 20.750217827569696 87.40482624568166
    vertex 91.9903795299824 21.50039206247757 87.40655104373695
    vertex 95.49061879558539 20.750217819940627 87.40786632655899
  endloop
endfacet
facet normal 0.0006095389426287717 0.00021848699586616936 -0.999999790362833
  outer loop
    vertex 91.9903795299824 21.50039206247757 87.40655104373695
    vertex 91.24086008888197 20.750217827569696 87.40482624568166
    vertex 91.9903777192978 28.500392830769396 87.40688587399144
  endloop
endfacet
facet normal 0.0006095389426287717 0.00021848699586616936 -0.999999790362833
  outer loop
    vertex 95.49061879558539 20.750217819940627 87.40786632655899
    vertex 91.9903795299824 21.50039206247757 87.40655104373695
    vertex 95.49037859082347 21.500392941097278 87.40786615538143
  endloop
endfacet
facet normal 0.11052527301183729 5.95754522728635e-06 -0.9938733138535146
  outer loop
    vertex 91.97047285909507 48.00022158964415 85.40399650820271
    vertex 82.65562718278302 0.00023068467999394214 84.36783645721854
    vertex 82.65562708026755 48.00022777880443 84.36812417077226
  endloop
endfacet
facet normal 0.11052527301183729 5.95754522728635e-06 -0.9938733138535146
  outer loop
    vertex 82.65562718278302 0.00023068467999394214 84.36783645721854
    vertex 91.97047285909507 48.00022158964415 85.40399650820271
    vertex 91.24234181702722 29.250235818878302 85.32291113748406
  endloop
endfacet
facet normal 0.11052527301183729 5.95754522728635e-06 -0.9938733138535146
  outer loop
    vertex 91.24234181702722 29.250235818878302 85.32291113748406
    vertex 91.97047285909507 48.00022158964415 85.40399650820271
    vertex 91.97047289914038 29.250235335078536 85.4038841201714
  endloop
endfacet
facet normal 0.11052527301183729 5.95754522728635e-06 -0.9938733138535146
  outer loop
    vertex 82.65562718278302 0.00023068467999394214 84.36783645721854
    vertex 91.24234183518111 20.750235846438752 85.32286018820602
    vertex 91.97047296161114 0.00022449551997922866 85.4037087946491
  endloop
endfacet
facet normal 0.11052527301183729 5.95754522728635e-06 -0.9938733138535146
  outer loop
    vertex 91.24234183518111 20.750235846438752 85.32286018820602
    vertex 82.65562718278302 0.00023068467999394214 84.36783645721854
    vertex 91.24234181702722 29.250235818878302 85.32291113748406
  endloop
endfacet
facet normal 0.11052527301183729 5.95754522728635e-06 -0.9938733138535146
  outer loop
    vertex 91.97047296161114 0.00022449551997922866 85.4037087946491
    vertex 91.24234183518111 20.750235846438752 85.32286018820602
    vertex 91.97047291729426 20.750235362639074 85.40383317089338
  endloop
endfacet
facet normal -0.9999998448811173 2.602698720812351e-05 -0.0005563814675538805
  outer loop
    vertex 95.48942679794597 46.000200493462714 89.40963578653646
    vertex 95.49037629466962 28.500393654089788 87.40887833914512
    vertex 95.48943127257824 28.500201223281685 89.408878106621
  endloop
endfacet
facet normal -0.9999998448811173 2.602698720812351e-05 -0.0005563814675538805
  outer loop
    vertex 95.49037629466962 28.500393654089788 87.40887833914512
    vertex 95.48942679794597 46.000200493462714 89.40963578653646
    vertex 95.49067728407289 29.250217777399612 87.41042837806383
  endloop
endfacet
facet normal -0.9999998448811173 2.602698720812351e-05 -0.0005563814675538805
  outer loop
    vertex 95.49067728407289 29.250217777399612 87.41042837806383
    vertex 95.49232036557538 48.00025638739905 85.35147425945799
    vertex 95.49113310944534 29.25021775961803 85.34527548759098
  endloop
endfacet
facet normal -0.9999998448811173 2.602698720812351e-05 -0.0005563814675538805
  outer loop
    vertex 95.49232036557538 48.00025638739905 85.35147425945799
    vertex 95.49067728407289 29.250217777399612 87.41042837806383
    vertex 95.49085390355957 46.00027853056817 87.40959728261754
  endloop
endfacet
facet normal -0.9999998448811173 2.602698720812351e-05 -0.0005563814675538805
  outer loop
    vertex 95.49085390355957 46.00027853056817 87.40959728261754
    vertex 95.49067728407289 29.250217777399612 87.41042837806383
    vertex 95.48942679794597 46.000200493462714 89.40963578653646
  endloop
endfacet
facet normal -0.9999998448811173 2.602698720812351e-05 -0.0005563814675538805
  outer loop
    vertex 95.49232036557538 48.00025638739905 85.35147425945799
    vertex 95.49085390355957 46.00027853056817 87.40959728261754
    vertex 95.49085362604856 48.00027852588477 87.40967531188433
  endloop
endfacet
facet normal -2.398072767790189e-06 -0.9999999999836218 -5.196711182859792e-06
  outer loop
    vertex 95.49061879558539 20.750217819940627 87.40786632655899
    vertex 91.97047291729426 20.750235362639074 85.40383317089338
    vertex 95.49125735356046 20.75021780999422 85.34246538349235
  endloop
endfacet
facet normal -2.398072767790189e-06 -0.9999999999836218 -5.196711182859792e-06
  outer loop
    vertex 91.97047291729426 20.750235362639074 85.40383317089338
    vertex 95.49061879558539 20.750217819940627 87.40786632655899
    vertex 91.24086008888197 20.750217827569696 87.40482624568166
  endloop
endfacet
facet normal -2.398072767790189e-06 -0.9999999999836218 -5.196711182859792e-06
  outer loop
    vertex 91.24086008888197 20.750217827569696 87.40482624568166
    vertex 91.24234183518111 20.750235846438752 85.32286018820602
    vertex 91.97047291729426 20.750235362639074 85.40383317089338
  endloop
endfacet
facet normal 0.9999997464076654 1.1140154718547724e-07 0.0007121689354369158
  outer loop
    vertex 91.24234183518111 20.750235846438752 85.32286018820602
    vertex 91.24085635234232 29.25021778165131 87.40738825267356
    vertex 91.24086008888197 20.750217827569696 87.40482624568166
  endloop
endfacet
facet normal 0.9999997464076654 1.1140154718547724e-07 0.0007121689354369158
  outer loop
    vertex 91.24085635234232 29.25021778165131 87.40738825267356
    vertex 91.24234183518111 20.750235846438752 85.32286018820602
    vertex 91.24234181702722 29.250235818878302 85.32291113748406
  endloop
endfacet
facet normal -2.6247982473112286e-06 0.9999999999467164 9.98386983212455e-06
  outer loop
    vertex 85.47539169954044 1.999977464927096 109.11469866048994
    vertex 95.48943912634385 2.0002005119138544 89.40622154212399
    vertex 85.48944166556332 2.0002005439506587 89.39909522590378
  endloop
endfacet
facet normal -2.6247982473112286e-06 0.9999999999467164 9.98386983212455e-06
  outer loop
    vertex 95.48943912634385 2.0002005119138544 89.40622154212399
    vertex 85.47539169954044 1.999977464927096 109.11469866048994
    vertex 95.47539423876052 2.0000299217806328 109.11469866080435
  endloop
endfacet
facet normal -0.0007053644182705359 -4.561670776872178e-05 0.9999997501900455
  outer loop
    vertex 0.035813454896533516 0.0005906161670147014 24.290095906545687
    vertex 4.035731562622988 10.000590607437193 24.293007104914693
    vertex 0.03581343353933949 10.000590615982457 24.29158147589387
  endloop
endfacet
facet normal -0.0007053644182705359 -4.561670776872178e-05 0.9999997501900455
  outer loop
    vertex 4.035731562622988 10.000590607437193 24.293007104914693
    vertex 0.035813454896533516 0.0005906161670147014 24.290095906545687
    vertex 4.0357322545329835 4.000561426305107 24.29297035185371
  endloop
endfacet
facet normal -0.0007053644182705359 -4.561670776872178e-05 0.9999997501900455
  outer loop
    vertex 4.0357322545329835 4.000561426305107 24.29297035185371
    vertex 0.035813454896533516 0.0005906161670147014 24.290095906545687
    vertex 56.535799108306264 0.0005904954974454312 24.330359593190412
  endloop
endfacet
facet normal -0.0007053644182705359 -4.561670776872178e-05 0.9999997501900455
  outer loop
    vertex 4.0357322545329835 4.000561426305107 24.29297035185371
    vertex 56.535799108306264 0.0005904954974454312 24.330359593190412
    vertex 52.53580011545088 4.000522209920088 24.32753304242362
  endloop
endfacet
facet normal -0.0007053644182705359 -4.561670776872178e-05 0.9999997501900455
  outer loop
    vertex 52.53580011545088 4.000522209920088 24.32753304242362
    vertex 56.535799108306264 0.0005904954974454312 24.330359593190412
    vertex 56.53579908694925 10.000590495314333 24.33041953351748
  endloop
endfacet
facet normal -0.0007053644182705359 -4.561670776872178e-05 0.9999997501900455
  outer loop
    vertex 56.53579908694925 10.000590495314333 24.33041953351748
    vertex 52.53580010263822 10.000590503858334 24.327569007029307
    vertex 52.53580011545088 4.000522209920088 24.32753304242362
  endloop
endfacet
facet normal -0.0005425322412149112 2.0261930178942973e-05 0.9999998526240998
  outer loop
    vertex 2.0372330288115177 10.0005764521766 22.30024819225741
    vertex 2.036893572281917 48.00055033302649 22.29904402385437
    vertex 2.0368933204961777 46.00055032879004 22.299397342559292
  endloop
endfacet
facet normal -0.0005425322412149112 2.0261930178942973e-05 0.9999998526240998
  outer loop
    vertex 2.036893572281917 48.00055033302649 22.29904402385437
    vertex 2.0372330288115177 10.0005764521766 22.30024819225741
    vertex 4.036807899906166 48.00046916089255 22.301199426236547
  endloop
endfacet
facet normal -0.0005425322412149112 2.0261930178942973e-05 0.9999998526240998
  outer loop
    vertex 4.036807899906166 48.00046916089255 22.301199426236547
    vertex 2.0372330288115177 10.0005764521766 22.30024819225741
    vertex 4.036812286096293 10.00055034797996 22.300960871242545
  endloop
endfacet
facet normal 3.376938234409221e-07 0.9999999999832241 5.782565211182471e-06
  outer loop
    vertex 0.053124387043884176 10.000708411446851 0.0
    vertex 2.0518782152947876 10.000699928958255 1.749402128657585
    vertex 4.0531233340831285 10.000708398317538 0.0029028297126229494
  endloop
endfacet
facet normal 3.376938234409221e-07 0.9999999999832241 5.782565211182471e-06
  outer loop
    vertex 2.0518782152947876 10.000699928958255 1.749402128657585
    vertex 0.053124387043884176 10.000708411446851 0.0
    vertex 0.03581343353933949 10.000590615982457 24.29158147589387
  endloop
endfacet
facet normal 3.376938234409221e-07 0.9999999999832241 5.782565211182471e-06
  outer loop
    vertex 2.0518782152947876 10.000699928958255 1.749402128657585
    vertex 0.03581343353933949 10.000590615982457 24.29158147589387
    vertex 2.0372330288115177 10.0005764521766 22.30024819225741
  endloop
endfacet
facet normal 3.376938234409221e-07 0.9999999999832241 5.782565211182471e-06
  outer loop
    vertex 2.0372330288115177 10.0005764521766 22.30024819225741
    vertex 0.03581343353933949 10.000590615982457 24.29158147589387
    vertex 4.036812286096293 10.00055034797996 22.300960871242545
  endloop
endfacet
facet normal 3.376938234409221e-07 0.9999999999832241 5.782565211182471e-06
  outer loop
    vertex 4.036812286096293 10.00055034797996 22.300960871242545
    vertex 0.03581343353933949 10.000590615982457 24.29158147589387
    vertex 4.035731562622988 10.000590607437193 24.293007104914693
  endloop
endfacet
facet normal 3.376938234409221e-07 0.9999999999832241 5.782565211182471e-06
  outer loop
    vertex 4.053123334083105 10.000691258617657 1.7508544473334953
    vertex 4.0531233340831285 10.000708398317538 0.0029028297126229494
    vertex 2.0518782152947876 10.000699928958255 1.749402128657585
  endloop
endfacet
facet normal -0.000705364418270536 -4.561670776872179e-05 0.9999997501900455
  outer loop
    vertex 0.035813454896533516 0.0005906161670147014 24.290095906545687
    vertex 4.035731562622988 10.000590607437193 24.293007104914693
    vertex 0.03581343353933949 10.000590615982457 24.29158147589387
  endloop
endfacet
facet normal -0.000705364418270536 -4.561670776872179e-05 0.9999997501900455
  outer loop
    vertex 4.035731562622988 10.000590607437193 24.293007104914693
    vertex 0.035813454896533516 0.0005906161670147014 24.290095906545687
    vertex 4.0357322545329835 4.000561426305107 24.29297035185371
  endloop
endfacet
facet normal -0.000705364418270536 -4.561670776872179e-05 0.9999997501900455
  outer loop
    vertex 4.0357322545329835 4.000561426305107 24.29297035185371
    vertex 0.035813454896533516 0.0005906161670147014 24.290095906545687
    vertex 56.535799108306264 0.0005904954974454312 24.330359593190412
  endloop
endfacet
facet normal -0.000705364418270536 -4.561670776872179e-05 0.9999997501900455
  outer loop
    vertex 4.0357322545329835 4.000561426305107 24.29297035185371
    vertex 56.535799108306264 0.0005904954974454312 24.330359593190412
    vertex 52.53580011545088 4.000522209920088 24.32753304242362
  endloop
endfacet
facet normal -0.000705364418270536 -4.561670776872179e-05 0.9999997501900455
  outer loop
    vertex 52.53580011545088 4.000522209920088 24.32753304242362
    vertex 56.535799108306264 0.0005904954974454312 24.330359593190412
    vertex 56.53579908694925 10.000590495314333 24.33041953351748
  endloop
endfacet
facet normal -0.000705364418270536 -4.561670776872179e-05 0.9999997501900455
  outer loop
    vertex 56.53579908694925 10.000590495314333 24.33041953351748
    vertex 52.53580010263822 10.000590503858334 24.327569007029307
    vertex 52.53580011545088 4.000522209920088 24.32753304242362
  endloop
endfacet
facet normal -2.093073614434494e-11 9.983869832104005e-06 -0.9999999999501613
  outer loop
    vertex 95.47538898916402 4.000029921674057 109.114718628544
    vertex 85.47539169954044 1.999977464927096 109.11469866048994
    vertex 85.47538644994394 3.99997746482052 109.11471862822958
  endloop
endfacet
facet normal -2.093073614434494e-11 9.983869832104005e-06 -0.9999999999501613
  outer loop
    vertex 85.47539169954044 1.999977464927096 109.11469866048994
    vertex 95.47538898916402 4.000029921674057 109.114718628544
    vertex 95.47539423876052 2.0000299217806328 109.11469866080435
  endloop
endfacet
facet normal 0.35421916060123326 5.606150790636424e-06 -0.9351624384199404
  outer loop
    vertex 73.5440608722277 48.000240917229775 82.17296025452994
    vertex 64.77946917957946 0.0002637035963395817 78.85283609220944
    vertex 64.7794690770651 48.00026079771915 78.85312380576376
  endloop
endfacet
facet normal 0.35421916060123326 5.606150790636424e-06 -0.9351624384199404
  outer loop
    vertex 64.77946917957946 0.0002637035963395817 78.85283609220944
    vertex 73.5440608722277 48.000240917229775 82.17296025452994
    vertex 73.54406097474488 0.00024382310561037456 82.1726725409765
  endloop
endfacet
facet normal -0.42643164130937 -2.5177684267495686e-05 0.9045197922965982
  outer loop
    vertex 41.5190697422851 8.315448076814391e-05 108.9660278512304
    vertex 45.97398569303572 4.000070575233743 111.06625514859478
    vertex 41.5190697337417 4.000083154406765 108.96605182736113
  endloop
endfacet
facet normal -0.42643164130937 -2.5177684267495686e-05 0.9045197922965982
  outer loop
    vertex 45.97398569303572 4.000070575233743 111.06625514859478
    vertex 41.5190697422851 8.315448076814391e-05 108.9660278512304
    vertex 54.241260430726356 4.723132533968055e-05 114.96371386402421
  endloop
endfacet
facet normal -0.42643164130937 -2.5177684267495686e-05 0.9045197922965982
  outer loop
    vertex 45.97398569303572 4.000070575233743 111.06625514859478
    vertex 54.241260430726356 4.723132533968055e-05 114.96371386402421
    vertex 54.24074300688701 3.993948547616883 114.9637364596409
  endloop
endfacet
facet normal -0.0003740432841076069 2.180902735068984e-05 0.9999999298079916
  outer loop
    vertex 9.824514460091137e-08 0.000289385618641802 74.54515960316488
    vertex 2.0358125970226775 46.00028936194618 74.54560505537228
    vertex 0.0 46.00028936194708 74.54543532867046
  endloop
endfacet
facet normal -0.0003740432841076069 2.180902735068984e-05 0.9999999298079916
  outer loop
    vertex 2.0358125970226775 46.00028936194618 74.54560505537228
    vertex 9.824514460091137e-08 0.000289385618641802 74.54515960316488
    vertex 3.6543390672849863 0.0002893778141476844 74.54776380133323
  endloop
endfacet
facet normal -0.0003740432841076069 2.180902735068984e-05 0.9999999298079916
  outer loop
    vertex 2.0358125970226775 46.00028936194618 74.54560505537228
    vertex 3.6543390672849863 0.0002893778141476844 74.54776380133323
    vertex 2.035812762806185 48.00028936806627 74.54537241863889
  endloop
endfacet
facet normal -0.0003740432841076069 2.180902735068984e-05 0.9999999298079916
  outer loop
    vertex 2.035812762806185 48.00028936806627 74.54537241863889
    vertex 3.6543390672849863 0.0002893778141476844 74.54776380133323
    vertex 3.6537462694505933 48.00028933610915 74.5459364038512
  endloop
endfacet
facet normal -0.9999997460747126 -1.1590037696804872e-07 -0.0007126363004808785
  outer loop
    vertex 52.48943779992887 46.00020059036326 89.37887558265203
    vertex 52.53580011545088 4.000522209920088 24.32753304242362
    vertex 52.489444795390774 4.000200603647225 89.37559835011655
  endloop
endfacet
facet normal -0.9999997460747126 -1.1590037696804872e-07 -0.0007126363004808785
  outer loop
    vertex 52.53580011545088 4.000522209920088 24.32753304242362
    vertex 52.48943779992887 46.00020059036326 89.37887558265203
    vertex 52.53580010263822 10.000590503858334 24.327569007029307
  endloop
endfacet
facet normal -0.9999997460747126 -1.1590037696804872e-07 -0.0007126363004808785
  outer loop
    vertex 52.53580010263822 10.000590503858334 24.327569007029307
    vertex 52.48943779992887 46.00020059036326 89.37887558265203
    vertex 52.53722536588258 10.000600392121068 22.327569514896613
  endloop
endfacet
facet normal -0.9999997460747126 -1.1590037696804872e-07 -0.0007126363004808785
  outer loop
    vertex 52.53722536588258 10.000600392121068 22.327569514896613
    vertex 52.48943779992887 46.00020059036326 89.37887558265203
    vertex 52.53722054933411 46.0006024968274 22.327796262005222
  endloop
endfacet
facet normal -0.6379729199947668 -4.6171202836654395e-06 0.7700587986199712
  outer loop
    vertex 18.817970893567317 0.00018211569114541247 92.44798424262399
    vertex 22.469149269625067 4.000163992050266 95.47291091389621
    vertex 18.81797088502285 4.000182115618767 92.4480082187549
  endloop
endfacet
facet normal -0.6379729199947668 -4.6171202836654395e-06 0.7700587986199712
  outer loop
    vertex 22.469149269625067 4.000163992050266 95.47291091389621
    vertex 18.817970893567317 0.00018211569114541247 92.44798424262399
    vertex 29.648906709256725 0.0001283535428029836 101.42112208709393
  endloop
endfacet
facet normal -0.6379729199947668 -4.6171202836654395e-06 0.7700587986199712
  outer loop
    vertex 22.469149269625067 4.000163992050266 95.47291091389621
    vertex 29.648906709256725 0.0001283535428029836 101.42112208709393
    vertex 29.648906700714605 4.000128353469432 101.42114606322511
  endloop
endfacet
facet normal 3.6109736641172837e-07 0.9999999999809106 6.168355891437982e-06
  outer loop
    vertex 0.05308155653445215 46.00075131758315 0.00023014872086961694
    vertex 2.0518353847853565 46.000742835094556 1.7496322773784545
    vertex 4.053080503573693 46.00075130445384 0.0031329784334925663
  endloop
endfacet
facet normal 3.6109736641172837e-07 0.9999999999809106 6.168355891437982e-06
  outer loop
    vertex 2.0518353847853565 46.000742835094556 1.7496322773784545
    vertex 0.05308155653445215 46.00075131758315 0.00023014872086961694
    vertex 0.0 46.00028936194708 74.54543532867046
  endloop
endfacet
facet normal 3.6109736641172837e-07 0.9999999999809106 6.168355891437982e-06
  outer loop
    vertex 2.0518353847853565 46.000742835094556 1.7496322773784545
    vertex 0.0 46.00028936194708 74.54543532867046
    vertex 2.0368933204961777 46.00055032879004 22.299397342559292
  endloop
endfacet
facet normal 3.6109736641172837e-07 0.9999999999809106 6.168355891437982e-06
  outer loop
    vertex 2.0368933204961777 46.00055032879004 22.299397342559292
    vertex 0.0 46.00028936194708 74.54543532867046
    vertex 2.0358125970226775 46.00028936194618 74.54560505537228
  endloop
endfacet
facet normal 3.6109736641172837e-07 0.9999999999809106 6.168355891437982e-06
  outer loop
    vertex 4.05308050357367 46.00073416475396 1.751084596054365
    vertex 4.053080503573693 46.00075130445384 0.0031329784334925663
    vertex 2.0518353847853565 46.000742835094556 1.7496322773784545
  endloop
endfacet
facet normal 0.9999997460780534 -2.1358153451063895e-09 0.0007126316220463936
  outer loop
    vertex 56.535799108306264 0.0005904954974454312 24.330359593190412
    vertex 56.50007454736844 46.000290011793695 74.46095864039438
    vertex 56.5000746456131 0.00029001262235226475 74.46068291488852
  endloop
endfacet
facet normal 0.9999997460780534 -2.1358153451063895e-09 0.0007126316220463936
  outer loop
    vertex 56.50007454736844 46.000290011793695 74.46095864039438
    vertex 56.535799108306264 0.0005904954974454312 24.330359593190412
    vertex 56.53579908694925 10.000590495314333 24.33041953351748
  endloop
endfacet
facet normal 0.9999997460780534 -2.1358153451063895e-09 0.0007126316220463936
  outer loop
    vertex 56.50007454736844 46.000290011793695 74.46095864039438
    vertex 56.53579908694925 10.000590495314333 24.33041953351748
    vertex 56.537224350193675 10.00060248338141 22.330420041397286
  endloop
endfacet
facet normal 0.9999997460780534 -2.1358153451063895e-09 0.0007126316220463936
  outer loop
    vertex 56.50007454736844 46.000290011793695 74.46095864039438
    vertex 56.537224350193675 10.00060248338141 22.330420041397286
    vertex 56.53722427330769 46.000602482731985 22.330635826575577
  endloop
endfacet
facet normal 0.980785030943687 0.19509031991773232 0.0007001079830266101
  outer loop
    vertex 56.53722427330769 46.000602482731985 22.330635826575577
    vertex 56.10244977102037 48.00028878379674 74.18104226336789
    vertex 56.50007454736844 46.000290011793695 74.46095864039438
  endloop
endfacet
facet normal 0.980785030943687 0.19509031991773232 0.0007001079830266101
  outer loop
    vertex 56.10244977102037 48.00028878379674 74.18104226336789
    vertex 56.53722427330769 46.000602482731985 22.330635826575577
    vertex 56.13940020488721 48.000599578465554 22.330375887021912
  endloop
endfacet
facet normal -0.5364283536998551 -5.059784782706884e-06 0.8439458639754459
  outer loop
    vertex 29.648906709256725 0.0001283535428029836 101.42112208709393
    vertex 41.5190697337417 4.000083154406765 108.96605182736113
    vertex 29.648906700714605 4.000128353469432 101.42114606322511
  endloop
endfacet
facet normal -0.5364283536998551 -5.059784782706884e-06 0.8439458639754459
  outer loop
    vertex 41.5190697337417 4.000083154406765 108.96605182736113
    vertex 29.648906709256725 0.0001283535428029836 101.42112208709393
    vertex 41.5190697422851 8.315448076814391e-05 108.9660278512304
  endloop
endfacet
facet normal -0.06350172899176365 -5.982070677453758e-06 0.9979817284796708
  outer loop
    vertex 81.42890575884171 5.323630905706977e-06 121.96497054519851
    vertex 95.46559498203918 3.99999999992717 122.85815118949934
    vertex 81.42890575029885 4.000005323558437 121.96499452132902
  endloop
endfacet
facet normal -0.06350172899176365 -5.982070677453758e-06 0.9979817284796708
  outer loop
    vertex 95.46559498203918 3.99999999992717 122.85815118949934
    vertex 81.42890575884171 5.323630905706977e-06 121.96497054519851
    vertex 95.46559499058192 0.0 122.85812721336875
  endloop
endfacet
facet normal -0.1880812759623094 -5.887461645519725e-06 0.9821534674365954
  outer loop
    vertex 67.61484222755344 2.1150606881548127e-05 119.31959303421007
    vertex 81.42890575029885 4.000005323558437 121.96499452132902
    vertex 67.61484221901034 4.000021150533871 119.31961701034075
  endloop
endfacet
facet normal -0.1880812759623094 -5.887461645519725e-06 0.9821534674365954
  outer loop
    vertex 81.42890575029885 4.000005323558437 121.96499452132902
    vertex 67.61484222755344 2.1150606881548127e-05 119.31959303421007
    vertex 81.42890575884171 5.323630905706977e-06 121.96497054519851
  endloop
endfacet
facet normal -0.3096892915306254 -2.557000326053757e-05 0.9508378105951795
  outer loop
    vertex 54.241260430726356 4.723132533968055e-05 114.96371386402421
    vertex 67.61484221901034 4.000021150533871 119.31961701034075
    vertex 54.24074300688701 3.993948547616883 114.9637364596409
  endloop
endfacet
facet normal -0.3096892915306254 -2.557000326053757e-05 0.9508378105951795
  outer loop
    vertex 67.61484221901034 4.000021150533871 119.31961701034075
    vertex 54.241260430726356 4.723132533968055e-05 114.96371386402421
    vertex 67.61484222755344 2.1150606881548127e-05 119.31959303421007
  endloop
endfacet
facet normal -0.9999999999378724 1.0078410851009454e-07 -1.1146530149520785e-05
  outer loop
    vertex 2.035812762806185 48.00028936806627 74.54537241863889
    vertex 2.0368933204961777 46.00055032879004 22.299397342559292
    vertex 2.0358125970226775 46.00028936194618 74.54560505537228
  endloop
endfacet
facet normal -0.9999999999378724 1.0078410851009454e-07 -1.1146530149520785e-05
  outer loop
    vertex 2.0368933204961777 46.00055032879004 22.299397342559292
    vertex 2.035812762806185 48.00028936806627 74.54537241863889
    vertex 2.036893572281917 48.00055033302649 22.29904402385437
  endloop
endfacet
facet normal 1.3053138865731506e-07 0.9999999999824196 5.928229294959251e-06
  outer loop
    vertex 9.824514460091137e-08 0.000289385618641802 74.54515960316488
    vertex 56.535799108306264 0.0005904954974454312 24.330359593190412
    vertex 0.035813454896533516 0.0005906161670147014 24.290095906545687
  endloop
endfacet
facet normal 1.3053138865731506e-07 0.9999999999824196 5.928229294959251e-06
  outer loop
    vertex 56.535799108306264 0.0005904954974454312 24.330359593190412
    vertex 9.824514460091137e-08 0.000289385618641802 74.54515960316488
    vertex 56.5000746456131 0.00029001262235226475 74.46068291488852
  endloop
endfacet
facet normal 1.3053138865731506e-07 0.9999999999824196 5.928229294959251e-06
  outer loop
    vertex 56.5000746456131 0.00029001262235226475 74.46068291488852
    vertex 9.824514460091137e-08 0.000289385618641802 74.54515960316488
    vertex 3.6543390672849863 0.0002893778141476844 74.54776380133323
  endloop
endfacet
facet normal 1.3053138865731506e-07 0.9999999999824196 5.928229294959251e-06
  outer loop
    vertex 56.5000746456131 0.00029001262235226475 74.46068291488852
    vertex 3.6543390672849863 0.0002893778141476844 74.54776380133323
    vertex 64.77946917957946 0.0002637035963395817 78.85283609220944
  endloop
endfacet
facet normal 1.3053138865731506e-07 0.9999999999824196 5.928229294959251e-06
  outer loop
    vertex 64.77946917957946 0.0002637035963395817 78.85283609220944
    vertex 3.6543390672849863 0.0002893778141476844 74.54776380133323
    vertex 9.19707262310988 0.00024359307169490306 82.18812606192033
  endloop
endfacet
facet normal 1.3053138865731506e-07 0.9999999999824196 5.928229294959251e-06
  outer loop
    vertex 64.77946917957946 0.0002637035963395817 78.85283609220944
    vertex 9.19707262310988 0.00024359307169490306 82.18812606192033
    vertex 73.54406097474488 0.00024382310561037456 82.1726725409765
  endloop
endfacet
facet normal 1.3053138865731506e-07 0.9999999999824196 5.928229294959251e-06
  outer loop
    vertex 73.54406097474488 0.00024382310561037456 82.1726725409765
    vertex 9.19707262310988 0.00024359307169490306 82.18812606192033
    vertex 82.65562718278302 0.00023068467999394214 84.36783645721854
  endloop
endfacet
facet normal 1.3053138865731506e-07 0.9999999999824196 5.928229294959251e-06
  outer loop
    vertex 82.65562718278302 0.00023068467999394214 84.36783645721854
    vertex 9.19707262310988 0.00024359307169490306 82.18812606192033
    vertex 18.817970893567317 0.00018211569114541247 92.44798424262399
  endloop
endfacet
facet normal 1.3053138865731506e-07 0.9999999999824196 5.928229294959251e-06
  outer loop
    vertex 82.65562718278302 0.00023068467999394214 84.36783645721854
    vertex 18.817970893567317 0.00018211569114541247 92.44798424262399
    vertex 91.97047296161114 0.00022449551997922866 85.4037087946491
  endloop
endfacet
facet normal 1.3053138865731506e-07 0.9999999999824196 5.928229294959251e-06
  outer loop
    vertex 91.97047296161114 0.00022449551997922866 85.4037087946491
    vertex 95.46559499058192 0.0 122.85812721336875
    vertex 95.49157270322362 0.00017623136228834822 85.33560540969175
  endloop
endfacet
facet normal 1.3053138865731506e-07 0.9999999999824196 5.928229294959251e-06
  outer loop
    vertex 95.46559499058192 0.0 122.85812721336875
    vertex 91.97047296161114 0.00022449551997922866 85.4037087946491
    vertex 18.817970893567317 0.00018211569114541247 92.44798424262399
  endloop
endfacet
facet normal 1.3053138865731506e-07 0.9999999999824196 5.928229294959251e-06
  outer loop
    vertex 95.46559499058192 0.0 122.85812721336875
    vertex 18.817970893567317 0.00018211569114541247 92.44798424262399
    vertex 29.648906709256725 0.0001283535428029836 101.42112208709393
  endloop
endfacet
facet normal 1.3053138865731506e-07 0.9999999999824196 5.928229294959251e-06
  outer loop
    vertex 95.46559499058192 0.0 122.85812721336875
    vertex 29.648906709256725 0.0001283535428029836 101.42112208709393
    vertex 41.5190697422851 8.315448076814391e-05 108.9660278512304
  endloop
endfacet
facet normal 1.3053138865731506e-07 0.9999999999824196 5.928229294959251e-06
  outer loop
    vertex 95.46559499058192 0.0 122.85812721336875
    vertex 41.5190697422851 8.315448076814391e-05 108.9660278512304
    vertex 54.241260430726356 4.723132533968055e-05 114.96371386402421
  endloop
endfacet
facet normal 1.3053138865731506e-07 0.9999999999824196 5.928229294959251e-06
  outer loop
    vertex 95.46559499058192 0.0 122.85812721336875
    vertex 54.241260430726356 4.723132533968055e-05 114.96371386402421
    vertex 67.61484222755344 2.1150606881548127e-05 119.31959303421007
  endloop
endfacet
facet normal 1.3053138865731506e-07 0.9999999999824196 5.928229294959251e-06
  outer loop
    vertex 95.46559499058192 0.0 122.85812721336875
    vertex 67.61484222755344 2.1150606881548127e-05 119.31959303421007
    vertex 81.42890575884171 5.323630905706977e-06 121.96497054519851
  endloop
endfacet
facet normal 0.2342191044026377 5.827801967182682e-06 -0.9721838360612992
  outer loop
    vertex 82.65562708026755 48.00022777880443 84.36812417077226
    vertex 73.54406097474488 0.00024382310561037456 82.1726725409765
    vertex 73.5440608722277 48.000240917229775 82.17296025452994
  endloop
endfacet
facet normal 0.2342191044026377 5.827801967182682e-06 -0.9721838360612992
  outer loop
    vertex 73.54406097474488 0.00024382310561037456 82.1726725409765
    vertex 82.65562708026755 48.00022777880443 84.36812417077226
    vertex 82.65562718278302 0.00023068467999394214 84.36783645721854
  endloop
endfacet
facet normal 0.9999997486622406 6.545018635083413e-07 0.0007089957879760352
  outer loop
    vertex 4.036807899906166 48.00046916089255 22.301199426236547
    vertex 4.035731562622988 10.000590607437193 24.293007104914693
    vertex 4.036812286096293 10.00055034797996 22.300960871242545
  endloop
endfacet
facet normal 0.9999997486622406 6.545018635083413e-07 0.0007089957879760352
  outer loop
    vertex 4.035731562622988 10.000590607437193 24.293007104914693
    vertex 4.036807899906166 48.00046916089255 22.301199426236547
    vertex 3.9996549540679136 48.000286524357115 75.0240696097919
  endloop
endfacet
facet normal 0.9999997486622406 6.545018635083413e-07 0.0007089957879760352
  outer loop
    vertex 4.0357322545329835 4.000561426305107 24.29297035185371
    vertex 3.9996549540679136 48.000286524357115 75.0240696097919
    vertex 3.9995798560359046 4.000296456811375 75.02379424434852
  endloop
endfacet
facet normal 0.9999997486622406 6.545018635083413e-07 0.0007089957879760352
  outer loop
    vertex 3.9996549540679136 48.000286524357115 75.0240696097919
    vertex 4.0357322545329835 4.000561426305107 24.29297035185371
    vertex 4.035731562622988 10.000590607437193 24.293007104914693
  endloop
endfacet
facet normal 0.4686329690369403 5.296087263454952e-06 -0.8833929704857141
  outer loop
    vertex 64.7794690770651 48.00026079771915 78.85312380576376
    vertex 56.50007454736844 46.000290011793695 74.46095864039438
    vertex 56.50007454309686 48.00028710674625 74.46097062844231
  endloop
endfacet
facet normal 0.4686329690369403 5.296087263454952e-06 -0.8833929704857141
  outer loop
    vertex 56.50007454736844 46.000290011793695 74.46095864039438
    vertex 64.7794690770651 48.00026079771915 78.85312380576376
    vertex 56.5000746456131 0.00029001262235226475 74.46068291488852
  endloop
endfacet
facet normal 0.4686329690369403 5.296087263454952e-06 -0.8833929704857141
  outer loop
    vertex 56.5000746456131 0.00029001262235226475 74.46068291488852
    vertex 64.7794690770651 48.00026079771915 78.85312380576376
    vertex 64.77946917957946 0.0002637035963395817 78.85283609220944
  endloop
endfacet
facet normal -0.000705364418270536 -4.561670776872189e-05 0.9999997501900455
  outer loop
    vertex 0.035813454896533516 0.0005906161670147014 24.290095906545687
    vertex 4.035731562622988 10.000590607437193 24.293007104914693
    vertex 0.03581343353933949 10.000590615982457 24.29158147589387
  endloop
endfacet
facet normal -0.000705364418270536 -4.561670776872189e-05 0.9999997501900455
  outer loop
    vertex 4.035731562622988 10.000590607437193 24.293007104914693
    vertex 0.035813454896533516 0.0005906161670147014 24.290095906545687
    vertex 4.0357322545329835 4.000561426305107 24.29297035185371
  endloop
endfacet
facet normal -0.000705364418270536 -4.561670776872189e-05 0.9999997501900455
  outer loop
    vertex 4.0357322545329835 4.000561426305107 24.29297035185371
    vertex 0.035813454896533516 0.0005906161670147014 24.290095906545687
    vertex 56.535799108306264 0.0005904954974454312 24.330359593190412
  endloop
endfacet
facet normal -0.000705364418270536 -4.561670776872189e-05 0.9999997501900455
  outer loop
    vertex 4.0357322545329835 4.000561426305107 24.29297035185371
    vertex 56.535799108306264 0.0005904954974454312 24.330359593190412
    vertex 52.53580011545088 4.000522209920088 24.32753304242362
  endloop
endfacet
facet normal -0.000705364418270536 -4.561670776872189e-05 0.9999997501900455
  outer loop
    vertex 52.53580011545088 4.000522209920088 24.32753304242362
    vertex 56.535799108306264 0.0005904954974454312 24.330359593190412
    vertex 56.53579908694925 10.000590495314333 24.33041953351748
  endloop
endfacet
facet normal -0.000705364418270536 -4.561670776872189e-05 0.9999997501900455
  outer loop
    vertex 56.53579908694925 10.000590495314333 24.33041953351748
    vertex 52.53580010263822 10.000590503858334 24.327569007029307
    vertex 52.53580011545088 4.000522209920088 24.32753304242362
  endloop
endfacet
facet normal -0.729456272234689 -4.101640933741571e-06 0.6840274459995359
  outer loop
    vertex 18.81797088502285 4.000182115618767 92.4480082187549
    vertex 9.19707262310988 0.00024359307169490306 82.18812606192033
    vertex 18.817970893567317 0.00018211569114541247 92.44798424262399
  endloop
endfacet
facet normal -0.729456272234689 -4.101640933741571e-06 0.6840274459995359
  outer loop
    vertex 9.19707262310988 0.00024359307169490306 82.18812606192033
    vertex 18.81797088502285 4.000182115618767 92.4480082187549
    vertex 9.197072614566851 4.000243592998143 82.18815003805119
  endloop
endfacet
facet normal 0.9999999999992923 1.1897349550651899e-06 1.1679364912702624e-11
  outer loop
    vertex 4.0531233340831285 10.000708398317538 0.0029028297126229494
    vertex 4.05308050357367 46.00073416475396 1.751084596054365
    vertex 4.053123334083105 10.000691258617657 1.7508544473334953
  endloop
endfacet
facet normal 0.9999999999992923 1.1897349550651899e-06 1.1679364912702624e-11
  outer loop
    vertex 4.05308050357367 46.00073416475396 1.751084596054365
    vertex 4.0531233340831285 10.000708398317538 0.0029028297126229494
    vertex 4.053080503573693 46.00075130445384 0.0031329784334925663
  endloop
endfacet
facet normal 0.5756561556034749 4.902501251844936e-06 -0.817691867693322
  outer loop
    vertex 56.50007454736844 46.000290011793695 74.46095864039438
    vertex 56.10244977102037 48.00028878379674 74.18104226336789
    vertex 56.50007454309686 48.00028710674625 74.46097062844231
  endloop
endfacet
facet normal -0.8094355729856743 4.920171867446532e-06 0.5872086964284036
  outer loop
    vertex 9.197072614566851 4.000243592998143 82.18815003805119
    vertex 3.6543390672849863 0.0002893778141476844 74.54776380133323
    vertex 9.19707262310988 0.00024359307169490306 82.18812606192033
  endloop
endfacet
facet normal -0.8094355729856743 4.920171867446532e-06 0.5872086964284036
  outer loop
    vertex 3.6543390672849863 0.0002893778141476844 74.54776380133323
    vertex 9.197072614566851 4.000243592998143 82.18815003805119
    vertex 3.9995798560359046 4.000296456811375 75.02379424434852
  endloop
endfacet
facet normal -0.8094355729856743 4.920171867446532e-06 0.5872086964284036
  outer loop
    vertex 3.6543390672849863 0.0002893778141476844 74.54776380133323
    vertex 3.9995798560359046 4.000296456811375 75.02379424434852
    vertex 3.6537462694505933 48.00028933610915 74.5459364038512
  endloop
endfacet
facet normal -0.8094355729856743 4.920171867446532e-06 0.5872086964284036
  outer loop
    vertex 3.6537462694505933 48.00028933610915 74.5459364038512
    vertex 3.9995798560359046 4.000296456811375 75.02379424434852
    vertex 3.9996549540679136 48.000286524357115 75.0240696097919
  endloop
endfacet
facet normal -1.6368879175522176e-07 0.9999999999841049 5.635898988567391e-06
  outer loop
    vertex 54.49086403684846 48.00027884408473 87.38045741551554
    vertex 56.13940020488721 48.000599578465554 22.330375887021912
    vertex 54.537219792752026 48.00060272196377 22.32923412259125
  endloop
endfacet
facet normal -1.6368879175522176e-07 0.9999999999841049 5.635898988567391e-06
  outer loop
    vertex 56.13940020488721 48.000599578465554 22.330375887021912
    vertex 54.49086403684846 48.00027884408473 87.38045741551554
    vertex 56.10244977102037 48.00028878379674 74.18104226336789
  endloop
endfacet
facet normal -1.6368879175522176e-07 0.9999999999841049 5.635898988567391e-06
  outer loop
    vertex 56.10244977102037 48.00028878379674 74.18104226336789
    vertex 54.49086403684846 48.00027884408473 87.38045741551554
    vertex 56.50007454309686 48.00028710674625 74.46097062844231
  endloop
endfacet
facet normal -1.6368879175522176e-07 0.9999999999841049 5.635898988567391e-06
  outer loop
    vertex 56.50007454309686 48.00028710674625 74.46097062844231
    vertex 54.49086403684846 48.00027884408473 87.38045741551554
    vertex 64.7794690770651 48.00026079771915 78.85312380576376
  endloop
endfacet
facet normal -1.6368879175522176e-07 0.9999999999841049 5.635898988567391e-06
  outer loop
    vertex 64.7794690770651 48.00026079771915 78.85312380576376
    vertex 54.49086403684846 48.00027884408473 87.38045741551554
    vertex 73.5440608722277 48.000240917229775 82.17296025452994
  endloop
endfacet
facet normal -1.6368879175522176e-07 0.9999999999841049 5.635898988567391e-06
  outer loop
    vertex 73.5440608722277 48.000240917229775 82.17296025452994
    vertex 54.49086403684846 48.00027884408473 87.38045741551554
    vertex 82.65562708026755 48.00022777880443 84.36812417077226
  endloop
endfacet
facet normal -1.6368879175522176e-07 0.9999999999841049 5.635898988567391e-06
  outer loop
    vertex 82.65562708026755 48.00022777880443 84.36812417077226
    vertex 54.49086403684846 48.00027884408473 87.38045741551554
    vertex 91.97047285909507 48.00022158964415 85.40399650820271
  endloop
endfacet
facet normal -1.6368879175522176e-07 0.9999999999841049 5.635898988567391e-06
  outer loop
    vertex 91.97047285909507 48.00022158964415 85.40399650820271
    vertex 95.49085362604856 48.00027852588477 87.40967531188433
    vertex 95.49232036557538 48.00025638739905 85.35147425945799
  endloop
endfacet
facet normal -1.6368879175522176e-07 0.9999999999841049 5.635898988567391e-06
  outer loop
    vertex 95.49085362604856 48.00027852588477 87.40967531188433
    vertex 91.97047285909507 48.00022158964415 85.40399650820271
    vertex 54.49086403684846 48.00027884408473 87.38045741551554
  endloop
endfacet
facet normal 0.0007257074280998555 6.393874120646212e-06 -0.999999736653889
  outer loop
    vertex 4.053080503573693 46.00075130445384 0.0031329784334925663
    vertex 0.053124387043884176 10.000708411446851 0.0
    vertex 0.05308155653445215 46.00075131758315 0.00023014872086961694
  endloop
endfacet
facet normal 0.0007257074280998555 6.393874120646212e-06 -0.999999736653889
  outer loop
    vertex 0.053124387043884176 10.000708411446851 0.0
    vertex 4.053080503573693 46.00075130445384 0.0031329784334925663
    vertex 4.0531233340831285 10.000708398317538 0.0029028297126229494
  endloop
endfacet
facet normal 2.6347383167245725e-05 0.9999999996424467 4.574070359413159e-06
  outer loop
    vertex 2.035812762806185 48.00028936806627 74.54537241863889
    vertex 4.036807899906166 48.00046916089255 22.301199426236547
    vertex 2.036893572281917 48.00055033302649 22.29904402385437
  endloop
endfacet
facet normal 2.6347383167245725e-05 0.9999999996424467 4.574070359413159e-06
  outer loop
    vertex 4.036807899906166 48.00046916089255 22.301199426236547
    vertex 2.035812762806185 48.00028936806627 74.54537241863889
    vertex 3.6537462694505933 48.00028933610915 74.5459364038512
  endloop
endfacet
facet normal 2.6347383167245725e-05 0.9999999996424467 4.574070359413159e-06
  outer loop
    vertex 4.036807899906166 48.00046916089255 22.301199426236547
    vertex 3.6537462694505933 48.00028933610915 74.5459364038512
    vertex 3.9996549540679136 48.000286524357115 75.0240696097919
  endloop
endfacet
facet normal 0.0007117014608171755 6.221260112740276e-06 -0.9999997467211312
  outer loop
    vertex 56.13940020488721 48.000599578465554 22.330375887021912
    vertex 54.53722004149 46.000602727660194 22.329221525517
    vertex 54.537219792752026 48.00060272196377 22.32923412259125
  endloop
endfacet
facet normal 0.0007117014608171755 6.221260112740276e-06 -0.9999997467211312
  outer loop
    vertex 54.53722004149 46.000602727660194 22.329221525517
    vertex 52.53722536588258 10.000600392121068 22.327569514896613
    vertex 52.53722054933411 46.0006024968274 22.327796262005222
  endloop
endfacet
facet normal 0.0007117014608171755 6.221260112740276e-06 -0.9999997467211312
  outer loop
    vertex 52.53722536588258 10.000600392121068 22.327569514896613
    vertex 54.53722004149 46.000602727660194 22.329221525517
    vertex 56.537224350193675 10.00060248338141 22.330420041397286
  endloop
endfacet
facet normal 0.0007117014608171755 6.221260112740276e-06 -0.9999997467211312
  outer loop
    vertex 56.537224350193675 10.00060248338141 22.330420041397286
    vertex 54.53722004149 46.000602727660194 22.329221525517
    vertex 56.13940020488721 48.000599578465554 22.330375887021912
  endloop
endfacet
facet normal 0.0007117014608171755 6.221260112740276e-06 -0.9999997467211312
  outer loop
    vertex 56.537224350193675 10.00060248338141 22.330420041397286
    vertex 56.13940020488721 48.000599578465554 22.330375887021912
    vertex 56.53722427330769 46.000602482731985 22.330635826575577
  endloop
endfacet
facet normal 2.642369338889629e-07 -0.9999999999850107 -5.468895515727471e-06
  outer loop
    vertex 56.537224350193675 10.00060248338141 22.330420041397286
    vertex 52.53580010263822 10.000590503858334 24.327569007029307
    vertex 52.53722536588258 10.000600392121068 22.327569514896613
  endloop
endfacet
facet normal 2.642369338889629e-07 -0.9999999999850107 -5.468895515727471e-06
  outer loop
    vertex 52.53580010263822 10.000590503858334 24.327569007029307
    vertex 56.537224350193675 10.00060248338141 22.330420041397286
    vertex 56.53579908694925 10.000590495314333 24.33041953351748
  endloop
endfacet
facet normal -0.0007260274463551725 -8.432072221602378e-05 0.9999997328870459
  outer loop
    vertex 85.48944166556332 2.0002005439506587 89.39909522590378
    vertex 91.98943450789103 21.50019963166947 89.40655081121284
    vertex 91.98943269720642 28.500200399961294 89.40688564146733
  endloop
endfacet
facet normal -0.0007260274463551725 -8.432072221602378e-05 0.9999997328870459
  outer loop
    vertex 91.98943450789103 21.50019963166947 89.40655081121284
    vertex 85.48944166556332 2.0002005439506587 89.39909522590378
    vertex 95.48943912634385 2.0002005119138544 89.40622154212399
  endloop
endfacet
facet normal -0.0007260274463551725 -8.432072221602378e-05 0.9999997328870459
  outer loop
    vertex 91.98943450789103 21.50019963166947 89.40655081121284
    vertex 95.48943912634385 2.0002005119138544 89.40622154212399
    vertex 95.4894335687321 21.50020051028918 89.40786592285733
  endloop
endfacet
facet normal -0.0007260274463551725 -8.432072221602378e-05 0.9999997328870459
  outer loop
    vertex 52.489444795390774 4.000200603647225 89.37559835011655
    vertex 95.48942679794597 46.000200493462714 89.40963578653646
    vertex 52.48943779992887 46.00020059036326 89.37887558265203
  endloop
endfacet
facet normal -0.0007260274463551725 -8.432072221602378e-05 0.9999997328870459
  outer loop
    vertex 95.48942679794597 46.000200493462714 89.40963578653646
    vertex 52.489444795390774 4.000200603647225 89.37559835011655
    vertex 85.48943641596682 4.000200543844083 89.39911519364345
  endloop
endfacet
facet normal -0.0007260274463551725 -8.432072221602378e-05 0.9999997328870459
  outer loop
    vertex 95.48942679794597 46.000200493462714 89.40963578653646
    vertex 85.48943641596682 4.000200543844083 89.39911519364345
    vertex 85.48944166556332 2.0002005439506587 89.39909522590378
  endloop
endfacet
facet normal -0.0007260274463551725 -8.432072221602378e-05 0.9999997328870459
  outer loop
    vertex 95.48942679794597 46.000200493462714 89.40963578653646
    vertex 85.48944166556332 2.0002005439506587 89.39909522590378
    vertex 91.98943269720642 28.500200399961294 89.40688564146733
  endloop
endfacet
facet normal -0.0007260274463551725 -8.432072221602378e-05 0.9999997328870459
  outer loop
    vertex 95.48942679794597 46.000200493462714 89.40963578653646
    vertex 91.98943269720642 28.500200399961294 89.40688564146733
    vertex 95.48943127257824 28.500201223281685 89.408878106621
  endloop
endfacet
facet normal -0.9999997467755506 -9.600792750273382e-07 -0.0007116515390845154
  outer loop
    vertex 0.0 46.00028936194708 74.54543532867046
    vertex 0.035813454896533516 0.0005906161670147014 24.290095906545687
    vertex 9.824514460091137e-08 0.000289385618641802 74.54515960316488
  endloop
endfacet
facet normal -0.9999997467755506 -9.600792750273382e-07 -0.0007116515390845154
  outer loop
    vertex 0.035813454896533516 0.0005906161670147014 24.290095906545687
    vertex 0.0 46.00028936194708 74.54543532867046
    vertex 0.03581343353933949 10.000590615982457 24.29158147589387
  endloop
endfacet
facet normal -0.9999997467755506 -9.600792750273382e-07 -0.0007116515390845154
  outer loop
    vertex 0.03581343353933949 10.000590615982457 24.29158147589387
    vertex 0.0 46.00028936194708 74.54543532867046
    vertex 0.053124387043884176 10.000708411446851 0.0
  endloop
endfacet
facet normal -0.9999997467755506 -9.600792750273382e-07 -0.0007116515390845154
  outer loop
    vertex 0.053124387043884176 10.000708411446851 0.0
    vertex 0.0 46.00028936194708 74.54543532867046
    vertex 0.05308155653445215 46.00075131758315 0.00023014872086961694
  endloop
endfacet
facet normal -3.2158196432456463e-06 0.9999999998535043 1.6812203924428885e-05
  outer loop
    vertex 3.9995798560359046 4.000296456811375 75.02379424434852
    vertex 52.53580011545088 4.000522209920088 24.32753304242362
    vertex 4.0357322545329835 4.000561426305107 24.29297035185371
  endloop
endfacet
facet normal -3.2158196432456463e-06 0.9999999998535043 1.6812203924428885e-05
  outer loop
    vertex 52.53580011545088 4.000522209920088 24.32753304242362
    vertex 3.9995798560359046 4.000296456811375 75.02379424434852
    vertex 52.489444795390774 4.000200603647225 89.37559835011655
  endloop
endfacet
facet normal -3.2158196432456463e-06 0.9999999998535043 1.6812203924428885e-05
  outer loop
    vertex 52.489444795390774 4.000200603647225 89.37559835011655
    vertex 3.9995798560359046 4.000296456811375 75.02379424434852
    vertex 9.197072614566851 4.000243592998143 82.18815003805119
  endloop
endfacet
facet normal -3.2158196432456463e-06 0.9999999998535043 1.6812203924428885e-05
  outer loop
    vertex 52.489444795390774 4.000200603647225 89.37559835011655
    vertex 9.197072614566851 4.000243592998143 82.18815003805119
    vertex 18.81797088502285 4.000182115618767 92.4480082187549
  endloop
endfacet
facet normal -3.2158196432456463e-06 0.9999999998535043 1.6812203924428885e-05
  outer loop
    vertex 52.489444795390774 4.000200603647225 89.37559835011655
    vertex 18.81797088502285 4.000182115618767 92.4480082187549
    vertex 85.48943641596682 4.000200543844083 89.39911519364345
  endloop
endfacet
facet normal -3.2158196432456463e-06 0.9999999998535043 1.6812203924428885e-05
  outer loop
    vertex 85.48943641596682 4.000200543844083 89.39911519364345
    vertex 18.81797088502285 4.000182115618767 92.4480082187549
    vertex 85.47538644994394 3.99997746482052 109.11471862822958
  endloop
endfacet
facet normal -3.2158196432456463e-06 0.9999999998535043 1.6812203924428885e-05
  outer loop
    vertex 85.47538644994394 3.99997746482052 109.11471862822958
    vertex 18.81797088502285 4.000182115618767 92.4480082187549
    vertex 22.469149269625067 4.000163992050266 95.47291091389621
  endloop
endfacet
facet normal -3.2158196432456463e-06 0.9999999998535043 1.6812203924428885e-05
  outer loop
    vertex 85.47538644994394 3.99997746482052 109.11471862822958
    vertex 22.469149269625067 4.000163992050266 95.47291091389621
    vertex 29.648906700714605 4.000128353469432 101.42114606322511
  endloop
endfacet
facet normal -3.2158196432456463e-06 0.9999999998535043 1.6812203924428885e-05
  outer loop
    vertex 85.47538644994394 3.99997746482052 109.11471862822958
    vertex 29.648906700714605 4.000128353469432 101.42114606322511
    vertex 41.5190697337417 4.000083154406765 108.96605182736113
  endloop
endfacet
facet normal -3.2158196432456463e-06 0.9999999998535043 1.6812203924428885e-05
  outer loop
    vertex 85.47538644994394 3.99997746482052 109.11471862822958
    vertex 41.5190697337417 4.000083154406765 108.96605182736113
    vertex 45.97398569303572 4.000070575233743 111.06625514859478
  endloop
endfacet
facet normal -3.2158196432456463e-06 0.9999999998535043 1.6812203924428885e-05
  outer loop
    vertex 85.47538644994394 3.99997746482052 109.11471862822958
    vertex 45.97398569303572 4.000070575233743 111.06625514859478
    vertex 95.47538898916402 4.000029921674057 109.114718628544
  endloop
endfacet
facet normal -3.2158196432456463e-06 0.9999999998535043 1.6812203924428885e-05
  outer loop
    vertex 95.47538898916402 4.000029921674057 109.114718628544
    vertex 45.97398569303572 4.000070575233743 111.06625514859478
    vertex 95.46559498203918 3.99999999992717 122.85815118949934
  endloop
endfacet
facet normal -3.2158196432456463e-06 0.9999999998535043 1.6812203924428885e-05
  outer loop
    vertex 95.46559498203918 3.99999999992717 122.85815118949934
    vertex 45.97398569303572 4.000070575233743 111.06625514859478
    vertex 54.24074300688701 3.993948547616883 114.9637364596409
  endloop
endfacet
facet normal -3.2158196432456463e-06 0.9999999998535043 1.6812203924428885e-05
  outer loop
    vertex 95.46559498203918 3.99999999992717 122.85815118949934
    vertex 54.24074300688701 3.993948547616883 114.9637364596409
    vertex 67.61484221901034 4.000021150533871 119.31961701034075
  endloop
endfacet
facet normal -3.2158196432456463e-06 0.9999999998535043 1.6812203924428885e-05
  outer loop
    vertex 95.46559498203918 3.99999999992717 122.85815118949934
    vertex 67.61484221901034 4.000021150533871 119.31961701034075
    vertex 81.42890575029885 4.000005323558437 121.96499452132902
  endloop
endfacet
facet normal -2.871868025232179e-07 0.9999999953712688 9.621527910606754e-05
  outer loop
    vertex 91.98943450789103 21.50019963166947 89.40655081121284
    vertex 95.49037859082347 21.500392941097278 87.40786615538143
    vertex 91.9903795299824 21.50039206247757 87.40655104373695
  endloop
endfacet
facet normal -2.871868025232179e-07 0.9999999953712688 9.621527910606754e-05
  outer loop
    vertex 95.49037859082347 21.500392941097278 87.40786615538143
    vertex 91.98943450789103 21.50019963166947 89.40655081121284
    vertex 95.4894335687321 21.50020051028918 89.40786592285733
  endloop
endfacet
facet normal -0.9999998448811173 2.602698720812351e-05 -0.0005563814675538805
  outer loop
    vertex 95.48942679794597 46.000200493462714 89.40963578653646
    vertex 95.49037629466962 28.500393654089788 87.40887833914512
    vertex 95.48943127257824 28.500201223281685 89.408878106621
  endloop
endfacet
facet normal -0.9999998448811173 2.602698720812351e-05 -0.0005563814675538805
  outer loop
    vertex 95.49037629466962 28.500393654089788 87.40887833914512
    vertex 95.48942679794597 46.000200493462714 89.40963578653646
    vertex 95.49067728407289 29.250217777399612 87.41042837806383
  endloop
endfacet
facet normal -0.9999998448811173 2.602698720812351e-05 -0.0005563814675538805
  outer loop
    vertex 95.49067728407289 29.250217777399612 87.41042837806383
    vertex 95.49232036557538 48.00025638739905 85.35147425945799
    vertex 95.49113310944534 29.25021775961803 85.34527548759098
  endloop
endfacet
facet normal -0.9999998448811173 2.602698720812351e-05 -0.0005563814675538805
  outer loop
    vertex 95.49232036557538 48.00025638739905 85.35147425945799
    vertex 95.49067728407289 29.250217777399612 87.41042837806383
    vertex 95.49085390355957 46.00027853056817 87.40959728261754
  endloop
endfacet
facet normal -0.9999998448811173 2.602698720812351e-05 -0.0005563814675538805
  outer loop
    vertex 95.49085390355957 46.00027853056817 87.40959728261754
    vertex 95.49067728407289 29.250217777399612 87.41042837806383
    vertex 95.48942679794597 46.000200493462714 89.40963578653646
  endloop
endfacet
facet normal -0.9999998448811173 2.602698720812351e-05 -0.0005563814675538805
  outer loop
    vertex 95.49232036557538 48.00025638739905 85.35147425945799
    vertex 95.49085390355957 46.00027853056817 87.40959728261754
    vertex 95.49085362604856 48.00027852588477 87.40967531188433
  endloop
endfacet
facet normal -0.0007260274463551722 -8.43207222160238e-05 0.9999997328870459
  outer loop
    vertex 85.48944166556332 2.0002005439506587 89.39909522590378
    vertex 91.98943450789103 21.50019963166947 89.40655081121284
    vertex 91.98943269720642 28.500200399961294 89.40688564146733
  endloop
endfacet
facet normal -0.0007260274463551722 -8.43207222160238e-05 0.9999997328870459
  outer loop
    vertex 91.98943450789103 21.50019963166947 89.40655081121284
    vertex 85.48944166556332 2.0002005439506587 89.39909522590378
    vertex 95.48943912634385 2.0002005119138544 89.40622154212399
  endloop
endfacet
facet normal -0.0007260274463551722 -8.43207222160238e-05 0.9999997328870459
  outer loop
    vertex 91.98943450789103 21.50019963166947 89.40655081121284
    vertex 95.48943912634385 2.0002005119138544 89.40622154212399
    vertex 95.4894335687321 21.50020051028918 89.40786592285733
  endloop
endfacet
facet normal -0.0007260274463551722 -8.43207222160238e-05 0.9999997328870459
  outer loop
    vertex 52.489444795390774 4.000200603647225 89.37559835011655
    vertex 95.48942679794597 46.000200493462714 89.40963578653646
    vertex 52.48943779992887 46.00020059036326 89.37887558265203
  endloop
endfacet
facet normal -0.0007260274463551722 -8.43207222160238e-05 0.9999997328870459
  outer loop
    vertex 95.48942679794597 46.000200493462714 89.40963578653646
    vertex 52.489444795390774 4.000200603647225 89.37559835011655
    vertex 85.48943641596682 4.000200543844083 89.39911519364345
  endloop
endfacet
facet normal -0.0007260274463551722 -8.43207222160238e-05 0.9999997328870459
  outer loop
    vertex 95.48942679794597 46.000200493462714 89.40963578653646
    vertex 85.48943641596682 4.000200543844083 89.39911519364345
    vertex 85.48944166556332 2.0002005439506587 89.39909522590378
  endloop
endfacet
facet normal -0.0007260274463551722 -8.43207222160238e-05 0.9999997328870459
  outer loop
    vertex 95.48942679794597 46.000200493462714 89.40963578653646
    vertex 85.48944166556332 2.0002005439506587 89.39909522590378
    vertex 91.98943269720642 28.500200399961294 89.40688564146733
  endloop
endfacet
facet normal -0.0007260274463551722 -8.43207222160238e-05 0.9999997328870459
  outer loop
    vertex 95.48942679794597 46.000200493462714 89.40963578653646
    vertex 91.98943269720642 28.500200399961294 89.40688564146733
    vertex 95.48943127257824 28.500201223281685 89.408878106621
  endloop
endfacet
facet normal -0.9999997565954786 -7.187467253784126e-07 -0.0006977166095899701
  outer loop
    vertex 95.46559499058192 0.0 122.85812721336875
    vertex 95.47539423876052 2.0000299217806328 109.11469866080435
    vertex 95.49157270322362 0.00017623136228834822 85.33560540969175
  endloop
endfacet
facet normal -0.9999997565954786 -7.187467253784126e-07 -0.0006977166095899701
  outer loop
    vertex 95.47539423876052 2.0000299217806328 109.11469866080435
    vertex 95.46559499058192 0.0 122.85812721336875
    vertex 95.46559498203918 3.99999999992717 122.85815118949934
  endloop
endfacet
facet normal -0.9999997565954786 -7.187467253784126e-07 -0.0006977166095899701
  outer loop
    vertex 95.47539423876052 2.0000299217806328 109.11469866080435
    vertex 95.46559498203918 3.99999999992717 122.85815118949934
    vertex 95.47538898916402 4.000029921674057 109.114718628544
  endloop
endfacet
facet normal -0.9999997565954786 -7.187467253784126e-07 -0.0006977166095899701
  outer loop
    vertex 95.49157270322362 0.00017623136228834822 85.33560540969175
    vertex 95.48943912634385 2.0002005119138544 89.40622154212399
    vertex 95.49125735356046 20.75021780999422 85.34246538349235
  endloop
endfacet
facet normal -0.9999997565954786 -7.187467253784126e-07 -0.0006977166095899701
  outer loop
    vertex 95.48943912634385 2.0002005119138544 89.40622154212399
    vertex 95.49157270322362 0.00017623136228834822 85.33560540969175
    vertex 95.47539423876052 2.0000299217806328 109.11469866080435
  endloop
endfacet
facet normal -0.9999997565954786 -7.187467253784126e-07 -0.0006977166095899701
  outer loop
    vertex 95.49125735356046 20.75021780999422 85.34246538349235
    vertex 95.48943912634385 2.0002005119138544 89.40622154212399
    vertex 95.49061879558539 20.750217819940627 87.40786632655899
  endloop
endfacet
facet normal -0.9999997565954786 -7.187467253784126e-07 -0.0006977166095899701
  outer loop
    vertex 95.49061879558539 20.750217819940627 87.40786632655899
    vertex 95.48943912634385 2.0002005119138544 89.40622154212399
    vertex 95.4894335687321 21.50020051028918 89.40786592285733
  endloop
endfacet
facet normal -0.9999997565954786 -7.187467253784126e-07 -0.0006977166095899701
  outer loop
    vertex 95.49061879558539 20.750217819940627 87.40786632655899
    vertex 95.4894335687321 21.50020051028918 89.40786592285733
    vertex 95.49037859082347 21.500392941097278 87.40786615538143
  endloop
endfacet
facet normal -0.01577790533389005 0.00016877627495002822 -0.9998755068596509
  outer loop
    vertex 95.49232036557538 48.00025638739905 85.35147425945799
    vertex 91.97047289914038 29.250235335078536 85.4038841201714
    vertex 91.97047285909507 48.00022158964415 85.40399650820271
  endloop
endfacet
facet normal -0.01577790533389005 0.00016877627495002822 -0.9998755068596509
  outer loop
    vertex 91.97047289914038 29.250235335078536 85.4038841201714
    vertex 95.49232036557538 48.00025638739905 85.35147425945799
    vertex 95.49113310944534 29.25021775961803 85.34527548759098
  endloop
endfacet
facet normal -0.0007260274463551723 -8.432072221602377e-05 0.9999997328870459
  outer loop
    vertex 85.48944166556332 2.0002005439506587 89.39909522590378
    vertex 91.98943450789103 21.50019963166947 89.40655081121284
    vertex 91.98943269720642 28.500200399961294 89.40688564146733
  endloop
endfacet
facet normal -0.0007260274463551723 -8.432072221602377e-05 0.9999997328870459
  outer loop
    vertex 91.98943450789103 21.50019963166947 89.40655081121284
    vertex 85.48944166556332 2.0002005439506587 89.39909522590378
    vertex 95.48943912634385 2.0002005119138544 89.40622154212399
  endloop
endfacet
facet normal -0.0007260274463551723 -8.432072221602377e-05 0.9999997328870459
  outer loop
    vertex 91.98943450789103 21.50019963166947 89.40655081121284
    vertex 95.48943912634385 2.0002005119138544 89.40622154212399
    vertex 95.4894335687321 21.50020051028918 89.40786592285733
  endloop
endfacet
facet normal -0.0007260274463551723 -8.432072221602377e-05 0.9999997328870459
  outer loop
    vertex 52.489444795390774 4.000200603647225 89.37559835011655
    vertex 95.48942679794597 46.000200493462714 89.40963578653646
    vertex 52.48943779992887 46.00020059036326 89.37887558265203
  endloop
endfacet
facet normal -0.0007260274463551723 -8.432072221602377e-05 0.9999997328870459
  outer loop
    vertex 95.48942679794597 46.000200493462714 89.40963578653646
    vertex 52.489444795390774 4.000200603647225 89.37559835011655
    vertex 85.48943641596682 4.000200543844083 89.39911519364345
  endloop
endfacet
facet normal -0.0007260274463551723 -8.432072221602377e-05 0.9999997328870459
  outer loop
    vertex 95.48942679794597 46.000200493462714 89.40963578653646
    vertex 85.48943641596682 4.000200543844083 89.39911519364345
    vertex 85.48944166556332 2.0002005439506587 89.39909522590378
  endloop
endfacet
facet normal -0.0007260274463551723 -8.432072221602377e-05 0.9999997328870459
  outer loop
    vertex 95.48942679794597 46.000200493462714 89.40963578653646
    vertex 85.48944166556332 2.0002005439506587 89.39909522590378
    vertex 91.98943269720642 28.500200399961294 89.40688564146733
  endloop
endfacet
facet normal -0.0007260274463551723 -8.432072221602377e-05 0.9999997328870459
  outer loop
    vertex 95.48942679794597 46.000200493462714 89.40963578653646
    vertex 91.98943269720642 28.500200399961294 89.40688564146733
    vertex 95.48943127257824 28.500201223281685 89.408878106621
  endloop
endfacet
facet normal 2.900075399101732e-07 -0.9999999953712682 -9.621527777323776e-05
  outer loop
    vertex 95.49037629466962 28.500393654089788 87.40887833914512
    vertex 91.98943269720642 28.500200399961294 89.40688564146733
    vertex 91.9903777192978 28.500392830769396 87.40688587399144
  endloop
endfacet
facet normal 2.900075399101732e-07 -0.9999999953712682 -9.621527777323776e-05
  outer loop
    vertex 91.98943269720642 28.500200399961294 89.40688564146733
    vertex 95.49037629466962 28.500393654089788 87.40887833914512
    vertex 95.48943127257824 28.500201223281685 89.408878106621
  endloop
endfacet
facet normal -2.398623567681174e-06 -0.9999999999836031 -5.200028523974041e-06
  outer loop
    vertex 95.49067728407289 29.250217777399612 87.41042837806383
    vertex 91.97047289914038 29.250235335078536 85.4038841201714
    vertex 95.49113310944534 29.25021775961803 85.34527548759098
  endloop
endfacet
facet normal -2.398623567681174e-06 -0.9999999999836031 -5.200028523974041e-06
  outer loop
    vertex 91.97047289914038 29.250235335078536 85.4038841201714
    vertex 95.49067728407289 29.250217777399612 87.41042837806383
    vertex 91.24085635234232 29.25021778165131 87.40738825267356
  endloop
endfacet
facet normal -2.398623567681174e-06 -0.9999999999836031 -5.200028523974041e-06
  outer loop
    vertex 91.24085635234232 29.25021778165131 87.40738825267356
    vertex 91.24234181702722 29.250235818878302 85.32291113748406
    vertex 91.97047289914038 29.250235335078536 85.4038841201714
  endloop
endfacet
facet normal 0.99999988836661 2.360676031652689e-07 0.0004725110705856506
  outer loop
    vertex 91.9903795299824 21.50039206247757 87.40655104373695
    vertex 91.98943269720642 28.500200399961294 89.40688564146733
    vertex 91.98943450789103 21.50019963166947 89.40655081121284
  endloop
endfacet
facet normal 0.99999988836661 2.360676031652689e-07 0.0004725110705856506
  outer loop
    vertex 91.98943269720642 28.500200399961294 89.40688564146733
    vertex 91.9903795299824 21.50039206247757 87.40655104373695
    vertex 91.9903777192978 28.500392830769396 87.40688587399144
  endloop
endfacet
facet normal 0.9999997460746061 2.61768275929929e-06 0.0007126316516664145
  outer loop
    vertex 85.48944166556332 2.0002005439506587 89.39909522590378
    vertex 85.47538644994394 3.99997746482052 109.11471862822958
    vertex 85.47539169954044 1.999977464927096 109.11469866048994
  endloop
endfacet
facet normal 0.9999997460746061 2.61768275929929e-06 0.0007126316516664145
  outer loop
    vertex 85.47538644994394 3.99997746482052 109.11471862822958
    vertex 85.48944166556332 2.0002005439506587 89.39909522590378
    vertex 85.48943641596682 4.000200543844083 89.39911519364345
  endloop
endfacet
endsolid Structure - Back Right - Exterior
