solid Structure - Front Left - Exterior
facet normal 0.9999998185676953 9.276294644428059e-05 -0.0005951971208828716
  outer loop
    vertex 95.45651042767646 2.0007563080517508 1.9921120312887544
    vertex 95.49232357415775 48.00034247505528 52.24637010441258
    vertex 95.49232367240303 2.0003424987278264 52.246645829918165
  endloop
endfacet
facet normal 0.9999998185676953 9.276294644428059e-05 -0.0005951971208828716
  outer loop
    vertex 95.49232357415775 48.00034247505528 52.24637010441258
    vertex 95.45651042767646 2.0007563080517508 1.9921120312887544
    vertex 95.45651021750643 48.00004124450699 1.9913064077933766
  endloop
endfacet
facet normal -0.9807849643572311 -0.19509065468622108 0.0007001034830790133
  outer loop
    vertex 39.389875004967664 0.0003399077653661209 51.882252308065944
    vertex 38.95509939909607 2.0000293779405767 0.03184632782326811
    vertex 39.352924107665565 2.9195974143902958e-05 0.03029641961354521
  endloop
endfacet
facet normal -0.9807849643572311 -0.19509065468622108 0.0007001034830790133
  outer loop
    vertex 38.95509939909607 2.0000293779405767 0.03184632782326811
    vertex 39.389875004967664 0.0003399077653661209 51.882252308065944
    vertex 38.99224912503528 2.0003418488792293 52.162169141642075
  endloop
endfacet
facet normal -0.11052588023532486 -5.90174533264384e-06 -0.9938732463263996
  outer loop
    vertex 3.5218507107919566 48.000407365152945 63.104919295896806
    vertex 4.7499407624538135 28.750408826104984 62.96846296582843
    vertex 3.5218476442874453 28.750408826104984 63.10506349732877
  endloop
endfacet
facet normal -0.11052588023532486 -5.90174533264384e-06 -0.9938732463263996
  outer loop
    vertex 4.7499407624538135 28.750408826104984 62.96846296582843
    vertex 3.5218507107919566 48.000407365152945 63.104919295896806
    vertex 12.83669648961971 48.00040117599266 62.06904695846624
  endloop
endfacet
facet normal -0.11052588023532486 -5.90174533264384e-06 -0.9938732463263996
  outer loop
    vertex 4.7499407624538135 28.750408826104984 62.96846296582843
    vertex 12.83669648961971 48.00040117599266 62.06904695846624
    vertex 4.749942099994823 19.250408850951633 62.96851976595109
  endloop
endfacet
facet normal -0.11052588023532486 -5.90174533264384e-06 -0.9938732463263996
  outer loop
    vertex 4.749942099994823 19.250408850951633 62.96851976595109
    vertex 3.521850813309018 0.00040091275911748877 63.10520700950651
    vertex 3.521850772165301 19.250408850951633 63.10509162405817
  endloop
endfacet
facet normal -0.11052588023532486 -5.90174533264384e-06 -0.9938732463263996
  outer loop
    vertex 3.521850813309018 0.00040091275911748877 63.10520700950651
    vertex 4.749942099994823 19.250408850951633 62.96851976595109
    vertex 12.836696599958861 0.00040091275911748877 62.06933470450525
  endloop
endfacet
facet normal -0.11052588023532486 -5.90174533264384e-06 -0.9938732463263996
  outer loop
    vertex 12.836696599958861 0.00040091275911748877 62.06933470450525
    vertex 4.749942099994823 19.250408850951633 62.96851976595109
    vertex 12.83669648961971 48.00040117599266 62.06904695846624
  endloop
endfacet
facet normal 0.0007126316200251312 7.799910667263517e-05 0.9999997430361237
  outer loop
    vertex 0.002896324489454116 2.0004313677875616 67.1107279697793
    vertex 3.4933284468945907 20.50043288162745 67.10625711919194
    vertex 0.0028928143622088953 20.500431359690456 67.10934679805943
  endloop
endfacet
facet normal 0.0007126316200251312 7.799910667263517e-05 0.9999997430361237
  outer loop
    vertex 3.4933284468945907 20.50043288162745 67.10625711919194
    vertex 0.002896324489454116 2.0004313677875616 67.1107279697793
    vertex 43.002885503386736 2.0004312759501417 67.08008480996264
  endloop
endfacet
facet normal 0.0007126316200251312 7.799910667263517e-05 0.9999997430361237
  outer loop
    vertex 3.4933284468945907 20.50043288162745 67.10625711919194
    vertex 43.002885503386736 2.0004312759501417 67.08008480996264
    vertex 10.017144967316327 44.00049127849257 67.10031553439289
  endloop
endfacet
facet normal 0.0007126316200251312 7.799910667263517e-05 0.9999997430361237
  outer loop
    vertex 3.4933284468945907 20.50043288162745 67.10625711919194
    vertex 10.017144967316327 44.00049127849257 67.10031553439289
    vertex 10.017138971153148 46.000491278463414 67.10030654708183
  endloop
endfacet
facet normal 0.0007126316200251312 7.799910667263517e-05 0.9999997430361237
  outer loop
    vertex 10.017144967316327 44.00049127849257 67.10031553439289
    vertex 43.002885503386736 2.0004312759501417 67.08008480996264
    vertex 43.00287887701271 44.000431257025966 67.07680885136425
  endloop
endfacet
facet normal 0.0007126316200251312 7.799910667263517e-05 0.9999997430361237
  outer loop
    vertex 0.0028894707313796173 27.50043135693486 67.10882419398008
    vertex 10.017138971153148 46.000491278463414 67.10030654708183
    vertex 0.0028837994928160525 46.00043134883586 67.1074430238003
  endloop
endfacet
facet normal 0.0007126316200251312 7.799910667263517e-05 0.9999997430361237
  outer loop
    vertex 10.017138971153148 46.000491278463414 67.10030654708183
    vertex 0.0028894707313796173 27.50043135693486 67.10882419398008
    vertex 3.4933251032637616 27.500432878871855 67.10573451511259
  endloop
endfacet
facet normal 0.0007126316200251312 7.799910667263517e-05 0.9999997430361237
  outer loop
    vertex 10.017138971153148 46.000491278463414 67.10030654708183
    vertex 3.4933251032637616 27.500432878871855 67.10573451511259
    vertex 3.4933284468945907 20.50043288162745 67.10625711919194
  endloop
endfacet
facet normal 0.6379729199947666 4.617120294717315e-06 0.7700587986199712
  outer loop
    vertex 65.84341697168843 44.00050350720403 79.12235656447281
    vertex 76.67435277883602 48.00044974498232 70.14919474387167
    vertex 65.84341696314623 48.000503507130574 79.12233258834162
  endloop
endfacet
facet normal 0.6379729199947666 4.617120294717315e-06 0.7700587986199712
  outer loop
    vertex 76.67435277883602 48.00044974498232 70.14919474387167
    vertex 65.84341697168843 44.00050350720403 79.12235656447281
    vertex 73.02317440277825 44.000467868622835 73.17412141514392
  endloop
endfacet
facet normal 0.6379729199947666 4.617120294717315e-06 0.7700587986199712
  outer loop
    vertex 76.67435277883602 48.00044974498232 70.14919474387167
    vertex 73.02317440277825 44.000467868622835 73.17412141514392
    vertex 76.67435278738039 44.000449745054695 70.1492187200026
  endloop
endfacet
facet normal 0.9999997412624081 1.3894898336556633e-05 -0.0007192232260450621
  outer loop
    vertex 9.435596119544697e-07 19.250409185155835 63.05256937157362
    vertex 0.0014713490790192905 0.0009417907881136499 65.1108645967967
    vertex 4.6245159147417775e-06 0.0006672656347376459 63.05268478197127
  endloop
endfacet
facet normal 0.9999997412624081 1.3894898336556633e-05 -0.0007192232260450621
  outer loop
    vertex 0.0014713490790192905 0.0009417907881136499 65.1108645967967
    vertex 9.435596119544697e-07 19.250409185155835 63.05256937157362
    vertex 0.0014710428600320567 2.0006816346571767 65.11070860955067
  endloop
endfacet
facet normal 0.9999997412624081 1.3894898336556633e-05 -0.0007192232260450621
  outer loop
    vertex 0.0014710428600320567 2.0006816346571767 65.11070860955067
    vertex 0.0028928143622088953 20.500431359690456 67.10934679805943
    vertex 0.002896324489454116 2.0004313677875616 67.1107279697793
  endloop
endfacet
facet normal 0.9999997412624081 1.3894898336556633e-05 -0.0007192232260450621
  outer loop
    vertex 0.0028928143622088953 20.500431359690456 67.10934679805943
    vertex 0.0014710428600320567 2.0006816346571767 65.11070860955067
    vertex 0.0007161646469256766 19.25042117620919 65.05256886065858
  endloop
endfacet
facet normal 0.9999997412624081 1.3894898336556633e-05 -0.0007192232260450621
  outer loop
    vertex 0.0007161646469256766 19.25042117620919 65.05256886065858
    vertex 0.0014710428600320567 2.0006816346571767 65.11070860955067
    vertex 9.435596119544697e-07 19.250409185155835 63.05256937157362
  endloop
endfacet
facet normal 0.9999997412624081 1.3894898336556633e-05 -0.0007192232260450621
  outer loop
    vertex 0.0028928143622088953 20.500431359690456 67.10934679805943
    vertex 0.0007161646469256766 19.25042117620919 65.05256886065858
    vertex 0.0010723577426418273 20.500420110998377 65.05256860682407
  endloop
endfacet
facet normal 0.8094355706496467 -4.934203603712328e-06 0.5872086996483743
  outer loop
    vertex 91.83798460511746 48.000342482859494 52.24897430258093
    vertex 91.49266812730029 0.0003453362990249786 52.72527877658493
    vertex 91.8385774029532 0.0003425245636861973 52.2471469050989
  endloop
endfacet
facet normal 0.8094355706496467 -4.934203603712328e-06 0.5872086996483743
  outer loop
    vertex 91.49266812730029 0.0003453362990249786 52.72527877658493
    vertex 91.83798460511746 48.000342482859494 52.24897430258093
    vertex 91.492743816368 44.00033540386272 52.725004745596216
  endloop
endfacet
facet normal 0.8094355706496467 -4.934203603712328e-06 0.5872086996483743
  outer loop
    vertex 91.492743816368 44.00033540386272 52.725004745596216
    vertex 91.83798460511746 48.000342482859494 52.24897430258093
    vertex 86.29525105783614 44.00038826767595 59.889360539298885
  endloop
endfacet
facet normal 0.8094355706496467 -4.934203603712328e-06 0.5872086996483743
  outer loop
    vertex 86.29525105783614 44.00038826767595 59.889360539298885
    vertex 91.83798460511746 48.000342482859494 52.24897430258093
    vertex 86.29525104929323 48.00038826760177 59.889336563168015
  endloop
endfacet
facet normal -0.35421916060124214 -5.608955855983886e-06 -0.9351624384199202
  outer loop
    vertex 30.712854492823283 48.000368157076764 56.55404659345714
    vertex 21.948263346220152 0.0003877743335010564 59.87417069294509
    vertex 21.948262697658677 48.00038803756722 59.87388304222421
  endloop
endfacet
facet normal -0.35421916060124214 -5.608955855983886e-06 -0.9351624384199202
  outer loop
    vertex 21.948263346220152 0.0003877743335010564 59.87417069294509
    vertex 30.712854492823283 48.000368157076764 56.55404659345714
    vertex 30.712854658940064 0.00036789384484734453 56.554334426917805
  endloop
endfacet
facet normal 0.9999999997517108 -1.039308686976545e-07 -2.228380345575421e-05
  outer loop
    vertex 93.45534686193022 2.000000004235541 0.0003533187049182373
    vertex 93.45651090959706 0.00034249260737482243 52.246582919886585
    vertex 93.45534661014413 0.0 0.0
  endloop
endfacet
facet normal 0.9999999997517108 -1.039308686976545e-07 -2.228380345575421e-05
  outer loop
    vertex 93.45651090959706 0.00034249260737482243 52.246582919886585
    vertex 93.45534686193022 2.000000004235541 0.0003533187049182373
    vertex 93.4565110753813 2.0003424987278264 52.24681555661997
  endloop
endfacet
facet normal 0.9999999997517108 -1.039308686976545e-07 -2.228380345575421e-05
  outer loop
    vertex 93.4565110753813 2.0003424987278264 52.24681555661997
    vertex 93.45534686193022 2.000000004235541 0.0003533187049182373
    vertex 93.45539126038916 2.000384688967742 1.9928250643049819
  endloop
endfacet
facet normal 0.42643164130937006 2.517768427488771e-05 0.9045197922965982
  outer loop
    vertex 41.25158066551629 44.00668331305622 92.6649469608886
    vertex 53.973253930117785 48.00054870619225 86.6672383524781
    vertex 41.251063241676704 48.00058462934767 92.66492436527193
  endloop
endfacet
facet normal 0.42643164130937006 2.517768427488771e-05 0.9045197922965982
  outer loop
    vertex 53.973253930117785 48.00054870619225 86.6672383524781
    vertex 41.25158066551629 44.00668331305622 92.6649469608886
    vertex 49.518337979367296 44.00056128543936 88.76746564984248
  endloop
endfacet
facet normal 0.42643164130937006 2.517768427488771e-05 0.9045197922965982
  outer loop
    vertex 53.973253930117785 48.00054870619225 86.6672383524781
    vertex 49.518337979367296 44.00056128543936 88.76746564984248
    vertex 53.973253938661244 44.00054870626643 86.66726232860883
  endloop
endfacet
facet normal 0.18808127596230936 5.8874616488022975e-06 0.9821534674365954
  outer loop
    vertex 14.063417922104295 44.00062653711431 99.66620502257673
    vertex 27.87748144484989 48.00061071006568 97.02080353545779
    vertex 14.063417913561015 48.000626537041924 99.66618104644623
  endloop
endfacet
facet normal 0.18808127596230936 5.8874616488022975e-06 0.9821534674365954
  outer loop
    vertex 27.87748144484989 48.00061071006568 97.02080353545779
    vertex 14.063417922104295 44.00062653711431 99.66620502257673
    vertex 27.87748145339281 44.00061071013878 97.02082751158846
  endloop
endfacet
facet normal 3.434637556817409e-06 -0.9999999998543481 1.6718463116172705e-05
  outer loop
    vertex 91.492743816368 44.00033540386272 52.725004745596216
    vertex 42.95652355695193 44.000109650753465 2.0287435436713124
    vertex 91.45659141787046 44.00007043436881 1.9941808531014
  endloop
endfacet
facet normal 3.434637556817409e-06 -0.9999999998543481 1.6718463116172705e-05
  outer loop
    vertex 42.95652355695193 44.000109650753465 2.0287435436713124
    vertex 91.492743816368 44.00033540386272 52.725004745596216
    vertex 43.00287887701271 44.000431257025966 67.07680885136425
  endloop
endfacet
facet normal 3.434637556817409e-06 -0.9999999998543481 1.6718463116172705e-05
  outer loop
    vertex 43.00287887701271 44.000431257025966 67.07680885136425
    vertex 91.492743816368 44.00033540386272 52.725004745596216
    vertex 86.29525105783614 44.00038826767595 59.889360539298885
  endloop
endfacet
facet normal 3.434637556817409e-06 -0.9999999998543481 1.6718463116172705e-05
  outer loop
    vertex 43.00287887701271 44.000431257025966 67.07680885136425
    vertex 86.29525105783614 44.00038826767595 59.889360539298885
    vertex 76.67435278738039 44.000449745054695 70.1492187200026
  endloop
endfacet
facet normal 3.434637556817409e-06 -0.9999999998543481 1.6718463116172705e-05
  outer loop
    vertex 43.00287887701271 44.000431257025966 67.07680885136425
    vertex 76.67435278738039 44.000449745054695 70.1492187200026
    vertex 10.017144967316327 44.00049127849257 67.10031553439289
  endloop
endfacet
facet normal 3.434637556817409e-06 -0.9999999998543481 1.6718463116172705e-05
  outer loop
    vertex 10.017144967316327 44.00049127849257 67.10031553439289
    vertex 76.67435278738039 44.000449745054695 70.1492187200026
    vertex 10.017144967316462 44.00055122950846 87.1074469323141
  endloop
endfacet
facet normal 3.434637556817409e-06 -0.9999999998543481 1.6718463116172705e-05
  outer loop
    vertex 10.017144967316462 44.00055122950846 87.1074469323141
    vertex 76.67435278738039 44.000449745054695 70.1492187200026
    vertex 73.02317440277825 44.000467868622835 73.17412141514392
  endloop
endfacet
facet normal 3.434637556817409e-06 -0.9999999998543481 1.6718463116172705e-05
  outer loop
    vertex 10.017144967316462 44.00055122950846 87.1074469323141
    vertex 73.02317440277825 44.000467868622835 73.17412141514392
    vertex 65.84341697168843 44.00050350720403 79.12235656447281
  endloop
endfacet
facet normal 3.434637556817409e-06 -0.9999999998543481 1.6718463116172705e-05
  outer loop
    vertex 10.017144967316462 44.00055122950846 87.1074469323141
    vertex 65.84341697168843 44.00050350720403 79.12235656447281
    vertex 53.973253938661244 44.00054870626643 86.66726232860883
  endloop
endfacet
facet normal 3.434637556817409e-06 -0.9999999998543481 1.6718463116172705e-05
  outer loop
    vertex 10.017144967316462 44.00055122950846 87.1074469323141
    vertex 53.973253938661244 44.00054870626643 86.66726232860883
    vertex 49.518337979367296 44.00056128543936 88.76746564984248
  endloop
endfacet
facet normal 3.434637556817409e-06 -0.9999999998543481 1.6718463116172705e-05
  outer loop
    vertex 10.017144967316462 44.00055122950846 87.1074469323141
    vertex 49.518337979367296 44.00056128543936 88.76746564984248
    vertex 0.017142428096386195 44.00055122950485 87.1074469323141
  endloop
endfacet
facet normal 3.434637556817409e-06 -0.9999999998543481 1.6718463116172705e-05
  outer loop
    vertex 0.017142428096386195 44.00055122950485 87.1074469323141
    vertex 49.518337979367296 44.00056128543936 88.76746564984248
    vertex 0.026728690364252825 44.00063186074467 100.55936169074704
  endloop
endfacet
facet normal 3.434637556817409e-06 -0.9999999998543481 1.6718463116172705e-05
  outer loop
    vertex 0.026728690364252825 44.00063186074467 100.55936169074704
    vertex 49.518337979367296 44.00056128543936 88.76746564984248
    vertex 41.25158066551629 44.00668331305622 92.6649469608886
  endloop
endfacet
facet normal 3.434637556817409e-06 -0.9999999998543481 1.6718463116172705e-05
  outer loop
    vertex 0.026728690364252825 44.00063186074467 100.55936169074704
    vertex 41.25158066551629 44.00668331305622 92.6649469608886
    vertex 27.87748145339281 44.00061071013878 97.02082751158846
  endloop
endfacet
facet normal 3.434637556817409e-06 -0.9999999998543481 1.6718463116172705e-05
  outer loop
    vertex 0.026728690364252825 44.00063186074467 100.55936169074704
    vertex 27.87748145339281 44.00061071013878 97.02082751158846
    vertex 14.063417922104295 44.00062653711431 99.66620502257673
  endloop
endfacet
facet normal -0.0006331283073969258 4.819074582004596e-06 -0.9999997995626415
  outer loop
    vertex 42.95509830652076 38.00003146855177 0.028780016144303765
    vertex 38.95509939909607 2.0000293779405767 0.03184632782326811
    vertex 38.95509932220944 38.000029377291696 0.03163054264497502
  endloop
endfacet
facet normal -0.0006331283073969258 4.819074582004596e-06 -0.9999997995626415
  outer loop
    vertex 38.95509939909607 2.0000293779405767 0.03184632782326811
    vertex 42.95509830652076 38.00003146855177 0.028780016144303765
    vertex 39.352924107665565 2.9195974143902958e-05 0.03029641961354521
  endloop
endfacet
facet normal -0.0006331283073969258 4.819074582004596e-06 -0.9999997995626415
  outer loop
    vertex 39.352924107665565 2.9195974143902958e-05 0.03029641961354521
    vertex 42.95509830652076 38.00003146855177 0.028780016144303765
    vertex 40.957768974684114 2.0020870375630637 0.030389319168661253
  endloop
endfacet
facet normal -0.0006331283073969258 4.819074582004596e-06 -0.9999997995626415
  outer loop
    vertex 39.352924107665565 2.9195974143902958e-05 0.03029641961354521
    vertex 40.957768974684114 2.0020870375630637 0.030389319168661253
    vertex 40.95510370466367 0.0013620072083568857 0.030403538144330763
  endloop
endfacet
facet normal -0.0006331283073969258 4.819074582004596e-06 -0.9999997995626415
  outer loop
    vertex 40.957768974684114 2.0020870375630637 0.030389319168661253
    vertex 42.95509830652076 38.00003146855177 0.028780016144303765
    vertex 42.957768050792026 2.0007543998799653 0.029003806896835592
  endloop
endfacet
facet normal 0.0003740432841076071 -2.1809027350683436e-05 0.9999999298079916
  outer loop
    vertex 91.8385774029532 0.0003425245636861973 52.2471469050989
    vertex 95.49232357415775 48.00034247505528 52.24637010441258
    vertex 91.83798460511746 48.000342482859494 52.24897430258093
  endloop
endfacet
facet normal 0.0003740432841076071 -2.1809027350683436e-05 0.9999999298079916
  outer loop
    vertex 95.49232357415775 48.00034247505528 52.24637010441258
    vertex 91.8385774029532 0.0003425245636861973 52.2471469050989
    vertex 93.4565110753813 2.0003424987278264 52.24681555661997
  endloop
endfacet
facet normal 0.0003740432841076071 -2.1809027350683436e-05 0.9999999298079916
  outer loop
    vertex 93.4565110753813 2.0003424987278264 52.24681555661997
    vertex 91.8385774029532 0.0003425245636861973 52.2471469050989
    vertex 93.45651090959706 0.00034249260737482243 52.246582919886585
  endloop
endfacet
facet normal 0.0003740432841076071 -2.1809027350683436e-05 0.9999999298079916
  outer loop
    vertex 95.49232357415775 48.00034247505528 52.24637010441258
    vertex 93.4565110753813 2.0003424987278264 52.24681555661997
    vertex 95.49232367240303 2.0003424987278264 52.246645829918165
  endloop
endfacet
facet normal 0.3096892915306256 2.5570003265971973e-05 0.9508378105951795
  outer loop
    vertex 27.87748145339281 44.00061071013878 97.02082751158846
    vertex 41.251063241676704 48.00058462934767 92.66492436527193
    vertex 27.87748144484989 48.00061071006568 97.02080353545779
  endloop
endfacet
facet normal 0.3096892915306256 2.5570003265971973e-05 0.9508378105951795
  outer loop
    vertex 41.251063241676704 48.00058462934767 92.66492436527193
    vertex 27.87748145339281 44.00061071013878 97.02082751158846
    vertex 41.25158066551629 44.00668331305622 92.6649469608886
  endloop
endfacet
facet normal 0.014915699878086847 -6.743727614259021e-06 -0.9998887547380805
  outer loop
    vertex 4.303535057204044e-08 48.0004267320933 63.05239699970317
    vertex 3.5218476442874453 28.750408826104984 63.10506349732877
    vertex 0.0 28.7504091603081 63.05251241440735
  endloop
endfacet
facet normal 0.014915699878086847 -6.743727614259021e-06 -0.9998887547380805
  outer loop
    vertex 3.5218476442874453 28.750408826104984 63.10506349732877
    vertex 4.303535057204044e-08 48.0004267320933 63.05239699970317
    vertex 3.5218507107919566 48.000407365152945 63.104919295896806
  endloop
endfacet
facet normal 0.9999997556288462 3.804818335656524e-05 -0.000698064885009558
  outer loop
    vertex 42.957768050792026 2.0007543998799653 0.029003806896835592
    vertex 43.00287887701271 44.000431257025966 67.07680885136425
    vertex 43.002885503386736 2.0004312759501417 67.08008480996264
  endloop
endfacet
facet normal 0.9999997556288462 3.804818335656524e-05 -0.000698064885009558
  outer loop
    vertex 43.00287887701271 44.000431257025966 67.07680885136425
    vertex 42.957768050792026 2.0007543998799653 0.029003806896835592
    vertex 42.956523569764954 38.00004135681486 2.0287795082769997
  endloop
endfacet
facet normal 0.9999997556288462 3.804818335656524e-05 -0.000698064885009558
  outer loop
    vertex 42.956523569764954 38.00004135681486 2.0287795082769997
    vertex 42.957768050792026 2.0007543998799653 0.029003806896835592
    vertex 42.95509830652076 38.00003146855177 0.028780016144303765
  endloop
endfacet
facet normal 0.9999997556288462 3.804818335656524e-05 -0.000698064885009558
  outer loop
    vertex 43.00287887701271 44.000431257025966 67.07680885136425
    vertex 42.956523569764954 38.00004135681486 2.0287795082769997
    vertex 42.95652355695193 44.000109650753465 2.0287435436713124
  endloop
endfacet
facet normal 0.06350172899176361 5.982070678566218e-06 0.9979817284796708
  outer loop
    vertex 0.026728690364252825 44.00063186074467 100.55936169074704
    vertex 14.063417913561015 48.000626537041924 99.66618104644623
    vertex 0.026728681821153087 48.00063186067229 100.55933771461645
  endloop
endfacet
facet normal 0.06350172899176361 5.982070678566218e-06 0.9979817284796708
  outer loop
    vertex 14.063417913561015 48.000626537041924 99.66618104644623
    vertex 0.026728690364252825 44.00063186074467 100.55936169074704
    vertex 14.063417922104295 44.00062653711431 99.66620502257673
  endloop
endfacet
facet normal -0.9999997460780535 2.1357976432175136e-09 0.0007126316220463934
  outer loop
    vertex 38.99224912503528 2.0003418488792293 52.162169141642075
    vertex 38.95509932220944 38.000029377291696 0.03163054264497502
    vertex 38.95509939909607 2.0000293779405767 0.03184632782326811
  endloop
endfacet
facet normal -0.9999997460780535 2.1357976432175136e-09 0.0007126316220463934
  outer loop
    vertex 38.95509932220944 38.000029377291696 0.03163054264497502
    vertex 38.99224912503528 2.0003418488792293 52.162169141642075
    vertex 38.95652458545399 38.00004136535832 2.031630034765173
  endloop
endfacet
facet normal -0.9999997460780535 2.1357976432175136e-09 0.0007126316220463934
  outer loop
    vertex 38.95652458545399 38.00004136535832 2.031630034765173
    vertex 38.99224912503528 2.0003418488792293 52.162169141642075
    vertex 38.992249026790354 48.0003418480503 52.161893416136216
  endloop
endfacet
facet normal -0.9999997460780535 2.1357976432175136e-09 0.0007126316220463934
  outer loop
    vertex 38.95652458545399 38.00004136535832 2.031630034765173
    vertex 38.992249026790354 48.0003418480503 52.161893416136216
    vertex 38.956524564097144 48.00004136517521 2.0315700944381034
  endloop
endfacet
facet normal 0.536428353699855 5.059784792250309e-06 0.8439458639754459
  outer loop
    vertex 53.973253938661244 44.00054870626643 86.66726232860883
    vertex 65.84341696314623 48.000503507130574 79.12233258834162
    vertex 53.973253930117785 48.00054870619225 86.6672383524781
  endloop
endfacet
facet normal 0.536428353699855 5.059784792250309e-06 0.8439458639754459
  outer loop
    vertex 65.84341696314623 48.000503507130574 79.12233258834162
    vertex 53.973253938661244 44.00054870626643 86.66726232860883
    vertex 65.84341697168843 44.00050350720403 79.12235656447281
  endloop
endfacet
facet normal -0.9999997479530718 -2.226495659793428e-06 0.0007099921379878982
  outer loop
    vertex 91.49266812730029 0.0003453362990249786 52.72527877658493
    vertex 91.45542740604654 2.000715048404023 0.0012365071905992009
    vertex 91.4554272941221 8.542919260889903e-09 0.00213783791096791
  endloop
endfacet
facet normal -0.9999997479530718 -2.226495659793428e-06 0.0007099921379878982
  outer loop
    vertex 91.45542740604654 2.000715048404023 0.0012365071905992009
    vertex 91.49266812730029 0.0003453362990249786 52.72527877658493
    vertex 91.45659161949762 2.00075631659467 1.9935372659648094
  endloop
endfacet
facet normal -0.9999997479530718 -2.226495659793428e-06 0.0007099921379878982
  outer loop
    vertex 91.45659161949762 2.00075631659467 1.9935372659648094
    vertex 91.49266812730029 0.0003453362990249786 52.72527877658493
    vertex 91.492743816368 44.00033540386272 52.725004745596216
  endloop
endfacet
facet normal -0.9999997479530718 -2.226495659793428e-06 0.0007099921379878982
  outer loop
    vertex 91.45659161949762 2.00075631659467 1.9935372659648094
    vertex 91.492743816368 44.00033540386272 52.725004745596216
    vertex 91.45659144667495 38.00004123915485 1.9934488234333747
  endloop
endfacet
facet normal -0.9999997479530718 -2.226495659793428e-06 0.0007099921379878982
  outer loop
    vertex 91.45659144667495 38.00004123915485 1.9934488234333747
    vertex 91.492743816368 44.00033540386272 52.725004745596216
    vertex 91.45659141787046 44.00007043436881 1.9941808531014
  endloop
endfacet
facet normal 0.729456272234689 4.101640946995798e-06 0.6840274459995359
  outer loop
    vertex 86.29525104929323 48.00038826760177 59.889336563168015
    vertex 76.67435278738039 44.000449745054695 70.1492187200026
    vertex 86.29525105783614 44.00038826767595 59.889360539298885
  endloop
endfacet
facet normal 0.729456272234689 4.101640946995798e-06 0.6840274459995359
  outer loop
    vertex 76.67435278738039 44.000449745054695 70.1492187200026
    vertex 86.29525104929323 48.00038826760177 59.889336563168015
    vertex 76.67435277883602 48.00044974498232 70.14919474387167
  endloop
endfacet
facet normal 4.522324478767897e-06 -0.9999999999875286 2.1193477581046903e-06
  outer loop
    vertex 40.95510370466367 0.0013620072083568857 0.030403538144330763
    vertex 39.389875004967664 0.0003399077653661209 51.882252308065944
    vertex 39.352924107665565 2.9195974143902958e-05 0.03029641961354521
  endloop
endfacet
facet normal 4.522324478767897e-06 -0.9999999999875286 2.1193477581046903e-06
  outer loop
    vertex 39.389875004967664 0.0003399077653661209 51.882252308065944
    vertex 40.95510370466367 0.0013620072083568857 0.030403538144330763
    vertex 41.001461275208044 0.0016079163190653389 65.08162683433635
  endloop
endfacet
facet normal 4.522324478767897e-06 -0.9999999999875286 2.1193477581046903e-06
  outer loop
    vertex 39.389875004967664 0.0003399077653661209 51.882252308065944
    vertex 41.001461275208044 0.0016079163190653389 65.08162683433635
    vertex 38.99224920481822 0.0003415848201882454 52.16218139690487
  endloop
endfacet
facet normal 4.522324478767897e-06 -0.9999999999875286 2.1193477581046903e-06
  outer loop
    vertex 38.99224920481822 0.0003415848201882454 52.16218139690487
    vertex 41.001461275208044 0.0016079163190653389 65.08162683433635
    vertex 30.712854658940064 0.00036789384484734453 56.554334426917805
  endloop
endfacet
facet normal 4.522324478767897e-06 -0.9999999999875286 2.1193477581046903e-06
  outer loop
    vertex 30.712854658940064 0.00036789384484734453 56.554334426917805
    vertex 41.001461275208044 0.0016079163190653389 65.08162683433635
    vertex 21.948263346220152 0.0003877743335010564 59.87417069294509
  endloop
endfacet
facet normal 4.522324478767897e-06 -0.9999999999875286 2.1193477581046903e-06
  outer loop
    vertex 21.948263346220152 0.0003877743335010564 59.87417069294509
    vertex 41.001461275208044 0.0016079163190653389 65.08162683433635
    vertex 12.836696599958861 0.00040091275911748877 62.06933470450525
  endloop
endfacet
facet normal 4.522324478767897e-06 -0.9999999999875286 2.1193477581046903e-06
  outer loop
    vertex 12.836696599958861 0.00040091275911748877 62.06933470450525
    vertex 41.001461275208044 0.0016079163190653389 65.08162683433635
    vertex 3.521850813309018 0.00040091275911748877 63.10520700950651
  endloop
endfacet
facet normal 4.522324478767897e-06 -0.9999999999875286 2.1193477581046903e-06
  outer loop
    vertex 3.521850813309018 0.00040091275911748877 63.10520700950651
    vertex 0.0014713490790192905 0.0009417907881136499 65.1108645967967
    vertex 4.6245159147417775e-06 0.0006672656347376459 63.05268478197127
  endloop
endfacet
facet normal 4.522324478767897e-06 -0.9999999999875286 2.1193477581046903e-06
  outer loop
    vertex 0.0014713490790192905 0.0009417907881136499 65.1108645967967
    vertex 3.521850813309018 0.00040091275911748877 63.10520700950651
    vertex 41.001461275208044 0.0016079163190653389 65.08162683433635
  endloop
endfacet
facet normal -2.64236951368048e-07 0.9999999999850107 -5.468895515727472e-06
  outer loop
    vertex 38.95509932220944 38.000029377291696 0.03163054264497502
    vertex 42.956523569764954 38.00004135681486 2.0287795082769997
    vertex 42.95509830652076 38.00003146855177 0.028780016144303765
  endloop
endfacet
facet normal -2.64236951368048e-07 0.9999999999850107 -5.468895515727472e-06
  outer loop
    vertex 42.956523569764954 38.00004135681486 2.0287795082769997
    vertex 38.95509932220944 38.000029377291696 0.03163054264497502
    vertex 38.95652458545399 38.00004136535832 2.031630034765173
  endloop
endfacet
facet normal -0.4686329689525321 -5.299049536550361e-06 -0.8833929705304742
  outer loop
    vertex 38.992249026790354 48.0003418480503 52.161893416136216
    vertex 30.712854658940064 0.00036789384484734453 56.554334426917805
    vertex 30.712854492823283 48.000368157076764 56.55404659345714
  endloop
endfacet
facet normal -0.4686329689525321 -5.299049536550361e-06 -0.8833929705304742
  outer loop
    vertex 30.712854658940064 0.00036789384484734453 56.554334426917805
    vertex 38.992249026790354 48.0003418480503 52.161893416136216
    vertex 38.99224912503528 2.0003418488792293 52.162169141642075
  endloop
endfacet
facet normal -0.4686329689525321 -5.299049536550361e-06 -0.8833929705304742
  outer loop
    vertex 30.712854658940064 0.00036789384484734453 56.554334426917805
    vertex 38.99224912503528 2.0003418488792293 52.162169141642075
    vertex 38.99224920481822 0.0003415848201882454 52.16218139690487
  endloop
endfacet
facet normal 0.014911603067585502 -5.992628100701826e-06 -0.9998888158480638
  outer loop
    vertex 3.521850772165301 19.250408850951633 63.10509162405817
    vertex 4.6245159147417775e-06 0.0006672656347376459 63.05268478197127
    vertex 9.435596119544697e-07 19.250409185155835 63.05256937157362
  endloop
endfacet
facet normal 0.014911603067585502 -5.992628100701826e-06 -0.9998888158480638
  outer loop
    vertex 4.6245159147417775e-06 0.0006672656347376459 63.05268478197127
    vertex 3.521850772165301 19.250408850951633 63.10509162405817
    vertex 3.521850813309018 0.00040091275911748877 63.10520700950651
  endloop
endfacet
facet normal 1.098891670713493e-07 -0.9999999999797127 6.368901461990029e-06
  outer loop
    vertex 4.750684158080051 19.250422284029277 65.04836426350927
    vertex 3.521850772165301 19.250408850951633 63.10509162405817
    vertex 4.749942099994823 19.250408850951633 62.96851976595109
  endloop
endfacet
facet normal 1.098891670713493e-07 -0.9999999999797127 6.368901461990029e-06
  outer loop
    vertex 3.521850772165301 19.250408850951633 63.10509162405817
    vertex 0.0007161646469256766 19.25042117620919 65.05256886065858
    vertex 9.435596119544697e-07 19.250409185155835 63.05256937157362
  endloop
endfacet
facet normal 1.098891670713493e-07 -0.9999999999797127 6.368901461990029e-06
  outer loop
    vertex 0.0007161646469256766 19.25042117620919 65.05256886065858
    vertex 3.521850772165301 19.250408850951633 63.10509162405817
    vertex 4.750684158080051 19.250422284029277 65.04836426350927
  endloop
endfacet
facet normal 0.9999996082245013 4.360305905662181e-07 -0.0008851839662112685
  outer loop
    vertex 3.49150472309317 27.50042163273372 65.04942946809692
    vertex 3.4933284468945907 20.50043288162745 67.10625711919194
    vertex 3.4915079902750237 20.500421632935367 65.04947892795657
  endloop
endfacet
facet normal 0.9999996082245013 4.360305905662181e-07 -0.0008851839662112685
  outer loop
    vertex 3.4933284468945907 20.50043288162745 67.10625711919194
    vertex 3.49150472309317 27.50042163273372 65.04942946809692
    vertex 3.4933251032637616 27.500432878871855 67.10573451511259
  endloop
endfacet
facet normal -4.408715775226226e-07 0.9999999999849495 -5.468709810689686e-06
  outer loop
    vertex 0.001069090560788055 27.500420110796725 65.0525191469644
    vertex 3.4933251032637616 27.500432878871855 67.10573451511259
    vertex 3.49150472309317 27.50042163273372 65.04942946809692
  endloop
endfacet
facet normal -4.408715775226226e-07 0.9999999999849495 -5.468709810689686e-06
  outer loop
    vertex 3.4933251032637616 27.500432878871855 67.10573451511259
    vertex 0.001069090560788055 27.500420110796725 65.0525191469644
    vertex 0.0028894707313796173 27.50043135693486 67.10882419398008
  endloop
endfacet
facet normal -0.9999999363520966 -1.3866057429191248e-07 0.00035678534657390763
  outer loop
    vertex 4.750684158080051 19.250422284029277 65.04836426350927
    vertex 4.7499407624538135 28.750408826104984 62.96846296582843
    vertex 4.749942099994823 19.250408850951633 62.96851976595109
  endloop
endfacet
facet normal -0.9999999363520966 -1.3866057429191248e-07 0.00035678534657390763
  outer loop
    vertex 4.7499407624538135 28.750408826104984 62.96846296582843
    vertex 4.750684158080051 19.250422284029277 65.04836426350927
    vertex 4.750682820483499 28.750422259181722 65.04830730759757
  endloop
endfacet
facet normal -0.0008853188729455 -6.372217850447858e-06 -0.9999996080848673
  outer loop
    vertex 4.750682820483499 28.750422259181722 65.04830730759757
    vertex 0.001069090560788055 27.500420110796725 65.0525191469644
    vertex 0.0007135705557427484 28.750421151361095 65.0525119058591
  endloop
endfacet
facet normal -0.0008853188729455 -6.372217850447858e-06 -0.9999996080848673
  outer loop
    vertex 0.001069090560788055 27.500420110796725 65.0525191469644
    vertex 4.750682820483499 28.750422259181722 65.04830730759757
    vertex 3.49150472309317 27.50042163273372 65.04942946809692
  endloop
endfacet
facet normal -0.0008853188729455 -6.372217850447858e-06 -0.9999996080848673
  outer loop
    vertex 3.49150472309317 27.50042163273372 65.04942946809692
    vertex 4.750682820483499 28.750422259181722 65.04830730759757
    vertex 3.4915079902750237 20.500421632935367 65.04947892795657
  endloop
endfacet
facet normal -0.0008853188729455 -6.372217850447858e-06 -0.9999996080848673
  outer loop
    vertex 0.0010723577426418273 20.500420110998377 65.05256860682407
    vertex 4.750684158080051 19.250422284029277 65.04836426350927
    vertex 0.0007161646469256766 19.25042117620919 65.05256886065858
  endloop
endfacet
facet normal -0.0008853188729455 -6.372217850447858e-06 -0.9999996080848673
  outer loop
    vertex 4.750684158080051 19.250422284029277 65.04836426350927
    vertex 0.0010723577426418273 20.500420110998377 65.05256860682407
    vertex 3.4915079902750237 20.500421632935367 65.04947892795657
  endloop
endfacet
facet normal -0.0008853188729455 -6.372217850447858e-06 -0.9999996080848673
  outer loop
    vertex 4.750684158080051 19.250422284029277 65.04836426350927
    vertex 3.4915079902750237 20.500421632935367 65.04947892795657
    vertex 4.750682820483499 28.750422259181722 65.04830730759757
  endloop
endfacet
facet normal 1.0988323407377794e-07 -0.9999999999797125 6.368924390145816e-06
  outer loop
    vertex 4.750682820483499 28.750422259181722 65.04830730759757
    vertex 3.5218476442874453 28.750408826104984 63.10506349732877
    vertex 4.7499407624538135 28.750408826104984 62.96846296582843
  endloop
endfacet
facet normal 1.0988323407377794e-07 -0.9999999999797125 6.368924390145816e-06
  outer loop
    vertex 3.5218476442874453 28.750408826104984 63.10506349732877
    vertex 0.0007135705557427484 28.750421151361095 65.0525119058591
    vertex 0.0 28.7504091603081 63.05251241440735
  endloop
endfacet
facet normal 1.0988323407377794e-07 -0.9999999999797125 6.368924390145816e-06
  outer loop
    vertex 0.0007135705557427484 28.750421151361095 65.0525119058591
    vertex 3.5218476442874453 28.750408826104984 63.10506349732877
    vertex 4.750682820483499 28.750422259181722 65.04830730759757
  endloop
endfacet
facet normal 4.408715630706607e-07 -0.9999999999849495 5.468693484189462e-06
  outer loop
    vertex 3.4933284468945907 20.50043288162745 67.10625711919194
    vertex 0.0010723577426418273 20.500420110998377 65.05256860682407
    vertex 3.4915079902750237 20.500421632935367 65.04947892795657
  endloop
endfacet
facet normal 4.408715630706607e-07 -0.9999999999849495 5.468693484189462e-06
  outer loop
    vertex 0.0010723577426418273 20.500420110998377 65.05256860682407
    vertex 3.4933284468945907 20.50043288162745 67.10625711919194
    vertex 0.0028928143622088953 20.500431359690456 67.10934679805943
  endloop
endfacet
facet normal 0.9999997453253691 -1.3315243026917284e-05 -0.0007135628223270832
  outer loop
    vertex 4.303535057204044e-08 48.0004267320933 63.05239699970317
    vertex 0.0007135705557427484 28.750421151361095 65.0525119058591
    vertex 0.0 28.7504091603081 63.05251241440735
  endloop
endfacet
facet normal 0.9999997453253691 -1.3315243026917284e-05 -0.0007135628223270832
  outer loop
    vertex 0.0007135705557427484 28.750421151361095 65.0525119058591
    vertex 4.303535057204044e-08 48.0004267320933 63.05239699970317
    vertex 0.0028837994928160525 46.00043134883586 67.1074430238003
  endloop
endfacet
facet normal 0.9999997453253691 -1.3315243026917284e-05 -0.0007135628223270832
  outer loop
    vertex 0.0028837994928160525 46.00043134883586 67.1074430238003
    vertex 4.303535057204044e-08 48.0004267320933 63.05239699970317
    vertex 0.01713643193320813 46.0005512294757 87.10743794500304
  endloop
endfacet
facet normal 0.9999997453253691 -1.3315243026917284e-05 -0.0007135628223270832
  outer loop
    vertex 0.01713643193320813 46.0005512294757 87.10743794500304
    vertex 0.026728690364252825 44.00063186074467 100.55936169074704
    vertex 0.017142428096386195 44.00055122950485 87.1074469323141
  endloop
endfacet
facet normal 0.9999997453253691 -1.3315243026917284e-05 -0.0007135628223270832
  outer loop
    vertex 0.026728690364252825 44.00063186074467 100.55936169074704
    vertex 0.01713643193320813 46.0005512294757 87.10743794500304
    vertex 0.026728681821153087 48.00063186067229 100.55933771461645
  endloop
endfacet
facet normal 0.9999997453253691 -1.3315243026917284e-05 -0.0007135628223270832
  outer loop
    vertex 0.026728681821153087 48.00063186067229 100.55933771461645
    vertex 0.01713643193320813 46.0005512294757 87.10743794500304
    vertex 4.303535057204044e-08 48.0004267320933 63.05239699970317
  endloop
endfacet
facet normal 0.9999997453253691 -1.3315243026917284e-05 -0.0007135628223270832
  outer loop
    vertex 0.0007135705557427484 28.750421151361095 65.0525119058591
    vertex 0.0028894707313796173 27.50043135693486 67.10882419398008
    vertex 0.001069090560788055 27.500420110796725 65.0525191469644
  endloop
endfacet
facet normal 0.9999997453253691 -1.3315243026917284e-05 -0.0007135628223270832
  outer loop
    vertex 0.0028894707313796173 27.50043135693486 67.10882419398008
    vertex 0.0007135705557427484 28.750421151361095 65.0525119058591
    vertex 0.0028837994928160525 46.00043134883586 67.1074430238003
  endloop
endfacet
facet normal 0.0003809018028089064 -0.00031259077661670894 0.9999998786004042
  outer loop
    vertex 93.45534686193022 2.000000004235541 0.0003533187049182373
    vertex 91.45592129614131 38.00003835637061 0.0123681497656426
    vertex 91.45542740604654 2.000715048404023 0.0012365071905992009
  endloop
endfacet
facet normal 0.0003809018028089064 -0.00031259077661670894 0.9999998786004042
  outer loop
    vertex 91.45592129614131 38.00003835637061 0.0123681497656426
    vertex 93.45534686193022 2.000000004235541 0.0003533187049182373
    vertex 93.45472109821998 38.00003836617913 0.011728063066133942
  endloop
endfacet
facet normal 5.2228253763223094e-08 -0.9999999999785223 6.55383933876006e-06
  outer loop
    vertex 93.45651090959706 0.00034249260737482243 52.246582919886585
    vertex 91.4554272941221 8.542919260889903e-09 0.00213783791096791
    vertex 93.45534661014413 0.0 0.0
  endloop
endfacet
facet normal 5.2228253763223094e-08 -0.9999999999785223 6.55383933876006e-06
  outer loop
    vertex 91.4554272941221 8.542919260889903e-09 0.00213783791096791
    vertex 93.45651090959706 0.00034249260737482243 52.246582919886585
    vertex 91.8385774029532 0.0003425245636861973 52.2471469050989
  endloop
endfacet
facet normal 5.2228253763223094e-08 -0.9999999999785223 6.55383933876006e-06
  outer loop
    vertex 91.4554272941221 8.542919260889903e-09 0.00213783791096791
    vertex 91.8385774029532 0.0003425245636861973 52.2471469050989
    vertex 91.49266812730029 0.0003453362990249786 52.72527877658493
  endloop
endfacet
facet normal 2.9980815791738844e-06 -0.9999999999854094 4.493655530193032e-06
  outer loop
    vertex 10.017138971153285 46.000551229479306 87.10743794500304
    vertex 0.0028837994928160525 46.00043134883586 67.1074430238003
    vertex 10.017138971153148 46.000491278463414 67.10030654708183
  endloop
endfacet
facet normal 2.9980815791738844e-06 -0.9999999999854094 4.493655530193032e-06
  outer loop
    vertex 0.0028837994928160525 46.00043134883586 67.1074430238003
    vertex 10.017138971153285 46.000551229479306 87.10743794500304
    vertex 0.01713643193320813 46.0005512294757 87.10743794500304
  endloop
endfacet
facet normal 9.125598426495705e-05 -0.9999999958257282 -4.570477798745437e-06
  outer loop
    vertex 95.49232367240303 2.0003424987278264 52.246645829918165
    vertex 93.45539126038916 2.000384688967742 1.9928250643049819
    vertex 95.45651042767646 2.0007563080517508 1.9921120312887544
  endloop
endfacet
facet normal 9.125598426495705e-05 -0.9999999958257282 -4.570477798745437e-06
  outer loop
    vertex 93.45539126038916 2.000384688967742 1.9928250643049819
    vertex 95.49232367240303 2.0003424987278264 52.246645829918165
    vertex 93.4565110753813 2.0003424987278264 52.24681555661997
  endloop
endfacet
facet normal -5.4249883593482864e-08 -0.9999999999821803 5.969653485652439e-06
  outer loop
    vertex 95.49232357415775 48.00034247505528 52.24637010441258
    vertex 38.956524564097144 48.00004136517521 2.0315700944381034
    vertex 95.45651021750643 48.00004124450699 1.9913064077933766
  endloop
endfacet
facet normal -5.4249883593482864e-08 -0.9999999999821803 5.969653485652439e-06
  outer loop
    vertex 38.956524564097144 48.00004136517521 2.0315700944381034
    vertex 95.49232357415775 48.00034247505528 52.24637010441258
    vertex 38.992249026790354 48.0003418480503 52.161893416136216
  endloop
endfacet
facet normal -5.4249883593482864e-08 -0.9999999999821803 5.969653485652439e-06
  outer loop
    vertex 38.992249026790354 48.0003418480503 52.161893416136216
    vertex 95.49232357415775 48.00034247505528 52.24637010441258
    vertex 91.83798460511746 48.000342482859494 52.24897430258093
  endloop
endfacet
facet normal -5.4249883593482864e-08 -0.9999999999821803 5.969653485652439e-06
  outer loop
    vertex 38.992249026790354 48.0003418480503 52.161893416136216
    vertex 91.83798460511746 48.000342482859494 52.24897430258093
    vertex 30.712854492823283 48.000368157076764 56.55404659345714
  endloop
endfacet
facet normal -5.4249883593482864e-08 -0.9999999999821803 5.969653485652439e-06
  outer loop
    vertex 30.712854492823283 48.000368157076764 56.55404659345714
    vertex 91.83798460511746 48.000342482859494 52.24897430258093
    vertex 86.29525104929323 48.00038826760177 59.889336563168015
  endloop
endfacet
facet normal -5.4249883593482864e-08 -0.9999999999821803 5.969653485652439e-06
  outer loop
    vertex 30.712854492823283 48.000368157076764 56.55404659345714
    vertex 86.29525104929323 48.00038826760177 59.889336563168015
    vertex 21.948262697658677 48.00038803756722 59.87388304222421
  endloop
endfacet
facet normal -5.4249883593482864e-08 -0.9999999999821803 5.969653485652439e-06
  outer loop
    vertex 21.948262697658677 48.00038803756722 59.87388304222421
    vertex 86.29525104929323 48.00038826760177 59.889336563168015
    vertex 12.83669648961971 48.00040117599266 62.06904695846624
  endloop
endfacet
facet normal -5.4249883593482864e-08 -0.9999999999821803 5.969653485652439e-06
  outer loop
    vertex 12.83669648961971 48.00040117599266 62.06904695846624
    vertex 86.29525104929323 48.00038826760177 59.889336563168015
    vertex 76.67435277883602 48.00044974498232 70.14919474387167
  endloop
endfacet
facet normal -5.4249883593482864e-08 -0.9999999999821803 5.969653485652439e-06
  outer loop
    vertex 12.83669648961971 48.00040117599266 62.06904695846624
    vertex 76.67435277883602 48.00044974498232 70.14919474387167
    vertex 3.5218507107919566 48.000407365152945 63.104919295896806
  endloop
endfacet
facet normal -5.4249883593482864e-08 -0.9999999999821803 5.969653485652439e-06
  outer loop
    vertex 3.5218507107919566 48.000407365152945 63.104919295896806
    vertex 0.026728681821153087 48.00063186067229 100.55933771461645
    vertex 4.303535057204044e-08 48.0004267320933 63.05239699970317
  endloop
endfacet
facet normal -5.4249883593482864e-08 -0.9999999999821803 5.969653485652439e-06
  outer loop
    vertex 0.026728681821153087 48.00063186067229 100.55933771461645
    vertex 3.5218507107919566 48.000407365152945 63.104919295896806
    vertex 76.67435277883602 48.00044974498232 70.14919474387167
  endloop
endfacet
facet normal -5.4249883593482864e-08 -0.9999999999821803 5.969653485652439e-06
  outer loop
    vertex 0.026728681821153087 48.00063186067229 100.55933771461645
    vertex 76.67435277883602 48.00044974498232 70.14919474387167
    vertex 65.84341696314623 48.000503507130574 79.12233258834162
  endloop
endfacet
facet normal -5.4249883593482864e-08 -0.9999999999821803 5.969653485652439e-06
  outer loop
    vertex 0.026728681821153087 48.00063186067229 100.55933771461645
    vertex 65.84341696314623 48.000503507130574 79.12233258834162
    vertex 53.973253930117785 48.00054870619225 86.6672383524781
  endloop
endfacet
facet normal -5.4249883593482864e-08 -0.9999999999821803 5.969653485652439e-06
  outer loop
    vertex 0.026728681821153087 48.00063186067229 100.55933771461645
    vertex 53.973253930117785 48.00054870619225 86.6672383524781
    vertex 41.251063241676704 48.00058462934767 92.66492436527193
  endloop
endfacet
facet normal -5.4249883593482864e-08 -0.9999999999821803 5.969653485652439e-06
  outer loop
    vertex 0.026728681821153087 48.00063186067229 100.55933771461645
    vertex 41.251063241676704 48.00058462934767 92.66492436527193
    vertex 27.87748144484989 48.00061071006568 97.02080353545779
  endloop
endfacet
facet normal -5.4249883593482864e-08 -0.9999999999821803 5.969653485652439e-06
  outer loop
    vertex 0.026728681821153087 48.00063186067229 100.55933771461645
    vertex 27.87748144484989 48.00061071006568 97.02080353545779
    vertex 14.063417913561015 48.000626537041924 99.66618104644623
  endloop
endfacet
facet normal 0.0007153611604721395 1.2978330494816986e-05 0.999999744044954
  outer loop
    vertex 42.956523569764954 38.00004135681486 2.0287795082769997
    vertex 42.95652355695193 44.000109650753465 2.0287435436713124
    vertex 38.95652458545399 38.00004136535832 2.031630034765173
  endloop
endfacet
facet normal 0.0007153611604721395 1.2978330494816986e-05 0.999999744044954
  outer loop
    vertex 38.956524564097144 48.00004136517521 2.0315700944381034
    vertex 42.95652355695193 44.000109650753465 2.0287435436713124
    vertex 95.45651021750643 48.00004124450699 1.9913064077933766
  endloop
endfacet
facet normal 0.0007153611604721395 1.2978330494816986e-05 0.999999744044954
  outer loop
    vertex 42.95652355695193 44.000109650753465 2.0287435436713124
    vertex 38.956524564097144 48.00004136517521 2.0315700944381034
    vertex 38.95652458545399 38.00004136535832 2.031630034765173
  endloop
endfacet
facet normal 0.0007153611604721395 1.2978330494816986e-05 0.999999744044954
  outer loop
    vertex 95.45651021750643 48.00004124450699 1.9913064077933766
    vertex 42.95652355695193 44.000109650753465 2.0287435436713124
    vertex 91.45659141787046 44.00007043436881 1.9941808531014
  endloop
endfacet
facet normal 0.0007153611604721395 1.2978330494816986e-05 0.999999744044954
  outer loop
    vertex 95.45651021750643 48.00004124450699 1.9913064077933766
    vertex 91.45659141787046 44.00007043436881 1.9941808531014
    vertex 91.45659144667495 38.00004123915485 1.9934488234333747
  endloop
endfacet
facet normal 0.0007153611604721395 1.2978330494816986e-05 0.999999744044954
  outer loop
    vertex 95.45651021750643 48.00004124450699 1.9913064077933766
    vertex 91.45659144667495 38.00004123915485 1.9934488234333747
    vertex 93.45539124875361 38.00004124896337 1.9928087367338632
  endloop
endfacet
facet normal 0.0007153611604721395 1.2978330494816986e-05 0.999999744044954
  outer loop
    vertex 95.45651021750643 48.00004124450699 1.9913064077933766
    vertex 93.45539124875361 38.00004124896337 1.9928087367338632
    vertex 93.45539126038916 2.000384688967742 1.9928250643049819
  endloop
endfacet
facet normal 0.0007153611604721395 1.2978330494816986e-05 0.999999744044954
  outer loop
    vertex 95.45651021750643 48.00004124450699 1.9913064077933766
    vertex 93.45539126038916 2.000384688967742 1.9928250643049819
    vertex 95.45651042767646 2.0007563080517508 1.9921120312887544
  endloop
endfacet
facet normal 0.0007153611604721393 1.2978330494816979e-05 0.999999744044954
  outer loop
    vertex 42.956523569764954 38.00004135681486 2.0287795082769997
    vertex 42.95652355695193 44.000109650753465 2.0287435436713124
    vertex 38.95652458545399 38.00004136535832 2.031630034765173
  endloop
endfacet
facet normal 0.0007153611604721393 1.2978330494816979e-05 0.999999744044954
  outer loop
    vertex 38.956524564097144 48.00004136517521 2.0315700944381034
    vertex 42.95652355695193 44.000109650753465 2.0287435436713124
    vertex 95.45651021750643 48.00004124450699 1.9913064077933766
  endloop
endfacet
facet normal 0.0007153611604721393 1.2978330494816979e-05 0.999999744044954
  outer loop
    vertex 42.95652355695193 44.000109650753465 2.0287435436713124
    vertex 38.956524564097144 48.00004136517521 2.0315700944381034
    vertex 38.95652458545399 38.00004136535832 2.031630034765173
  endloop
endfacet
facet normal 0.0007153611604721393 1.2978330494816979e-05 0.999999744044954
  outer loop
    vertex 95.45651021750643 48.00004124450699 1.9913064077933766
    vertex 42.95652355695193 44.000109650753465 2.0287435436713124
    vertex 91.45659141787046 44.00007043436881 1.9941808531014
  endloop
endfacet
facet normal 0.0007153611604721393 1.2978330494816979e-05 0.999999744044954
  outer loop
    vertex 95.45651021750643 48.00004124450699 1.9913064077933766
    vertex 91.45659141787046 44.00007043436881 1.9941808531014
    vertex 91.45659144667495 38.00004123915485 1.9934488234333747
  endloop
endfacet
facet normal 0.0007153611604721393 1.2978330494816979e-05 0.999999744044954
  outer loop
    vertex 95.45651021750643 48.00004124450699 1.9913064077933766
    vertex 91.45659144667495 38.00004123915485 1.9934488234333747
    vertex 93.45539124875361 38.00004124896337 1.9928087367338632
  endloop
endfacet
facet normal 0.0007153611604721393 1.2978330494816979e-05 0.999999744044954
  outer loop
    vertex 95.45651021750643 48.00004124450699 1.9913064077933766
    vertex 93.45539124875361 38.00004124896337 1.9928087367338632
    vertex 93.45539126038916 2.000384688967742 1.9928250643049819
  endloop
endfacet
facet normal 0.0007153611604721393 1.2978330494816979e-05 0.999999744044954
  outer loop
    vertex 95.45651021750643 48.00004124450699 1.9913064077933766
    vertex 93.45539126038916 2.000384688967742 1.9928250643049819
    vertex 95.45651042767646 2.0007563080517508 1.9921120312887544
  endloop
endfacet
facet normal 0.0007153611604721396 1.2978330494817177e-05 0.999999744044954
  outer loop
    vertex 42.956523569764954 38.00004135681486 2.0287795082769997
    vertex 42.95652355695193 44.000109650753465 2.0287435436713124
    vertex 38.95652458545399 38.00004136535832 2.031630034765173
  endloop
endfacet
facet normal 0.0007153611604721396 1.2978330494817177e-05 0.999999744044954
  outer loop
    vertex 38.956524564097144 48.00004136517521 2.0315700944381034
    vertex 42.95652355695193 44.000109650753465 2.0287435436713124
    vertex 95.45651021750643 48.00004124450699 1.9913064077933766
  endloop
endfacet
facet normal 0.0007153611604721396 1.2978330494817177e-05 0.999999744044954
  outer loop
    vertex 42.95652355695193 44.000109650753465 2.0287435436713124
    vertex 38.956524564097144 48.00004136517521 2.0315700944381034
    vertex 38.95652458545399 38.00004136535832 2.031630034765173
  endloop
endfacet
facet normal 0.0007153611604721396 1.2978330494817177e-05 0.999999744044954
  outer loop
    vertex 95.45651021750643 48.00004124450699 1.9913064077933766
    vertex 42.95652355695193 44.000109650753465 2.0287435436713124
    vertex 91.45659141787046 44.00007043436881 1.9941808531014
  endloop
endfacet
facet normal 0.0007153611604721396 1.2978330494817177e-05 0.999999744044954
  outer loop
    vertex 95.45651021750643 48.00004124450699 1.9913064077933766
    vertex 91.45659141787046 44.00007043436881 1.9941808531014
    vertex 91.45659144667495 38.00004123915485 1.9934488234333747
  endloop
endfacet
facet normal 0.0007153611604721396 1.2978330494817177e-05 0.999999744044954
  outer loop
    vertex 95.45651021750643 48.00004124450699 1.9913064077933766
    vertex 91.45659144667495 38.00004123915485 1.9934488234333747
    vertex 93.45539124875361 38.00004124896337 1.9928087367338632
  endloop
endfacet
facet normal 0.0007153611604721396 1.2978330494817177e-05 0.999999744044954
  outer loop
    vertex 95.45651021750643 48.00004124450699 1.9913064077933766
    vertex 93.45539124875361 38.00004124896337 1.9928087367338632
    vertex 93.45539126038916 2.000384688967742 1.9928250643049819
  endloop
endfacet
facet normal 0.0007153611604721396 1.2978330494817177e-05 0.999999744044954
  outer loop
    vertex 95.45651021750643 48.00004124450699 1.9913064077933766
    vertex 93.45539126038916 2.000384688967742 1.9928250643049819
    vertex 95.45651042767646 2.0007563080517508 1.9921120312887544
  endloop
endfacet
facet normal -0.9999999838744371 -8.719704470111773e-06 0.0001793741693526157
  outer loop
    vertex 93.45539126038916 2.000384688967742 1.9928250643049819
    vertex 93.45472109821998 38.00003836617913 0.011728063066133942
    vertex 93.45534686193022 2.000000004235541 0.0003533187049182373
  endloop
endfacet
facet normal -0.9999999838744371 -8.719704470111773e-06 0.0001793741693526157
  outer loop
    vertex 93.45472109821998 38.00003836617913 0.011728063066133942
    vertex 93.45539126038916 2.000384688967742 1.9928250643049819
    vertex 93.45539124875361 38.00004124896337 1.9928087367338632
  endloop
endfacet
facet normal 0.9999998932501096 -6.7864562484273195e-06 -0.00046201051219393614
  outer loop
    vertex 91.45592129614131 38.00003835637061 0.0123681497656426
    vertex 91.45659161949762 2.00075631659467 1.9935372659648094
    vertex 91.45542740604654 2.000715048404023 0.0012365071905992009
  endloop
endfacet
facet normal 0.9999998932501096 -6.7864562484273195e-06 -0.00046201051219393614
  outer loop
    vertex 91.45659161949762 2.00075631659467 1.9935372659648094
    vertex 91.45592129614131 38.00003835637061 0.0123681497656426
    vertex 91.45659144667495 38.00004123915485 1.9934488234333747
  endloop
endfacet
facet normal 0.00033827521719291976 1.4551573198142379e-06 0.9999999427838785
  outer loop
    vertex 91.45659161949762 2.00075631659467 1.9935372659648094
    vertex 93.45539124875361 38.00004124896337 1.9928087367338632
    vertex 91.45659144667495 38.00004123915485 1.9934488234333747
  endloop
endfacet
facet normal 0.00033827521719291976 1.4551573198142379e-06 0.9999999427838785
  outer loop
    vertex 93.45539124875361 38.00004124896337 1.9928087367338632
    vertex 91.45659161949762 2.00075631659467 1.9935372659648094
    vertex 93.45539126038916 2.000384688967742 1.9928250643049819
  endloop
endfacet
facet normal -0.9999999999955057 -2.9980815791637534e-06 8.990464010754867e-12
  outer loop
    vertex 10.017144967316462 44.00055122950846 87.1074469323141
    vertex 10.017138971153148 46.000491278463414 67.10030654708183
    vertex 10.017144967316327 44.00049127849257 67.10031553439289
  endloop
endfacet
facet normal -0.9999999999955057 -2.9980815791637534e-06 8.990464010754867e-12
  outer loop
    vertex 10.017138971153148 46.000491278463414 67.10030654708183
    vertex 10.017144967316462 44.00055122950846 87.1074469323141
    vertex 10.017138971153285 46.000551229479306 87.10743794500304
  endloop
endfacet
facet normal 1.6220102094885258e-18 -4.493655530213227e-06 -0.9999999999899035
  outer loop
    vertex 10.017138971153285 46.000551229479306 87.10743794500304
    vertex 0.017142428096386195 44.00055122950485 87.1074469323141
    vertex 0.01713643193320813 46.0005512294757 87.10743794500304
  endloop
endfacet
facet normal 1.6220102094885258e-18 -4.493655530213227e-06 -0.9999999999899035
  outer loop
    vertex 0.017142428096386195 44.00055122950485 87.1074469323141
    vertex 10.017138971153285 46.000551229479306 87.10743794500304
    vertex 10.017144967316462 44.00055122950846 87.1074469323141
  endloop
endfacet
facet normal -0.0007553113067288811 -0.00013703445392507457 -0.9999997053631509
  outer loop
    vertex 91.45542740604654 2.000715048404023 0.0012365071905992009
    vertex 93.45534661014413 0.0 0.0
    vertex 91.4554272941221 8.542919260889903e-09 0.00213783791096791
  endloop
endfacet
facet normal -0.0007553113067288811 -0.00013703445392507457 -0.9999997053631509
  outer loop
    vertex 93.45534661014413 0.0 0.0
    vertex 91.45542740604654 2.000715048404023 0.0012365071905992009
    vertex 93.45534686193022 2.000000004235541 0.0003533187049182373
  endloop
endfacet
facet normal -0.00027173630644085795 -0.9999999573571934 0.00010698126722761357
  outer loop
    vertex 93.45539126038916 2.000384688967742 1.9928250643049819
    vertex 91.45542740604654 2.000715048404023 0.0012365071905992009
    vertex 93.45534686193022 2.000000004235541 0.0003533187049182373
  endloop
endfacet
facet normal -0.00027173630644085795 -0.9999999573571934 0.00010698126722761357
  outer loop
    vertex 91.45542740604654 2.000715048404023 0.0012365071905992009
    vertex 93.45539126038916 2.000384688967742 1.9928250643049819
    vertex 91.45659161949762 2.00075631659467 1.9935372659648094
  endloop
endfacet
facet normal 5.373197427298768e-09 -0.9999999999989414 1.45515558545153e-06
  outer loop
    vertex 93.45539124875361 38.00004124896337 1.9928087367338632
    vertex 91.45592129614131 38.00003835637061 0.0123681497656426
    vertex 93.45472109821998 38.00003836617913 0.011728063066133942
  endloop
endfacet
facet normal 5.373197427298768e-09 -0.9999999999989414 1.45515558545153e-06
  outer loop
    vertex 91.45592129614131 38.00003835637061 0.0123681497656426
    vertex 93.45539124875361 38.00004124896337 1.9928087367338632
    vertex 91.45659144667495 38.00004123915485 1.9934488234333747
  endloop
endfacet
facet normal 9.32963769640712e-06 -0.9999999999329436 -6.860797182889933e-06
  outer loop
    vertex 43.002885503386736 2.0004312759501417 67.08008480996264
    vertex 40.957768974684114 2.0020870375630637 0.030389319168661253
    vertex 42.957768050792026 2.0007543998799653 0.029003806896835592
  endloop
endfacet
facet normal 9.32963769640712e-06 -0.9999999999329436 -6.860797182889933e-06
  outer loop
    vertex 40.957768974684114 2.0020870375630637 0.030389319168661253
    vertex 43.002885503386736 2.0004312759501417 67.08008480996264
    vertex 41.001461164038744 2.001607915419921 65.08147083616221
  endloop
endfacet
facet normal 9.32963769640712e-06 -0.9999999999329436 -6.860797182889933e-06
  outer loop
    vertex 41.001461164038744 2.001607915419921 65.08147083616221
    vertex 43.002885503386736 2.0004312759501417 67.08008480996264
    vertex 0.0014710428600320567 2.0006816346571767 65.11070860955067
  endloop
endfacet
facet normal 9.32963769640712e-06 -0.9999999999329436 -6.860797182889933e-06
  outer loop
    vertex 0.0014710428600320567 2.0006816346571767 65.11070860955067
    vertex 43.002885503386736 2.0004312759501417 67.08008480996264
    vertex 0.002896324489454116 2.0004313677875616 67.1107279697793
  endloop
endfacet
facet normal -0.575656155823457 -5.033469978325905e-06 -0.8176918675376587
  outer loop
    vertex 39.389875004967664 0.0003399077653661209 51.882252308065944
    vertex 38.99224920481822 0.0003415848201882454 52.16218139690487
    vertex 38.99224912503528 2.0003418488792293 52.162169141642075
  endloop
endfacet
facet normal 0.0007131147661105298 7.800148238951855e-05 0.9999997426915166
  outer loop
    vertex 0.0014713490790192905 0.0009417907881136499 65.1108645967967
    vertex 41.001461164038744 2.001607915419921 65.08147083616221
    vertex 0.0014710428600320567 2.0006816346571767 65.11070860955067
  endloop
endfacet
facet normal 0.0007131147661105298 7.800148238951855e-05 0.9999997426915166
  outer loop
    vertex 41.001461164038744 2.001607915419921 65.08147083616221
    vertex 0.0014713490790192905 0.0009417907881136499 65.1108645967967
    vertex 41.001461275208044 0.0016079163190653389 65.08162683433635
  endloop
endfacet
facet normal 0.9999995384760071 -0.0006663188159480504 -0.0006921466669404325
  outer loop
    vertex 40.957768974684114 2.0020870375630637 0.030389319168661253
    vertex 41.001461275208044 0.0016079163190653389 65.08162683433635
    vertex 40.95510370466367 0.0013620072083568857 0.030403538144330763
  endloop
endfacet
facet normal 0.9999995384760071 -0.0006663188159480504 -0.0006921466669404325
  outer loop
    vertex 41.001461275208044 0.0016079163190653389 65.08162683433635
    vertex 40.957768974684114 2.0020870375630637 0.030389319168661253
    vertex 41.001461164038744 2.001607915419921 65.08147083616221
  endloop
endfacet
facet normal -0.23421910267058396 -5.8288455780549825e-06 -0.9721838364785804
  outer loop
    vertex 21.948262697658677 48.00038803756722 59.87388304222421
    vertex 12.836696599958861 0.00040091275911748877 62.06933470450525
    vertex 12.83669648961971 48.00040117599266 62.06904695846624
  endloop
endfacet
facet normal -0.23421910267058396 -5.8288455780549825e-06 -0.9721838364785804
  outer loop
    vertex 12.836696599958861 0.00040091275911748877 62.06933470450525
    vertex 21.948262697658677 48.00038803756722 59.87388304222421
    vertex 21.948263346220152 0.0003877743335010564 59.87417069294509
  endloop
endfacet
endsolid Structure - Front Left - Exterior
