solid Structure - Front Right - Exterior
facet normal -0.2631053691513179 5.78228367009635e-06 -0.9647671038599493
  outer loop
    vertex 24.207557166875382 48.00024513837841 59.099220049608604
    vertex 15.165502653699305 0.00023324429868836204 61.56482602992602
    vertex 15.165502551184138 48.000230338420145 61.56511374347952
  endloop
endfacet
facet normal -0.2631053691513179 5.78228367009635e-06 -0.9647671038599493
  outer loop
    vertex 15.165502653699305 0.00023324429868836204 61.56482602992602
    vertex 24.207557166875382 48.00024513837841 59.099220049608604
    vertex 24.207557269390865 0.0002480442565875762 59.09893233605524
  endloop
endfacet
facet normal 0.9999997460780538 1.1093772881265613e-07 0.0007126316130756234
  outer loop
    vertex 43.079753359371104 4.000521111249075 2.0029310237469273
    vertex 43.033407131656304 46.000200402940706 67.05437020575401
    vertex 43.03341423833162 4.000200419967332 67.05093691436859
  endloop
endfacet
facet normal 0.9999997460780538 1.1093772881265613e-07 0.0007126316130756234
  outer loop
    vertex 43.033407131656304 46.000200402940706 67.05437020575401
    vertex 43.079753359371104 4.000521111249075 2.0029310237469273
    vertex 43.07975368386093 10.000589530022486 2.001542091719906
  endloop
endfacet
facet normal 0.9999997460780538 1.1093772881265613e-07 0.0007126316130756234
  outer loop
    vertex 43.033407131656304 46.000200402940706 67.05437020575401
    vertex 43.07975368386093 10.000589530022486 2.001542091719906
    vertex 43.081195143170426 10.000602316822173 0.001485570182823116
  endloop
endfacet
facet normal 0.9999997460780538 1.1093772881265613e-07 0.0007126316130756234
  outer loop
    vertex 43.033407131656304 46.000200402940706 67.05437020575401
    vertex 43.081195143170426 10.000602316822173 0.001485570182823116
    vertex 43.08118997425242 46.00060231315219 0.003135017845339738
  endloop
endfacet
facet normal -0.9999997460780637 -1.1095231305377812e-07 -0.0007126315988242687
  outer loop
    vertex 91.54359976657939 48.0002861335094 52.76853344138048
    vertex 91.57974104415521 4.000521007664442 2.0374936574152853
    vertex 91.54360484468047 4.000286134430458 52.768258133013724
  endloop
endfacet
facet normal -0.9999997460780637 -1.1095231305377812e-07 -0.0007126315988242687
  outer loop
    vertex 91.57974104415521 4.000521007664442 2.0374936574152853
    vertex 91.54359976657939 48.0002861335094 52.76853344138048
    vertex 91.57947257690415 48.000593098523495 2.037796965824028
  endloop
endfacet
facet normal -0.9807850317769867 0.19509032410737506 -0.0006977692274634534
  outer loop
    vertex 39.44212203090086 48.000289058548915 51.77733236023959
    vertex 39.081195747622054 46.00060231614326 0.00027333785146135267
    vertex 39.04413630379376 46.00029060457862 52.00390785524107
  endloop
endfacet
facet normal -0.9807850317769867 0.19509032410737506 -0.0006977692274634534
  outer loop
    vertex 39.081195747622054 46.00060231614326 0.00027333785146135267
    vertex 39.44212203090086 48.000289058548915 51.77733236023959
    vertex 39.47901979925021 48.00059941024341 0.0005688279737398938
  endloop
endfacet
facet normal -0.0007890955195172613 -2.6701490959351167e-06 0.9999996886605172
  outer loop
    vertex 95.54394287938163 0.00028897768265139233 52.29532448772973
    vertex 91.88960443434092 48.00028896703626 52.292128843646026
    vertex 91.88960391034084 0.0002889854893112442 52.29272028956169
  endloop
endfacet
facet normal -0.0007890955195172613 -2.6701490959351167e-06 0.9999996886605172
  outer loop
    vertex 91.88960443434092 48.00028896703626 52.292128843646026
    vertex 95.54394287938163 0.00028897768265139233 52.29532448772973
    vertex 93.5439432889796 46.000288986774954 52.294174949991444
  endloop
endfacet
facet normal -0.0007890955195172613 -2.6701490959351167e-06 0.9999996886605172
  outer loop
    vertex 91.88960443434092 48.00028896703626 52.292128843646026
    vertex 93.5439432889796 46.000288986774954 52.294174949991444
    vertex 93.54394328257268 48.00028895820909 52.294186938055184
  endloop
endfacet
facet normal -0.0007890955195172613 -2.6701490959351167e-06 0.9999996886605172
  outer loop
    vertex 93.5439432889796 46.000288986774954 52.294174949991444
    vertex 95.54394287938163 0.00028897768265139233 52.29532448772973
    vertex 95.54394278113666 46.00028898463791 52.29560021323545
  endloop
endfacet
facet normal 0.6368747357907515 -4.61984307566028e-06 0.7709672956034632
  outer loop
    vertex 65.85676107064606 0.00012807233773060034 79.12900218798637
    vertex 73.04498899957427 4.000163680157732 73.19103009810712
    vertex 65.85676106210377 4.000128072263366 79.12902616411759
  endloop
endfacet
facet normal 0.6368747357907515 -4.61984307566028e-06 0.7709672956034632
  outer loop
    vertex 73.04498899957427 4.000163680157732 73.19103009810712
    vertex 65.85676107064606 0.00012807233773060034 79.12900218798637
    vertex 76.70047496579663 0.00018178819278134026 70.17131038821883
  endloop
endfacet
facet normal 0.6368747357907515 -4.61984307566028e-06 0.7709672956034632
  outer loop
    vertex 73.04498899957427 4.000163680157732 73.19103009810712
    vertex 76.70047496579663 0.00018178819278134026 70.17131038821883
    vertex 76.70047495725368 4.000181788120402 70.17133436434979
  endloop
endfacet
facet normal 0.1866812580487052 -5.888262128534901e-06 0.9824205351369043
  outer loop
    vertex 14.047534228704778 5.263671379651669e-06 99.59902966927473
    vertex 27.865354079054292 4.000021031553845 96.97336749329757
    vertex 14.047534220161364 4.0000052635976475 99.59905364540569
  endloop
endfacet
facet normal 0.1866812580487052 -5.888262128534901e-06 0.9824205351369043
  outer loop
    vertex 27.865354079054292 4.000021031553845 96.97336749329757
    vertex 14.047534228704778 5.263671379651669e-06 99.59902966927473
    vertex 27.865354087596536 2.1031630375034638e-05 96.97334351716688
  endloop
endfacet
facet normal -0.3819480854952209 5.538772085718475e-06 -0.9241837804007693
  outer loop
    vertex 32.869254050905894 48.000266613831805 55.51950072101186
    vertex 24.207557269390865 0.0002480442565875762 59.09893233605524
    vertex 24.207557166875382 48.00024513837841 59.099220049608604
  endloop
endfacet
facet normal -0.3819480854952209 5.538772085718475e-06 -0.9241837804007693
  outer loop
    vertex 24.207557269390865 0.0002480442565875762 59.09893233605524
    vertex 32.869254050905894 48.000266613831805 55.51950072101186
    vertex 32.86925415342142 0.0002695197098915969 55.51921300745808
  endloop
endfacet
facet normal -0.4947672523661377 5.207910756034761e-06 -0.869025526644034
  outer loop
    vertex 38.60307053872364 48.00028619339556 52.25503432483724
    vertex 32.86925415342142 0.0002695197098915969 55.51921300745808
    vertex 32.869254050905894 48.000266613831805 55.51950072101186
  endloop
endfacet
facet normal -0.4947672523661377 5.207910756034761e-06 -0.869025526644034
  outer loop
    vertex 32.86925415342142 0.0002695197098915969 55.51921300745808
    vertex 38.60307053872364 48.00028619339556 52.25503432483724
    vertex 38.60307064123949 0.00028909927220652774 52.25474661128354
  endloop
endfacet
facet normal 0.9999997762929197 -2.35918215710151e-05 0.0006684740358768828
  outer loop
    vertex 95.57711177318859 0.00046479484339861753 2.041057084194966
    vertex 95.54394278113666 46.00028898463791 52.29560021323545
    vertex 95.54394287938163 0.00028897768265139233 52.29532448772973
  endloop
endfacet
facet normal 0.9999997762929197 -2.35918215710151e-05 0.0006684740358768828
  outer loop
    vertex 95.54394278113666 46.00028898463791 52.29560021323545
    vertex 95.57711177318859 0.00046479484339861753 2.041057084194966
    vertex 95.5777138378031 46.00042982926565 2.0411057921586155
  endloop
endfacet
facet normal -0.9999997460780586 2.146280507957775e-09 -0.0007126316148537856
  outer loop
    vertex 39.04413630379376 46.00029060457862 52.00390785524107
    vertex 39.07975438360162 0.0005894139075795465 2.000056521537079
    vertex 39.044136402039236 0.00029060540349092886 52.00363212973539
  endloop
endfacet
facet normal -0.9999997460780586 2.146280507957775e-09 -0.0007126316148537856
  outer loop
    vertex 39.07975438360162 0.0005894139075795465 2.000056521537079
    vertex 39.04413630379376 46.00029060457862 52.00390785524107
    vertex 39.07975436288661 10.000589529985445 2.0015420917199007
  endloop
endfacet
facet normal -0.9999997460780586 2.146280507957775e-09 -0.0007126316148537856
  outer loop
    vertex 39.07975436288661 10.000589529985445 2.0015420917199007
    vertex 39.04413630379376 46.00029060457862 52.00390785524107
    vertex 39.0811958221961 10.00060231678513 0.0014855701828228427
  endloop
endfacet
facet normal -0.9999997460780586 2.146280507957775e-09 -0.0007126316148537856
  outer loop
    vertex 39.0811958221961 10.00060231678513 0.0014855701828228427
    vertex 39.04413630379376 46.00029060457862 52.00390785524107
    vertex 39.081195747622054 46.00060231614326 0.00027333785146135267
  endloop
endfacet
facet normal 6.25624160856873e-08 0.9999999999846703 5.536750821249718e-06
  outer loop
    vertex 0.03341807817362614 46.000200493462714 67.02368803129428
    vertex 41.03483471738117 46.0002782104952 65.05294545316907
    vertex 0.0348451837872382 46.00027853056817 65.02364952737537
  endloop
endfacet
facet normal 6.25624160856873e-08 0.9999999999846703 5.536750821249718e-06
  outer loop
    vertex 41.03483471738117 46.0002782104952 65.05294545316907
    vertex 43.08118997425242 46.00060231315219 0.003135017845339738
    vertex 41.081190482096346 46.00060209126171 0.0017097546003592256
  endloop
endfacet
facet normal 6.25624160856873e-08 0.9999999999846703 5.536750821249718e-06
  outer loop
    vertex 43.08118997425242 46.00060231315219 0.003135017845339738
    vertex 41.03483471738117 46.0002782104952 65.05294545316907
    vertex 43.033407131656304 46.000200402940706 67.05437020575401
  endloop
endfacet
facet normal 6.25624160856873e-08 0.9999999999846703 5.536750821249718e-06
  outer loop
    vertex 43.033407131656304 46.000200402940706 67.05437020575401
    vertex 41.03483471738117 46.0002782104952 65.05294545316907
    vertex 0.03341807817362614 46.000200493462714 67.02368803129428
  endloop
endfacet
facet normal 2.4669633901316036e-07 0.9999999999839819 5.65470564418107e-06
  outer loop
    vertex 39.44212203090086 48.000289058548915 51.77733236023959
    vertex 41.081190251379596 48.000602085566456 0.001722160086541402
    vertex 39.47901979925021 48.00059941024341 0.0005688279737398938
  endloop
endfacet
facet normal 2.4669633901316036e-07 0.9999999999839819 5.65470564418107e-06
  outer loop
    vertex 41.081190251379596 48.000602085566456 0.001722160086541402
    vertex 39.44212203090086 48.000289058548915 51.77733236023959
    vertex 41.03483449547634 48.0002782076848 65.05294545301092
  endloop
endfacet
facet normal 2.4669633901316036e-07 0.9999999999839819 5.65470564418107e-06
  outer loop
    vertex 41.03483449547634 48.0002782076848 65.05294545301092
    vertex 39.44212203090086 48.000289058548915 51.77733236023959
    vertex 38.60307053872364 48.00028619339556 52.25503432483724
  endloop
endfacet
facet normal 2.4669633901316036e-07 0.9999999999839819 5.65470564418107e-06
  outer loop
    vertex 41.03483449547634 48.0002782076848 65.05294545301092
    vertex 38.60307053872364 48.00028619339556 52.25503432483724
    vertex 32.869254050905894 48.000266613831805 55.51950072101186
  endloop
endfacet
facet normal 2.4669633901316036e-07 0.9999999999839819 5.65470564418107e-06
  outer loop
    vertex 41.03483449547634 48.0002782076848 65.05294545301092
    vertex 32.869254050905894 48.000266613831805 55.51950072101186
    vertex 24.207557166875382 48.00024513837841 59.099220049608604
  endloop
endfacet
facet normal 2.4669633901316036e-07 0.9999999999839819 5.65470564418107e-06
  outer loop
    vertex 41.03483449547634 48.0002782076848 65.05294545301092
    vertex 24.207557166875382 48.00024513837841 59.099220049608604
    vertex 15.165502551184138 48.000230338420145 61.56511374347952
  endloop
endfacet
facet normal 2.4669633901316036e-07 0.9999999999839819 5.65470564418107e-06
  outer loop
    vertex 41.03483449547634 48.0002782076848 65.05294545301092
    vertex 15.165502551184138 48.000230338420145 61.56511374347952
    vertex 5.885688806586737 48.000222447359285 62.87829318601804
  endloop
endfacet
facet normal 2.4669633901316036e-07 0.9999999999839819 5.65470564418107e-06
  outer loop
    vertex 41.03483449547634 48.0002782076848 65.05294545301092
    vertex 5.885688806586737 48.000222447359285 62.87829318601804
    vertex 0.036311645803071 48.00025638739905 62.96552650421582
  endloop
endfacet
facet normal 2.4669633901316036e-07 0.9999999999839819 5.65470564418107e-06
  outer loop
    vertex 41.03483449547634 48.0002782076848 65.05294545301092
    vertex 0.036311645803071 48.00025638739905 62.96552650421582
    vertex 0.034844906276231664 48.00027852588477 65.02372755664216
  endloop
endfacet
facet normal -0.0007135831971184566 -1.9507361311751712e-05 0.9999997452092094
  outer loop
    vertex 0.0348451837872382 46.00027853056817 65.02364952737537
    vertex 41.03483449547634 48.0002782076848 65.05294545301092
    vertex 0.034844906276231664 48.00027852588477 65.02372755664216
  endloop
endfacet
facet normal -0.0007135831971184566 -1.9507361311751712e-05 0.9999997452092094
  outer loop
    vertex 41.03483449547634 48.0002782076848 65.05294545301092
    vertex 0.0348451837872382 46.00027853056817 65.02364952737537
    vertex 41.03483471738117 46.0002782104952 65.05294545316907
  endloop
endfacet
facet normal 0.8085990890805739 1.8338061330733908e-06 0.5883600200002574
  outer loop
    vertex 91.88960391034084 0.0002889854893112442 52.29272028956169
    vertex 86.3359864509233 4.00024322437041 59.925198913655336
    vertex 86.33598645946567 0.00024322444459343726 59.92517493752425
  endloop
endfacet
facet normal 0.8085990890805739 1.8338061330733908e-06 0.5883600200002574
  outer loop
    vertex 86.3359864509233 4.00024322437041 59.925198913655336
    vertex 91.88960391034084 0.0002889854893112442 52.29272028956169
    vertex 91.54360484468047 4.000286134430458 52.768258133013724
  endloop
endfacet
facet normal 0.8085990890805739 1.8338061330733908e-06 0.5883600200002574
  outer loop
    vertex 91.54360484468047 4.000286134430458 52.768258133013724
    vertex 91.88960391034084 0.0002889854893112442 52.29272028956169
    vertex 91.88960443434092 48.00028896703626 52.292128843646026
  endloop
endfacet
facet normal 0.8085990890805739 1.8338061330733908e-06 0.5883600200002574
  outer loop
    vertex 91.54360484468047 4.000286134430458 52.768258133013724
    vertex 91.88960443434092 48.00028896703626 52.292128843646026
    vertex 91.54359976657939 48.0002861335094 52.76853344138048
  endloop
endfacet
facet normal 7.1707074401980234e-09 0.9999999999820484 5.991931516270133e-06
  outer loop
    vertex 91.54359976657939 48.0002861335094 52.76853344138048
    vertex 93.57947705745866 48.000593071537544 2.0392046641102968
    vertex 91.57947257690415 48.000593098523495 2.037796965824028
  endloop
endfacet
facet normal 7.1707074401980234e-09 0.9999999999820484 5.991931516270133e-06
  outer loop
    vertex 93.57947705745866 48.000593071537544 2.0392046641102968
    vertex 91.54359976657939 48.0002861335094 52.76853344138048
    vertex 91.88960443434092 48.00028896703626 52.292128843646026
  endloop
endfacet
facet normal 7.1707074401980234e-09 0.9999999999820484 5.991931516270133e-06
  outer loop
    vertex 93.54394328257268 48.00028895820909 52.294186938055184
    vertex 93.57947705745866 48.000593071537544 2.0392046641102968
    vertex 91.88960443434092 48.00028896703626 52.292128843646026
  endloop
endfacet
facet normal -1.5805426318623316e-05 -0.9999999998687708 -3.5563082756417767e-06
  outer loop
    vertex 95.5777138378031 46.00042982926565 2.0411057921586155
    vertex 93.5439432889796 46.000288986774954 52.294174949991444
    vertex 93.58169601767898 46.00049305916901 2.039657266818495
  endloop
endfacet
facet normal -1.5805426318623316e-05 -0.9999999998687708 -3.5563082756417767e-06
  outer loop
    vertex 93.5439432889796 46.000288986774954 52.294174949991444
    vertex 95.5777138378031 46.00042982926565 2.0411057921586155
    vertex 95.54394278113666 46.00028898463791 52.29560021323545
  endloop
endfacet
facet normal -0.9999996130135188 -0.0004889798660990553 -0.0007313490982072
  outer loop
    vertex 93.54394328257268 48.00028895820909 52.294186938055184
    vertex 93.58169601767898 46.00049305916901 2.039657266818495
    vertex 93.5439432889796 46.000288986774954 52.294174949991444
  endloop
endfacet
facet normal -0.9999996130135188 -0.0004889798660990553 -0.0007313490982072
  outer loop
    vertex 93.58169601767898 46.00049305916901 2.039657266818495
    vertex 93.54394328257268 48.00028895820909 52.294186938055184
    vertex 93.57947705745866 48.000593071537544 2.0392046641102968
  endloop
endfacet
facet normal 0.535224964141772 -5.062073790038736e-06 0.8447095582114686
  outer loop
    vertex 53.97585661986238 8.292400377953867e-05 86.65698218607922
    vertex 65.85676106210377 4.000128072263366 79.12902616411759
    vertex 53.975856611320545 4.000082923930138 86.65700616221021
  endloop
endfacet
facet normal 0.535224964141772 -5.062073790038736e-06 0.8447095582114686
  outer loop
    vertex 65.85676106210377 4.000128072263366 79.12902616411759
    vertex 53.97585661986238 8.292400377953867e-05 86.65698218607922
    vertex 65.85676107064606 0.00012807233773060034 79.12900218798637
  endloop
endfacet
facet normal -6.377103121419259e-08 0.9999999999863431 5.225858801820729e-06
  outer loop
    vertex 0.009586262266874 3.99999999992717 100.47220343425718
    vertex 10.033422617755425 4.000140542789893 87.02808616839937
    vertex 0.0 4.000080627238801 87.02093603234924
  endloop
endfacet
facet normal -6.377103121419259e-08 0.9999999999863431 5.225858801820729e-06
  outer loop
    vertex 10.033422617755425 4.000140542789893 87.02808616839937
    vertex 0.009586262266874 3.99999999992717 100.47220343425718
    vertex 49.51871265298811 4.000070365936733 88.7505005721766
  endloop
endfacet
facet normal -6.377103121419259e-08 0.9999999999863431 5.225858801820729e-06
  outer loop
    vertex 49.51871265298811 4.000070365936733 88.7505005721766
    vertex 0.009586262266874 3.99999999992717 100.47220343425718
    vertex 41.24513056540101 4.000047055135451 92.6365536170607
  endloop
endfacet
facet normal -6.377103121419259e-08 0.9999999999863431 5.225858801820729e-06
  outer loop
    vertex 41.24513056540101 4.000047055135451 92.6365536170607
    vertex 0.009586262266874 3.99999999992717 100.47220343425718
    vertex 27.865354079054292 4.000021031553845 96.97336749329757
  endloop
endfacet
facet normal -6.377103121419259e-08 0.9999999999863431 5.225858801820729e-06
  outer loop
    vertex 27.865354079054292 4.000021031553845 96.97336749329757
    vertex 0.009586262266874 3.99999999992717 100.47220343425718
    vertex 14.047534220161364 4.0000052635976475 99.59905364540569
  endloop
endfacet
facet normal -6.377103121419259e-08 0.9999999999863431 5.225858801820729e-06
  outer loop
    vertex 10.033422617755425 4.000140542789893 87.02808616839937
    vertex 43.03341423833162 4.000200419967332 67.05093691436859
    vertex 10.03342261775556 4.000200479770474 67.02742007084169
  endloop
endfacet
facet normal -6.377103121419259e-08 0.9999999999863431 5.225858801820729e-06
  outer loop
    vertex 43.03341423833162 4.000200419967332 67.05093691436859
    vertex 10.033422617755425 4.000140542789893 87.02808616839937
    vertex 76.70047495725368 4.000181788120402 70.17133436434979
  endloop
endfacet
facet normal -6.377103121419259e-08 0.9999999999863431 5.225858801820729e-06
  outer loop
    vertex 76.70047495725368 4.000181788120402 70.17133436434979
    vertex 10.033422617755425 4.000140542789893 87.02808616839937
    vertex 73.04498899957427 4.000163680157732 73.19103009810712
  endloop
endfacet
facet normal -6.377103121419259e-08 0.9999999999863431 5.225858801820729e-06
  outer loop
    vertex 73.04498899957427 4.000163680157732 73.19103009810712
    vertex 10.033422617755425 4.000140542789893 87.02808616839937
    vertex 65.85676106210377 4.000128072263366 79.12902616411759
  endloop
endfacet
facet normal -6.377103121419259e-08 0.9999999999863431 5.225858801820729e-06
  outer loop
    vertex 65.85676106210377 4.000128072263366 79.12902616411759
    vertex 10.033422617755425 4.000140542789893 87.02808616839937
    vertex 53.975856611320545 4.000082923930138 86.65700616221021
  endloop
endfacet
facet normal -6.377103121419259e-08 0.9999999999863431 5.225858801820729e-06
  outer loop
    vertex 53.975856611320545 4.000082923930138 86.65700616221021
    vertex 10.033422617755425 4.000140542789893 87.02808616839937
    vertex 49.51871265298811 4.000070365936733 88.7505005721766
  endloop
endfacet
facet normal -6.377103121419259e-08 0.9999999999863431 5.225858801820729e-06
  outer loop
    vertex 43.03341423833162 4.000200419967332 67.05093691436859
    vertex 91.57974104415521 4.000521007664442 2.0374936574152853
    vertex 43.079753359371104 4.000521111249075 2.0029310237469273
  endloop
endfacet
facet normal -6.377103121419259e-08 0.9999999999863431 5.225858801820729e-06
  outer loop
    vertex 91.57974104415521 4.000521007664442 2.0374936574152853
    vertex 43.03341423833162 4.000200419967332 67.05093691436859
    vertex 91.54360484468047 4.000286134430458 52.768258133013724
  endloop
endfacet
facet normal -6.377103121419259e-08 0.9999999999863431 5.225858801820729e-06
  outer loop
    vertex 91.54360484468047 4.000286134430458 52.768258133013724
    vertex 43.03341423833162 4.000200419967332 67.05093691436859
    vertex 86.3359864509233 4.00024322437041 59.925198913655336
  endloop
endfacet
facet normal -6.377103121419259e-08 0.9999999999863431 5.225858801820729e-06
  outer loop
    vertex 86.3359864509233 4.00024322437041 59.925198913655336
    vertex 43.03341423833162 4.000200419967332 67.05093691436859
    vertex 76.70047495725368 4.000181788120402 70.17133436434979
  endloop
endfacet
facet normal -0.1401133239644109 5.934605190728264e-06 -0.9901354737673146
  outer loop
    vertex 15.165502551184138 48.000230338420145 61.56511374347952
    vertex 5.885688909101317 0.00022535323647261406 62.87800547246454
    vertex 5.885688806586737 48.000222447359285 62.87829318601804
  endloop
endfacet
facet normal -0.1401133239644109 5.934605190728264e-06 -0.9901354737673146
  outer loop
    vertex 5.885688909101317 0.00022535323647261406 62.87800547246454
    vertex 15.165502551184138 48.000230338420145 61.56511374347952
    vertex 15.165502653699305 0.00023324429868836204 61.56482602992602
  endloop
endfacet
facet normal 0.4251343750803276 -5.424472459938513e-06 0.9051302464814854
  outer loop
    vertex 41.245130573943214 4.705520918335537e-05 92.63652964092934
    vertex 49.51871265298811 4.000070365936733 88.7505005721766
    vertex 41.24513056540101 4.000047055135451 92.6365536170607
  endloop
endfacet
facet normal 0.4251343750803276 -5.424472459938513e-06 0.9051302464814854
  outer loop
    vertex 49.51871265298811 4.000070365936733 88.7505005721766
    vertex 41.245130573943214 4.705520918335537e-05 92.63652964092934
    vertex 53.97585661986238 8.292400377953867e-05 86.65698218607922
  endloop
endfacet
facet normal 0.4251343750803276 -5.424472459938513e-06 0.9051302464814854
  outer loop
    vertex 49.51871265298811 4.000070365936733 88.7505005721766
    vertex 53.97585661986238 8.292400377953867e-05 86.65698218607922
    vertex 53.975856611320545 4.000082923930138 86.65700616221021
  endloop
endfacet
facet normal -0.4947672523659947 5.207910746938746e-06 -0.8690255266441153
  outer loop
    vertex 38.60307053872364 48.00028619339556 52.25503432483724
    vertex 39.04413630379376 46.00029060457862 52.00390785524107
    vertex 38.60307064123949 0.00028909927220652774 52.25474661128354
  endloop
endfacet
facet normal -0.4947672523659947 5.207910746938746e-06 -0.8690255266441153
  outer loop
    vertex 39.04413630379376 46.00029060457862 52.00390785524107
    vertex 38.60307053872364 48.00028619339556 52.25503432483724
    vertex 39.44212203090086 48.000289058548915 51.77733236023959
  endloop
endfacet
facet normal -0.4947672523659947 5.207910746938746e-06 -0.8690255266441153
  outer loop
    vertex 39.044136402039236 0.00029060540349092886 52.00363212973539
    vertex 38.60307064123949 0.00028909927220652774 52.25474661128354
    vertex 39.04413630379376 46.00029060457862 52.00390785524107
  endloop
endfacet
facet normal 0.06207927817914077 -5.9823389444510486e-06 0.9980712214992318
  outer loop
    vertex 0.009586270809612784 0.0 100.47217945812659
    vertex 14.047534220161364 4.0000052635976475 99.59905364540569
    vertex 0.009586262266874 3.99999999992717 100.47220343425718
  endloop
endfacet
facet normal 0.06207927817914077 -5.9823389444510486e-06 0.9980712214992318
  outer loop
    vertex 14.047534220161364 4.0000052635976475 99.59905364540569
    vertex 0.009586270809612784 0.0 100.47217945812659
    vertex 14.047534228704778 5.263671379651669e-06 99.59902966927473
  endloop
endfacet
facet normal 0.3083391629609221 -5.7013239661702975e-06 0.9512764900658762
  outer loop
    vertex 27.865354087596536 2.1031630375034638e-05 96.97334351716688
    vertex 41.24513056540101 4.000047055135451 92.6365536170607
    vertex 27.865354079054292 4.000021031553845 96.97336749329757
  endloop
endfacet
facet normal 0.3083391629609221 -5.7013239661702975e-06 0.9512764900658762
  outer loop
    vertex 41.24513056540101 4.000047055135451 92.6365536170607
    vertex 27.865354087596536 2.1031630375034638e-05 96.97334351716688
    vertex 41.245130573943214 4.705520918335537e-05 92.63652964092934
  endloop
endfacet
facet normal 0.9999997460780469 1.1094524930270551e-07 0.0007126316224902173
  outer loop
    vertex 41.081190482096346 46.00060209126171 0.0017097546003592256
    vertex 41.03483449547634 48.0002782076848 65.05294545301092
    vertex 41.03483471738117 46.0002782104952 65.05294545316907
  endloop
endfacet
facet normal 0.9999997460780469 1.1094524930270551e-07 0.0007126316224902173
  outer loop
    vertex 41.03483449547634 48.0002782076848 65.05294545301092
    vertex 41.081190482096346 46.00060209126171 0.0017097546003592256
    vertex 41.081190251379596 48.000602085566456 0.001722160086541402
  endloop
endfacet
facet normal 0.7284806124058079 -4.104754758768029e-06 0.6850664181902439
  outer loop
    vertex 86.33598645946567 0.00024322444459343726 59.92517493752425
    vertex 76.70047495725368 4.000181788120402 70.17133436434979
    vertex 76.70047496579663 0.00018178819278134026 70.17131038821883
  endloop
endfacet
facet normal 0.7284806124058079 -4.104754758768029e-06 0.6850664181902439
  outer loop
    vertex 76.70047495725368 4.000181788120402 70.17133436434979
    vertex 86.33598645946567 0.00024322444459343726 59.92517493752425
    vertex 86.3359864509233 4.00024322437041 59.925198913655336
  endloop
endfacet
facet normal -2.6256672721849605e-09 0.9999999999844034 5.585107552263482e-06
  outer loop
    vertex 32.86925415342142 0.0002695197098915969 55.51921300745808
    vertex 91.88960391034084 0.0002889854893112442 52.29272028956169
    vertex 38.60307064123949 0.00028909927220652774 52.25474661128354
  endloop
endfacet
facet normal -2.6256672721849605e-09 0.9999999999844034 5.585107552263482e-06
  outer loop
    vertex 91.88960391034084 0.0002889854893112442 52.29272028956169
    vertex 32.86925415342142 0.0002695197098915969 55.51921300745808
    vertex 86.33598645946567 0.00024322444459343726 59.92517493752425
  endloop
endfacet
facet normal -2.6256672721849605e-09 0.9999999999844034 5.585107552263482e-06
  outer loop
    vertex 86.33598645946567 0.00024322444459343726 59.92517493752425
    vertex 32.86925415342142 0.0002695197098915969 55.51921300745808
    vertex 24.207557269390865 0.0002480442565875762 59.09893233605524
  endloop
endfacet
facet normal -2.6256672721849605e-09 0.9999999999844034 5.585107552263482e-06
  outer loop
    vertex 86.33598645946567 0.00024322444459343726 59.92517493752425
    vertex 24.207557269390865 0.0002480442565875762 59.09893233605524
    vertex 15.165502653699305 0.00023324429868836204 61.56482602992602
  endloop
endfacet
facet normal -2.6256672721849605e-09 0.9999999999844034 5.585107552263482e-06
  outer loop
    vertex 86.33598645946567 0.00024322444459343726 59.92517493752425
    vertex 15.165502653699305 0.00023324429868836204 61.56482602992602
    vertex 76.70047496579663 0.00018178819278134026 70.17131038821883
  endloop
endfacet
facet normal -2.6256672721849605e-09 0.9999999999844034 5.585107552263482e-06
  outer loop
    vertex 76.70047496579663 0.00018178819278134026 70.17131038821883
    vertex 15.165502653699305 0.00023324429868836204 61.56482602992602
    vertex 5.885688909101317 0.00022535323647261406 62.87800547246454
  endloop
endfacet
facet normal -2.6256672721849605e-09 0.9999999999844034 5.585107552263482e-06
  outer loop
    vertex 76.70047496579663 0.00018178819278134026 70.17131038821883
    vertex 5.885688909101317 0.00022535323647261406 62.87800547246454
    vertex 0.035563983451317324 0.00017623136228834822 62.94965765444959
  endloop
endfacet
facet normal -2.6256672721849605e-09 0.9999999999844034 5.585107552263482e-06
  outer loop
    vertex 76.70047496579663 0.00018178819278134026 70.17131038821883
    vertex 0.035563983451317324 0.00017623136228834822 62.94965765444959
    vertex 0.009586270809612784 0.0 100.47217945812659
  endloop
endfacet
facet normal -2.6256672721849605e-09 0.9999999999844034 5.585107552263482e-06
  outer loop
    vertex 76.70047496579663 0.00018178819278134026 70.17131038821883
    vertex 0.009586270809612784 0.0 100.47217945812659
    vertex 65.85676107064606 0.00012807233773060034 79.12900218798637
  endloop
endfacet
facet normal -2.6256672721849605e-09 0.9999999999844034 5.585107552263482e-06
  outer loop
    vertex 65.85676107064606 0.00012807233773060034 79.12900218798637
    vertex 0.009586270809612784 0.0 100.47217945812659
    vertex 53.97585661986238 8.292400377953867e-05 86.65698218607922
  endloop
endfacet
facet normal -2.6256672721849605e-09 0.9999999999844034 5.585107552263482e-06
  outer loop
    vertex 53.97585661986238 8.292400377953867e-05 86.65698218607922
    vertex 0.009586270809612784 0.0 100.47217945812659
    vertex 41.245130573943214 4.705520918335537e-05 92.63652964092934
  endloop
endfacet
facet normal -2.6256672721849605e-09 0.9999999999844034 5.585107552263482e-06
  outer loop
    vertex 41.245130573943214 4.705520918335537e-05 92.63652964092934
    vertex 0.009586270809612784 0.0 100.47217945812659
    vertex 27.865354087596536 2.1031630375034638e-05 96.97334351716688
  endloop
endfacet
facet normal -2.6256672721849605e-09 0.9999999999844034 5.585107552263482e-06
  outer loop
    vertex 27.865354087596536 2.1031630375034638e-05 96.97334351716688
    vertex 0.009586270809612784 0.0 100.47217945812659
    vertex 14.047534228704778 5.263671379651669e-06 99.59902966927473
  endloop
endfacet
facet normal -2.6256672721849605e-09 0.9999999999844034 5.585107552263482e-06
  outer loop
    vertex 39.044136402039236 0.00029060540349092886 52.00363212973539
    vertex 95.57711177318859 0.00046479484339861753 2.041057084194966
    vertex 39.07975438360162 0.0005894139075795465 2.000056521537079
  endloop
endfacet
facet normal -2.6256672721849605e-09 0.9999999999844034 5.585107552263482e-06
  outer loop
    vertex 95.57711177318859 0.00046479484339861753 2.041057084194966
    vertex 39.044136402039236 0.00029060540349092886 52.00363212973539
    vertex 95.54394287938163 0.00028897768265139233 52.29532448772973
  endloop
endfacet
facet normal -2.6256672721849605e-09 0.9999999999844034 5.585107552263482e-06
  outer loop
    vertex 95.54394287938163 0.00028897768265139233 52.29532448772973
    vertex 39.044136402039236 0.00029060540349092886 52.00363212973539
    vertex 38.60307064123949 0.00028909927220652774 52.25474661128354
  endloop
endfacet
facet normal -2.6256672721849605e-09 0.9999999999844034 5.585107552263482e-06
  outer loop
    vertex 95.54394287938163 0.00028897768265139233 52.29532448772973
    vertex 38.60307064123949 0.00028909927220652774 52.25474661128354
    vertex 91.88960391034084 0.0002889854893112442 52.29272028956169
  endloop
endfacet
facet normal -0.0007183859400694276 -7.32323205857613e-05 0.9999997392793003
  outer loop
    vertex 0.03343115170888104 2.000200511836429 67.02028476884732
    vertex 3.5334221966046107 21.50020049460791 67.02384442620752
    vertex 0.032716649170910016 21.500127848289438 67.02197087694955
  endloop
endfacet
facet normal -0.0007183859400694276 -7.32323205857613e-05 0.9999997392793003
  outer loop
    vertex 3.5334221966046107 21.50020049460791 67.02384442620752
    vertex 0.03343115170888104 2.000200511836429 67.02028476884732
    vertex 10.0334286124894 2.000200479799625 67.02741108506753
  endloop
endfacet
facet normal -0.0007183859400694276 -7.32323205857613e-05 0.9999997392793003
  outer loop
    vertex 3.5334221966046107 21.50020049460791 67.02384442620752
    vertex 10.0334286124894 2.000200479799625 67.02741108506753
    vertex 3.5334226421002084 28.500200617097452 67.02322007979913
  endloop
endfacet
facet normal -0.0007183859400694276 -7.32323205857613e-05 0.9999997392793003
  outer loop
    vertex 3.5334226421002084 28.500200617097452 67.02322007979913
    vertex 10.0334286124894 2.000200479799625 67.02741108506753
    vertex 10.03342261775556 4.000200479770474 67.02742007084169
  endloop
endfacet
facet normal -0.0007183859400694276 -7.32323205857613e-05 0.9999997392793003
  outer loop
    vertex 0.033423533091252365 28.50020049538165 67.0219713869584
    vertex 43.033407131656304 46.000200402940706 67.05437020575401
    vertex 0.03341807817362614 46.000200493462714 67.02368803129428
  endloop
endfacet
facet normal -0.0007183859400694276 -7.32323205857613e-05 0.9999997392793003
  outer loop
    vertex 43.033407131656304 46.000200402940706 67.05437020575401
    vertex 0.033423533091252365 28.50020049538165 67.0219713869584
    vertex 3.5334226421002084 28.500200617097452 67.02322007979913
  endloop
endfacet
facet normal -0.0007183859400694276 -7.32323205857613e-05 0.9999997392793003
  outer loop
    vertex 43.033407131656304 46.000200402940706 67.05437020575401
    vertex 3.5334226421002084 28.500200617097452 67.02322007979913
    vertex 10.03342261775556 4.000200479770474 67.02742007084169
  endloop
endfacet
facet normal -0.0007183859400694276 -7.32323205857613e-05 0.9999997392793003
  outer loop
    vertex 43.033407131656304 46.000200402940706 67.05437020575401
    vertex 10.03342261775556 4.000200479770474 67.02742007084169
    vertex 43.03341423833162 4.000200419967332 67.05093691436859
  endloop
endfacet
facet normal -0.9999996486157439 0.0001771851164038629 -0.0008193740436917565
  outer loop
    vertex 0.009586270809612784 0.0 100.47217945812659
    vertex 5.994733838576849e-06 2.000080627267952 87.02092704657508
    vertex 0.035563983451317324 0.00017623136228834822 62.94965765444959
  endloop
endfacet
facet normal -0.9999996486157439 0.0001771851164038629 -0.0008193740436917565
  outer loop
    vertex 5.994733838576849e-06 2.000080627267952 87.02092704657508
    vertex 0.009586270809612784 0.0 100.47217945812659
    vertex 0.009586262266874 3.99999999992717 100.47220343425718
  endloop
endfacet
facet normal -0.9999996486157439 0.0001771851164038629 -0.0008193740436917565
  outer loop
    vertex 5.994733838576849e-06 2.000080627267952 87.02092704657508
    vertex 0.009586262266874 3.99999999992717 100.47220343425718
    vertex 0.0 4.000080627238801 87.02093603234924
  endloop
endfacet
facet normal -0.9999996486157439 0.0001771851164038629 -0.0008193740436917565
  outer loop
    vertex 0.035563983451317324 0.00017623136228834822 62.94965765444959
    vertex 0.03343115170888104 2.000200511836429 67.02028476884732
    vertex 0.03623637982263545 20.750139803592827 62.95652008842331
  endloop
endfacet
facet normal -0.9999996486157439 0.0001771851164038629 -0.0008193740436917565
  outer loop
    vertex 0.03343115170888104 2.000200511836429 67.02028476884732
    vertex 0.035563983451317324 0.00017623136228834822 62.94965765444959
    vertex 5.994733838576849e-06 2.000080627267952 87.02092704657508
  endloop
endfacet
facet normal -0.9999996486157439 0.0001771851164038629 -0.0008193740436917565
  outer loop
    vertex 0.03623637982263545 20.750139803592827 62.95652008842331
    vertex 0.03343115170888104 2.000200511836429 67.02028476884732
    vertex 0.03509802863068714 20.750139902931085 65.02172588496217
  endloop
endfacet
facet normal -0.9999996486157439 0.0001771851164038629 -0.0008193740436917565
  outer loop
    vertex 0.03509802863068714 20.750139902931085 65.02172588496217
    vertex 0.03343115170888104 2.000200511836429 67.02028476884732
    vertex 0.032716649170910016 21.500127848289438 67.02197087694955
  endloop
endfacet
facet normal -0.9999996486157439 0.0001771851164038629 -0.0008193740436917565
  outer loop
    vertex 0.03509802863068714 20.750139902931085 65.02172588496217
    vertex 0.032716649170910016 21.500127848289438 67.02197087694955
    vertex 0.03411767968564803 21.500209902483896 65.02179350694126
  endloop
endfacet
facet normal -0.9999995547179035 -2.1151455256103653e-05 -0.0009434599148577817
  outer loop
    vertex 0.03341807817362614 46.000200493462714 67.02368803129428
    vertex 0.03411560267682958 28.50020988027342 65.02233493505832
    vertex 0.033423533091252365 28.50020049538165 67.0219713869584
  endloop
endfacet
facet normal -0.9999995547179035 -2.1151455256103653e-05 -0.0009434599148577817
  outer loop
    vertex 0.03411560267682958 28.50020988027342 65.02233493505832
    vertex 0.03341807817362614 46.000200493462714 67.02368803129428
    vertex 0.03529958809585807 29.250139729414766 65.022466073031
  endloop
endfacet
facet normal -0.9999995547179035 -2.1151455256103653e-05 -0.0009434599148577817
  outer loop
    vertex 0.03529958809585807 29.250139729414766 65.022466073031
    vertex 0.03341807817362614 46.000200493462714 67.02368803129428
    vertex 0.038116485423261535 29.250152183233105 62.959331215030296
  endloop
endfacet
facet normal -0.9999995547179035 -2.1151455256103653e-05 -0.0009434599148577817
  outer loop
    vertex 0.038116485423261535 29.250152183233105 62.959331215030296
    vertex 0.03341807817362614 46.000200493462714 67.02368803129428
    vertex 0.0348451837872382 46.00027853056817 65.02364952737537
  endloop
endfacet
facet normal -0.9999995547179035 -2.1151455256103653e-05 -0.0009434599148577817
  outer loop
    vertex 0.038116485423261535 29.250152183233105 62.959331215030296
    vertex 0.0348451837872382 46.00027853056817 65.02364952737537
    vertex 0.036311645803071 48.00025638739905 62.96552650421582
  endloop
endfacet
facet normal -0.9999995547179035 -2.1151455256103653e-05 -0.0009434599148577817
  outer loop
    vertex 0.036311645803071 48.00025638739905 62.96552650421582
    vertex 0.0348451837872382 46.00027853056817 65.02364952737537
    vertex 0.034844906276231664 48.00027852588477 65.02372755664216
  endloop
endfacet
facet normal -0.9999995547179035 -2.1151455256103643e-05 -0.0009434599148577816
  outer loop
    vertex 0.03341807817362614 46.000200493462714 67.02368803129428
    vertex 0.03411560267682958 28.50020988027342 65.02233493505832
    vertex 0.033423533091252365 28.50020049538165 67.0219713869584
  endloop
endfacet
facet normal -0.9999995547179035 -2.1151455256103643e-05 -0.0009434599148577816
  outer loop
    vertex 0.03411560267682958 28.50020988027342 65.02233493505832
    vertex 0.03341807817362614 46.000200493462714 67.02368803129428
    vertex 0.03529958809585807 29.250139729414766 65.022466073031
  endloop
endfacet
facet normal -0.9999995547179035 -2.1151455256103643e-05 -0.0009434599148577816
  outer loop
    vertex 0.03529958809585807 29.250139729414766 65.022466073031
    vertex 0.03341807817362614 46.000200493462714 67.02368803129428
    vertex 0.038116485423261535 29.250152183233105 62.959331215030296
  endloop
endfacet
facet normal -0.9999995547179035 -2.1151455256103643e-05 -0.0009434599148577816
  outer loop
    vertex 0.038116485423261535 29.250152183233105 62.959331215030296
    vertex 0.03341807817362614 46.000200493462714 67.02368803129428
    vertex 0.0348451837872382 46.00027853056817 65.02364952737537
  endloop
endfacet
facet normal -0.9999995547179035 -2.1151455256103643e-05 -0.0009434599148577816
  outer loop
    vertex 0.038116485423261535 29.250152183233105 62.959331215030296
    vertex 0.0348451837872382 46.00027853056817 65.02364952737537
    vertex 0.036311645803071 48.00025638739905 62.96552650421582
  endloop
endfacet
facet normal -0.9999995547179035 -2.1151455256103643e-05 -0.0009434599148577816
  outer loop
    vertex 0.036311645803071 48.00025638739905 62.96552650421582
    vertex 0.0348451837872382 46.00027853056817 65.02364952737537
    vertex 0.034844906276231664 48.00027852588477 65.02372755664216
  endloop
endfacet
facet normal -0.9999996486157439 0.00017718511640386293 -0.0008193740436917565
  outer loop
    vertex 0.009586270809612784 0.0 100.47217945812659
    vertex 5.994733838576849e-06 2.000080627267952 87.02092704657508
    vertex 0.035563983451317324 0.00017623136228834822 62.94965765444959
  endloop
endfacet
facet normal -0.9999996486157439 0.00017718511640386293 -0.0008193740436917565
  outer loop
    vertex 5.994733838576849e-06 2.000080627267952 87.02092704657508
    vertex 0.009586270809612784 0.0 100.47217945812659
    vertex 0.009586262266874 3.99999999992717 100.47220343425718
  endloop
endfacet
facet normal -0.9999996486157439 0.00017718511640386293 -0.0008193740436917565
  outer loop
    vertex 5.994733838576849e-06 2.000080627267952 87.02092704657508
    vertex 0.009586262266874 3.99999999992717 100.47220343425718
    vertex 0.0 4.000080627238801 87.02093603234924
  endloop
endfacet
facet normal -0.9999996486157439 0.00017718511640386293 -0.0008193740436917565
  outer loop
    vertex 0.035563983451317324 0.00017623136228834822 62.94965765444959
    vertex 0.03343115170888104 2.000200511836429 67.02028476884732
    vertex 0.03623637982263545 20.750139803592827 62.95652008842331
  endloop
endfacet
facet normal -0.9999996486157439 0.00017718511640386293 -0.0008193740436917565
  outer loop
    vertex 0.03343115170888104 2.000200511836429 67.02028476884732
    vertex 0.035563983451317324 0.00017623136228834822 62.94965765444959
    vertex 5.994733838576849e-06 2.000080627267952 87.02092704657508
  endloop
endfacet
facet normal -0.9999996486157439 0.00017718511640386293 -0.0008193740436917565
  outer loop
    vertex 0.03623637982263545 20.750139803592827 62.95652008842331
    vertex 0.03343115170888104 2.000200511836429 67.02028476884732
    vertex 0.03509802863068714 20.750139902931085 65.02172588496217
  endloop
endfacet
facet normal -0.9999996486157439 0.00017718511640386293 -0.0008193740436917565
  outer loop
    vertex 0.03509802863068714 20.750139902931085 65.02172588496217
    vertex 0.03343115170888104 2.000200511836429 67.02028476884732
    vertex 0.032716649170910016 21.500127848289438 67.02197087694955
  endloop
endfacet
facet normal -0.9999996486157439 0.00017718511640386293 -0.0008193740436917565
  outer loop
    vertex 0.03509802863068714 20.750139902931085 65.02172588496217
    vertex 0.032716649170910016 21.500127848289438 67.02197087694955
    vertex 0.03411767968564803 21.500209902483896 65.02179350694126
  endloop
endfacet
facet normal -0.013596271498088404 0.0001709640340833225 -0.9999075518129911
  outer loop
    vertex 5.885688806586737 48.000222447359285 62.87829318601804
    vertex 0.038116485423261535 29.250152183233105 62.959331215030296
    vertex 0.036311645803071 48.00025638739905 62.96552650421582
  endloop
endfacet
facet normal -0.013596271498088404 0.0001709640340833225 -0.9999075518129911
  outer loop
    vertex 0.038116485423261535 29.250152183233105 62.959331215030296
    vertex 5.885688806586737 48.000222447359285 62.87829318601804
    vertex 4.290312664949774 29.250240814833344 62.900699625542
  endloop
endfacet
facet normal -0.013596271498088404 0.0001709640340833225 -0.9999075518129911
  outer loop
    vertex 4.290312664949774 29.250240814833344 62.900699625542
    vertex 5.885688806586737 48.000222447359285 62.87829318601804
    vertex 4.290316152534974 20.75024097303007 62.89926815022654
  endloop
endfacet
facet normal -0.013596271498088404 0.0001709640340833225 -0.9999075518129911
  outer loop
    vertex 0.03623637982263545 20.750139803592827 62.95652008842331
    vertex 5.885688909101317 0.00022535323647261406 62.87800547246454
    vertex 0.035563983451317324 0.00017623136228834822 62.94965765444959
  endloop
endfacet
facet normal -0.013596271498088404 0.0001709640340833225 -0.9999075518129911
  outer loop
    vertex 5.885688909101317 0.00022535323647261406 62.87800547246454
    vertex 0.03623637982263545 20.750139803592827 62.95652008842331
    vertex 4.290316152534974 20.75024097303007 62.89926815022654
  endloop
endfacet
facet normal -0.013596271498088404 0.0001709640340833225 -0.9999075518129911
  outer loop
    vertex 5.885688909101317 0.00022535323647261406 62.87800547246454
    vertex 4.290316152534974 20.75024097303007 62.89926815022654
    vertex 5.885688806586737 48.000222447359285 62.87829318601804
  endloop
endfacet
facet normal -0.9999999005423909 2.386251523300333e-08 -0.0004459991122585608
  outer loop
    vertex 3.5334221966046107 21.50020049460791 67.02384442620752
    vertex 3.534314408584075 28.50011147664387 65.02373987244786
    vertex 3.5343139630884775 21.50011135415433 65.02436421885625
  endloop
endfacet
facet normal -0.9999999005423909 2.386251523300333e-08 -0.0004459991122585608
  outer loop
    vertex 3.534314408584075 28.50011147664387 65.02373987244786
    vertex 3.5334221966046107 21.50020049460791 67.02384442620752
    vertex 3.5334226421002084 28.500200617097452 67.02322007979913
  endloop
endfacet
facet normal -0.9999995547179035 -2.115145525610366e-05 -0.0009434599148577817
  outer loop
    vertex 0.03341807817362614 46.000200493462714 67.02368803129428
    vertex 0.03411560267682958 28.50020988027342 65.02233493505832
    vertex 0.033423533091252365 28.50020049538165 67.0219713869584
  endloop
endfacet
facet normal -0.9999995547179035 -2.115145525610366e-05 -0.0009434599148577817
  outer loop
    vertex 0.03411560267682958 28.50020988027342 65.02233493505832
    vertex 0.03341807817362614 46.000200493462714 67.02368803129428
    vertex 0.03529958809585807 29.250139729414766 65.022466073031
  endloop
endfacet
facet normal -0.9999995547179035 -2.115145525610366e-05 -0.0009434599148577817
  outer loop
    vertex 0.03529958809585807 29.250139729414766 65.022466073031
    vertex 0.03341807817362614 46.000200493462714 67.02368803129428
    vertex 0.038116485423261535 29.250152183233105 62.959331215030296
  endloop
endfacet
facet normal -0.9999995547179035 -2.115145525610366e-05 -0.0009434599148577817
  outer loop
    vertex 0.038116485423261535 29.250152183233105 62.959331215030296
    vertex 0.03341807817362614 46.000200493462714 67.02368803129428
    vertex 0.0348451837872382 46.00027853056817 65.02364952737537
  endloop
endfacet
facet normal -0.9999995547179035 -2.115145525610366e-05 -0.0009434599148577817
  outer loop
    vertex 0.038116485423261535 29.250152183233105 62.959331215030296
    vertex 0.0348451837872382 46.00027853056817 65.02364952737537
    vertex 0.036311645803071 48.00025638739905 62.96552650421582
  endloop
endfacet
facet normal -0.9999995547179035 -2.115145525610366e-05 -0.0009434599148577817
  outer loop
    vertex 0.036311645803071 48.00025638739905 62.96552650421582
    vertex 0.0348451837872382 46.00027853056817 65.02364952737537
    vertex 0.034844906276231664 48.00027852588477 65.02372755664216
  endloop
endfacet
facet normal -0.0007183859400694279 -7.32323205857613e-05 0.9999997392793003
  outer loop
    vertex 0.03343115170888104 2.000200511836429 67.02028476884732
    vertex 3.5334221966046107 21.50020049460791 67.02384442620752
    vertex 0.032716649170910016 21.500127848289438 67.02197087694955
  endloop
endfacet
facet normal -0.0007183859400694279 -7.32323205857613e-05 0.9999997392793003
  outer loop
    vertex 3.5334221966046107 21.50020049460791 67.02384442620752
    vertex 0.03343115170888104 2.000200511836429 67.02028476884732
    vertex 10.0334286124894 2.000200479799625 67.02741108506753
  endloop
endfacet
facet normal -0.0007183859400694279 -7.32323205857613e-05 0.9999997392793003
  outer loop
    vertex 3.5334221966046107 21.50020049460791 67.02384442620752
    vertex 10.0334286124894 2.000200479799625 67.02741108506753
    vertex 3.5334226421002084 28.500200617097452 67.02322007979913
  endloop
endfacet
facet normal -0.0007183859400694279 -7.32323205857613e-05 0.9999997392793003
  outer loop
    vertex 3.5334226421002084 28.500200617097452 67.02322007979913
    vertex 10.0334286124894 2.000200479799625 67.02741108506753
    vertex 10.03342261775556 4.000200479770474 67.02742007084169
  endloop
endfacet
facet normal -0.0007183859400694279 -7.32323205857613e-05 0.9999997392793003
  outer loop
    vertex 0.033423533091252365 28.50020049538165 67.0219713869584
    vertex 43.033407131656304 46.000200402940706 67.05437020575401
    vertex 0.03341807817362614 46.000200493462714 67.02368803129428
  endloop
endfacet
facet normal -0.0007183859400694279 -7.32323205857613e-05 0.9999997392793003
  outer loop
    vertex 43.033407131656304 46.000200402940706 67.05437020575401
    vertex 0.033423533091252365 28.50020049538165 67.0219713869584
    vertex 3.5334226421002084 28.500200617097452 67.02322007979913
  endloop
endfacet
facet normal -0.0007183859400694279 -7.32323205857613e-05 0.9999997392793003
  outer loop
    vertex 43.033407131656304 46.000200402940706 67.05437020575401
    vertex 3.5334226421002084 28.500200617097452 67.02322007979913
    vertex 10.03342261775556 4.000200479770474 67.02742007084169
  endloop
endfacet
facet normal -0.0007183859400694279 -7.32323205857613e-05 0.9999997392793003
  outer loop
    vertex 43.033407131656304 46.000200402940706 67.05437020575401
    vertex 10.03342261775556 4.000200479770474 67.02742007084169
    vertex 43.03341423833162 4.000200419967332 67.05093691436859
  endloop
endfacet
facet normal -0.9999996486157439 0.00017718511640386252 -0.0008193740436917565
  outer loop
    vertex 0.009586270809612784 0.0 100.47217945812659
    vertex 5.994733838576849e-06 2.000080627267952 87.02092704657508
    vertex 0.035563983451317324 0.00017623136228834822 62.94965765444959
  endloop
endfacet
facet normal -0.9999996486157439 0.00017718511640386252 -0.0008193740436917565
  outer loop
    vertex 5.994733838576849e-06 2.000080627267952 87.02092704657508
    vertex 0.009586270809612784 0.0 100.47217945812659
    vertex 0.009586262266874 3.99999999992717 100.47220343425718
  endloop
endfacet
facet normal -0.9999996486157439 0.00017718511640386252 -0.0008193740436917565
  outer loop
    vertex 5.994733838576849e-06 2.000080627267952 87.02092704657508
    vertex 0.009586262266874 3.99999999992717 100.47220343425718
    vertex 0.0 4.000080627238801 87.02093603234924
  endloop
endfacet
facet normal -0.9999996486157439 0.00017718511640386252 -0.0008193740436917565
  outer loop
    vertex 0.035563983451317324 0.00017623136228834822 62.94965765444959
    vertex 0.03343115170888104 2.000200511836429 67.02028476884732
    vertex 0.03623637982263545 20.750139803592827 62.95652008842331
  endloop
endfacet
facet normal -0.9999996486157439 0.00017718511640386252 -0.0008193740436917565
  outer loop
    vertex 0.03343115170888104 2.000200511836429 67.02028476884732
    vertex 0.035563983451317324 0.00017623136228834822 62.94965765444959
    vertex 5.994733838576849e-06 2.000080627267952 87.02092704657508
  endloop
endfacet
facet normal -0.9999996486157439 0.00017718511640386252 -0.0008193740436917565
  outer loop
    vertex 0.03623637982263545 20.750139803592827 62.95652008842331
    vertex 0.03343115170888104 2.000200511836429 67.02028476884732
    vertex 0.03509802863068714 20.750139902931085 65.02172588496217
  endloop
endfacet
facet normal -0.9999996486157439 0.00017718511640386252 -0.0008193740436917565
  outer loop
    vertex 0.03509802863068714 20.750139902931085 65.02172588496217
    vertex 0.03343115170888104 2.000200511836429 67.02028476884732
    vertex 0.032716649170910016 21.500127848289438 67.02197087694955
  endloop
endfacet
facet normal -0.9999996486157439 0.00017718511640386252 -0.0008193740436917565
  outer loop
    vertex 0.03509802863068714 20.750139902931085 65.02172588496217
    vertex 0.032716649170910016 21.500127848289438 67.02197087694955
    vertex 0.03411767968564803 21.500209902483896 65.02179350694126
  endloop
endfacet
facet normal -0.013596271498088407 0.00017096403408332244 -0.9999075518129911
  outer loop
    vertex 5.885688806586737 48.000222447359285 62.87829318601804
    vertex 0.038116485423261535 29.250152183233105 62.959331215030296
    vertex 0.036311645803071 48.00025638739905 62.96552650421582
  endloop
endfacet
facet normal -0.013596271498088407 0.00017096403408332244 -0.9999075518129911
  outer loop
    vertex 0.038116485423261535 29.250152183233105 62.959331215030296
    vertex 5.885688806586737 48.000222447359285 62.87829318601804
    vertex 4.290312664949774 29.250240814833344 62.900699625542
  endloop
endfacet
facet normal -0.013596271498088407 0.00017096403408332244 -0.9999075518129911
  outer loop
    vertex 4.290312664949774 29.250240814833344 62.900699625542
    vertex 5.885688806586737 48.000222447359285 62.87829318601804
    vertex 4.290316152534974 20.75024097303007 62.89926815022654
  endloop
endfacet
facet normal -0.013596271498088407 0.00017096403408332244 -0.9999075518129911
  outer loop
    vertex 0.03623637982263545 20.750139803592827 62.95652008842331
    vertex 5.885688909101317 0.00022535323647261406 62.87800547246454
    vertex 0.035563983451317324 0.00017623136228834822 62.94965765444959
  endloop
endfacet
facet normal -0.013596271498088407 0.00017096403408332244 -0.9999075518129911
  outer loop
    vertex 5.885688909101317 0.00022535323647261406 62.87800547246454
    vertex 0.03623637982263545 20.750139803592827 62.95652008842331
    vertex 4.290316152534974 20.75024097303007 62.89926815022654
  endloop
endfacet
facet normal -0.013596271498088407 0.00017096403408332244 -0.9999075518129911
  outer loop
    vertex 5.885688909101317 0.00022535323647261406 62.87800547246454
    vertex 4.290316152534974 20.75024097303007 62.89926815022654
    vertex 5.885688806586737 48.000222447359285 62.87829318601804
  endloop
endfacet
facet normal -1.4047835685811166e-05 -0.9999999997025919 1.9936768942649964e-05
  outer loop
    vertex 3.534314408584075 28.50011147664387 65.02373987244786
    vertex 0.033423533091252365 28.50020049538165 67.0219713869584
    vertex 0.03411560267682958 28.50020988027342 65.02233493505832
  endloop
endfacet
facet normal -1.4047835685811166e-05 -0.9999999997025919 1.9936768942649964e-05
  outer loop
    vertex 0.033423533091252365 28.50020049538165 67.0219713869584
    vertex 3.534314408584075 28.50011147664387 65.02373987244786
    vertex 3.5334226421002084 28.500200617097452 67.02322007979913
  endloop
endfacet
facet normal -2.151993924431865e-05 0.999999999758479 4.464777603794027e-06
  outer loop
    vertex 0.038116485423261535 29.250152183233105 62.959331215030296
    vertex 4.29031266508247 29.25023442194343 65.02474332156999
    vertex 4.290312664949774 29.250240814833344 62.900699625542
  endloop
endfacet
facet normal -2.151993924431865e-05 0.999999999758479 4.464777603794027e-06
  outer loop
    vertex 4.29031266508247 29.25023442194343 65.02474332156999
    vertex 0.038116485423261535 29.250152183233105 62.959331215030296
    vertex 0.03529958809585807 29.250139729414766 65.022466073031
  endloop
endfacet
facet normal 3.699151836626003e-06 0.9999999999916056 -1.7621316397460335e-06
  outer loop
    vertex 0.032716649170910016 21.500127848289438 67.02197087694955
    vertex 3.5343139630884775 21.50011135415433 65.02436421885625
    vertex 0.03411767968564803 21.500209902483896 65.02179350694126
  endloop
endfacet
facet normal 3.699151836626003e-06 0.9999999999916056 -1.7621316397460335e-06
  outer loop
    vertex 3.5343139630884775 21.50011135415433 65.02436421885625
    vertex 0.032716649170910016 21.500127848289438 67.02197087694955
    vertex 3.5334221966046107 21.50020049460791 67.02384442620752
  endloop
endfacet
facet normal -2.3006864407242128e-05 0.9999999997341942 1.5152425700976902e-06
  outer loop
    vertex 0.03623637982263545 20.750139803592827 62.95652008842331
    vertex 4.290316152667445 20.75023458992747 65.02400324324066
    vertex 4.290316152534974 20.75024097303007 62.89926815022654
  endloop
endfacet
facet normal -2.3006864407242128e-05 0.9999999997341942 1.5152425700976902e-06
  outer loop
    vertex 4.290316152667445 20.75023458992747 65.02400324324066
    vertex 0.03623637982263545 20.750139803592827 62.95652008842331
    vertex 0.03509802863068714 20.750139902931085 65.02172588496217
  endloop
endfacet
facet normal -0.0007183859400694277 -7.323232058576126e-05 0.9999997392793003
  outer loop
    vertex 0.03343115170888104 2.000200511836429 67.02028476884732
    vertex 3.5334221966046107 21.50020049460791 67.02384442620752
    vertex 0.032716649170910016 21.500127848289438 67.02197087694955
  endloop
endfacet
facet normal -0.0007183859400694277 -7.323232058576126e-05 0.9999997392793003
  outer loop
    vertex 3.5334221966046107 21.50020049460791 67.02384442620752
    vertex 0.03343115170888104 2.000200511836429 67.02028476884732
    vertex 10.0334286124894 2.000200479799625 67.02741108506753
  endloop
endfacet
facet normal -0.0007183859400694277 -7.323232058576126e-05 0.9999997392793003
  outer loop
    vertex 3.5334221966046107 21.50020049460791 67.02384442620752
    vertex 10.0334286124894 2.000200479799625 67.02741108506753
    vertex 3.5334226421002084 28.500200617097452 67.02322007979913
  endloop
endfacet
facet normal -0.0007183859400694277 -7.323232058576126e-05 0.9999997392793003
  outer loop
    vertex 3.5334226421002084 28.500200617097452 67.02322007979913
    vertex 10.0334286124894 2.000200479799625 67.02741108506753
    vertex 10.03342261775556 4.000200479770474 67.02742007084169
  endloop
endfacet
facet normal -0.0007183859400694277 -7.323232058576126e-05 0.9999997392793003
  outer loop
    vertex 0.033423533091252365 28.50020049538165 67.0219713869584
    vertex 43.033407131656304 46.000200402940706 67.05437020575401
    vertex 0.03341807817362614 46.000200493462714 67.02368803129428
  endloop
endfacet
facet normal -0.0007183859400694277 -7.323232058576126e-05 0.9999997392793003
  outer loop
    vertex 43.033407131656304 46.000200402940706 67.05437020575401
    vertex 0.033423533091252365 28.50020049538165 67.0219713869584
    vertex 3.5334226421002084 28.500200617097452 67.02322007979913
  endloop
endfacet
facet normal -0.0007183859400694277 -7.323232058576126e-05 0.9999997392793003
  outer loop
    vertex 43.033407131656304 46.000200402940706 67.05437020575401
    vertex 3.5334226421002084 28.500200617097452 67.02322007979913
    vertex 10.03342261775556 4.000200479770474 67.02742007084169
  endloop
endfacet
facet normal -0.0007183859400694277 -7.323232058576126e-05 0.9999997392793003
  outer loop
    vertex 43.033407131656304 46.000200402940706 67.05437020575401
    vertex 10.03342261775556 4.000200479770474 67.02742007084169
    vertex 43.03341423833162 4.000200419967332 67.05093691436859
  endloop
endfacet
facet normal -0.0005476317668233666 -4.948821189921912e-05 0.9999998488251711
  outer loop
    vertex 0.03509802863068714 20.750139902931085 65.02172588496217
    vertex 3.5343139630884775 21.50011135415433 65.02436421885625
    vertex 0.03411767968564803 21.500209902483896 65.02179350694126
  endloop
endfacet
facet normal -0.0005476317668233666 -4.948821189921912e-05 0.9999998488251711
  outer loop
    vertex 3.5343139630884775 21.50011135415433 65.02436421885625
    vertex 0.03509802863068714 20.750139902931085 65.02172588496217
    vertex 4.290316152667445 20.75023458992747 65.02400324324066
  endloop
endfacet
facet normal -0.0005476317668233666 -4.948821189921912e-05 0.9999998488251711
  outer loop
    vertex 3.5343139630884775 21.50011135415433 65.02436421885625
    vertex 4.290316152667445 20.75023458992747 65.02400324324066
    vertex 3.534314408584075 28.50011147664387 65.02373987244786
  endloop
endfacet
facet normal -0.0005476317668233666 -4.948821189921912e-05 0.9999998488251711
  outer loop
    vertex 3.534314408584075 28.50011147664387 65.02373987244786
    vertex 4.290316152667445 20.75023458992747 65.02400324324066
    vertex 4.29031266508247 29.25023442194343 65.02474332156999
  endloop
endfacet
facet normal -0.0005476317668233666 -4.948821189921912e-05 0.9999998488251711
  outer loop
    vertex 3.534314408584075 28.50011147664387 65.02373987244786
    vertex 0.03529958809585807 29.250139729414766 65.022466073031
    vertex 0.03411560267682958 28.50020988027342 65.02233493505832
  endloop
endfacet
facet normal -0.0005476317668233666 -4.948821189921912e-05 0.9999998488251711
  outer loop
    vertex 0.03529958809585807 29.250139729414766 65.022466073031
    vertex 3.534314408584075 28.50011147664387 65.02373987244786
    vertex 4.29031266508247 29.25023442194343 65.02474332156999
  endloop
endfacet
facet normal 0.9999999999999158 4.103041436155238e-07 -6.117640281702752e-11
  outer loop
    vertex 4.290316152534974 20.75024097303007 62.89926815022654
    vertex 4.29031266508247 29.25023442194343 65.02474332156999
    vertex 4.290316152667445 20.75023458992747 65.02400324324066
  endloop
endfacet
facet normal 0.9999999999999158 4.103041436155238e-07 -6.117640281702752e-11
  outer loop
    vertex 4.29031266508247 29.25023442194343 65.02474332156999
    vertex 4.290316152534974 20.75024097303007 62.89926815022654
    vertex 4.290312664949774 29.250240814833344 62.900699625542
  endloop
endfacet
facet normal -2.997366914866656e-06 0.999999999985415 4.492887080353003e-06
  outer loop
    vertex 5.994733838576849e-06 2.000080627267952 87.02092704657508
    vertex 10.0334286124894 2.000200479799625 67.02741108506753
    vertex 0.03343115170888104 2.000200511836429 67.02028476884732
  endloop
endfacet
facet normal -2.997366914866656e-06 0.999999999985415 4.492887080353003e-06
  outer loop
    vertex 10.0334286124894 2.000200479799625 67.02741108506753
    vertex 5.994733838576849e-06 2.000080627267952 87.02092704657508
    vertex 10.033428612489264 2.0001405428190435 87.02807718262521
  endloop
endfacet
facet normal 0.0007126315951754925 4.495021957896493e-06 -0.9999997460679699
  outer loop
    vertex 10.033422617755425 4.000140542789893 87.02808616839937
    vertex 5.994733838576849e-06 2.000080627267952 87.02092704657508
    vertex 0.0 4.000080627238801 87.02093603234924
  endloop
endfacet
facet normal 0.0007126315951754925 4.495021957896493e-06 -0.9999997460679699
  outer loop
    vertex 5.994733838576849e-06 2.000080627267952 87.02092704657508
    vertex 10.033422617755425 4.000140542789893 87.02808616839937
    vertex 10.033428612489264 2.0001405428190435 87.02807718262521
  endloop
endfacet
facet normal -0.9999999999955079 -2.9973669148565205e-06 -8.989124666382953e-12
  outer loop
    vertex 10.033422617755425 4.000140542789893 87.02808616839937
    vertex 10.0334286124894 2.000200479799625 67.02741108506753
    vertex 10.033428612489264 2.0001405428190435 87.02807718262521
  endloop
endfacet
facet normal -0.9999999999955079 -2.9973669148565205e-06 -8.989124666382953e-12
  outer loop
    vertex 10.0334286124894 2.000200479799625 67.02741108506753
    vertex 10.033422617755425 4.000140542789893 87.02808616839937
    vertex 10.03342261775556 4.000200479770474 67.02742007084169
  endloop
endfacet
facet normal 0.0003980837800763165 3.0570686479664767e-06 -0.999999920759976
  outer loop
    vertex 39.47901979925021 48.00059941024341 0.0005688279737398938
    vertex 39.0811958221961 10.00060231678513 0.0014855701828228427
    vertex 39.081195747622054 46.00060231614326 0.00027333785146135267
  endloop
endfacet
facet normal 0.0003980837800763165 3.0570686479664767e-06 -0.999999920759976
  outer loop
    vertex 39.0811958221961 10.00060231678513 0.0014855701828228427
    vertex 39.47901979925021 48.00059941024341 0.0005688279737398938
    vertex 43.081195143170426 10.000602316822173 0.001485570182823116
  endloop
endfacet
facet normal 0.0003980837800763165 3.0570686479664767e-06 -0.999999920759976
  outer loop
    vertex 43.081195143170426 10.000602316822173 0.001485570182823116
    vertex 39.47901979925021 48.00059941024341 0.0005688279737398938
    vertex 41.081190482096346 46.00060209126171 0.0017097546003592256
  endloop
endfacet
facet normal 0.0003980837800763165 3.0570686479664767e-06 -0.999999920759976
  outer loop
    vertex 41.081190482096346 46.00060209126171 0.0017097546003592256
    vertex 39.47901979925021 48.00059941024341 0.0005688279737398938
    vertex 41.081190251379596 48.000602085566456 0.001722160086541402
  endloop
endfacet
facet normal 0.0003980837800763165 3.0570686479664767e-06 -0.999999920759976
  outer loop
    vertex 43.081195143170426 10.000602316822173 0.001485570182823116
    vertex 41.081190482096346 46.00060209126171 0.0017097546003592256
    vertex 43.08118997425242 46.00060231315219 0.003135017845339738
  endloop
endfacet
facet normal 0.0007190392837591079 3.5018973825012084e-06 -0.9999997414850892
  outer loop
    vertex 43.07975368386093 10.000589530022486 2.001542091719906
    vertex 39.07975438360162 0.0005894139075795465 2.000056521537079
    vertex 39.07975436288661 10.000589529985445 2.0015420917199007
  endloop
endfacet
facet normal 0.0007190392837591079 3.5018973825012084e-06 -0.9999997414850892
  outer loop
    vertex 39.07975438360162 0.0005894139075795465 2.000056521537079
    vertex 43.07975368386093 10.000589530022486 2.001542091719906
    vertex 43.079753359371104 4.000521111249075 2.0029310237469273
  endloop
endfacet
facet normal 0.0007190392837591079 3.5018973825012084e-06 -0.9999997414850892
  outer loop
    vertex 93.57947705745866 48.000593071537544 2.0392046641102968
    vertex 91.57974104415521 4.000521007664442 2.0374936574152853
    vertex 91.57947257690415 48.000593098523495 2.037796965824028
  endloop
endfacet
facet normal 0.0007190392837591079 3.5018973825012084e-06 -0.9999997414850892
  outer loop
    vertex 43.079753359371104 4.000521111249075 2.0029310237469273
    vertex 95.57711177318859 0.00046479484339861753 2.041057084194966
    vertex 39.07975438360162 0.0005894139075795465 2.000056521537079
  endloop
endfacet
facet normal 0.0007190392837591079 3.5018973825012084e-06 -0.9999997414850892
  outer loop
    vertex 95.57711177318859 0.00046479484339861753 2.041057084194966
    vertex 43.079753359371104 4.000521111249075 2.0029310237469273
    vertex 91.57974104415521 4.000521007664442 2.0374936574152853
  endloop
endfacet
facet normal 0.0007190392837591079 3.5018973825012084e-06 -0.9999997414850892
  outer loop
    vertex 95.57711177318859 0.00046479484339861753 2.041057084194966
    vertex 91.57974104415521 4.000521007664442 2.0374936574152853
    vertex 93.58169601767898 46.00049305916901 2.039657266818495
  endloop
endfacet
facet normal 0.0007190392837591079 3.5018973825012084e-06 -0.9999997414850892
  outer loop
    vertex 93.58169601767898 46.00049305916901 2.039657266818495
    vertex 91.57974104415521 4.000521007664442 2.0374936574152853
    vertex 93.57947705745866 48.000593071537544 2.0392046641102968
  endloop
endfacet
facet normal 0.0007190392837591079 3.5018973825012084e-06 -0.9999997414850892
  outer loop
    vertex 95.57711177318859 0.00046479484339861753 2.041057084194966
    vertex 93.58169601767898 46.00049305916901 2.039657266818495
    vertex 95.5777138378031 46.00042982926565 2.0411057921586155
  endloop
endfacet
facet normal 9.260419005140419e-12 -0.9999999999795633 -6.39321915977811e-06
  outer loop
    vertex 43.081195143170426 10.000602316822173 0.001485570182823116
    vertex 39.07975436288661 10.000589529985445 2.0015420917199007
    vertex 39.0811958221961 10.00060231678513 0.0014855701828228427
  endloop
endfacet
facet normal 9.260419005140419e-12 -0.9999999999795633 -6.39321915977811e-06
  outer loop
    vertex 39.07975436288661 10.000589529985445 2.0015420917199007
    vertex 43.081195143170426 10.000602316822173 0.001485570182823116
    vertex 43.07975368386093 10.000589530022486 2.001542091719906
  endloop
endfacet
endsolid Structure - Front Right - Exterior
